# MagicaVoxel @ Ephtracy

# group
o 

# material
mtllib Flat top 2.mtl
usemtl palette

# normals
vn -1 0 0
vn 1 0 0
vn 0 0 1
vn 0 0 -1
vn 0 -1 0
vn 0 1 0

# texcoords
vt 0.412109 0.5
vt 0.916016 0.5
vt 0.919922 0.5
vt 0.927734 0.5
vt 0.978516 0.5
vt 0.982422 0.5

# verts
v 3.2 4.1 -3
v 3.2 4.1 -9.8
v 3.2 4.5 -3
v 3.2 4.5 -9.8
v 3.4 2.1 -3.2
v 3.4 2.1 -9.6
v 3.4 2.3 -3.9
v 3.4 2.3 -4.9
v 3.4 2.3 -5.9
v 3.4 2.3 -6.9
v 3.4 2.3 -7.9
v 3.4 2.3 -8.9
v 3.4 4 -3.9
v 3.4 4 -4.9
v 3.4 4 -5.9
v 3.4 4 -6.9
v 3.4 4 -7.9
v 3.4 4 -8.9
v 3.4 4.1 -3.2
v 3.4 4.1 -9.6
v 3.6 2.3 -3.9
v 3.6 2.3 -4.9
v 3.6 2.3 -5.9
v 3.6 2.3 -6.9
v 3.6 2.3 -7.9
v 3.6 2.3 -8.9
v 3.6 4 -3.9
v 3.6 4 -4.9
v 3.6 4 -5.9
v 3.6 4 -6.9
v 3.6 4 -7.9
v 3.6 4 -8.9
v 3.9 4.3 -8
v 3.9 4.3 -8.4
v 3.9 4.3 -8.7
v 3.9 4.3 -9.1
v 3.9 4.7 -8
v 3.9 4.7 -8.4
v 3.9 4.9 -8
v 3.9 4.9 -8.4
v 3.9 5 -8.7
v 3.9 5 -9.1
v 3.9 5.2 -8.7
v 3.9 5.2 -9.1
v 5.1 2.3 -3.2
v 5.1 2.3 -3.4
v 5.1 4 -3.2
v 5.1 4 -3.4
v 5.3 2.3 -9.4
v 5.3 2.3 -9.6
v 5.3 4 -9.4
v 5.3 4 -9.6
v 7.1 2.3 -3.2
v 7.1 2.3 -3.4
v 7.1 4 -3.2
v 7.1 4 -3.4
v 7.3 2.3 -9.4
v 7.3 2.3 -9.6
v 7.3 4 -9.4
v 7.3 4 -9.6
v 7.6 4.3 -7.4
v 7.6 4.3 -8.8
v 7.6 4.6 -7.4
v 7.6 4.6 -8.8
v 9.1 2.3 -3.2
v 9.1 2.3 -3.4
v 9.1 4 -3.2
v 9.1 4 -3.4
v 9.3 2.3 -9.4
v 9.3 2.3 -9.6
v 9.3 4 -9.4
v 9.3 4 -9.6
v 9.6 4.3 -3.4
v 9.6 4.3 -9.4
v 9.6 4.5 -3.4
v 9.6 4.5 -9.4
v 3.6 4.3 -3.4
v 3.6 4.3 -9.4
v 3.6 4.5 -3.4
v 3.6 4.5 -9.4
v 4.1 2.3 -3.2
v 4.1 2.3 -3.4
v 4.1 4 -3.2
v 4.1 4 -3.4
v 4.3 2.3 -9.4
v 4.3 2.3 -9.6
v 4.3 4 -9.4
v 4.3 4 -9.6
v 4.3 4.3 -8
v 4.3 4.3 -8.4
v 4.3 4.3 -8.7
v 4.3 4.3 -9.1
v 4.3 4.7 -8
v 4.3 4.7 -8.4
v 4.3 4.9 -8
v 4.3 4.9 -8.4
v 4.3 5 -8.7
v 4.3 5 -9.1
v 4.3 5.2 -8.7
v 4.3 5.2 -9.1
v 6.1 2.3 -3.2
v 6.1 2.3 -3.4
v 6.1 4 -3.2
v 6.1 4 -3.4
v 6.3 2.3 -9.4
v 6.3 2.3 -9.6
v 6.3 4 -9.4
v 6.3 4 -9.6
v 8.1 2.3 -3.2
v 8.1 2.3 -3.4
v 8.1 4 -3.2
v 8.1 4 -3.4
v 8.3 2.3 -9.4
v 8.3 2.3 -9.6
v 8.3 4 -9.4
v 8.3 4 -9.6
v 9 4.3 -7.4
v 9 4.3 -8.8
v 9 4.6 -7.4
v 9 4.6 -8.8
v 9.6 2.3 -3.9
v 9.6 2.3 -4.9
v 9.6 2.3 -5.9
v 9.6 2.3 -6.9
v 9.6 2.3 -7.9
v 9.6 2.3 -8.9
v 9.6 4 -3.9
v 9.6 4 -4.9
v 9.6 4 -5.9
v 9.6 4 -6.9
v 9.6 4 -7.9
v 9.6 4 -8.9
v 9.8 2.1 -3.2
v 9.8 2.1 -9.6
v 9.8 2.3 -3.9
v 9.8 2.3 -4.9
v 9.8 2.3 -5.9
v 9.8 2.3 -6.9
v 9.8 2.3 -7.9
v 9.8 2.3 -8.9
v 9.8 4 -3.9
v 9.8 4 -4.9
v 9.8 4 -5.9
v 9.8 4 -6.9
v 9.8 4 -7.9
v 9.8 4 -8.9
v 9.8 4.1 -3.2
v 9.8 4.1 -9.6
v 10 4.1 -3
v 10 4.1 -9.8
v 10 4.5 -3
v 10 4.5 -9.8
v 3.2 4.1 -3
v 3.2 4.5 -3
v 10 4.1 -3
v 10 4.5 -3
v 3.4 2.1 -3.2
v 3.4 4.1 -3.2
v 4.1 2.3 -3.2
v 4.1 4 -3.2
v 5.1 2.3 -3.2
v 5.1 4 -3.2
v 6.1 2.3 -3.2
v 6.1 4 -3.2
v 7.1 2.3 -3.2
v 7.1 4 -3.2
v 8.1 2.3 -3.2
v 8.1 4 -3.2
v 9.1 2.3 -3.2
v 9.1 4 -3.2
v 9.8 2.1 -3.2
v 9.8 4.1 -3.2
v 4.1 2.3 -3.4
v 4.1 4 -3.4
v 5.1 2.3 -3.4
v 5.1 4 -3.4
v 6.1 2.3 -3.4
v 6.1 4 -3.4
v 7.1 2.3 -3.4
v 7.1 4 -3.4
v 8.1 2.3 -3.4
v 8.1 4 -3.4
v 9.1 2.3 -3.4
v 9.1 4 -3.4
v 3.4 2.3 -4.9
v 3.4 4 -4.9
v 3.6 2.3 -4.9
v 3.6 4 -4.9
v 9.6 2.3 -4.9
v 9.6 4 -4.9
v 9.8 2.3 -4.9
v 9.8 4 -4.9
v 3.4 2.3 -6.9
v 3.4 4 -6.9
v 3.6 2.3 -6.9
v 3.6 4 -6.9
v 9.6 2.3 -6.9
v 9.6 4 -6.9
v 9.8 2.3 -6.9
v 9.8 4 -6.9
v 7.6 4.3 -7.4
v 7.6 4.6 -7.4
v 9 4.3 -7.4
v 9 4.6 -7.4
v 3.9 4.3 -8
v 3.9 4.7 -8
v 3.9 4.9 -8
v 4.3 4.3 -8
v 4.3 4.7 -8
v 4.3 4.9 -8
v 3.9 4.3 -8.7
v 3.9 5 -8.7
v 3.9 5.2 -8.7
v 4.3 4.3 -8.7
v 4.3 5 -8.7
v 4.3 5.2 -8.7
v 3.4 2.3 -8.9
v 3.4 4 -8.9
v 3.6 2.3 -8.9
v 3.6 4 -8.9
v 9.6 2.3 -8.9
v 9.6 4 -8.9
v 9.8 2.3 -8.9
v 9.8 4 -8.9
v 3.6 4.3 -9.4
v 3.6 4.5 -9.4
v 9.6 4.3 -9.4
v 9.6 4.5 -9.4
v 3.6 4.3 -3.4
v 3.6 4.5 -3.4
v 9.6 4.3 -3.4
v 9.6 4.5 -3.4
v 3.4 2.3 -3.9
v 3.4 4 -3.9
v 3.6 2.3 -3.9
v 3.6 4 -3.9
v 9.6 2.3 -3.9
v 9.6 4 -3.9
v 9.8 2.3 -3.9
v 9.8 4 -3.9
v 3.4 2.3 -5.9
v 3.4 4 -5.9
v 3.6 2.3 -5.9
v 3.6 4 -5.9
v 9.6 2.3 -5.9
v 9.6 4 -5.9
v 9.8 2.3 -5.9
v 9.8 4 -5.9
v 3.4 2.3 -7.9
v 3.4 4 -7.9
v 3.6 2.3 -7.9
v 3.6 4 -7.9
v 9.6 2.3 -7.9
v 9.6 4 -7.9
v 9.8 2.3 -7.9
v 9.8 4 -7.9
v 3.9 4.3 -8.4
v 3.9 4.7 -8.4
v 3.9 4.9 -8.4
v 4.3 4.3 -8.4
v 4.3 4.7 -8.4
v 4.3 4.9 -8.4
v 7.6 4.3 -8.8
v 7.6 4.6 -8.8
v 9 4.3 -8.8
v 9 4.6 -8.8
v 3.9 4.3 -9.1
v 3.9 5 -9.1
v 3.9 5.2 -9.1
v 4.3 4.3 -9.1
v 4.3 5 -9.1
v 4.3 5.2 -9.1
v 4.3 2.3 -9.4
v 4.3 4 -9.4
v 5.3 2.3 -9.4
v 5.3 4 -9.4
v 6.3 2.3 -9.4
v 6.3 4 -9.4
v 7.3 2.3 -9.4
v 7.3 4 -9.4
v 8.3 2.3 -9.4
v 8.3 4 -9.4
v 9.3 2.3 -9.4
v 9.3 4 -9.4
v 3.4 2.1 -9.6
v 3.4 4.1 -9.6
v 4.3 2.3 -9.6
v 4.3 4 -9.6
v 5.3 2.3 -9.6
v 5.3 4 -9.6
v 6.3 2.3 -9.6
v 6.3 4 -9.6
v 7.3 2.3 -9.6
v 7.3 4 -9.6
v 8.3 2.3 -9.6
v 8.3 4 -9.6
v 9.3 2.3 -9.6
v 9.3 4 -9.6
v 9.8 2.1 -9.6
v 9.8 4.1 -9.6
v 3.2 4.1 -9.8
v 3.2 4.5 -9.8
v 10 4.1 -9.8
v 10 4.5 -9.8
v 3.4 2.1 -3.2
v 9.8 2.1 -3.2
v 4.1 2.1 -3.3
v 5.1 2.1 -3.3
v 4.1 2.1 -3.4
v 5.1 2.1 -3.4
v 3.4 2.1 -9.6
v 9.8 2.1 -9.6
v 4.1 4 -3.2
v 5.1 4 -3.2
v 6.1 4 -3.2
v 7.1 4 -3.2
v 8.1 4 -3.2
v 9.1 4 -3.2
v 4.1 4 -3.4
v 5.1 4 -3.4
v 6.1 4 -3.4
v 7.1 4 -3.4
v 8.1 4 -3.4
v 9.1 4 -3.4
v 3.4 4 -3.9
v 3.6 4 -3.9
v 9.6 4 -3.9
v 9.8 4 -3.9
v 3.4 4 -4.9
v 3.6 4 -4.9
v 9.6 4 -4.9
v 9.8 4 -4.9
v 3.4 4 -5.9
v 3.6 4 -5.9
v 9.6 4 -5.9
v 9.8 4 -5.9
v 3.4 4 -6.9
v 3.6 4 -6.9
v 9.6 4 -6.9
v 9.8 4 -6.9
v 3.4 4 -7.9
v 3.6 4 -7.9
v 9.6 4 -7.9
v 9.8 4 -7.9
v 3.4 4 -8.9
v 3.6 4 -8.9
v 9.6 4 -8.9
v 9.8 4 -8.9
v 4.3 4 -9.4
v 5.3 4 -9.4
v 6.3 4 -9.4
v 7.3 4 -9.4
v 8.3 4 -9.4
v 9.3 4 -9.4
v 4.3 4 -9.6
v 5.3 4 -9.6
v 6.3 4 -9.6
v 7.3 4 -9.6
v 8.3 4 -9.6
v 9.3 4 -9.6
v 3.2 4.1 -3
v 10 4.1 -3
v 3.4 4.1 -3.2
v 9.8 4.1 -3.2
v 3.4 4.1 -9.6
v 9.8 4.1 -9.6
v 3.2 4.1 -9.8
v 10 4.1 -9.8
v 4.1 2.3 -3.2
v 5.1 2.3 -3.2
v 6.1 2.3 -3.2
v 7.1 2.3 -3.2
v 8.1 2.3 -3.2
v 9.1 2.3 -3.2
v 4.1 2.3 -3.4
v 5.1 2.3 -3.4
v 6.1 2.3 -3.4
v 7.1 2.3 -3.4
v 8.1 2.3 -3.4
v 9.1 2.3 -3.4
v 3.4 2.3 -3.9
v 3.6 2.3 -3.9
v 9.6 2.3 -3.9
v 9.8 2.3 -3.9
v 3.4 2.3 -4.9
v 3.6 2.3 -4.9
v 9.6 2.3 -4.9
v 9.8 2.3 -4.9
v 3.4 2.3 -5.9
v 3.6 2.3 -5.9
v 9.6 2.3 -5.9
v 9.8 2.3 -5.9
v 3.4 2.3 -6.9
v 3.6 2.3 -6.9
v 9.6 2.3 -6.9
v 9.8 2.3 -6.9
v 3.4 2.3 -7.9
v 3.6 2.3 -7.9
v 9.6 2.3 -7.9
v 9.8 2.3 -7.9
v 3.4 2.3 -8.9
v 3.6 2.3 -8.9
v 9.6 2.3 -8.9
v 9.8 2.3 -8.9
v 4.3 2.3 -9.4
v 5.3 2.3 -9.4
v 6.3 2.3 -9.4
v 7.3 2.3 -9.4
v 8.3 2.3 -9.4
v 9.3 2.3 -9.4
v 4.3 2.3 -9.6
v 5.3 2.3 -9.6
v 6.3 2.3 -9.6
v 7.3 2.3 -9.6
v 8.3 2.3 -9.6
v 9.3 2.3 -9.6
v 3.6 4.3 -3.4
v 9.6 4.3 -3.4
v 7.6 4.3 -7.4
v 9 4.3 -7.4
v 3.9 4.3 -8
v 4.3 4.3 -8
v 3.9 4.3 -8.4
v 4.3 4.3 -8.4
v 3.9 4.3 -8.7
v 4.3 4.3 -8.7
v 7.6 4.3 -8.8
v 9 4.3 -8.8
v 3.9 4.3 -9.1
v 4.3 4.3 -9.1
v 3.6 4.3 -9.4
v 9.6 4.3 -9.4
v 3.2 4.5 -3
v 10 4.5 -3
v 3.6 4.5 -3.4
v 9.6 4.5 -3.4
v 3.6 4.5 -9.4
v 9.6 4.5 -9.4
v 3.2 4.5 -9.8
v 10 4.5 -9.8
v 7.6 4.6 -7.4
v 9 4.6 -7.4
v 8 4.6 -7.6
v 8.6 4.6 -7.6
v 7.8 4.6 -7.8
v 8 4.6 -7.8
v 8.6 4.6 -7.8
v 8.8 4.6 -7.8
v 7.8 4.6 -8.4
v 8 4.6 -8.4
v 8.6 4.6 -8.4
v 8.8 4.6 -8.4
v 8 4.6 -8.6
v 8.6 4.6 -8.6
v 7.6 4.6 -8.8
v 9 4.6 -8.8
v 3.9 4.9 -8
v 4.3 4.9 -8
v 3.9 4.9 -8.4
v 4.3 4.9 -8.4
v 3.9 5.2 -8.7
v 4.3 5.2 -8.7
v 3.9 5.2 -9.1
v 4.3 5.2 -9.1

# faces
f 3/2/1 2/2/1 1/2/1
f 4/2/1 2/2/1 3/2/1
f 7/1/1 6/1/1 5/1/1
f 8/1/1 6/1/1 7/1/1
f 9/1/1 6/1/1 8/1/1
f 10/1/1 6/1/1 9/1/1
f 11/1/1 6/1/1 10/1/1
f 12/1/1 6/1/1 11/1/1
f 13/1/1 7/1/1 5/1/1
f 14/1/1 9/1/1 8/1/1
f 15/1/1 9/1/1 14/1/1
f 16/1/1 11/1/1 10/1/1
f 17/1/1 11/1/1 16/1/1
f 18/1/1 6/1/1 12/1/1
f 19/1/1 17/1/1 16/1/1
f 19/1/1 18/1/1 17/1/1
f 19/1/1 15/1/1 14/1/1
f 19/1/1 13/1/1 5/1/1
f 19/1/1 16/1/1 15/1/1
f 19/1/1 14/1/1 13/1/1
f 20/1/1 6/1/1 18/1/1
f 20/1/1 18/1/1 19/1/1
f 27/4/1 22/4/1 21/4/1
f 28/4/1 22/4/1 27/4/1
f 29/4/1 24/4/1 23/4/1
f 30/4/1 24/4/1 29/4/1
f 31/4/1 26/4/1 25/4/1
f 32/4/1 26/4/1 31/4/1
f 37/5/1 34/5/1 33/5/1
f 38/5/1 34/5/1 37/5/1
f 39/6/1 38/6/1 37/6/1
f 40/6/1 38/6/1 39/6/1
f 41/5/1 36/5/1 35/5/1
f 42/5/1 36/5/1 41/5/1
f 43/6/1 42/6/1 41/6/1
f 44/6/1 42/6/1 43/6/1
f 47/1/1 46/1/1 45/1/1
f 48/1/1 46/1/1 47/1/1
f 51/1/1 50/1/1 49/1/1
f 52/1/1 50/1/1 51/1/1
f 55/1/1 54/1/1 53/1/1
f 56/1/1 54/1/1 55/1/1
f 59/1/1 58/1/1 57/1/1
f 60/1/1 58/1/1 59/1/1
f 63/5/1 62/5/1 61/5/1
f 64/5/1 62/5/1 63/5/1
f 67/1/1 66/1/1 65/1/1
f 68/1/1 66/1/1 67/1/1
f 71/1/1 70/1/1 69/1/1
f 72/1/1 70/1/1 71/1/1
f 75/2/1 74/2/1 73/2/1
f 76/2/1 74/2/1 75/2/1
f 77/2/2 78/2/2 79/2/2
f 79/2/2 78/2/2 80/2/2
f 81/1/2 82/1/2 83/1/2
f 83/1/2 82/1/2 84/1/2
f 85/1/2 86/1/2 87/1/2
f 87/1/2 86/1/2 88/1/2
f 89/5/2 90/5/2 93/5/2
f 93/5/2 90/5/2 94/5/2
f 93/6/2 94/6/2 95/6/2
f 95/6/2 94/6/2 96/6/2
f 91/5/2 92/5/2 97/5/2
f 97/5/2 92/5/2 98/5/2
f 97/6/2 98/6/2 99/6/2
f 99/6/2 98/6/2 100/6/2
f 101/1/2 102/1/2 103/1/2
f 103/1/2 102/1/2 104/1/2
f 105/1/2 106/1/2 107/1/2
f 107/1/2 106/1/2 108/1/2
f 109/1/2 110/1/2 111/1/2
f 111/1/2 110/1/2 112/1/2
f 113/1/2 114/1/2 115/1/2
f 115/1/2 114/1/2 116/1/2
f 117/5/2 118/5/2 119/5/2
f 119/5/2 118/5/2 120/5/2
f 121/4/2 122/4/2 127/4/2
f 127/4/2 122/4/2 128/4/2
f 123/4/2 124/4/2 129/4/2
f 129/4/2 124/4/2 130/4/2
f 125/4/2 126/4/2 131/4/2
f 131/4/2 126/4/2 132/4/2
f 133/1/2 134/1/2 135/1/2
f 135/1/2 134/1/2 136/1/2
f 136/1/2 134/1/2 137/1/2
f 137/1/2 134/1/2 138/1/2
f 138/1/2 134/1/2 139/1/2
f 139/1/2 134/1/2 140/1/2
f 133/1/2 135/1/2 141/1/2
f 136/1/2 137/1/2 142/1/2
f 142/1/2 137/1/2 143/1/2
f 138/1/2 139/1/2 144/1/2
f 144/1/2 139/1/2 145/1/2
f 140/1/2 134/1/2 146/1/2
f 144/1/2 145/1/2 147/1/2
f 145/1/2 146/1/2 147/1/2
f 142/1/2 143/1/2 147/1/2
f 133/1/2 141/1/2 147/1/2
f 143/1/2 144/1/2 147/1/2
f 141/1/2 142/1/2 147/1/2
f 146/1/2 134/1/2 148/1/2
f 147/1/2 146/1/2 148/1/2
f 149/2/2 150/2/2 151/2/2
f 151/2/2 150/2/2 152/2/2
f 155/2/3 154/2/3 153/2/3
f 156/2/3 154/2/3 155/2/3
f 159/1/3 158/1/3 157/1/3
f 160/1/3 158/1/3 159/1/3
f 161/1/3 159/1/3 157/1/3
f 162/1/3 158/1/3 160/1/3
f 163/1/3 161/1/3 157/1/3
f 163/1/3 162/1/3 161/1/3
f 164/1/3 158/1/3 162/1/3
f 164/1/3 162/1/3 163/1/3
f 165/1/3 163/1/3 157/1/3
f 166/1/3 158/1/3 164/1/3
f 167/1/3 165/1/3 157/1/3
f 167/1/3 166/1/3 165/1/3
f 168/1/3 158/1/3 166/1/3
f 168/1/3 166/1/3 167/1/3
f 169/1/3 167/1/3 157/1/3
f 170/1/3 158/1/3 168/1/3
f 171/1/3 169/1/3 157/1/3
f 171/1/3 170/1/3 169/1/3
f 172/1/3 158/1/3 170/1/3
f 172/1/3 170/1/3 171/1/3
f 175/4/3 174/4/3 173/4/3
f 176/4/3 174/4/3 175/4/3
f 179/4/3 178/4/3 177/4/3
f 180/4/3 178/4/3 179/4/3
f 183/4/3 182/4/3 181/4/3
f 184/4/3 182/4/3 183/4/3
f 187/1/3 186/1/3 185/1/3
f 188/1/3 186/1/3 187/1/3
f 191/1/3 190/1/3 189/1/3
f 192/1/3 190/1/3 191/1/3
f 195/1/3 194/1/3 193/1/3
f 196/1/3 194/1/3 195/1/3
f 199/1/3 198/1/3 197/1/3
f 200/1/3 198/1/3 199/1/3
f 203/5/3 202/5/3 201/5/3
f 204/5/3 202/5/3 203/5/3
f 208/5/3 206/5/3 205/5/3
f 209/6/3 207/6/3 206/6/3
f 209/5/3 206/5/3 208/5/3
f 210/6/3 207/6/3 209/6/3
f 214/5/3 212/5/3 211/5/3
f 215/6/3 213/6/3 212/6/3
f 215/5/3 212/5/3 214/5/3
f 216/6/3 213/6/3 215/6/3
f 219/1/3 218/1/3 217/1/3
f 220/1/3 218/1/3 219/1/3
f 223/1/3 222/1/3 221/1/3
f 224/1/3 222/1/3 223/1/3
f 227/2/3 226/2/3 225/2/3
f 228/2/3 226/2/3 227/2/3
f 229/2/4 230/2/4 231/2/4
f 231/2/4 230/2/4 232/2/4
f 233/1/4 234/1/4 235/1/4
f 235/1/4 234/1/4 236/1/4
f 237/1/4 238/1/4 239/1/4
f 239/1/4 238/1/4 240/1/4
f 241/1/4 242/1/4 243/1/4
f 243/1/4 242/1/4 244/1/4
f 245/1/4 246/1/4 247/1/4
f 247/1/4 246/1/4 248/1/4
f 249/1/4 250/1/4 251/1/4
f 251/1/4 250/1/4 252/1/4
f 253/1/4 254/1/4 255/1/4
f 255/1/4 254/1/4 256/1/4
f 257/5/4 258/5/4 260/5/4
f 258/6/4 259/6/4 261/6/4
f 260/5/4 258/5/4 261/5/4
f 261/6/4 259/6/4 262/6/4
f 263/5/4 264/5/4 265/5/4
f 265/5/4 264/5/4 266/5/4
f 267/5/4 268/5/4 270/5/4
f 268/6/4 269/6/4 271/6/4
f 270/5/4 268/5/4 271/5/4
f 271/6/4 269/6/4 272/6/4
f 273/4/4 274/4/4 275/4/4
f 275/4/4 274/4/4 276/4/4
f 277/4/4 278/4/4 279/4/4
f 279/4/4 278/4/4 280/4/4
f 281/4/4 282/4/4 283/4/4
f 283/4/4 282/4/4 284/4/4
f 285/1/4 286/1/4 287/1/4
f 287/1/4 286/1/4 288/1/4
f 285/1/4 287/1/4 289/1/4
f 288/1/4 286/1/4 290/1/4
f 285/1/4 289/1/4 291/1/4
f 289/1/4 290/1/4 291/1/4
f 290/1/4 286/1/4 292/1/4
f 291/1/4 290/1/4 292/1/4
f 285/1/4 291/1/4 293/1/4
f 292/1/4 286/1/4 294/1/4
f 285/1/4 293/1/4 295/1/4
f 293/1/4 294/1/4 295/1/4
f 294/1/4 286/1/4 296/1/4
f 295/1/4 294/1/4 296/1/4
f 285/1/4 295/1/4 297/1/4
f 296/1/4 286/1/4 298/1/4
f 285/1/4 297/1/4 299/1/4
f 297/1/4 298/1/4 299/1/4
f 298/1/4 286/1/4 300/1/4
f 299/1/4 298/1/4 300/1/4
f 301/2/4 302/2/4 303/2/4
f 303/2/4 302/2/4 304/2/4
f 307/1/5 306/1/5 305/1/5
f 308/1/5 306/1/5 307/1/5
f 309/1/5 307/1/5 305/1/5
f 309/5/5 308/5/5 307/5/5
f 310/1/5 306/1/5 308/1/5
f 310/5/5 308/5/5 309/5/5
f 311/1/5 309/1/5 305/1/5
f 311/1/5 310/1/5 309/1/5
f 312/1/5 306/1/5 310/1/5
f 312/1/5 310/1/5 311/1/5
f 319/1/5 314/1/5 313/1/5
f 320/1/5 314/1/5 319/1/5
f 321/1/5 316/1/5 315/1/5
f 322/1/5 316/1/5 321/1/5
f 323/1/5 318/1/5 317/1/5
f 324/1/5 318/1/5 323/1/5
f 329/1/5 326/1/5 325/1/5
f 330/1/5 326/1/5 329/1/5
f 331/1/5 328/1/5 327/1/5
f 332/1/5 328/1/5 331/1/5
f 337/1/5 334/1/5 333/1/5
f 338/1/5 334/1/5 337/1/5
f 339/1/5 336/1/5 335/1/5
f 340/1/5 336/1/5 339/1/5
f 345/1/5 342/1/5 341/1/5
f 346/1/5 342/1/5 345/1/5
f 347/1/5 344/1/5 343/1/5
f 348/1/5 344/1/5 347/1/5
f 355/1/5 350/1/5 349/1/5
f 356/1/5 350/1/5 355/1/5
f 357/1/5 352/1/5 351/1/5
f 358/1/5 352/1/5 357/1/5
f 359/1/5 354/1/5 353/1/5
f 360/1/5 354/1/5 359/1/5
f 363/2/5 362/2/5 361/2/5
f 364/2/5 362/2/5 363/2/5
f 365/2/5 363/2/5 361/2/5
f 366/2/5 362/2/5 364/2/5
f 367/2/5 365/2/5 361/2/5
f 367/2/5 366/2/5 365/2/5
f 368/2/5 362/2/5 366/2/5
f 368/2/5 366/2/5 367/2/5
f 369/1/6 370/1/6 375/1/6
f 375/1/6 370/1/6 376/1/6
f 371/1/6 372/1/6 377/1/6
f 377/1/6 372/1/6 378/1/6
f 373/1/6 374/1/6 379/1/6
f 379/1/6 374/1/6 380/1/6
f 381/1/6 382/1/6 385/1/6
f 385/1/6 382/1/6 386/1/6
f 383/1/6 384/1/6 387/1/6
f 387/1/6 384/1/6 388/1/6
f 389/1/6 390/1/6 393/1/6
f 393/1/6 390/1/6 394/1/6
f 391/1/6 392/1/6 395/1/6
f 395/1/6 392/1/6 396/1/6
f 397/1/6 398/1/6 401/1/6
f 401/1/6 398/1/6 402/1/6
f 399/1/6 400/1/6 403/1/6
f 403/1/6 400/1/6 404/1/6
f 405/1/6 406/1/6 411/1/6
f 411/1/6 406/1/6 412/1/6
f 407/1/6 408/1/6 413/1/6
f 413/1/6 408/1/6 414/1/6
f 409/1/6 410/1/6 415/1/6
f 415/1/6 410/1/6 416/1/6
f 417/3/6 418/3/6 419/3/6
f 419/3/6 418/3/6 420/3/6
f 417/3/6 419/3/6 421/3/6
f 421/3/6 419/3/6 422/3/6
f 417/3/6 421/3/6 423/3/6
f 422/3/6 419/3/6 424/3/6
f 417/3/6 423/3/6 425/3/6
f 423/3/6 424/3/6 425/3/6
f 424/3/6 419/3/6 426/3/6
f 425/3/6 424/3/6 426/3/6
f 426/3/6 419/3/6 427/3/6
f 420/3/6 418/3/6 428/3/6
f 417/3/6 425/3/6 429/3/6
f 426/3/6 427/3/6 430/3/6
f 427/3/6 428/3/6 430/3/6
f 417/3/6 429/3/6 431/3/6
f 429/3/6 430/3/6 431/3/6
f 430/3/6 428/3/6 432/3/6
f 431/3/6 430/3/6 432/3/6
f 428/3/6 418/3/6 432/3/6
f 433/2/6 434/2/6 435/2/6
f 435/2/6 434/2/6 436/2/6
f 433/2/6 435/2/6 437/2/6
f 436/2/6 434/2/6 438/2/6
f 433/2/6 437/2/6 439/2/6
f 437/2/6 438/2/6 439/2/6
f 438/2/6 434/2/6 440/2/6
f 439/2/6 438/2/6 440/2/6
f 441/5/6 442/5/6 443/5/6
f 443/5/6 442/5/6 444/5/6
f 441/5/6 443/5/6 445/5/6
f 443/6/6 444/6/6 446/6/6
f 445/5/6 443/5/6 446/5/6
f 444/5/6 442/5/6 447/5/6
f 446/6/6 444/6/6 447/6/6
f 447/5/6 442/5/6 448/5/6
f 445/6/6 446/6/6 449/6/6
f 441/5/6 445/5/6 449/5/6
f 447/6/6 448/6/6 449/6/6
f 446/6/6 447/6/6 449/6/6
f 449/6/6 448/6/6 450/6/6
f 450/6/6 448/6/6 451/6/6
f 448/5/6 442/5/6 452/5/6
f 451/6/6 448/6/6 452/6/6
f 450/6/6 451/6/6 453/6/6
f 449/5/6 450/5/6 453/5/6
f 451/5/6 452/5/6 454/5/6
f 453/6/6 451/6/6 454/6/6
f 441/5/6 449/5/6 455/5/6
f 449/5/6 453/5/6 455/5/6
f 453/5/6 454/5/6 455/5/6
f 452/5/6 442/5/6 456/5/6
f 455/5/6 454/5/6 456/5/6
f 454/5/6 452/5/6 456/5/6
f 457/6/6 458/6/6 459/6/6
f 459/6/6 458/6/6 460/6/6
f 461/6/6 462/6/6 463/6/6
f 463/6/6 462/6/6 464/6/6
