# MagicaVoxel @ Ephtracy

# group
o 

# material
mtllib Flat top.mtl
usemtl palette

# normals
vn -1 0 0
vn 1 0 0
vn 0 0 1
vn 0 0 -1
vn 0 -1 0
vn 0 1 0

# texcoords
vt 0.205078 0.5
vt 0.654297 0.5
vt 0.916016 0.5
vt 0.919922 0.5
vt 0.927734 0.5
vt 0.978516 0.5
vt 0.982422 0.5

# verts
v 3.2 4.1 -3
v 3.2 4.1 -9.8
v 3.2 4.5 -3
v 3.2 4.5 -9.8
v 3.3 2.5 -3.9
v 3.3 2.5 -4.9
v 3.3 2.5 -5.9
v 3.3 2.5 -6.9
v 3.3 2.5 -7.9
v 3.3 2.5 -8.9
v 3.3 2.7 -3.9
v 3.3 2.7 -4.9
v 3.3 2.7 -5.9
v 3.3 2.7 -6.9
v 3.3 2.7 -7.9
v 3.3 2.7 -8.9
v 3.4 2.1 -3.2
v 3.4 2.1 -9.6
v 3.4 2.5 -3.9
v 3.4 2.5 -4.9
v 3.4 2.5 -5.9
v 3.4 2.5 -6.9
v 3.4 2.5 -7.9
v 3.4 2.5 -8.9
v 3.4 2.7 -3.9
v 3.4 2.7 -4.9
v 3.4 2.7 -5.9
v 3.4 2.7 -6.9
v 3.4 2.7 -7.9
v 3.4 2.7 -8.9
v 3.4 3.9 -3.9
v 3.4 3.9 -4.9
v 3.4 3.9 -5.9
v 3.4 3.9 -6.9
v 3.4 3.9 -7.9
v 3.4 3.9 -8.9
v 3.4 4.1 -3.2
v 3.4 4.1 -9.6
v 3.6 2.7 -3.9
v 3.6 2.7 -4.9
v 3.6 2.7 -5.9
v 3.6 2.7 -6.9
v 3.6 2.7 -7.9
v 3.6 2.7 -8.9
v 3.6 3.9 -3.9
v 3.6 3.9 -4.9
v 3.6 3.9 -5.9
v 3.6 3.9 -6.9
v 3.6 3.9 -7.9
v 3.6 3.9 -8.9
v 3.9 4.3 -3.7
v 3.9 4.3 -4.1
v 3.9 5 -3.7
v 3.9 5 -4.1
v 3.9 5.2 -3.7
v 3.9 5.2 -4.1
v 4.1 2.5 -3.1
v 4.1 2.5 -3.2
v 4.1 2.7 -3.1
v 4.1 2.7 -3.2
v 4.3 2.5 -9.6
v 4.3 2.5 -9.7
v 4.3 2.7 -9.6
v 4.3 2.7 -9.7
v 5.1 2.7 -3.2
v 5.1 2.7 -3.4
v 5.1 3.9 -3.2
v 5.1 3.9 -3.4
v 5.3 2.7 -9.4
v 5.3 2.7 -9.6
v 5.3 3.9 -9.4
v 5.3 3.9 -9.6
v 6.1 2.5 -3.1
v 6.1 2.5 -3.2
v 6.1 2.7 -3.1
v 6.1 2.7 -3.2
v 6.3 2.5 -9.6
v 6.3 2.5 -9.7
v 6.3 2.7 -9.6
v 6.3 2.7 -9.7
v 7.1 2.7 -3.2
v 7.1 2.7 -3.4
v 7.1 3.9 -3.2
v 7.1 3.9 -3.4
v 7.3 2.7 -9.4
v 7.3 2.7 -9.6
v 7.3 3.9 -9.4
v 7.3 3.9 -9.6
v 7.6 4.3 -7.4
v 7.6 4.3 -8.8
v 7.6 4.6 -7.4
v 7.6 4.6 -8.8
v 8.1 2.5 -3.1
v 8.1 2.5 -3.2
v 8.1 2.7 -3.1
v 8.1 2.7 -3.2
v 8.3 2.5 -9.6
v 8.3 2.5 -9.7
v 8.3 2.7 -9.6
v 8.3 2.7 -9.7
v 9.1 2.7 -3.2
v 9.1 2.7 -3.4
v 9.1 3.9 -3.2
v 9.1 3.9 -3.4
v 9.3 2.7 -9.4
v 9.3 2.7 -9.6
v 9.3 3.9 -9.4
v 9.3 3.9 -9.6
v 9.6 4.3 -3.4
v 9.6 4.3 -9.4
v 9.6 4.5 -3.4
v 9.6 4.5 -9.4
v 3.6 4.3 -3.4
v 3.6 4.3 -9.4
v 3.6 4.5 -3.4
v 3.6 4.5 -9.4
v 4.1 2.7 -3.2
v 4.1 2.7 -3.4
v 4.1 3.9 -3.2
v 4.1 3.9 -3.4
v 4.3 2.7 -9.4
v 4.3 2.7 -9.6
v 4.3 3.9 -9.4
v 4.3 3.9 -9.6
v 4.3 4.3 -3.7
v 4.3 4.3 -4.1
v 4.3 5 -3.7
v 4.3 5 -4.1
v 4.3 5.2 -3.7
v 4.3 5.2 -4.1
v 5.1 2.5 -3.1
v 5.1 2.5 -3.2
v 5.1 2.7 -3.1
v 5.1 2.7 -3.2
v 5.3 2.5 -9.6
v 5.3 2.5 -9.7
v 5.3 2.7 -9.6
v 5.3 2.7 -9.7
v 6.1 2.7 -3.2
v 6.1 2.7 -3.4
v 6.1 3.9 -3.2
v 6.1 3.9 -3.4
v 6.3 2.7 -9.4
v 6.3 2.7 -9.6
v 6.3 3.9 -9.4
v 6.3 3.9 -9.6
v 7.1 2.5 -3.1
v 7.1 2.5 -3.2
v 7.1 2.7 -3.1
v 7.1 2.7 -3.2
v 7.3 2.5 -9.6
v 7.3 2.5 -9.7
v 7.3 2.7 -9.6
v 7.3 2.7 -9.7
v 8.1 2.7 -3.2
v 8.1 2.7 -3.4
v 8.1 3.9 -3.2
v 8.1 3.9 -3.4
v 8.3 2.7 -9.4
v 8.3 2.7 -9.6
v 8.3 3.9 -9.4
v 8.3 3.9 -9.6
v 9 4.3 -7.4
v 9 4.3 -8.8
v 9 4.6 -7.4
v 9 4.6 -8.8
v 9.1 2.5 -3.1
v 9.1 2.5 -3.2
v 9.1 2.7 -3.1
v 9.1 2.7 -3.2
v 9.3 2.5 -9.6
v 9.3 2.5 -9.7
v 9.3 2.7 -9.6
v 9.3 2.7 -9.7
v 9.6 2.7 -3.9
v 9.6 2.7 -4.9
v 9.6 2.7 -5.9
v 9.6 2.7 -6.9
v 9.6 2.7 -7.9
v 9.6 2.7 -8.9
v 9.6 3.9 -3.9
v 9.6 3.9 -4.9
v 9.6 3.9 -5.9
v 9.6 3.9 -6.9
v 9.6 3.9 -7.9
v 9.6 3.9 -8.9
v 9.8 2.1 -3.2
v 9.8 2.1 -9.6
v 9.8 2.5 -3.9
v 9.8 2.5 -4.9
v 9.8 2.5 -5.9
v 9.8 2.5 -6.9
v 9.8 2.5 -7.9
v 9.8 2.5 -8.9
v 9.8 2.7 -3.9
v 9.8 2.7 -4.9
v 9.8 2.7 -5.9
v 9.8 2.7 -6.9
v 9.8 2.7 -7.9
v 9.8 2.7 -8.9
v 9.8 3.9 -3.9
v 9.8 3.9 -4.9
v 9.8 3.9 -5.9
v 9.8 3.9 -6.9
v 9.8 3.9 -7.9
v 9.8 3.9 -8.9
v 9.8 4.1 -3.2
v 9.8 4.1 -9.6
v 9.9 2.5 -3.9
v 9.9 2.5 -4.9
v 9.9 2.5 -5.9
v 9.9 2.5 -6.9
v 9.9 2.5 -7.9
v 9.9 2.5 -8.9
v 9.9 2.7 -3.9
v 9.9 2.7 -4.9
v 9.9 2.7 -5.9
v 9.9 2.7 -6.9
v 9.9 2.7 -7.9
v 9.9 2.7 -8.9
v 10 4.1 -3
v 10 4.1 -9.8
v 10 4.5 -3
v 10 4.5 -9.8
v 3.2 4.1 -3
v 3.2 4.5 -3
v 10 4.1 -3
v 10 4.5 -3
v 4.1 2.5 -3.1
v 4.1 2.7 -3.1
v 5.1 2.5 -3.1
v 5.1 2.7 -3.1
v 6.1 2.5 -3.1
v 6.1 2.7 -3.1
v 7.1 2.5 -3.1
v 7.1 2.7 -3.1
v 8.1 2.5 -3.1
v 8.1 2.7 -3.1
v 9.1 2.5 -3.1
v 9.1 2.7 -3.1
v 3.4 2.1 -3.2
v 3.4 4.1 -3.2
v 4.1 2.5 -3.2
v 4.1 2.7 -3.2
v 4.1 3.9 -3.2
v 5.1 2.5 -3.2
v 5.1 2.7 -3.2
v 5.1 3.9 -3.2
v 6.1 2.5 -3.2
v 6.1 2.7 -3.2
v 6.1 3.9 -3.2
v 7.1 2.5 -3.2
v 7.1 2.7 -3.2
v 7.1 3.9 -3.2
v 8.1 2.5 -3.2
v 8.1 2.7 -3.2
v 8.1 3.9 -3.2
v 9.1 2.5 -3.2
v 9.1 2.7 -3.2
v 9.1 3.9 -3.2
v 9.8 2.1 -3.2
v 9.8 4.1 -3.2
v 4.1 2.7 -3.4
v 4.1 3.9 -3.4
v 5.1 2.7 -3.4
v 5.1 3.9 -3.4
v 6.1 2.7 -3.4
v 6.1 3.9 -3.4
v 7.1 2.7 -3.4
v 7.1 3.9 -3.4
v 8.1 2.7 -3.4
v 8.1 3.9 -3.4
v 9.1 2.7 -3.4
v 9.1 3.9 -3.4
v 3.9 4.3 -3.7
v 3.9 5 -3.7
v 3.9 5.2 -3.7
v 4.3 4.3 -3.7
v 4.3 5 -3.7
v 4.3 5.2 -3.7
v 3.3 2.5 -3.9
v 3.3 2.7 -3.9
v 3.4 2.5 -3.9
v 3.4 2.7 -3.9
v 9.8 2.5 -3.9
v 9.8 2.7 -3.9
v 9.9 2.5 -3.9
v 9.9 2.7 -3.9
v 3.4 2.7 -4.9
v 3.4 3.9 -4.9
v 3.6 2.7 -4.9
v 3.6 3.9 -4.9
v 9.6 2.7 -4.9
v 9.6 3.9 -4.9
v 9.8 2.7 -4.9
v 9.8 3.9 -4.9
v 3.3 2.5 -5.9
v 3.3 2.7 -5.9
v 3.4 2.5 -5.9
v 3.4 2.7 -5.9
v 9.8 2.5 -5.9
v 9.8 2.7 -5.9
v 9.9 2.5 -5.9
v 9.9 2.7 -5.9
v 3.4 2.7 -6.9
v 3.4 3.9 -6.9
v 3.6 2.7 -6.9
v 3.6 3.9 -6.9
v 9.6 2.7 -6.9
v 9.6 3.9 -6.9
v 9.8 2.7 -6.9
v 9.8 3.9 -6.9
v 7.6 4.3 -7.4
v 7.6 4.6 -7.4
v 9 4.3 -7.4
v 9 4.6 -7.4
v 3.3 2.5 -7.9
v 3.3 2.7 -7.9
v 3.4 2.5 -7.9
v 3.4 2.7 -7.9
v 9.8 2.5 -7.9
v 9.8 2.7 -7.9
v 9.9 2.5 -7.9
v 9.9 2.7 -7.9
v 3.4 2.7 -8.9
v 3.4 3.9 -8.9
v 3.6 2.7 -8.9
v 3.6 3.9 -8.9
v 9.6 2.7 -8.9
v 9.6 3.9 -8.9
v 9.8 2.7 -8.9
v 9.8 3.9 -8.9
v 3.6 4.3 -9.4
v 3.6 4.5 -9.4
v 9.6 4.3 -9.4
v 9.6 4.5 -9.4
v 3.6 4.3 -3.4
v 3.6 4.5 -3.4
v 9.6 4.3 -3.4
v 9.6 4.5 -3.4
v 3.4 2.7 -3.9
v 3.4 3.9 -3.9
v 3.6 2.7 -3.9
v 3.6 3.9 -3.9
v 9.6 2.7 -3.9
v 9.6 3.9 -3.9
v 9.8 2.7 -3.9
v 9.8 3.9 -3.9
v 3.9 4.3 -4.1
v 3.9 5 -4.1
v 3.9 5.2 -4.1
v 4.3 4.3 -4.1
v 4.3 5 -4.1
v 4.3 5.2 -4.1
v 3.3 2.5 -4.9
v 3.3 2.7 -4.9
v 3.4 2.5 -4.9
v 3.4 2.7 -4.9
v 9.8 2.5 -4.9
v 9.8 2.7 -4.9
v 9.9 2.5 -4.9
v 9.9 2.7 -4.9
v 3.4 2.7 -5.9
v 3.4 3.9 -5.9
v 3.6 2.7 -5.9
v 3.6 3.9 -5.9
v 9.6 2.7 -5.9
v 9.6 3.9 -5.9
v 9.8 2.7 -5.9
v 9.8 3.9 -5.9
v 3.3 2.5 -6.9
v 3.3 2.7 -6.9
v 3.4 2.5 -6.9
v 3.4 2.7 -6.9
v 9.8 2.5 -6.9
v 9.8 2.7 -6.9
v 9.9 2.5 -6.9
v 9.9 2.7 -6.9
v 3.4 2.7 -7.9
v 3.4 3.9 -7.9
v 3.6 2.7 -7.9
v 3.6 3.9 -7.9
v 9.6 2.7 -7.9
v 9.6 3.9 -7.9
v 9.8 2.7 -7.9
v 9.8 3.9 -7.9
v 7.6 4.3 -8.8
v 7.6 4.6 -8.8
v 9 4.3 -8.8
v 9 4.6 -8.8
v 3.3 2.5 -8.9
v 3.3 2.7 -8.9
v 3.4 2.5 -8.9
v 3.4 2.7 -8.9
v 9.8 2.5 -8.9
v 9.8 2.7 -8.9
v 9.9 2.5 -8.9
v 9.9 2.7 -8.9
v 4.3 2.7 -9.4
v 4.3 3.9 -9.4
v 5.3 2.7 -9.4
v 5.3 3.9 -9.4
v 6.3 2.7 -9.4
v 6.3 3.9 -9.4
v 7.3 2.7 -9.4
v 7.3 3.9 -9.4
v 8.3 2.7 -9.4
v 8.3 3.9 -9.4
v 9.3 2.7 -9.4
v 9.3 3.9 -9.4
v 3.4 2.1 -9.6
v 3.4 4.1 -9.6
v 4.3 2.5 -9.6
v 4.3 2.7 -9.6
v 4.3 3.9 -9.6
v 5.3 2.5 -9.6
v 5.3 2.7 -9.6
v 5.3 3.9 -9.6
v 6.3 2.5 -9.6
v 6.3 2.7 -9.6
v 6.3 3.9 -9.6
v 7.3 2.5 -9.6
v 7.3 2.7 -9.6
v 7.3 3.9 -9.6
v 8.3 2.5 -9.6
v 8.3 2.7 -9.6
v 8.3 3.9 -9.6
v 9.3 2.5 -9.6
v 9.3 2.7 -9.6
v 9.3 3.9 -9.6
v 9.8 2.1 -9.6
v 9.8 4.1 -9.6
v 4.3 2.5 -9.7
v 4.3 2.7 -9.7
v 5.3 2.5 -9.7
v 5.3 2.7 -9.7
v 6.3 2.5 -9.7
v 6.3 2.7 -9.7
v 7.3 2.5 -9.7
v 7.3 2.7 -9.7
v 8.3 2.5 -9.7
v 8.3 2.7 -9.7
v 9.3 2.5 -9.7
v 9.3 2.7 -9.7
v 3.2 4.1 -9.8
v 3.2 4.5 -9.8
v 10 4.1 -9.8
v 10 4.5 -9.8
v 3.4 2.1 -3.2
v 9.8 2.1 -3.2
v 4.1 2.1 -3.3
v 5.1 2.1 -3.3
v 4.1 2.1 -3.4
v 5.1 2.1 -3.4
v 3.4 2.1 -9.6
v 9.8 2.1 -9.6
v 4.1 2.5 -3.1
v 5.1 2.5 -3.1
v 6.1 2.5 -3.1
v 7.1 2.5 -3.1
v 8.1 2.5 -3.1
v 9.1 2.5 -3.1
v 4.1 2.5 -3.2
v 5.1 2.5 -3.2
v 6.1 2.5 -3.2
v 7.1 2.5 -3.2
v 8.1 2.5 -3.2
v 9.1 2.5 -3.2
v 3.3 2.5 -3.9
v 3.4 2.5 -3.9
v 9.8 2.5 -3.9
v 9.9 2.5 -3.9
v 3.3 2.5 -4.9
v 3.4 2.5 -4.9
v 9.8 2.5 -4.9
v 9.9 2.5 -4.9
v 3.3 2.5 -5.9
v 3.4 2.5 -5.9
v 9.8 2.5 -5.9
v 9.9 2.5 -5.9
v 3.3 2.5 -6.9
v 3.4 2.5 -6.9
v 9.8 2.5 -6.9
v 9.9 2.5 -6.9
v 3.3 2.5 -7.9
v 3.4 2.5 -7.9
v 9.8 2.5 -7.9
v 9.9 2.5 -7.9
v 3.3 2.5 -8.9
v 3.4 2.5 -8.9
v 9.8 2.5 -8.9
v 9.9 2.5 -8.9
v 4.3 2.5 -9.6
v 5.3 2.5 -9.6
v 6.3 2.5 -9.6
v 7.3 2.5 -9.6
v 8.3 2.5 -9.6
v 9.3 2.5 -9.6
v 4.3 2.5 -9.7
v 5.3 2.5 -9.7
v 6.3 2.5 -9.7
v 7.3 2.5 -9.7
v 8.3 2.5 -9.7
v 9.3 2.5 -9.7
v 4.1 3.9 -3.2
v 5.1 3.9 -3.2
v 6.1 3.9 -3.2
v 7.1 3.9 -3.2
v 8.1 3.9 -3.2
v 9.1 3.9 -3.2
v 4.1 3.9 -3.4
v 5.1 3.9 -3.4
v 6.1 3.9 -3.4
v 7.1 3.9 -3.4
v 8.1 3.9 -3.4
v 9.1 3.9 -3.4
v 3.4 3.9 -3.9
v 3.6 3.9 -3.9
v 9.6 3.9 -3.9
v 9.8 3.9 -3.9
v 3.4 3.9 -4.9
v 3.6 3.9 -4.9
v 9.6 3.9 -4.9
v 9.8 3.9 -4.9
v 3.4 3.9 -5.9
v 3.6 3.9 -5.9
v 9.6 3.9 -5.9
v 9.8 3.9 -5.9
v 3.4 3.9 -6.9
v 3.6 3.9 -6.9
v 9.6 3.9 -6.9
v 9.8 3.9 -6.9
v 3.4 3.9 -7.9
v 3.6 3.9 -7.9
v 9.6 3.9 -7.9
v 9.8 3.9 -7.9
v 3.4 3.9 -8.9
v 3.6 3.9 -8.9
v 9.6 3.9 -8.9
v 9.8 3.9 -8.9
v 4.3 3.9 -9.4
v 5.3 3.9 -9.4
v 6.3 3.9 -9.4
v 7.3 3.9 -9.4
v 8.3 3.9 -9.4
v 9.3 3.9 -9.4
v 4.3 3.9 -9.6
v 5.3 3.9 -9.6
v 6.3 3.9 -9.6
v 7.3 3.9 -9.6
v 8.3 3.9 -9.6
v 9.3 3.9 -9.6
v 3.2 4.1 -3
v 10 4.1 -3
v 3.4 4.1 -3.2
v 9.8 4.1 -3.2
v 3.4 4.1 -9.6
v 9.8 4.1 -9.6
v 3.2 4.1 -9.8
v 10 4.1 -9.8
v 4.1 2.7 -3.1
v 5.1 2.7 -3.1
v 6.1 2.7 -3.1
v 7.1 2.7 -3.1
v 8.1 2.7 -3.1
v 9.1 2.7 -3.1
v 4.1 2.7 -3.2
v 5.1 2.7 -3.2
v 6.1 2.7 -3.2
v 7.1 2.7 -3.2
v 8.1 2.7 -3.2
v 9.1 2.7 -3.2
v 4.1 2.7 -3.4
v 5.1 2.7 -3.4
v 6.1 2.7 -3.4
v 7.1 2.7 -3.4
v 8.1 2.7 -3.4
v 9.1 2.7 -3.4
v 3.3 2.7 -3.9
v 3.4 2.7 -3.9
v 3.6 2.7 -3.9
v 9.6 2.7 -3.9
v 9.8 2.7 -3.9
v 9.9 2.7 -3.9
v 3.3 2.7 -4.9
v 3.4 2.7 -4.9
v 3.6 2.7 -4.9
v 9.6 2.7 -4.9
v 9.8 2.7 -4.9
v 9.9 2.7 -4.9
v 3.3 2.7 -5.9
v 3.4 2.7 -5.9
v 3.6 2.7 -5.9
v 9.6 2.7 -5.9
v 9.8 2.7 -5.9
v 9.9 2.7 -5.9
v 3.3 2.7 -6.9
v 3.4 2.7 -6.9
v 3.6 2.7 -6.9
v 9.6 2.7 -6.9
v 9.8 2.7 -6.9
v 9.9 2.7 -6.9
v 3.3 2.7 -7.9
v 3.4 2.7 -7.9
v 3.6 2.7 -7.9
v 9.6 2.7 -7.9
v 9.8 2.7 -7.9
v 9.9 2.7 -7.9
v 3.3 2.7 -8.9
v 3.4 2.7 -8.9
v 3.6 2.7 -8.9
v 9.6 2.7 -8.9
v 9.8 2.7 -8.9
v 9.9 2.7 -8.9
v 4.3 2.7 -9.4
v 5.3 2.7 -9.4
v 6.3 2.7 -9.4
v 7.3 2.7 -9.4
v 8.3 2.7 -9.4
v 9.3 2.7 -9.4
v 4.3 2.7 -9.6
v 5.3 2.7 -9.6
v 6.3 2.7 -9.6
v 7.3 2.7 -9.6
v 8.3 2.7 -9.6
v 9.3 2.7 -9.6
v 4.3 2.7 -9.7
v 5.3 2.7 -9.7
v 6.3 2.7 -9.7
v 7.3 2.7 -9.7
v 8.3 2.7 -9.7
v 9.3 2.7 -9.7
v 3.6 4.3 -3.4
v 9.6 4.3 -3.4
v 3.9 4.3 -3.7
v 4.3 4.3 -3.7
v 3.9 4.3 -4.1
v 4.3 4.3 -4.1
v 7.6 4.3 -7.4
v 9 4.3 -7.4
v 7.6 4.3 -8.8
v 9 4.3 -8.8
v 3.6 4.3 -9.4
v 9.6 4.3 -9.4
v 3.2 4.5 -3
v 10 4.5 -3
v 3.6 4.5 -3.4
v 9.6 4.5 -3.4
v 3.6 4.5 -9.4
v 9.6 4.5 -9.4
v 3.2 4.5 -9.8
v 10 4.5 -9.8
v 7.6 4.6 -7.4
v 9 4.6 -7.4
v 8 4.6 -7.6
v 8.6 4.6 -7.6
v 7.8 4.6 -7.8
v 8 4.6 -7.8
v 8.6 4.6 -7.8
v 8.8 4.6 -7.8
v 7.8 4.6 -8.4
v 8 4.6 -8.4
v 8.6 4.6 -8.4
v 8.8 4.6 -8.4
v 8 4.6 -8.6
v 8.6 4.6 -8.6
v 7.6 4.6 -8.8
v 9 4.6 -8.8
v 3.9 5.2 -3.7
v 4.3 5.2 -3.7
v 3.9 5.2 -4.1
v 4.3 5.2 -4.1

# faces
f 3/3/1 2/3/1 1/3/1
f 4/3/1 2/3/1 3/3/1
f 11/3/1 6/3/1 5/3/1
f 12/3/1 6/3/1 11/3/1
f 13/3/1 8/3/1 7/3/1
f 14/3/1 8/3/1 13/3/1
f 15/3/1 10/3/1 9/3/1
f 16/3/1 10/3/1 15/3/1
f 19/1/1 18/1/1 17/1/1
f 20/1/1 18/1/1 19/1/1
f 21/1/1 18/1/1 20/1/1
f 22/1/1 18/1/1 21/1/1
f 23/1/1 18/1/1 22/1/1
f 24/1/1 18/1/1 23/1/1
f 25/1/1 19/1/1 17/1/1
f 26/1/1 21/1/1 20/1/1
f 27/1/1 21/1/1 26/1/1
f 28/1/1 23/1/1 22/1/1
f 29/1/1 23/1/1 28/1/1
f 30/1/1 18/1/1 24/1/1
f 31/1/1 25/1/1 17/1/1
f 32/1/1 27/1/1 26/1/1
f 33/1/1 27/1/1 32/1/1
f 34/1/1 29/1/1 28/1/1
f 35/1/1 29/1/1 34/1/1
f 36/1/1 18/1/1 30/1/1
f 37/1/1 33/1/1 32/1/1
f 37/1/1 36/1/1 35/1/1
f 37/1/1 31/1/1 17/1/1
f 37/1/1 35/1/1 34/1/1
f 37/1/1 34/1/1 33/1/1
f 37/1/1 32/1/1 31/1/1
f 38/1/1 18/1/1 36/1/1
f 38/1/1 36/1/1 37/1/1
f 45/5/1 40/5/1 39/5/1
f 46/5/1 40/5/1 45/5/1
f 47/5/1 42/5/1 41/5/1
f 48/5/1 42/5/1 47/5/1
f 49/5/1 44/5/1 43/5/1
f 50/5/1 44/5/1 49/5/1
f 53/6/1 52/6/1 51/6/1
f 54/6/1 52/6/1 53/6/1
f 55/7/1 54/7/1 53/7/1
f 56/7/1 54/7/1 55/7/1
f 59/3/1 58/3/1 57/3/1
f 60/3/1 58/3/1 59/3/1
f 63/3/1 62/3/1 61/3/1
f 64/3/1 62/3/1 63/3/1
f 67/1/1 66/1/1 65/1/1
f 68/1/1 66/1/1 67/1/1
f 71/1/1 70/1/1 69/1/1
f 72/1/1 70/1/1 71/1/1
f 75/3/1 74/3/1 73/3/1
f 76/3/1 74/3/1 75/3/1
f 79/3/1 78/3/1 77/3/1
f 80/3/1 78/3/1 79/3/1
f 83/1/1 82/1/1 81/1/1
f 84/1/1 82/1/1 83/1/1
f 87/1/1 86/1/1 85/1/1
f 88/1/1 86/1/1 87/1/1
f 91/6/1 90/6/1 89/6/1
f 92/6/1 90/6/1 91/6/1
f 95/3/1 94/3/1 93/3/1
f 96/3/1 94/3/1 95/3/1
f 99/3/1 98/3/1 97/3/1
f 100/3/1 98/3/1 99/3/1
f 103/1/1 102/1/1 101/1/1
f 104/1/1 102/1/1 103/1/1
f 107/1/1 106/1/1 105/1/1
f 108/1/1 106/1/1 107/1/1
f 111/3/1 110/3/1 109/3/1
f 112/3/1 110/3/1 111/3/1
f 113/3/2 114/3/2 115/3/2
f 115/3/2 114/3/2 116/3/2
f 117/1/2 118/1/2 119/1/2
f 119/1/2 118/1/2 120/1/2
f 121/1/2 122/1/2 123/1/2
f 123/1/2 122/1/2 124/1/2
f 125/6/2 126/6/2 127/6/2
f 127/6/2 126/6/2 128/6/2
f 127/7/2 128/7/2 129/7/2
f 129/7/2 128/7/2 130/7/2
f 131/3/2 132/3/2 133/3/2
f 133/3/2 132/3/2 134/3/2
f 135/3/2 136/3/2 137/3/2
f 137/3/2 136/3/2 138/3/2
f 139/1/2 140/1/2 141/1/2
f 141/1/2 140/1/2 142/1/2
f 143/1/2 144/1/2 145/1/2
f 145/1/2 144/1/2 146/1/2
f 147/3/2 148/3/2 149/3/2
f 149/3/2 148/3/2 150/3/2
f 151/3/2 152/3/2 153/3/2
f 153/3/2 152/3/2 154/3/2
f 155/1/2 156/1/2 157/1/2
f 157/1/2 156/1/2 158/1/2
f 159/1/2 160/1/2 161/1/2
f 161/1/2 160/1/2 162/1/2
f 163/6/2 164/6/2 165/6/2
f 165/6/2 164/6/2 166/6/2
f 167/3/2 168/3/2 169/3/2
f 169/3/2 168/3/2 170/3/2
f 171/3/2 172/3/2 173/3/2
f 173/3/2 172/3/2 174/3/2
f 175/5/2 176/5/2 181/5/2
f 181/5/2 176/5/2 182/5/2
f 177/5/2 178/5/2 183/5/2
f 183/5/2 178/5/2 184/5/2
f 179/5/2 180/5/2 185/5/2
f 185/5/2 180/5/2 186/5/2
f 187/1/2 188/1/2 189/1/2
f 189/1/2 188/1/2 190/1/2
f 190/1/2 188/1/2 191/1/2
f 191/1/2 188/1/2 192/1/2
f 192/1/2 188/1/2 193/1/2
f 193/1/2 188/1/2 194/1/2
f 187/1/2 189/1/2 195/1/2
f 190/1/2 191/1/2 196/1/2
f 196/1/2 191/1/2 197/1/2
f 192/1/2 193/1/2 198/1/2
f 198/1/2 193/1/2 199/1/2
f 194/1/2 188/1/2 200/1/2
f 187/1/2 195/1/2 201/1/2
f 196/1/2 197/1/2 202/1/2
f 202/1/2 197/1/2 203/1/2
f 198/1/2 199/1/2 204/1/2
f 204/1/2 199/1/2 205/1/2
f 200/1/2 188/1/2 206/1/2
f 202/1/2 203/1/2 207/1/2
f 205/1/2 206/1/2 207/1/2
f 187/1/2 201/1/2 207/1/2
f 204/1/2 205/1/2 207/1/2
f 203/1/2 204/1/2 207/1/2
f 201/1/2 202/1/2 207/1/2
f 206/1/2 188/1/2 208/1/2
f 207/1/2 206/1/2 208/1/2
f 209/3/2 210/3/2 215/3/2
f 215/3/2 210/3/2 216/3/2
f 211/3/2 212/3/2 217/3/2
f 217/3/2 212/3/2 218/3/2
f 213/3/2 214/3/2 219/3/2
f 219/3/2 214/3/2 220/3/2
f 221/3/2 222/3/2 223/3/2
f 223/3/2 222/3/2 224/3/2
f 227/3/3 226/3/3 225/3/3
f 228/3/3 226/3/3 227/3/3
f 231/3/3 230/3/3 229/3/3
f 232/3/3 230/3/3 231/3/3
f 235/3/3 234/3/3 233/3/3
f 236/3/3 234/3/3 235/3/3
f 239/3/3 238/3/3 237/3/3
f 240/3/3 238/3/3 239/3/3
f 243/1/3 242/1/3 241/1/3
f 244/1/3 242/1/3 243/1/3
f 245/1/3 242/1/3 244/1/3
f 246/1/3 243/1/3 241/1/3
f 248/1/3 242/1/3 245/1/3
f 249/1/3 247/1/3 246/1/3
f 249/1/3 248/1/3 247/1/3
f 249/1/3 246/1/3 241/1/3
f 250/1/3 248/1/3 249/1/3
f 251/1/3 242/1/3 248/1/3
f 251/1/3 248/1/3 250/1/3
f 252/1/3 249/1/3 241/1/3
f 254/1/3 242/1/3 251/1/3
f 255/1/3 253/1/3 252/1/3
f 255/1/3 254/1/3 253/1/3
f 255/1/3 252/1/3 241/1/3
f 256/1/3 254/1/3 255/1/3
f 257/1/3 242/1/3 254/1/3
f 257/1/3 254/1/3 256/1/3
f 258/1/3 255/1/3 241/1/3
f 260/1/3 242/1/3 257/1/3
f 261/1/3 259/1/3 258/1/3
f 261/1/3 260/1/3 259/1/3
f 261/1/3 258/1/3 241/1/3
f 262/1/3 242/1/3 260/1/3
f 262/1/3 260/1/3 261/1/3
f 265/5/3 264/5/3 263/5/3
f 266/5/3 264/5/3 265/5/3
f 269/5/3 268/5/3 267/5/3
f 270/5/3 268/5/3 269/5/3
f 273/5/3 272/5/3 271/5/3
f 274/5/3 272/5/3 273/5/3
f 278/6/3 276/6/3 275/6/3
f 279/7/3 277/7/3 276/7/3
f 279/6/3 276/6/3 278/6/3
f 280/7/3 277/7/3 279/7/3
f 283/3/3 282/3/3 281/3/3
f 284/3/3 282/3/3 283/3/3
f 287/3/3 286/3/3 285/3/3
f 288/3/3 286/3/3 287/3/3
f 291/1/3 290/1/3 289/1/3
f 292/1/3 290/1/3 291/1/3
f 295/1/3 294/1/3 293/1/3
f 296/1/3 294/1/3 295/1/3
f 299/3/3 298/3/3 297/3/3
f 300/3/3 298/3/3 299/3/3
f 303/3/3 302/3/3 301/3/3
f 304/3/3 302/3/3 303/3/3
f 307/1/3 306/1/3 305/1/3
f 308/1/3 306/1/3 307/1/3
f 311/1/3 310/1/3 309/1/3
f 312/1/3 310/1/3 311/1/3
f 315/6/3 314/6/3 313/6/3
f 316/6/3 314/6/3 315/6/3
f 319/3/3 318/3/3 317/3/3
f 320/3/3 318/3/3 319/3/3
f 323/3/3 322/3/3 321/3/3
f 324/3/3 322/3/3 323/3/3
f 327/1/3 326/1/3 325/1/3
f 328/1/3 326/1/3 327/1/3
f 331/1/3 330/1/3 329/1/3
f 332/1/3 330/1/3 331/1/3
f 335/3/3 334/3/3 333/3/3
f 336/3/3 334/3/3 335/3/3
f 337/3/4 338/3/4 339/3/4
f 339/3/4 338/3/4 340/3/4
f 341/1/4 342/1/4 343/1/4
f 343/1/4 342/1/4 344/1/4
f 345/1/4 346/1/4 347/1/4
f 347/1/4 346/1/4 348/1/4
f 349/6/4 350/6/4 352/6/4
f 350/7/4 351/7/4 353/7/4
f 352/6/4 350/6/4 353/6/4
f 353/7/4 351/7/4 354/7/4
f 355/3/4 356/3/4 357/3/4
f 357/3/4 356/3/4 358/3/4
f 359/3/4 360/3/4 361/3/4
f 361/3/4 360/3/4 362/3/4
f 363/1/4 364/1/4 365/1/4
f 365/1/4 364/1/4 366/1/4
f 367/1/4 368/1/4 369/1/4
f 369/1/4 368/1/4 370/1/4
f 371/3/4 372/3/4 373/3/4
f 373/3/4 372/3/4 374/3/4
f 375/3/4 376/3/4 377/3/4
f 377/3/4 376/3/4 378/3/4
f 379/1/4 380/1/4 381/1/4
f 381/1/4 380/1/4 382/1/4
f 383/1/4 384/1/4 385/1/4
f 385/1/4 384/1/4 386/1/4
f 387/6/4 388/6/4 389/6/4
f 389/6/4 388/6/4 390/6/4
f 391/3/4 392/3/4 393/3/4
f 393/3/4 392/3/4 394/3/4
f 395/3/4 396/3/4 397/3/4
f 397/3/4 396/3/4 398/3/4
f 399/5/4 400/5/4 401/5/4
f 401/5/4 400/5/4 402/5/4
f 403/5/4 404/5/4 405/5/4
f 405/5/4 404/5/4 406/5/4
f 407/5/4 408/5/4 409/5/4
f 409/5/4 408/5/4 410/5/4
f 411/1/4 412/1/4 413/1/4
f 413/1/4 412/1/4 414/1/4
f 414/1/4 412/1/4 415/1/4
f 411/1/4 413/1/4 416/1/4
f 415/1/4 412/1/4 418/1/4
f 416/1/4 417/1/4 419/1/4
f 417/1/4 418/1/4 419/1/4
f 411/1/4 416/1/4 419/1/4
f 419/1/4 418/1/4 420/1/4
f 418/1/4 412/1/4 421/1/4
f 420/1/4 418/1/4 421/1/4
f 411/1/4 419/1/4 422/1/4
f 421/1/4 412/1/4 424/1/4
f 422/1/4 423/1/4 425/1/4
f 423/1/4 424/1/4 425/1/4
f 411/1/4 422/1/4 425/1/4
f 425/1/4 424/1/4 426/1/4
f 424/1/4 412/1/4 427/1/4
f 426/1/4 424/1/4 427/1/4
f 411/1/4 425/1/4 428/1/4
f 427/1/4 412/1/4 430/1/4
f 428/1/4 429/1/4 431/1/4
f 429/1/4 430/1/4 431/1/4
f 411/1/4 428/1/4 431/1/4
f 430/1/4 412/1/4 432/1/4
f 431/1/4 430/1/4 432/1/4
f 433/3/4 434/3/4 435/3/4
f 435/3/4 434/3/4 436/3/4
f 437/3/4 438/3/4 439/3/4
f 439/3/4 438/3/4 440/3/4
f 441/3/4 442/3/4 443/3/4
f 443/3/4 442/3/4 444/3/4
f 445/3/4 446/3/4 447/3/4
f 447/3/4 446/3/4 448/3/4
f 451/1/5 450/1/5 449/1/5
f 452/1/5 450/1/5 451/1/5
f 453/1/5 451/1/5 449/1/5
f 453/6/5 452/6/5 451/6/5
f 454/1/5 450/1/5 452/1/5
f 454/6/5 452/6/5 453/6/5
f 455/1/5 453/1/5 449/1/5
f 455/1/5 454/1/5 453/1/5
f 456/1/5 450/1/5 454/1/5
f 456/1/5 454/1/5 455/1/5
f 463/3/5 458/3/5 457/3/5
f 464/3/5 458/3/5 463/3/5
f 465/3/5 460/3/5 459/3/5
f 466/3/5 460/3/5 465/3/5
f 467/3/5 462/3/5 461/3/5
f 468/3/5 462/3/5 467/3/5
f 473/3/5 470/3/5 469/3/5
f 474/3/5 470/3/5 473/3/5
f 475/3/5 472/3/5 471/3/5
f 476/3/5 472/3/5 475/3/5
f 481/3/5 478/3/5 477/3/5
f 482/3/5 478/3/5 481/3/5
f 483/3/5 480/3/5 479/3/5
f 484/3/5 480/3/5 483/3/5
f 489/3/5 486/3/5 485/3/5
f 490/3/5 486/3/5 489/3/5
f 491/3/5 488/3/5 487/3/5
f 492/3/5 488/3/5 491/3/5
f 499/3/5 494/3/5 493/3/5
f 500/3/5 494/3/5 499/3/5
f 501/3/5 496/3/5 495/3/5
f 502/3/5 496/3/5 501/3/5
f 503/3/5 498/3/5 497/3/5
f 504/3/5 498/3/5 503/3/5
f 511/1/5 506/1/5 505/1/5
f 512/1/5 506/1/5 511/1/5
f 513/1/5 508/1/5 507/1/5
f 514/1/5 508/1/5 513/1/5
f 515/1/5 510/1/5 509/1/5
f 516/1/5 510/1/5 515/1/5
f 521/1/5 518/1/5 517/1/5
f 522/1/5 518/1/5 521/1/5
f 523/1/5 520/1/5 519/1/5
f 524/1/5 520/1/5 523/1/5
f 529/1/5 526/1/5 525/1/5
f 530/1/5 526/1/5 529/1/5
f 531/1/5 528/1/5 527/1/5
f 532/1/5 528/1/5 531/1/5
f 537/1/5 534/1/5 533/1/5
f 538/1/5 534/1/5 537/1/5
f 539/1/5 536/1/5 535/1/5
f 540/1/5 536/1/5 539/1/5
f 547/1/5 542/1/5 541/1/5
f 548/1/5 542/1/5 547/1/5
f 549/1/5 544/1/5 543/1/5
f 550/1/5 544/1/5 549/1/5
f 551/1/5 546/1/5 545/1/5
f 552/1/5 546/1/5 551/1/5
f 555/3/5 554/3/5 553/3/5
f 556/3/5 554/3/5 555/3/5
f 557/3/5 555/3/5 553/3/5
f 558/3/5 554/3/5 556/3/5
f 559/3/5 557/3/5 553/3/5
f 559/3/5 558/3/5 557/3/5
f 560/3/5 554/3/5 558/3/5
f 560/3/5 558/3/5 559/3/5
f 561/3/6 562/3/6 567/3/6
f 567/3/6 562/3/6 568/3/6
f 563/3/6 564/3/6 569/3/6
f 569/3/6 564/3/6 570/3/6
f 565/3/6 566/3/6 571/3/6
f 571/3/6 566/3/6 572/3/6
f 567/3/6 568/3/6 573/3/6
f 573/3/6 568/3/6 574/3/6
f 569/3/6 570/3/6 575/3/6
f 575/3/6 570/3/6 576/3/6
f 571/3/6 572/3/6 577/3/6
f 577/3/6 572/3/6 578/3/6
f 580/3/6 581/3/6 585/3/6
f 579/3/6 580/3/6 585/3/6
f 585/3/6 581/3/6 586/3/6
f 586/3/6 581/3/6 587/3/6
f 583/3/6 584/3/6 588/3/6
f 582/3/6 583/3/6 588/3/6
f 588/3/6 584/3/6 589/3/6
f 589/3/6 584/3/6 590/3/6
f 591/3/6 592/3/6 597/3/6
f 592/3/6 593/3/6 597/3/6
f 597/3/6 593/3/6 598/3/6
f 598/3/6 593/3/6 599/3/6
f 595/3/6 596/3/6 600/3/6
f 594/3/6 595/3/6 600/3/6
f 600/3/6 596/3/6 601/3/6
f 601/3/6 596/3/6 602/3/6
f 603/3/6 604/3/6 609/3/6
f 604/3/6 605/3/6 609/3/6
f 609/3/6 605/3/6 610/3/6
f 610/3/6 605/3/6 611/3/6
f 607/3/6 608/3/6 612/3/6
f 606/3/6 607/3/6 612/3/6
f 612/3/6 608/3/6 613/3/6
f 613/3/6 608/3/6 614/3/6
f 615/3/6 616/3/6 621/3/6
f 621/3/6 616/3/6 622/3/6
f 617/3/6 618/3/6 623/3/6
f 623/3/6 618/3/6 624/3/6
f 619/3/6 620/3/6 625/3/6
f 625/3/6 620/3/6 626/3/6
f 621/3/6 622/3/6 627/3/6
f 627/3/6 622/3/6 628/3/6
f 623/3/6 624/3/6 629/3/6
f 629/3/6 624/3/6 630/3/6
f 625/3/6 626/3/6 631/3/6
f 631/3/6 626/3/6 632/3/6
f 633/4/6 634/4/6 635/4/6
f 635/4/6 634/4/6 636/4/6
f 633/4/6 635/4/6 637/4/6
f 636/4/6 634/4/6 638/4/6
f 638/4/6 634/4/6 639/4/6
f 637/4/6 638/4/6 639/4/6
f 639/4/6 634/4/6 640/4/6
f 637/4/6 639/4/6 641/4/6
f 640/4/6 634/4/6 642/4/6
f 633/4/6 637/4/6 643/4/6
f 641/4/6 642/4/6 643/4/6
f 637/4/6 641/4/6 643/4/6
f 642/4/6 634/4/6 644/4/6
f 643/4/6 642/4/6 644/4/6
f 645/3/6 646/3/6 647/3/6
f 647/3/6 646/3/6 648/3/6
f 645/3/6 647/3/6 649/3/6
f 648/3/6 646/3/6 650/3/6
f 645/3/6 649/3/6 651/3/6
f 649/3/6 650/3/6 651/3/6
f 650/3/6 646/3/6 652/3/6
f 651/3/6 650/3/6 652/3/6
f 653/6/6 654/6/6 655/6/6
f 655/6/6 654/6/6 656/6/6
f 653/6/6 655/6/6 657/6/6
f 655/7/6 656/7/6 658/7/6
f 657/6/6 655/6/6 658/6/6
f 656/6/6 654/6/6 659/6/6
f 658/7/6 656/7/6 659/7/6
f 659/6/6 654/6/6 660/6/6
f 657/7/6 658/7/6 661/7/6
f 653/6/6 657/6/6 661/6/6
f 659/7/6 660/7/6 661/7/6
f 658/7/6 659/7/6 661/7/6
f 661/7/6 660/7/6 662/7/6
f 662/7/6 660/7/6 663/7/6
f 660/6/6 654/6/6 664/6/6
f 663/7/6 660/7/6 664/7/6
f 662/7/6 663/7/6 665/7/6
f 661/6/6 662/6/6 665/6/6
f 663/6/6 664/6/6 666/6/6
f 665/7/6 663/7/6 666/7/6
f 653/6/6 661/6/6 667/6/6
f 661/6/6 665/6/6 667/6/6
f 665/6/6 666/6/6 667/6/6
f 664/6/6 654/6/6 668/6/6
f 667/6/6 666/6/6 668/6/6
f 666/6/6 664/6/6 668/6/6
f 669/7/6 670/7/6 671/7/6
f 671/7/6 670/7/6 672/7/6
