# MagicaVoxel @ Ephtracy

# group
o 

# material
mtllib Flat middle 2.mtl
usemtl palette

# normals
vn -1 0 0
vn 1 0 0
vn 0 0 1
vn 0 0 -1
vn 0 -1 0
vn 0 1 0

# texcoords
vt 0.412109 0.5
vt 0.654297 0.5
vt 0.916016 0.5
vt 0.927734 0.5
vt 0.978516 0.5

# verts
v 3.4 2.1 -3.2
v 3.4 2.1 -9.6
v 3.4 2.3 -3.9
v 3.4 2.3 -4.9
v 3.4 2.3 -5.9
v 3.4 2.3 -6.9
v 3.4 2.3 -7.9
v 3.4 2.3 -8.9
v 3.4 4 -3.9
v 3.4 4 -4.9
v 3.4 4 -5.9
v 3.4 4 -6.9
v 3.4 4 -7.9
v 3.4 4 -8.9
v 3.4 4.1 -3.2
v 3.4 4.1 -9.6
v 3.6 2.3 -3.9
v 3.6 2.3 -4.9
v 3.6 2.3 -5.9
v 3.6 2.3 -6.9
v 3.6 2.3 -7.9
v 3.6 2.3 -8.9
v 3.6 4 -3.9
v 3.6 4 -4.9
v 3.6 4 -5.9
v 3.6 4 -6.9
v 3.6 4 -7.9
v 3.6 4 -8.9
v 5.1 2.3 -3.2
v 5.1 2.3 -3.4
v 5.1 4 -3.2
v 5.1 4 -3.4
v 5.3 2.3 -9.4
v 5.3 2.3 -9.6
v 5.3 4 -9.4
v 5.3 4 -9.6
v 7.1 2.3 -3.2
v 7.1 2.3 -3.4
v 7.1 4 -3.2
v 7.1 4 -3.4
v 7.3 2.3 -9.4
v 7.3 2.3 -9.6
v 7.3 4 -9.4
v 7.3 4 -9.6
v 9.1 2.3 -3.2
v 9.1 2.3 -3.4
v 9.1 4 -3.2
v 9.1 4 -3.4
v 9.3 2.3 -9.4
v 9.3 2.3 -9.6
v 9.3 4 -9.4
v 9.3 4 -9.6
v 4.1 2.3 -3.2
v 4.1 2.3 -3.4
v 4.1 4 -3.2
v 4.1 4 -3.4
v 4.3 2.3 -9.4
v 4.3 2.3 -9.6
v 4.3 4 -9.4
v 4.3 4 -9.6
v 6.1 2.3 -3.2
v 6.1 2.3 -3.4
v 6.1 4 -3.2
v 6.1 4 -3.4
v 6.3 2.3 -9.4
v 6.3 2.3 -9.6
v 6.3 4 -9.4
v 6.3 4 -9.6
v 8.1 2.3 -3.2
v 8.1 2.3 -3.4
v 8.1 4 -3.2
v 8.1 4 -3.4
v 8.3 2.3 -9.4
v 8.3 2.3 -9.6
v 8.3 4 -9.4
v 8.3 4 -9.6
v 9.6 2.3 -3.9
v 9.6 2.3 -4.9
v 9.6 2.3 -5.9
v 9.6 2.3 -6.9
v 9.6 2.3 -7.9
v 9.6 2.3 -8.9
v 9.6 4 -3.9
v 9.6 4 -4.9
v 9.6 4 -5.9
v 9.6 4 -6.9
v 9.6 4 -7.9
v 9.6 4 -8.9
v 9.8 2.1 -3.2
v 9.8 2.1 -9.6
v 9.8 2.3 -3.9
v 9.8 2.3 -4.9
v 9.8 2.3 -5.9
v 9.8 2.3 -6.9
v 9.8 2.3 -7.9
v 9.8 2.3 -8.9
v 9.8 4 -3.9
v 9.8 4 -4.9
v 9.8 4 -5.9
v 9.8 4 -6.9
v 9.8 4 -7.9
v 9.8 4 -8.9
v 9.8 4.1 -3.2
v 9.8 4.1 -9.6
v 3.4 2.1 -3.2
v 3.4 4.1 -3.2
v 4.1 2.3 -3.2
v 4.1 4 -3.2
v 5.1 2.3 -3.2
v 5.1 4 -3.2
v 6.1 2.3 -3.2
v 6.1 4 -3.2
v 7.1 2.3 -3.2
v 7.1 4 -3.2
v 8.1 2.3 -3.2
v 8.1 4 -3.2
v 9.1 2.3 -3.2
v 9.1 4 -3.2
v 9.8 2.1 -3.2
v 9.8 4.1 -3.2
v 4.1 2.3 -3.4
v 4.1 4 -3.4
v 5.1 2.3 -3.4
v 5.1 4 -3.4
v 6.1 2.3 -3.4
v 6.1 4 -3.4
v 7.1 2.3 -3.4
v 7.1 4 -3.4
v 8.1 2.3 -3.4
v 8.1 4 -3.4
v 9.1 2.3 -3.4
v 9.1 4 -3.4
v 3.4 2.3 -4.9
v 3.4 4 -4.9
v 3.6 2.3 -4.9
v 3.6 4 -4.9
v 9.6 2.3 -4.9
v 9.6 4 -4.9
v 9.8 2.3 -4.9
v 9.8 4 -4.9
v 3.4 2.3 -6.9
v 3.4 4 -6.9
v 3.6 2.3 -6.9
v 3.6 4 -6.9
v 9.6 2.3 -6.9
v 9.6 4 -6.9
v 9.8 2.3 -6.9
v 9.8 4 -6.9
v 3.4 2.3 -8.9
v 3.4 4 -8.9
v 3.6 2.3 -8.9
v 3.6 4 -8.9
v 9.6 2.3 -8.9
v 9.6 4 -8.9
v 9.8 2.3 -8.9
v 9.8 4 -8.9
v 3.4 2.3 -3.9
v 3.4 4 -3.9
v 3.6 2.3 -3.9
v 3.6 4 -3.9
v 9.6 2.3 -3.9
v 9.6 4 -3.9
v 9.8 2.3 -3.9
v 9.8 4 -3.9
v 3.4 2.3 -5.9
v 3.4 4 -5.9
v 3.6 2.3 -5.9
v 3.6 4 -5.9
v 9.6 2.3 -5.9
v 9.6 4 -5.9
v 9.8 2.3 -5.9
v 9.8 4 -5.9
v 3.4 2.3 -7.9
v 3.4 4 -7.9
v 3.6 2.3 -7.9
v 3.6 4 -7.9
v 9.6 2.3 -7.9
v 9.6 4 -7.9
v 9.8 2.3 -7.9
v 9.8 4 -7.9
v 4.3 2.3 -9.4
v 4.3 4 -9.4
v 5.3 2.3 -9.4
v 5.3 4 -9.4
v 6.3 2.3 -9.4
v 6.3 4 -9.4
v 7.3 2.3 -9.4
v 7.3 4 -9.4
v 8.3 2.3 -9.4
v 8.3 4 -9.4
v 9.3 2.3 -9.4
v 9.3 4 -9.4
v 3.4 2.1 -9.6
v 3.4 4.1 -9.6
v 4.3 2.3 -9.6
v 4.3 4 -9.6
v 5.3 2.3 -9.6
v 5.3 4 -9.6
v 6.3 2.3 -9.6
v 6.3 4 -9.6
v 7.3 2.3 -9.6
v 7.3 4 -9.6
v 8.3 2.3 -9.6
v 8.3 4 -9.6
v 9.3 2.3 -9.6
v 9.3 4 -9.6
v 9.8 2.1 -9.6
v 9.8 4.1 -9.6
v 3.4 2.1 -3.2
v 9.8 2.1 -3.2
v 4.1 2.1 -3.3
v 5.1 2.1 -3.3
v 4.1 2.1 -3.4
v 5.1 2.1 -3.4
v 3.4 2.1 -9.6
v 9.8 2.1 -9.6
v 4.1 4 -3.2
v 5.1 4 -3.2
v 6.1 4 -3.2
v 7.1 4 -3.2
v 8.1 4 -3.2
v 9.1 4 -3.2
v 4.1 4 -3.4
v 5.1 4 -3.4
v 6.1 4 -3.4
v 7.1 4 -3.4
v 8.1 4 -3.4
v 9.1 4 -3.4
v 3.4 4 -3.9
v 3.6 4 -3.9
v 9.6 4 -3.9
v 9.8 4 -3.9
v 3.4 4 -4.9
v 3.6 4 -4.9
v 9.6 4 -4.9
v 9.8 4 -4.9
v 3.4 4 -5.9
v 3.6 4 -5.9
v 9.6 4 -5.9
v 9.8 4 -5.9
v 3.4 4 -6.9
v 3.6 4 -6.9
v 9.6 4 -6.9
v 9.8 4 -6.9
v 3.4 4 -7.9
v 3.6 4 -7.9
v 9.6 4 -7.9
v 9.8 4 -7.9
v 3.4 4 -8.9
v 3.6 4 -8.9
v 9.6 4 -8.9
v 9.8 4 -8.9
v 4.3 4 -9.4
v 5.3 4 -9.4
v 6.3 4 -9.4
v 7.3 4 -9.4
v 8.3 4 -9.4
v 9.3 4 -9.4
v 4.3 4 -9.6
v 5.3 4 -9.6
v 6.3 4 -9.6
v 7.3 4 -9.6
v 8.3 4 -9.6
v 9.3 4 -9.6
v 4.1 2.3 -3.2
v 5.1 2.3 -3.2
v 6.1 2.3 -3.2
v 7.1 2.3 -3.2
v 8.1 2.3 -3.2
v 9.1 2.3 -3.2
v 4.1 2.3 -3.4
v 5.1 2.3 -3.4
v 6.1 2.3 -3.4
v 7.1 2.3 -3.4
v 8.1 2.3 -3.4
v 9.1 2.3 -3.4
v 3.4 2.3 -3.9
v 3.6 2.3 -3.9
v 9.6 2.3 -3.9
v 9.8 2.3 -3.9
v 3.4 2.3 -4.9
v 3.6 2.3 -4.9
v 9.6 2.3 -4.9
v 9.8 2.3 -4.9
v 3.4 2.3 -5.9
v 3.6 2.3 -5.9
v 9.6 2.3 -5.9
v 9.8 2.3 -5.9
v 3.4 2.3 -6.9
v 3.6 2.3 -6.9
v 9.6 2.3 -6.9
v 9.8 2.3 -6.9
v 3.4 2.3 -7.9
v 3.6 2.3 -7.9
v 9.6 2.3 -7.9
v 9.8 2.3 -7.9
v 3.4 2.3 -8.9
v 3.6 2.3 -8.9
v 9.6 2.3 -8.9
v 9.8 2.3 -8.9
v 4.3 2.3 -9.4
v 5.3 2.3 -9.4
v 6.3 2.3 -9.4
v 7.3 2.3 -9.4
v 8.3 2.3 -9.4
v 9.3 2.3 -9.4
v 4.3 2.3 -9.6
v 5.3 2.3 -9.6
v 6.3 2.3 -9.6
v 7.3 2.3 -9.6
v 8.3 2.3 -9.6
v 9.3 2.3 -9.6
v 3.4 4.1 -3.2
v 9.8 4.1 -3.2
v 3.4 4.1 -9.6
v 9.8 4.1 -9.6

# faces
f 3/1/1 2/1/1 1/1/1
f 4/1/1 2/1/1 3/1/1
f 5/1/1 2/1/1 4/1/1
f 6/1/1 2/1/1 5/1/1
f 7/1/1 2/1/1 6/1/1
f 8/1/1 2/1/1 7/1/1
f 9/1/1 3/1/1 1/1/1
f 10/1/1 5/1/1 4/1/1
f 11/1/1 5/1/1 10/1/1
f 12/1/1 7/1/1 6/1/1
f 13/1/1 7/1/1 12/1/1
f 14/1/1 2/1/1 8/1/1
f 15/1/1 13/1/1 12/1/1
f 15/1/1 14/1/1 13/1/1
f 15/1/1 11/1/1 10/1/1
f 15/1/1 9/1/1 1/1/1
f 15/1/1 12/1/1 11/1/1
f 15/1/1 10/1/1 9/1/1
f 16/1/1 2/1/1 14/1/1
f 16/1/1 14/1/1 15/1/1
f 23/4/1 18/4/1 17/4/1
f 24/4/1 18/4/1 23/4/1
f 25/4/1 20/4/1 19/4/1
f 26/4/1 20/4/1 25/4/1
f 27/4/1 22/4/1 21/4/1
f 28/4/1 22/4/1 27/4/1
f 31/1/1 30/1/1 29/1/1
f 32/1/1 30/1/1 31/1/1
f 35/1/1 34/1/1 33/1/1
f 36/1/1 34/1/1 35/1/1
f 39/1/1 38/1/1 37/1/1
f 40/1/1 38/1/1 39/1/1
f 43/1/1 42/1/1 41/1/1
f 44/1/1 42/1/1 43/1/1
f 47/1/1 46/1/1 45/1/1
f 48/1/1 46/1/1 47/1/1
f 51/1/1 50/1/1 49/1/1
f 52/1/1 50/1/1 51/1/1
f 53/1/2 54/1/2 55/1/2
f 55/1/2 54/1/2 56/1/2
f 57/1/2 58/1/2 59/1/2
f 59/1/2 58/1/2 60/1/2
f 61/1/2 62/1/2 63/1/2
f 63/1/2 62/1/2 64/1/2
f 65/1/2 66/1/2 67/1/2
f 67/1/2 66/1/2 68/1/2
f 69/1/2 70/1/2 71/1/2
f 71/1/2 70/1/2 72/1/2
f 73/1/2 74/1/2 75/1/2
f 75/1/2 74/1/2 76/1/2
f 77/4/2 78/4/2 83/4/2
f 83/4/2 78/4/2 84/4/2
f 79/4/2 80/4/2 85/4/2
f 85/4/2 80/4/2 86/4/2
f 81/4/2 82/4/2 87/4/2
f 87/4/2 82/4/2 88/4/2
f 89/1/2 90/1/2 91/1/2
f 91/1/2 90/1/2 92/1/2
f 92/1/2 90/1/2 93/1/2
f 93/1/2 90/1/2 94/1/2
f 94/1/2 90/1/2 95/1/2
f 95/1/2 90/1/2 96/1/2
f 89/1/2 91/1/2 97/1/2
f 92/1/2 93/1/2 98/1/2
f 98/1/2 93/1/2 99/1/2
f 94/1/2 95/1/2 100/1/2
f 100/1/2 95/1/2 101/1/2
f 96/1/2 90/1/2 102/1/2
f 100/1/2 101/1/2 103/1/2
f 101/1/2 102/1/2 103/1/2
f 98/1/2 99/1/2 103/1/2
f 89/1/2 97/1/2 103/1/2
f 99/1/2 100/1/2 103/1/2
f 97/1/2 98/1/2 103/1/2
f 102/1/2 90/1/2 104/1/2
f 103/1/2 102/1/2 104/1/2
f 107/1/3 106/1/3 105/1/3
f 108/1/3 106/1/3 107/1/3
f 109/1/3 107/1/3 105/1/3
f 110/1/3 106/1/3 108/1/3
f 111/1/3 109/1/3 105/1/3
f 111/1/3 110/1/3 109/1/3
f 112/1/3 106/1/3 110/1/3
f 112/1/3 110/1/3 111/1/3
f 113/1/3 111/1/3 105/1/3
f 114/1/3 106/1/3 112/1/3
f 115/1/3 113/1/3 105/1/3
f 115/1/3 114/1/3 113/1/3
f 116/1/3 106/1/3 114/1/3
f 116/1/3 114/1/3 115/1/3
f 117/1/3 115/1/3 105/1/3
f 118/1/3 106/1/3 116/1/3
f 119/1/3 117/1/3 105/1/3
f 119/1/3 118/1/3 117/1/3
f 120/1/3 106/1/3 118/1/3
f 120/1/3 118/1/3 119/1/3
f 123/4/3 122/4/3 121/4/3
f 124/4/3 122/4/3 123/4/3
f 127/4/3 126/4/3 125/4/3
f 128/4/3 126/4/3 127/4/3
f 131/4/3 130/4/3 129/4/3
f 132/4/3 130/4/3 131/4/3
f 135/1/3 134/1/3 133/1/3
f 136/1/3 134/1/3 135/1/3
f 139/1/3 138/1/3 137/1/3
f 140/1/3 138/1/3 139/1/3
f 143/1/3 142/1/3 141/1/3
f 144/1/3 142/1/3 143/1/3
f 147/1/3 146/1/3 145/1/3
f 148/1/3 146/1/3 147/1/3
f 151/1/3 150/1/3 149/1/3
f 152/1/3 150/1/3 151/1/3
f 155/1/3 154/1/3 153/1/3
f 156/1/3 154/1/3 155/1/3
f 157/1/4 158/1/4 159/1/4
f 159/1/4 158/1/4 160/1/4
f 161/1/4 162/1/4 163/1/4
f 163/1/4 162/1/4 164/1/4
f 165/1/4 166/1/4 167/1/4
f 167/1/4 166/1/4 168/1/4
f 169/1/4 170/1/4 171/1/4
f 171/1/4 170/1/4 172/1/4
f 173/1/4 174/1/4 175/1/4
f 175/1/4 174/1/4 176/1/4
f 177/1/4 178/1/4 179/1/4
f 179/1/4 178/1/4 180/1/4
f 181/4/4 182/4/4 183/4/4
f 183/4/4 182/4/4 184/4/4
f 185/4/4 186/4/4 187/4/4
f 187/4/4 186/4/4 188/4/4
f 189/4/4 190/4/4 191/4/4
f 191/4/4 190/4/4 192/4/4
f 193/1/4 194/1/4 195/1/4
f 195/1/4 194/1/4 196/1/4
f 193/1/4 195/1/4 197/1/4
f 196/1/4 194/1/4 198/1/4
f 193/1/4 197/1/4 199/1/4
f 197/1/4 198/1/4 199/1/4
f 198/1/4 194/1/4 200/1/4
f 199/1/4 198/1/4 200/1/4
f 193/1/4 199/1/4 201/1/4
f 200/1/4 194/1/4 202/1/4
f 193/1/4 201/1/4 203/1/4
f 201/1/4 202/1/4 203/1/4
f 202/1/4 194/1/4 204/1/4
f 203/1/4 202/1/4 204/1/4
f 193/1/4 203/1/4 205/1/4
f 204/1/4 194/1/4 206/1/4
f 193/1/4 205/1/4 207/1/4
f 205/1/4 206/1/4 207/1/4
f 206/1/4 194/1/4 208/1/4
f 207/1/4 206/1/4 208/1/4
f 211/1/5 210/1/5 209/1/5
f 212/1/5 210/1/5 211/1/5
f 213/1/5 211/1/5 209/1/5
f 213/5/5 212/5/5 211/5/5
f 214/1/5 210/1/5 212/1/5
f 214/5/5 212/5/5 213/5/5
f 215/1/5 213/1/5 209/1/5
f 215/1/5 214/1/5 213/1/5
f 216/1/5 210/1/5 214/1/5
f 216/1/5 214/1/5 215/1/5
f 223/1/5 218/1/5 217/1/5
f 224/1/5 218/1/5 223/1/5
f 225/1/5 220/1/5 219/1/5
f 226/1/5 220/1/5 225/1/5
f 227/1/5 222/1/5 221/1/5
f 228/1/5 222/1/5 227/1/5
f 233/1/5 230/1/5 229/1/5
f 234/1/5 230/1/5 233/1/5
f 235/1/5 232/1/5 231/1/5
f 236/1/5 232/1/5 235/1/5
f 241/1/5 238/1/5 237/1/5
f 242/1/5 238/1/5 241/1/5
f 243/1/5 240/1/5 239/1/5
f 244/1/5 240/1/5 243/1/5
f 249/1/5 246/1/5 245/1/5
f 250/1/5 246/1/5 249/1/5
f 251/1/5 248/1/5 247/1/5
f 252/1/5 248/1/5 251/1/5
f 259/1/5 254/1/5 253/1/5
f 260/1/5 254/1/5 259/1/5
f 261/1/5 256/1/5 255/1/5
f 262/1/5 256/1/5 261/1/5
f 263/1/5 258/1/5 257/1/5
f 264/1/5 258/1/5 263/1/5
f 265/1/6 266/1/6 271/1/6
f 271/1/6 266/1/6 272/1/6
f 267/1/6 268/1/6 273/1/6
f 273/1/6 268/1/6 274/1/6
f 269/1/6 270/1/6 275/1/6
f 275/1/6 270/1/6 276/1/6
f 277/1/6 278/1/6 281/1/6
f 281/1/6 278/1/6 282/1/6
f 279/1/6 280/1/6 283/1/6
f 283/1/6 280/1/6 284/1/6
f 285/1/6 286/1/6 289/1/6
f 289/1/6 286/1/6 290/1/6
f 287/1/6 288/1/6 291/1/6
f 291/1/6 288/1/6 292/1/6
f 293/1/6 294/1/6 297/1/6
f 297/1/6 294/1/6 298/1/6
f 295/1/6 296/1/6 299/1/6
f 299/1/6 296/1/6 300/1/6
f 301/1/6 302/1/6 307/1/6
f 307/1/6 302/1/6 308/1/6
f 303/1/6 304/1/6 309/1/6
f 309/1/6 304/1/6 310/1/6
f 305/1/6 306/1/6 311/1/6
f 311/1/6 306/1/6 312/1/6
f 313/1/6 314/1/6 315/1/6
f 315/1/6 314/1/6 316/1/6
