# MagicaVoxel @ Ephtracy

# group
o 

# material
mtllib Flat base 3.mtl
usemtl palette

# normals
vn -1 0 0
vn 1 0 0
vn 0 0 1
vn 0 0 -1
vn 0 -1 0
vn 0 1 0

# texcoords
vt 0.205078 0.5
vt 0.654297 0.5
vt 0.779297 0.5
vt 0.916016 0.5
vt 0.974609 0.5
vt 0.978516 0.5

# verts
v 2.9 2 -2.7
v 2.9 2 -10.1
v 2.9 2.2 -2.7
v 2.9 2.2 -10.1
v 3.2 4.4 -3
v 3.2 4.4 -9.8
v 3.2 4.8 -3
v 3.2 4.8 -9.8
v 3.3 2.6 -3.9
v 3.3 2.6 -4.9
v 3.3 2.6 -5.9
v 3.3 2.6 -6.9
v 3.3 2.6 -7.9
v 3.3 2.6 -8.9
v 3.3 2.8 -3.9
v 3.3 2.8 -4.9
v 3.3 2.8 -5.9
v 3.3 2.8 -6.9
v 3.3 2.8 -7.9
v 3.3 2.8 -8.9
v 3.4 2.2 -3.2
v 3.4 2.2 -9.6
v 3.4 2.6 -3.9
v 3.4 2.6 -4.9
v 3.4 2.6 -5.9
v 3.4 2.6 -6.9
v 3.4 2.6 -7.9
v 3.4 2.6 -8.9
v 3.4 2.8 -3.9
v 3.4 2.8 -4.9
v 3.4 2.8 -5.9
v 3.4 2.8 -6.9
v 3.4 2.8 -7.9
v 3.4 2.8 -8.9
v 3.4 4 -3.9
v 3.4 4 -4.9
v 3.4 4 -5.9
v 3.4 4 -6.9
v 3.4 4 -7.9
v 3.4 4 -8.9
v 3.4 4.4 -3.2
v 3.4 4.4 -9.6
v 3.6 2.8 -3.9
v 3.6 2.8 -4.9
v 3.6 2.8 -5.9
v 3.6 2.8 -6.9
v 3.6 2.8 -7.9
v 3.6 2.8 -8.9
v 3.6 4 -3.9
v 3.6 4 -4.9
v 3.6 4 -5.9
v 3.6 4 -6.9
v 3.6 4 -7.9
v 3.6 4 -8.9
v 3.9 2.6 -3.1
v 3.9 2.6 -3.2
v 3.9 2.8 -3.1
v 3.9 2.8 -3.2
v 4.3 2.6 -9.6
v 4.3 2.6 -9.7
v 4.3 2.8 -9.6
v 4.3 2.8 -9.7
v 4.9 2.8 -3.2
v 4.9 2.8 -3.3
v 4.9 4 -3.2
v 4.9 4 -3.3
v 5.3 2.8 -9.4
v 5.3 2.8 -9.6
v 5.3 4 -9.4
v 5.3 4 -9.6
v 5.4 2.2 -3.1
v 5.4 2.2 -3.2
v 5.4 4.2 -3.1
v 5.4 4.2 -3.2
v 6.3 2.6 -9.6
v 6.3 2.6 -9.7
v 6.3 2.8 -9.6
v 6.3 2.8 -9.7
v 7.3 2.8 -9.4
v 7.3 2.8 -9.6
v 7.3 4 -9.4
v 7.3 4 -9.6
v 7.6 2.2 -3.1
v 7.6 2.2 -3.4
v 7.6 4 -3.1
v 7.6 4 -3.4
v 8.3 2.6 -3.1
v 8.3 2.6 -3.2
v 8.3 2.6 -9.6
v 8.3 2.6 -9.7
v 8.3 2.8 -3.1
v 8.3 2.8 -3.2
v 8.3 2.8 -9.6
v 8.3 2.8 -9.7
v 9.3 2.8 -3.2
v 9.3 2.8 -3.4
v 9.3 2.8 -9.4
v 9.3 2.8 -9.6
v 9.3 4 -3.2
v 9.3 4 -3.4
v 9.3 4 -9.4
v 9.3 4 -9.6
v 3.9 2.8 -3.2
v 3.9 2.8 -3.3
v 3.9 4 -3.2
v 3.9 4 -3.3
v 4.3 2.8 -9.4
v 4.3 2.8 -9.6
v 4.3 4 -9.4
v 4.3 4 -9.6
v 4.9 2.6 -3.1
v 4.9 2.6 -3.2
v 4.9 2.8 -3.1
v 4.9 2.8 -3.2
v 5.3 2.6 -9.6
v 5.3 2.6 -9.7
v 5.3 2.8 -9.6
v 5.3 2.8 -9.7
v 5.6 2.2 -3.1
v 5.6 2.2 -3.4
v 5.6 4 -3.1
v 5.6 4 -3.4
v 6.3 2.8 -9.4
v 6.3 2.8 -9.6
v 6.3 4 -9.4
v 6.3 4 -9.6
v 7.3 2.6 -9.6
v 7.3 2.6 -9.7
v 7.3 2.8 -9.6
v 7.3 2.8 -9.7
v 7.8 2.2 -3.1
v 7.8 2.2 -3.2
v 7.8 4.2 -3.1
v 7.8 4.2 -3.2
v 8.3 2.8 -3.2
v 8.3 2.8 -3.4
v 8.3 2.8 -9.4
v 8.3 2.8 -9.6
v 8.3 4 -3.2
v 8.3 4 -3.4
v 8.3 4 -9.4
v 8.3 4 -9.6
v 9.3 2.6 -3.1
v 9.3 2.6 -3.2
v 9.3 2.6 -9.6
v 9.3 2.6 -9.7
v 9.3 2.8 -3.1
v 9.3 2.8 -3.2
v 9.3 2.8 -9.6
v 9.3 2.8 -9.7
v 9.6 2.8 -3.9
v 9.6 2.8 -4.9
v 9.6 2.8 -5.9
v 9.6 2.8 -6.9
v 9.6 2.8 -7.9
v 9.6 2.8 -8.9
v 9.6 4 -3.9
v 9.6 4 -4.9
v 9.6 4 -5.9
v 9.6 4 -6.9
v 9.6 4 -7.9
v 9.6 4 -8.9
v 9.8 2.2 -3.2
v 9.8 2.2 -9.6
v 9.8 2.6 -3.9
v 9.8 2.6 -4.9
v 9.8 2.6 -5.9
v 9.8 2.6 -6.9
v 9.8 2.6 -7.9
v 9.8 2.6 -8.9
v 9.8 2.8 -3.9
v 9.8 2.8 -4.9
v 9.8 2.8 -5.9
v 9.8 2.8 -6.9
v 9.8 2.8 -7.9
v 9.8 2.8 -8.9
v 9.8 4 -3.9
v 9.8 4 -4.9
v 9.8 4 -5.9
v 9.8 4 -6.9
v 9.8 4 -7.9
v 9.8 4 -8.9
v 9.8 4.4 -3.2
v 9.8 4.4 -9.6
v 9.9 2.6 -3.9
v 9.9 2.6 -4.9
v 9.9 2.6 -5.9
v 9.9 2.6 -6.9
v 9.9 2.6 -7.9
v 9.9 2.6 -8.9
v 9.9 2.8 -3.9
v 9.9 2.8 -4.9
v 9.9 2.8 -5.9
v 9.9 2.8 -6.9
v 9.9 2.8 -7.9
v 9.9 2.8 -8.9
v 10 4.4 -3
v 10 4.4 -9.8
v 10 4.8 -3
v 10 4.8 -9.8
v 10.3 2 -2.7
v 10.3 2 -10.1
v 10.3 2.2 -2.7
v 10.3 2.2 -10.1
v 2.9 2 -2.7
v 2.9 2.2 -2.7
v 10.3 2 -2.7
v 10.3 2.2 -2.7
v 3.2 4.4 -3
v 3.2 4.8 -3
v 10 4.4 -3
v 10 4.8 -3
v 3.9 2.6 -3.1
v 3.9 2.8 -3.1
v 4.9 2.6 -3.1
v 4.9 2.8 -3.1
v 5.4 2.2 -3.1
v 5.4 4.2 -3.1
v 5.6 2.2 -3.1
v 5.6 4 -3.1
v 7.6 2.2 -3.1
v 7.6 4 -3.1
v 7.8 2.2 -3.1
v 7.8 4.2 -3.1
v 8.3 2.6 -3.1
v 8.3 2.8 -3.1
v 9.3 2.6 -3.1
v 9.3 2.8 -3.1
v 3.4 2.2 -3.2
v 3.4 4.4 -3.2
v 3.9 2.6 -3.2
v 3.9 2.8 -3.2
v 3.9 4 -3.2
v 4.9 2.6 -3.2
v 4.9 2.8 -3.2
v 4.9 4 -3.2
v 5.4 2.2 -3.2
v 5.4 4.2 -3.2
v 7.8 2.2 -3.2
v 7.8 4.2 -3.2
v 8.3 2.6 -3.2
v 8.3 2.8 -3.2
v 8.3 4 -3.2
v 9.3 2.6 -3.2
v 9.3 2.8 -3.2
v 9.3 4 -3.2
v 9.8 2.2 -3.2
v 9.8 4.4 -3.2
v 3.9 2.8 -3.3
v 3.9 4 -3.3
v 4.9 2.8 -3.3
v 4.9 4 -3.3
v 5.6 2.2 -3.4
v 5.6 4 -3.4
v 7.6 2.2 -3.4
v 7.6 4 -3.4
v 8.3 2.8 -3.4
v 8.3 4 -3.4
v 9.3 2.8 -3.4
v 9.3 4 -3.4
v 3.3 2.6 -3.9
v 3.3 2.8 -3.9
v 3.4 2.6 -3.9
v 3.4 2.8 -3.9
v 9.8 2.6 -3.9
v 9.8 2.8 -3.9
v 9.9 2.6 -3.9
v 9.9 2.8 -3.9
v 3.4 2.8 -4.9
v 3.4 4 -4.9
v 3.6 2.8 -4.9
v 3.6 4 -4.9
v 9.6 2.8 -4.9
v 9.6 4 -4.9
v 9.8 2.8 -4.9
v 9.8 4 -4.9
v 3.3 2.6 -5.9
v 3.3 2.8 -5.9
v 3.4 2.6 -5.9
v 3.4 2.8 -5.9
v 9.8 2.6 -5.9
v 9.8 2.8 -5.9
v 9.9 2.6 -5.9
v 9.9 2.8 -5.9
v 3.4 2.8 -6.9
v 3.4 4 -6.9
v 3.6 2.8 -6.9
v 3.6 4 -6.9
v 9.6 2.8 -6.9
v 9.6 4 -6.9
v 9.8 2.8 -6.9
v 9.8 4 -6.9
v 3.3 2.6 -7.9
v 3.3 2.8 -7.9
v 3.4 2.6 -7.9
v 3.4 2.8 -7.9
v 9.8 2.6 -7.9
v 9.8 2.8 -7.9
v 9.9 2.6 -7.9
v 9.9 2.8 -7.9
v 3.4 2.8 -8.9
v 3.4 4 -8.9
v 3.6 2.8 -8.9
v 3.6 4 -8.9
v 9.6 2.8 -8.9
v 9.6 4 -8.9
v 9.8 2.8 -8.9
v 9.8 4 -8.9
v 3.4 2.8 -3.9
v 3.4 4 -3.9
v 3.6 2.8 -3.9
v 3.6 4 -3.9
v 9.6 2.8 -3.9
v 9.6 4 -3.9
v 9.8 2.8 -3.9
v 9.8 4 -3.9
v 3.3 2.6 -4.9
v 3.3 2.8 -4.9
v 3.4 2.6 -4.9
v 3.4 2.8 -4.9
v 9.8 2.6 -4.9
v 9.8 2.8 -4.9
v 9.9 2.6 -4.9
v 9.9 2.8 -4.9
v 3.4 2.8 -5.9
v 3.4 4 -5.9
v 3.6 2.8 -5.9
v 3.6 4 -5.9
v 9.6 2.8 -5.9
v 9.6 4 -5.9
v 9.8 2.8 -5.9
v 9.8 4 -5.9
v 3.3 2.6 -6.9
v 3.3 2.8 -6.9
v 3.4 2.6 -6.9
v 3.4 2.8 -6.9
v 9.8 2.6 -6.9
v 9.8 2.8 -6.9
v 9.9 2.6 -6.9
v 9.9 2.8 -6.9
v 3.4 2.8 -7.9
v 3.4 4 -7.9
v 3.6 2.8 -7.9
v 3.6 4 -7.9
v 9.6 2.8 -7.9
v 9.6 4 -7.9
v 9.8 2.8 -7.9
v 9.8 4 -7.9
v 3.3 2.6 -8.9
v 3.3 2.8 -8.9
v 3.4 2.6 -8.9
v 3.4 2.8 -8.9
v 9.8 2.6 -8.9
v 9.8 2.8 -8.9
v 9.9 2.6 -8.9
v 9.9 2.8 -8.9
v 4.3 2.8 -9.4
v 4.3 4 -9.4
v 5.3 2.8 -9.4
v 5.3 4 -9.4
v 6.3 2.8 -9.4
v 6.3 4 -9.4
v 7.3 2.8 -9.4
v 7.3 4 -9.4
v 8.3 2.8 -9.4
v 8.3 4 -9.4
v 9.3 2.8 -9.4
v 9.3 4 -9.4
v 3.4 2.2 -9.6
v 3.4 4.4 -9.6
v 4.3 2.6 -9.6
v 4.3 2.8 -9.6
v 4.3 4 -9.6
v 5.3 2.6 -9.6
v 5.3 2.8 -9.6
v 5.3 4 -9.6
v 6.3 2.6 -9.6
v 6.3 2.8 -9.6
v 6.3 4 -9.6
v 7.3 2.6 -9.6
v 7.3 2.8 -9.6
v 7.3 4 -9.6
v 8.3 2.6 -9.6
v 8.3 2.8 -9.6
v 8.3 4 -9.6
v 9.3 2.6 -9.6
v 9.3 2.8 -9.6
v 9.3 4 -9.6
v 9.8 2.2 -9.6
v 9.8 4.4 -9.6
v 4.3 2.6 -9.7
v 4.3 2.8 -9.7
v 5.3 2.6 -9.7
v 5.3 2.8 -9.7
v 6.3 2.6 -9.7
v 6.3 2.8 -9.7
v 7.3 2.6 -9.7
v 7.3 2.8 -9.7
v 8.3 2.6 -9.7
v 8.3 2.8 -9.7
v 9.3 2.6 -9.7
v 9.3 2.8 -9.7
v 3.2 4.4 -9.8
v 3.2 4.8 -9.8
v 10 4.4 -9.8
v 10 4.8 -9.8
v 2.9 2 -10.1
v 2.9 2.2 -10.1
v 10.3 2 -10.1
v 10.3 2.2 -10.1
v 2.9 2 -2.7
v 10.3 2 -2.7
v 2.9 2 -10.1
v 10.3 2 -10.1
v 3.9 2.6 -3.1
v 4.9 2.6 -3.1
v 8.3 2.6 -3.1
v 9.3 2.6 -3.1
v 3.9 2.6 -3.2
v 4.9 2.6 -3.2
v 8.3 2.6 -3.2
v 9.3 2.6 -3.2
v 3.3 2.6 -3.9
v 3.4 2.6 -3.9
v 9.8 2.6 -3.9
v 9.9 2.6 -3.9
v 3.3 2.6 -4.9
v 3.4 2.6 -4.9
v 9.8 2.6 -4.9
v 9.9 2.6 -4.9
v 3.3 2.6 -5.9
v 3.4 2.6 -5.9
v 9.8 2.6 -5.9
v 9.9 2.6 -5.9
v 3.3 2.6 -6.9
v 3.4 2.6 -6.9
v 9.8 2.6 -6.9
v 9.9 2.6 -6.9
v 3.3 2.6 -7.9
v 3.4 2.6 -7.9
v 9.8 2.6 -7.9
v 9.9 2.6 -7.9
v 3.3 2.6 -8.9
v 3.4 2.6 -8.9
v 9.8 2.6 -8.9
v 9.9 2.6 -8.9
v 4.3 2.6 -9.6
v 5.3 2.6 -9.6
v 6.3 2.6 -9.6
v 7.3 2.6 -9.6
v 8.3 2.6 -9.6
v 9.3 2.6 -9.6
v 4.3 2.6 -9.7
v 5.3 2.6 -9.7
v 6.3 2.6 -9.7
v 7.3 2.6 -9.7
v 8.3 2.6 -9.7
v 9.3 2.6 -9.7
v 5.6 4 -3.1
v 7.6 4 -3.1
v 3.9 4 -3.2
v 4.9 4 -3.2
v 8.3 4 -3.2
v 9.3 4 -3.2
v 3.9 4 -3.3
v 4.9 4 -3.3
v 5.6 4 -3.4
v 7.6 4 -3.4
v 8.3 4 -3.4
v 9.3 4 -3.4
v 3.4 4 -3.9
v 3.6 4 -3.9
v 9.6 4 -3.9
v 9.8 4 -3.9
v 3.4 4 -4.9
v 3.6 4 -4.9
v 9.6 4 -4.9
v 9.8 4 -4.9
v 3.4 4 -5.9
v 3.6 4 -5.9
v 9.6 4 -5.9
v 9.8 4 -5.9
v 3.4 4 -6.9
v 3.6 4 -6.9
v 9.6 4 -6.9
v 9.8 4 -6.9
v 3.4 4 -7.9
v 3.6 4 -7.9
v 9.6 4 -7.9
v 9.8 4 -7.9
v 3.4 4 -8.9
v 3.6 4 -8.9
v 9.6 4 -8.9
v 9.8 4 -8.9
v 4.3 4 -9.4
v 5.3 4 -9.4
v 6.3 4 -9.4
v 7.3 4 -9.4
v 8.3 4 -9.4
v 9.3 4 -9.4
v 4.3 4 -9.6
v 5.3 4 -9.6
v 6.3 4 -9.6
v 7.3 4 -9.6
v 8.3 4 -9.6
v 9.3 4 -9.6
v 3.2 4.4 -3
v 10 4.4 -3
v 3.4 4.4 -3.2
v 9.8 4.4 -3.2
v 3.4 4.4 -9.6
v 9.8 4.4 -9.6
v 3.2 4.4 -9.8
v 10 4.4 -9.8
v 2.9 2.2 -2.7
v 10.3 2.2 -2.7
v 5.4 2.2 -3.1
v 5.6 2.2 -3.1
v 7.6 2.2 -3.1
v 7.8 2.2 -3.1
v 3.4 2.2 -3.2
v 5.4 2.2 -3.2
v 7.8 2.2 -3.2
v 9.8 2.2 -3.2
v 5.6 2.2 -3.4
v 7.6 2.2 -3.4
v 3.4 2.2 -9.6
v 9.8 2.2 -9.6
v 2.9 2.2 -10.1
v 10.3 2.2 -10.1
v 3.9 2.8 -3.1
v 4.9 2.8 -3.1
v 8.3 2.8 -3.1
v 9.3 2.8 -3.1
v 3.9 2.8 -3.2
v 4.9 2.8 -3.2
v 8.3 2.8 -3.2
v 9.3 2.8 -3.2
v 3.9 2.8 -3.3
v 4.9 2.8 -3.3
v 8.3 2.8 -3.4
v 9.3 2.8 -3.4
v 3.3 2.8 -3.9
v 3.4 2.8 -3.9
v 3.6 2.8 -3.9
v 9.6 2.8 -3.9
v 9.8 2.8 -3.9
v 9.9 2.8 -3.9
v 3.3 2.8 -4.9
v 3.4 2.8 -4.9
v 3.6 2.8 -4.9
v 9.6 2.8 -4.9
v 9.8 2.8 -4.9
v 9.9 2.8 -4.9
v 3.3 2.8 -5.9
v 3.4 2.8 -5.9
v 3.6 2.8 -5.9
v 9.6 2.8 -5.9
v 9.8 2.8 -5.9
v 9.9 2.8 -5.9
v 3.3 2.8 -6.9
v 3.4 2.8 -6.9
v 3.6 2.8 -6.9
v 9.6 2.8 -6.9
v 9.8 2.8 -6.9
v 9.9 2.8 -6.9
v 3.3 2.8 -7.9
v 3.4 2.8 -7.9
v 3.6 2.8 -7.9
v 9.6 2.8 -7.9
v 9.8 2.8 -7.9
v 9.9 2.8 -7.9
v 3.3 2.8 -8.9
v 3.4 2.8 -8.9
v 3.6 2.8 -8.9
v 9.6 2.8 -8.9
v 9.8 2.8 -8.9
v 9.9 2.8 -8.9
v 4.3 2.8 -9.4
v 5.3 2.8 -9.4
v 6.3 2.8 -9.4
v 7.3 2.8 -9.4
v 8.3 2.8 -9.4
v 9.3 2.8 -9.4
v 4.3 2.8 -9.6
v 5.3 2.8 -9.6
v 6.3 2.8 -9.6
v 7.3 2.8 -9.6
v 8.3 2.8 -9.6
v 9.3 2.8 -9.6
v 4.3 2.8 -9.7
v 5.3 2.8 -9.7
v 6.3 2.8 -9.7
v 7.3 2.8 -9.7
v 8.3 2.8 -9.7
v 9.3 2.8 -9.7
v 5.4 4.2 -3.1
v 7.8 4.2 -3.1
v 5.4 4.2 -3.2
v 7.8 4.2 -3.2
v 3.2 4.8 -3
v 10 4.8 -3
v 3.4 4.8 -3.2
v 9.8 4.8 -3.2
v 3.4 4.8 -9.6
v 9.8 4.8 -9.6
v 3.2 4.8 -9.8
v 10 4.8 -9.8

# faces
f 3/5/1 2/5/1 1/5/1
f 4/5/1 2/5/1 3/5/1
f 7/4/1 6/4/1 5/4/1
f 8/4/1 6/4/1 7/4/1
f 15/4/1 10/4/1 9/4/1
f 16/4/1 10/4/1 15/4/1
f 17/4/1 12/4/1 11/4/1
f 18/4/1 12/4/1 17/4/1
f 19/4/1 14/4/1 13/4/1
f 20/4/1 14/4/1 19/4/1
f 23/1/1 22/1/1 21/1/1
f 24/1/1 22/1/1 23/1/1
f 25/1/1 22/1/1 24/1/1
f 26/1/1 22/1/1 25/1/1
f 27/1/1 22/1/1 26/1/1
f 28/1/1 22/1/1 27/1/1
f 29/1/1 23/1/1 21/1/1
f 30/1/1 25/1/1 24/1/1
f 31/1/1 25/1/1 30/1/1
f 32/1/1 27/1/1 26/1/1
f 33/1/1 27/1/1 32/1/1
f 34/1/1 22/1/1 28/1/1
f 35/1/1 29/1/1 21/1/1
f 36/1/1 31/1/1 30/1/1
f 37/1/1 31/1/1 36/1/1
f 38/1/1 33/1/1 32/1/1
f 39/1/1 33/1/1 38/1/1
f 40/1/1 22/1/1 34/1/1
f 41/1/1 37/1/1 36/1/1
f 41/1/1 40/1/1 39/1/1
f 41/1/1 35/1/1 21/1/1
f 41/1/1 39/1/1 38/1/1
f 41/1/1 38/1/1 37/1/1
f 41/1/1 36/1/1 35/1/1
f 42/1/1 22/1/1 40/1/1
f 42/1/1 40/1/1 41/1/1
f 49/5/1 44/5/1 43/5/1
f 50/5/1 44/5/1 49/5/1
f 51/5/1 46/5/1 45/5/1
f 52/5/1 46/5/1 51/5/1
f 53/5/1 48/5/1 47/5/1
f 54/5/1 48/5/1 53/5/1
f 57/4/1 56/4/1 55/4/1
f 58/4/1 56/4/1 57/4/1
f 61/4/1 60/4/1 59/4/1
f 62/4/1 60/4/1 61/4/1
f 65/1/1 64/1/1 63/1/1
f 66/1/1 64/1/1 65/1/1
f 69/1/1 68/1/1 67/1/1
f 70/1/1 68/1/1 69/1/1
f 73/4/1 72/4/1 71/4/1
f 74/4/1 72/4/1 73/4/1
f 77/4/1 76/4/1 75/4/1
f 78/4/1 76/4/1 77/4/1
f 81/1/1 80/1/1 79/1/1
f 82/1/1 80/1/1 81/1/1
f 85/4/1 84/4/1 83/4/1
f 86/4/1 84/4/1 85/4/1
f 91/4/1 88/4/1 87/4/1
f 92/4/1 88/4/1 91/4/1
f 93/4/1 90/4/1 89/4/1
f 94/4/1 90/4/1 93/4/1
f 99/1/1 96/1/1 95/1/1
f 100/1/1 96/1/1 99/1/1
f 101/1/1 98/1/1 97/1/1
f 102/1/1 98/1/1 101/1/1
f 103/1/2 104/1/2 105/1/2
f 105/1/2 104/1/2 106/1/2
f 107/1/2 108/1/2 109/1/2
f 109/1/2 108/1/2 110/1/2
f 111/4/2 112/4/2 113/4/2
f 113/4/2 112/4/2 114/4/2
f 115/4/2 116/4/2 117/4/2
f 117/4/2 116/4/2 118/4/2
f 119/4/2 120/4/2 121/4/2
f 121/4/2 120/4/2 122/4/2
f 123/1/2 124/1/2 125/1/2
f 125/1/2 124/1/2 126/1/2
f 127/4/2 128/4/2 129/4/2
f 129/4/2 128/4/2 130/4/2
f 131/4/2 132/4/2 133/4/2
f 133/4/2 132/4/2 134/4/2
f 135/1/2 136/1/2 139/1/2
f 139/1/2 136/1/2 140/1/2
f 137/1/2 138/1/2 141/1/2
f 141/1/2 138/1/2 142/1/2
f 143/4/2 144/4/2 147/4/2
f 147/4/2 144/4/2 148/4/2
f 145/4/2 146/4/2 149/4/2
f 149/4/2 146/4/2 150/4/2
f 151/5/2 152/5/2 157/5/2
f 157/5/2 152/5/2 158/5/2
f 153/5/2 154/5/2 159/5/2
f 159/5/2 154/5/2 160/5/2
f 155/5/2 156/5/2 161/5/2
f 161/5/2 156/5/2 162/5/2
f 163/1/2 164/1/2 165/1/2
f 165/1/2 164/1/2 166/1/2
f 166/1/2 164/1/2 167/1/2
f 167/1/2 164/1/2 168/1/2
f 168/1/2 164/1/2 169/1/2
f 169/1/2 164/1/2 170/1/2
f 163/1/2 165/1/2 171/1/2
f 166/1/2 167/1/2 172/1/2
f 172/1/2 167/1/2 173/1/2
f 168/1/2 169/1/2 174/1/2
f 174/1/2 169/1/2 175/1/2
f 170/1/2 164/1/2 176/1/2
f 163/1/2 171/1/2 177/1/2
f 172/1/2 173/1/2 178/1/2
f 178/1/2 173/1/2 179/1/2
f 174/1/2 175/1/2 180/1/2
f 180/1/2 175/1/2 181/1/2
f 176/1/2 164/1/2 182/1/2
f 178/1/2 179/1/2 183/1/2
f 181/1/2 182/1/2 183/1/2
f 163/1/2 177/1/2 183/1/2
f 180/1/2 181/1/2 183/1/2
f 179/1/2 180/1/2 183/1/2
f 177/1/2 178/1/2 183/1/2
f 182/1/2 164/1/2 184/1/2
f 183/1/2 182/1/2 184/1/2
f 185/4/2 186/4/2 191/4/2
f 191/4/2 186/4/2 192/4/2
f 187/4/2 188/4/2 193/4/2
f 193/4/2 188/4/2 194/4/2
f 189/4/2 190/4/2 195/4/2
f 195/4/2 190/4/2 196/4/2
f 197/4/2 198/4/2 199/4/2
f 199/4/2 198/4/2 200/4/2
f 201/5/2 202/5/2 203/5/2
f 203/5/2 202/5/2 204/5/2
f 207/5/3 206/5/3 205/5/3
f 208/5/3 206/5/3 207/5/3
f 211/4/3 210/4/3 209/4/3
f 212/4/3 210/4/3 211/4/3
f 215/4/3 214/4/3 213/4/3
f 216/4/3 214/4/3 215/4/3
f 219/4/3 218/4/3 217/4/3
f 220/4/3 218/4/3 219/4/3
f 222/4/3 218/4/3 220/4/3
f 223/4/3 222/4/3 221/4/3
f 224/4/3 218/4/3 222/4/3
f 224/4/3 222/4/3 223/4/3
f 227/4/3 226/4/3 225/4/3
f 228/4/3 226/4/3 227/4/3
f 231/1/3 230/1/3 229/1/3
f 232/1/3 230/1/3 231/1/3
f 233/1/3 230/1/3 232/1/3
f 234/1/3 231/1/3 229/1/3
f 236/1/3 230/1/3 233/1/3
f 237/1/3 235/1/3 234/1/3
f 237/1/3 236/1/3 235/1/3
f 237/1/3 234/1/3 229/1/3
f 238/1/3 230/1/3 236/1/3
f 238/1/3 236/1/3 237/1/3
f 240/1/3 230/1/3 238/1/3
f 241/1/3 240/1/3 239/1/3
f 242/1/3 240/1/3 241/1/3
f 243/1/3 240/1/3 242/1/3
f 244/1/3 241/1/3 239/1/3
f 246/1/3 240/1/3 243/1/3
f 247/1/3 245/1/3 244/1/3
f 247/1/3 246/1/3 245/1/3
f 247/1/3 244/1/3 239/1/3
f 248/1/3 230/1/3 240/1/3
f 248/1/3 246/1/3 247/1/3
f 248/1/3 240/1/3 246/1/3
f 251/5/3 250/5/3 249/5/3
f 252/5/3 250/5/3 251/5/3
f 255/3/3 254/3/3 253/3/3
f 256/3/3 254/3/3 255/3/3
f 259/5/3 258/5/3 257/5/3
f 260/5/3 258/5/3 259/5/3
f 263/4/3 262/4/3 261/4/3
f 264/4/3 262/4/3 263/4/3
f 267/4/3 266/4/3 265/4/3
f 268/4/3 266/4/3 267/4/3
f 271/1/3 270/1/3 269/1/3
f 272/1/3 270/1/3 271/1/3
f 275/1/3 274/1/3 273/1/3
f 276/1/3 274/1/3 275/1/3
f 279/4/3 278/4/3 277/4/3
f 280/4/3 278/4/3 279/4/3
f 283/4/3 282/4/3 281/4/3
f 284/4/3 282/4/3 283/4/3
f 287/1/3 286/1/3 285/1/3
f 288/1/3 286/1/3 287/1/3
f 291/1/3 290/1/3 289/1/3
f 292/1/3 290/1/3 291/1/3
f 295/4/3 294/4/3 293/4/3
f 296/4/3 294/4/3 295/4/3
f 299/4/3 298/4/3 297/4/3
f 300/4/3 298/4/3 299/4/3
f 303/1/3 302/1/3 301/1/3
f 304/1/3 302/1/3 303/1/3
f 307/1/3 306/1/3 305/1/3
f 308/1/3 306/1/3 307/1/3
f 309/1/4 310/1/4 311/1/4
f 311/1/4 310/1/4 312/1/4
f 313/1/4 314/1/4 315/1/4
f 315/1/4 314/1/4 316/1/4
f 317/4/4 318/4/4 319/4/4
f 319/4/4 318/4/4 320/4/4
f 321/4/4 322/4/4 323/4/4
f 323/4/4 322/4/4 324/4/4
f 325/1/4 326/1/4 327/1/4
f 327/1/4 326/1/4 328/1/4
f 329/1/4 330/1/4 331/1/4
f 331/1/4 330/1/4 332/1/4
f 333/4/4 334/4/4 335/4/4
f 335/4/4 334/4/4 336/4/4
f 337/4/4 338/4/4 339/4/4
f 339/4/4 338/4/4 340/4/4
f 341/1/4 342/1/4 343/1/4
f 343/1/4 342/1/4 344/1/4
f 345/1/4 346/1/4 347/1/4
f 347/1/4 346/1/4 348/1/4
f 349/4/4 350/4/4 351/4/4
f 351/4/4 350/4/4 352/4/4
f 353/4/4 354/4/4 355/4/4
f 355/4/4 354/4/4 356/4/4
f 357/5/4 358/5/4 359/5/4
f 359/5/4 358/5/4 360/5/4
f 361/5/4 362/5/4 363/5/4
f 363/5/4 362/5/4 364/5/4
f 365/5/4 366/5/4 367/5/4
f 367/5/4 366/5/4 368/5/4
f 369/1/4 370/1/4 371/1/4
f 371/1/4 370/1/4 372/1/4
f 372/1/4 370/1/4 373/1/4
f 369/1/4 371/1/4 374/1/4
f 373/1/4 370/1/4 376/1/4
f 374/1/4 375/1/4 377/1/4
f 375/1/4 376/1/4 377/1/4
f 369/1/4 374/1/4 377/1/4
f 377/1/4 376/1/4 378/1/4
f 376/1/4 370/1/4 379/1/4
f 378/1/4 376/1/4 379/1/4
f 369/1/4 377/1/4 380/1/4
f 379/1/4 370/1/4 382/1/4
f 380/1/4 381/1/4 383/1/4
f 381/1/4 382/1/4 383/1/4
f 369/1/4 380/1/4 383/1/4
f 383/1/4 382/1/4 384/1/4
f 382/1/4 370/1/4 385/1/4
f 384/1/4 382/1/4 385/1/4
f 369/1/4 383/1/4 386/1/4
f 385/1/4 370/1/4 388/1/4
f 386/1/4 387/1/4 389/1/4
f 387/1/4 388/1/4 389/1/4
f 369/1/4 386/1/4 389/1/4
f 388/1/4 370/1/4 390/1/4
f 389/1/4 388/1/4 390/1/4
f 391/4/4 392/4/4 393/4/4
f 393/4/4 392/4/4 394/4/4
f 395/4/4 396/4/4 397/4/4
f 397/4/4 396/4/4 398/4/4
f 399/4/4 400/4/4 401/4/4
f 401/4/4 400/4/4 402/4/4
f 403/4/4 404/4/4 405/4/4
f 405/4/4 404/4/4 406/4/4
f 407/5/4 408/5/4 409/5/4
f 409/5/4 408/5/4 410/5/4
f 413/5/5 412/5/5 411/5/5
f 414/5/5 412/5/5 413/5/5
f 419/4/5 416/4/5 415/4/5
f 420/4/5 416/4/5 419/4/5
f 421/4/5 418/4/5 417/4/5
f 422/4/5 418/4/5 421/4/5
f 427/4/5 424/4/5 423/4/5
f 428/4/5 424/4/5 427/4/5
f 429/4/5 426/4/5 425/4/5
f 430/4/5 426/4/5 429/4/5
f 435/4/5 432/4/5 431/4/5
f 436/4/5 432/4/5 435/4/5
f 437/4/5 434/4/5 433/4/5
f 438/4/5 434/4/5 437/4/5
f 443/4/5 440/4/5 439/4/5
f 444/4/5 440/4/5 443/4/5
f 445/4/5 442/4/5 441/4/5
f 446/4/5 442/4/5 445/4/5
f 453/4/5 448/4/5 447/4/5
f 454/4/5 448/4/5 453/4/5
f 455/4/5 450/4/5 449/4/5
f 456/4/5 450/4/5 455/4/5
f 457/4/5 452/4/5 451/4/5
f 458/4/5 452/4/5 457/4/5
f 465/1/5 462/1/5 461/1/5
f 466/1/5 462/1/5 465/1/5
f 467/4/5 460/4/5 459/4/5
f 468/4/5 460/4/5 467/4/5
f 469/1/5 464/1/5 463/1/5
f 470/1/5 464/1/5 469/1/5
f 475/1/5 472/1/5 471/1/5
f 476/1/5 472/1/5 475/1/5
f 477/1/5 474/1/5 473/1/5
f 478/1/5 474/1/5 477/1/5
f 483/1/5 480/1/5 479/1/5
f 484/1/5 480/1/5 483/1/5
f 485/1/5 482/1/5 481/1/5
f 486/1/5 482/1/5 485/1/5
f 491/1/5 488/1/5 487/1/5
f 492/1/5 488/1/5 491/1/5
f 493/1/5 490/1/5 489/1/5
f 494/1/5 490/1/5 493/1/5
f 501/1/5 496/1/5 495/1/5
f 502/1/5 496/1/5 501/1/5
f 503/1/5 498/1/5 497/1/5
f 504/1/5 498/1/5 503/1/5
f 505/1/5 500/1/5 499/1/5
f 506/1/5 500/1/5 505/1/5
f 509/4/5 508/4/5 507/4/5
f 510/4/5 508/4/5 509/4/5
f 511/4/5 509/4/5 507/4/5
f 512/4/5 508/4/5 510/4/5
f 513/4/5 511/4/5 507/4/5
f 513/4/5 512/4/5 511/4/5
f 514/4/5 508/4/5 512/4/5
f 514/4/5 512/4/5 513/4/5
f 515/5/6 516/5/6 517/5/6
f 517/5/6 516/5/6 518/5/6
f 518/5/6 516/5/6 519/5/6
f 519/5/6 516/5/6 520/5/6
f 515/5/6 517/5/6 521/5/6
f 521/5/6 517/5/6 522/5/6
f 520/5/6 516/5/6 523/5/6
f 523/5/6 516/5/6 524/5/6
f 518/5/6 519/5/6 525/5/6
f 525/5/6 519/5/6 526/5/6
f 515/5/6 521/5/6 527/5/6
f 524/5/6 516/5/6 528/5/6
f 515/5/6 527/5/6 529/5/6
f 527/5/6 528/5/6 529/5/6
f 528/5/6 516/5/6 530/5/6
f 529/5/6 528/5/6 530/5/6
f 531/4/6 532/4/6 535/4/6
f 535/4/6 532/4/6 536/4/6
f 533/4/6 534/4/6 537/4/6
f 537/4/6 534/4/6 538/4/6
f 535/4/6 536/4/6 539/4/6
f 539/4/6 536/4/6 540/4/6
f 537/4/6 538/4/6 541/4/6
f 541/4/6 538/4/6 542/4/6
f 544/4/6 545/4/6 549/4/6
f 543/4/6 544/4/6 549/4/6
f 549/4/6 545/4/6 550/4/6
f 550/4/6 545/4/6 551/4/6
f 547/4/6 548/4/6 552/4/6
f 546/4/6 547/4/6 552/4/6
f 552/4/6 548/4/6 553/4/6
f 553/4/6 548/4/6 554/4/6
f 555/4/6 556/4/6 561/4/6
f 556/4/6 557/4/6 561/4/6
f 561/4/6 557/4/6 562/4/6
f 562/4/6 557/4/6 563/4/6
f 559/4/6 560/4/6 564/4/6
f 558/4/6 559/4/6 564/4/6
f 564/4/6 560/4/6 565/4/6
f 565/4/6 560/4/6 566/4/6
f 567/4/6 568/4/6 573/4/6
f 568/4/6 569/4/6 573/4/6
f 573/4/6 569/4/6 574/4/6
f 574/4/6 569/4/6 575/4/6
f 571/4/6 572/4/6 576/4/6
f 570/4/6 571/4/6 576/4/6
f 576/4/6 572/4/6 577/4/6
f 577/4/6 572/4/6 578/4/6
f 579/4/6 580/4/6 585/4/6
f 585/4/6 580/4/6 586/4/6
f 581/4/6 582/4/6 587/4/6
f 587/4/6 582/4/6 588/4/6
f 583/4/6 584/4/6 589/4/6
f 589/4/6 584/4/6 590/4/6
f 585/4/6 586/4/6 591/4/6
f 591/4/6 586/4/6 592/4/6
f 587/4/6 588/4/6 593/4/6
f 593/4/6 588/4/6 594/4/6
f 589/4/6 590/4/6 595/4/6
f 595/4/6 590/4/6 596/4/6
f 597/4/6 598/4/6 599/4/6
f 599/4/6 598/4/6 600/4/6
f 601/4/6 602/4/6 603/4/6
f 603/4/6 602/4/6 604/4/6
f 601/4/6 603/4/6 605/4/6
f 603/1/6 604/1/6 605/1/6
f 604/4/6 602/4/6 606/4/6
f 605/1/6 604/1/6 606/1/6
f 601/4/6 605/4/6 607/4/6
f 605/4/6 606/4/6 607/4/6
f 606/4/6 602/4/6 608/4/6
f 607/4/6 606/4/6 608/4/6
