# MagicaVoxel @ Ephtracy

# group
o 

# material
mtllib Tree.mtl
usemtl palette

# normals
vn -1 0 0
vn 1 0 0
vn 0 0 1
vn 0 0 -1
vn 0 -1 0
vn 0 1 0

# texcoords
vt 0.302734 0.5
vt 0.560547 0.5

# verts
v -1.4 0.9 1.2
v -1.4 0.9 0.7
v -1.4 1 1.2
v -1.4 1 1.1
v -1.4 1 0.8
v -1.4 1 0.7
v -1.4 1.1 1.1
v -1.4 1.1 0.8
v -1.3 1 1.2
v -1.3 1 1.1
v -1.3 1 0.8
v -1.3 1 0.7
v -1.3 1.1 1.2
v -1.3 1.1 1.1
v -1.3 1.1 0.8
v -1.3 1.1 0.7
v -1.3 1.2 1.1
v -1.3 1.2 1
v -1.3 1.2 0.9
v -1.3 1.2 0.8
v -1.3 1.3 1
v -1.3 1.3 0.9
v -1.2 0 1
v -1.2 0 0.9
v -1.2 0.4 1.1
v -1.2 0.4 1
v -1.2 0.5 1.1
v -1.2 0.5 1
v -1.2 0.9 1
v -1.2 0.9 0.9
v -1.2 1.2 1.1
v -1.2 1.2 1
v -1.2 1.2 0.9
v -1.2 1.2 0.8
v -1.2 1.3 1.1
v -1.2 1.3 1
v -1.2 1.3 0.9
v -1.2 1.3 0.8
v -1.2 1.4 1
v -1.2 1.4 0.9
v -1.1 0 1
v -1.1 0 0.9
v -1.1 0.4 1.1
v -1.1 0.4 1
v -1.1 0.5 1.1
v -1.1 0.5 1
v -1.1 0.6 1
v -1.1 0.6 0.9
v -1.1 0.7 1
v -1.1 0.7 0.9
v -1.1 0.9 1
v -1.1 0.9 0.9
v -1.1 1.2 1.1
v -1.1 1.2 1
v -1.1 1.2 0.9
v -1.1 1.2 0.8
v -1.1 1.3 1.1
v -1.1 1.3 1
v -1.1 1.3 0.9
v -1.1 1.3 0.8
v -1.1 1.4 1
v -1.1 1.4 0.9
v -1 1 1.2
v -1 1 1.1
v -1 1 0.8
v -1 1 0.7
v -1 1.1 1.2
v -1 1.1 1.1
v -1 1.1 0.8
v -1 1.1 0.7
v -1 1.2 1.1
v -1 1.2 1
v -1 1.2 0.9
v -1 1.2 0.8
v -1 1.3 1
v -1 1.3 0.9
v -0.9 0.6 1
v -0.9 0.6 0.9
v -0.9 0.7 1
v -0.9 0.7 0.9
v -0.9 0.9 1.2
v -0.9 0.9 0.7
v -0.9 1 1.2
v -0.9 1 1.1
v -0.9 1 0.8
v -0.9 1 0.7
v -0.9 1.1 1.1
v -0.9 1.1 0.8
v -1.4 0.9 1.2
v -1.4 1 1.2
v -1.3 1 1.2
v -1.3 1.1 1.2
v -1 1 1.2
v -1 1.1 1.2
v -0.9 0.9 1.2
v -0.9 1 1.2
v -1.4 1 1.1
v -1.4 1.1 1.1
v -1.3 1 1.1
v -1.3 1.1 1.1
v -1.3 1.2 1.1
v -1.2 0.4 1.1
v -1.2 0.5 1.1
v -1.2 1.2 1.1
v -1.2 1.3 1.1
v -1.1 0.4 1.1
v -1.1 0.5 1.1
v -1.1 1.2 1.1
v -1.1 1.3 1.1
v -1 1 1.1
v -1 1.1 1.1
v -1 1.2 1.1
v -0.9 1 1.1
v -0.9 1.1 1.1
v -1.3 1.2 1
v -1.3 1.3 1
v -1.2 0 1
v -1.2 0.4 1
v -1.2 0.5 1
v -1.2 0.9 1
v -1.2 1.2 1
v -1.2 1.3 1
v -1.2 1.4 1
v -1.1 0 1
v -1.1 0.4 1
v -1.1 0.5 1
v -1.1 0.6 1
v -1.1 0.7 1
v -1.1 0.9 1
v -1.1 1.2 1
v -1.1 1.3 1
v -1.1 1.4 1
v -1 1.2 1
v -1 1.3 1
v -0.9 0.6 1
v -0.9 0.7 1
v -1.3 1.2 0.9
v -1.3 1.3 0.9
v -1.2 0 0.9
v -1.2 0.9 0.9
v -1.2 1.2 0.9
v -1.2 1.3 0.9
v -1.2 1.4 0.9
v -1.1 0 0.9
v -1.1 0.6 0.9
v -1.1 0.7 0.9
v -1.1 0.9 0.9
v -1.1 1.2 0.9
v -1.1 1.3 0.9
v -1.1 1.4 0.9
v -1 1.2 0.9
v -1 1.3 0.9
v -0.9 0.6 0.9
v -0.9 0.7 0.9
v -1.4 1 0.8
v -1.4 1.1 0.8
v -1.3 1 0.8
v -1.3 1.1 0.8
v -1.3 1.2 0.8
v -1.2 1.2 0.8
v -1.2 1.3 0.8
v -1.1 1.2 0.8
v -1.1 1.3 0.8
v -1 1 0.8
v -1 1.1 0.8
v -1 1.2 0.8
v -0.9 1 0.8
v -0.9 1.1 0.8
v -1.4 0.9 0.7
v -1.4 1 0.7
v -1.3 1 0.7
v -1.3 1.1 0.7
v -1 1 0.7
v -1 1.1 0.7
v -0.9 0.9 0.7
v -0.9 1 0.7
v -1.2 0 1
v -1.1 0 1
v -1.2 0 0.9
v -1.1 0 0.9
v -1.2 0.4 1.1
v -1.1 0.4 1.1
v -1.2 0.4 1
v -1.1 0.4 1
v -1.1 0.6 1
v -0.9 0.6 1
v -1.1 0.6 0.9
v -0.9 0.6 0.9
v -1.4 0.9 1.2
v -0.9 0.9 1.2
v -1.2 0.9 1
v -1.1 0.9 1
v -1.2 0.9 0.9
v -1.1 0.9 0.9
v -1.4 0.9 0.7
v -0.9 0.9 0.7
v -1.2 0.5 1.1
v -1.1 0.5 1.1
v -1.2 0.5 1
v -1.1 0.5 1
v -1.1 0.7 1
v -0.9 0.7 1
v -1.1 0.7 0.9
v -0.9 0.7 0.9
v -1.4 1 1.2
v -1.3 1 1.2
v -1 1 1.2
v -0.9 1 1.2
v -1.4 1 1.1
v -1.3 1 1.1
v -1 1 1.1
v -0.9 1 1.1
v -1.4 1 0.8
v -1.3 1 0.8
v -1 1 0.8
v -0.9 1 0.8
v -1.4 1 0.7
v -1.3 1 0.7
v -1 1 0.7
v -0.9 1 0.7
v -1.3 1.1 1.2
v -1 1.1 1.2
v -1.4 1.1 1.1
v -1.3 1.1 1.1
v -1 1.1 1.1
v -0.9 1.1 1.1
v -1.4 1.1 0.8
v -1.3 1.1 0.8
v -1 1.1 0.8
v -0.9 1.1 0.8
v -1.3 1.1 0.7
v -1 1.1 0.7
v -1.3 1.2 1.1
v -1.2 1.2 1.1
v -1.1 1.2 1.1
v -1 1.2 1.1
v -1.3 1.2 1
v -1.2 1.2 1
v -1.1 1.2 1
v -1 1.2 1
v -1.3 1.2 0.9
v -1.2 1.2 0.9
v -1.1 1.2 0.9
v -1 1.2 0.9
v -1.3 1.2 0.8
v -1.2 1.2 0.8
v -1.1 1.2 0.8
v -1 1.2 0.8
v -1.2 1.3 1.1
v -1.1 1.3 1.1
v -1.3 1.3 1
v -1.2 1.3 1
v -1.1 1.3 1
v -1 1.3 1
v -1.3 1.3 0.9
v -1.2 1.3 0.9
v -1.1 1.3 0.9
v -1 1.3 0.9
v -1.2 1.3 0.8
v -1.1 1.3 0.8
v -1.2 1.4 1
v -1.1 1.4 1
v -1.2 1.4 0.9
v -1.1 1.4 0.9

# faces
f 3/2/1 2/2/1 1/2/1
f 4/2/1 2/2/1 3/2/1
f 5/2/1 2/2/1 4/2/1
f 6/2/1 2/2/1 5/2/1
f 7/2/1 5/2/1 4/2/1
f 8/2/1 5/2/1 7/2/1
f 13/2/1 10/2/1 9/2/1
f 14/2/1 10/2/1 13/2/1
f 15/2/1 12/2/1 11/2/1
f 16/2/1 12/2/1 15/2/1
f 17/2/1 15/2/1 14/2/1
f 18/2/1 15/2/1 17/2/1
f 19/2/1 15/2/1 18/2/1
f 20/2/1 15/2/1 19/2/1
f 21/2/1 19/2/1 18/2/1
f 22/2/1 19/2/1 21/2/1
f 26/1/1 24/1/1 23/1/1
f 27/1/1 26/1/1 25/1/1
f 28/1/1 24/1/1 26/1/1
f 28/1/1 26/1/1 27/1/1
f 29/1/1 24/1/1 28/1/1
f 30/1/1 24/1/1 29/1/1
f 35/2/1 32/2/1 31/2/1
f 36/2/1 32/2/1 35/2/1
f 37/2/1 34/2/1 33/2/1
f 38/2/1 34/2/1 37/2/1
f 39/2/1 37/2/1 36/2/1
f 40/2/1 37/2/1 39/2/1
f 41/1/2 42/1/2 44/1/2
f 43/1/2 44/1/2 45/1/2
f 44/1/2 42/1/2 46/1/2
f 45/1/2 44/1/2 46/1/2
f 46/1/2 42/1/2 47/1/2
f 47/1/2 42/1/2 48/1/2
f 49/1/2 50/1/2 51/1/2
f 51/1/2 50/1/2 52/1/2
f 53/2/2 54/2/2 57/2/2
f 57/2/2 54/2/2 58/2/2
f 55/2/2 56/2/2 59/2/2
f 59/2/2 56/2/2 60/2/2
f 58/2/2 59/2/2 61/2/2
f 61/2/2 59/2/2 62/2/2
f 63/2/2 64/2/2 67/2/2
f 67/2/2 64/2/2 68/2/2
f 65/2/2 66/2/2 69/2/2
f 69/2/2 66/2/2 70/2/2
f 68/2/2 69/2/2 71/2/2
f 71/2/2 69/2/2 72/2/2
f 72/2/2 69/2/2 73/2/2
f 73/2/2 69/2/2 74/2/2
f 72/2/2 73/2/2 75/2/2
f 75/2/2 73/2/2 76/2/2
f 77/1/2 78/1/2 79/1/2
f 79/1/2 78/1/2 80/1/2
f 81/2/2 82/2/2 83/2/2
f 83/2/2 82/2/2 84/2/2
f 84/2/2 82/2/2 85/2/2
f 85/2/2 82/2/2 86/2/2
f 84/2/2 85/2/2 87/2/2
f 87/2/2 85/2/2 88/2/2
f 91/2/3 90/2/3 89/2/3
f 93/2/3 91/2/3 89/2/3
f 93/2/3 92/2/3 91/2/3
f 94/2/3 92/2/3 93/2/3
f 95/2/3 93/2/3 89/2/3
f 96/2/3 93/2/3 95/2/3
f 99/2/3 98/2/3 97/2/3
f 100/2/3 98/2/3 99/2/3
f 104/2/3 101/2/3 100/2/3
f 106/1/3 103/1/3 102/1/3
f 107/1/3 103/1/3 106/1/3
f 108/2/3 105/2/3 104/2/3
f 108/2/3 104/2/3 100/2/3
f 109/2/3 105/2/3 108/2/3
f 111/2/3 108/2/3 100/2/3
f 112/2/3 108/2/3 111/2/3
f 113/2/3 111/2/3 110/2/3
f 114/2/3 111/2/3 113/2/3
f 121/2/3 116/2/3 115/2/3
f 122/2/3 116/2/3 121/2/3
f 124/1/3 118/1/3 117/1/3
f 125/1/3 118/1/3 124/1/3
f 126/1/3 120/1/3 119/1/3
f 127/1/3 120/1/3 126/1/3
f 128/1/3 120/1/3 127/1/3
f 129/1/3 120/1/3 128/1/3
f 131/2/3 123/2/3 122/2/3
f 132/2/3 123/2/3 131/2/3
f 133/2/3 131/2/3 130/2/3
f 134/2/3 131/2/3 133/2/3
f 135/1/3 128/1/3 127/1/3
f 136/1/3 128/1/3 135/1/3
f 137/2/4 138/2/4 141/2/4
f 141/2/4 138/2/4 142/2/4
f 139/1/4 140/1/4 144/1/4
f 144/1/4 140/1/4 145/1/4
f 145/1/4 140/1/4 146/1/4
f 146/1/4 140/1/4 147/1/4
f 142/2/4 143/2/4 149/2/4
f 149/2/4 143/2/4 150/2/4
f 148/2/4 149/2/4 151/2/4
f 151/2/4 149/2/4 152/2/4
f 145/1/4 146/1/4 153/1/4
f 153/1/4 146/1/4 154/1/4
f 155/2/4 156/2/4 157/2/4
f 157/2/4 156/2/4 158/2/4
f 158/2/4 159/2/4 160/2/4
f 158/2/4 160/2/4 162/2/4
f 160/2/4 161/2/4 162/2/4
f 162/2/4 161/2/4 163/2/4
f 158/2/4 162/2/4 165/2/4
f 165/2/4 162/2/4 166/2/4
f 164/2/4 165/2/4 167/2/4
f 167/2/4 165/2/4 168/2/4
f 169/2/4 170/2/4 171/2/4
f 169/2/4 171/2/4 173/2/4
f 171/2/4 172/2/4 173/2/4
f 173/2/4 172/2/4 174/2/4
f 169/2/4 173/2/4 175/2/4
f 175/2/4 173/2/4 176/2/4
f 179/1/5 178/1/5 177/1/5
f 180/1/5 178/1/5 179/1/5
f 183/1/5 182/1/5 181/1/5
f 184/1/5 182/1/5 183/1/5
f 187/1/5 186/1/5 185/1/5
f 188/1/5 186/1/5 187/1/5
f 191/2/5 190/2/5 189/2/5
f 192/2/5 190/2/5 191/2/5
f 193/2/5 191/2/5 189/2/5
f 194/2/5 190/2/5 192/2/5
f 195/2/5 193/2/5 189/2/5
f 195/2/5 194/2/5 193/2/5
f 196/2/5 190/2/5 194/2/5
f 196/2/5 194/2/5 195/2/5
f 197/1/6 198/1/6 199/1/6
f 199/1/6 198/1/6 200/1/6
f 201/1/6 202/1/6 203/1/6
f 203/1/6 202/1/6 204/1/6
f 205/2/6 206/2/6 209/2/6
f 209/2/6 206/2/6 210/2/6
f 207/2/6 208/2/6 211/2/6
f 211/2/6 208/2/6 212/2/6
f 213/2/6 214/2/6 217/2/6
f 217/2/6 214/2/6 218/2/6
f 215/2/6 216/2/6 219/2/6
f 219/2/6 216/2/6 220/2/6
f 221/2/6 222/2/6 224/2/6
f 224/2/6 222/2/6 225/2/6
f 223/2/6 224/2/6 227/2/6
f 227/2/6 224/2/6 228/2/6
f 225/2/6 226/2/6 229/2/6
f 229/2/6 226/2/6 230/2/6
f 228/2/6 229/2/6 231/2/6
f 231/2/6 229/2/6 232/2/6
f 233/2/6 234/2/6 237/2/6
f 237/2/6 234/2/6 238/2/6
f 235/2/6 236/2/6 239/2/6
f 239/2/6 236/2/6 240/2/6
f 241/2/6 242/2/6 245/2/6
f 245/2/6 242/2/6 246/2/6
f 243/2/6 244/2/6 247/2/6
f 247/2/6 244/2/6 248/2/6
f 249/2/6 250/2/6 252/2/6
f 252/2/6 250/2/6 253/2/6
f 251/2/6 252/2/6 255/2/6
f 255/2/6 252/2/6 256/2/6
f 253/2/6 254/2/6 257/2/6
f 257/2/6 254/2/6 258/2/6
f 256/2/6 257/2/6 259/2/6
f 259/2/6 257/2/6 260/2/6
f 261/2/6 262/2/6 263/2/6
f 263/2/6 262/2/6 264/2/6
