# MagicaVoxel @ Ephtracy

# group
o 

# material
mtllib Fence_left.mtl
usemtl palette

# normals
vn -1 0 0
vn 1 0 0
vn 0 0 1
vn 0 0 -1
vn 0 -1 0
vn 0 1 0

# texcoords
vt 0.146484 0.5
vt 0.302734 0.5
vt 0.974609 0.5

# verts
v 0.6 2.5 -1.8
v 0.6 2.5 -1.9
v 0.6 2.9 -1.8
v 0.6 2.9 -1.9
v 0.6 3 -1.8
v 0.6 3 -1.9
v 0.6 3.4 -1.8
v 0.6 3.4 -1.9
v 0.6 3.5 -1.8
v 0.6 3.5 -1.9
v 0.6 3.9 -1.8
v 0.6 3.9 -1.9
v 1 2 -1.5
v 1 2 -2.2
v 1 2.1 -1.5
v 1 2.1 -1.7
v 1 2.1 -1.8
v 1 2.1 -1.9
v 1 2.1 -2
v 1 2.1 -2.2
v 1 2.5 -1.8
v 1 2.5 -1.9
v 1 2.9 -1.8
v 1 2.9 -1.9
v 1 3 -1.8
v 1 3 -1.9
v 1 3.4 -1.8
v 1 3.4 -1.9
v 1 3.5 -1.8
v 1 3.5 -1.9
v 1 3.9 -1.7
v 1 3.9 -1.8
v 1 3.9 -1.9
v 1 3.9 -2
v 1 4 -1.8
v 1 4 -1.9
v 1.1 2 -1.5
v 1.1 2 -2.2
v 1.1 2.1 -1.5
v 1.1 2.1 -1.7
v 1.1 2.1 -1.8
v 1.1 2.1 -1.9
v 1.1 2.1 -2
v 1.1 2.1 -2.2
v 1.1 2.5 -1.8
v 1.1 2.5 -1.9
v 1.1 2.9 -1.8
v 1.1 2.9 -1.9
v 1.1 3 -1.8
v 1.1 3 -1.9
v 1.1 3.4 -1.8
v 1.1 3.4 -1.9
v 1.1 3.5 -1.8
v 1.1 3.5 -1.9
v 1.1 3.9 -1.7
v 1.1 3.9 -1.8
v 1.1 3.9 -1.9
v 1.1 3.9 -2
v 1.1 4 -1.8
v 1.1 4 -1.9
v 1.7 3 -1.8
v 1.7 3 -1.9
v 1.7 3.1 -1.8
v 1.7 3.1 -1.9
v 1.7 3.5 -1.8
v 1.7 3.5 -1.9
v 1.7 3.6 -1.8
v 1.7 3.6 -1.9
v 1.8 3.3 -1.8
v 1.8 3.3 -1.9
v 1.8 3.4 -1.8
v 1.8 3.4 -1.9
v 1.8 3.6 -1.8
v 1.8 3.6 -1.9
v 1.8 3.7 -1.8
v 1.8 3.7 -1.9
v 1.8 3.8 -1.8
v 1.8 3.8 -1.9
v 1.8 3.9 -1.8
v 1.8 3.9 -1.9
v 1.9 2.5 -1.8
v 1.9 2.5 -1.9
v 1.9 2.6 -1.8
v 1.9 2.6 -1.9
v 1.9 2.8 -1.8
v 1.9 2.8 -1.9
v 1.9 2.9 -1.8
v 1.9 2.9 -1.9
v 1.9 3.1 -1.8
v 1.9 3.1 -1.9
v 1.9 3.3 -1.8
v 1.9 3.3 -1.9
v 1.9 3.7 -1.8
v 1.9 3.7 -1.9
v 1.9 3.8 -1.8
v 1.9 3.8 -1.9
v 2 2.6 -1.8
v 2 2.6 -1.9
v 2 2.8 -1.8
v 2 2.8 -1.9
v 1 2 -1.5
v 1 2.1 -1.5
v 1.1 2 -1.5
v 1.1 2.1 -1.5
v 1 2.1 -1.7
v 1 3.9 -1.7
v 1.1 2.1 -1.7
v 1.1 3.9 -1.7
v 0.6 2.5 -1.8
v 0.6 2.9 -1.8
v 0.6 3 -1.8
v 0.6 3.4 -1.8
v 0.6 3.5 -1.8
v 0.6 3.9 -1.8
v 1 2.5 -1.8
v 1 2.9 -1.8
v 1 3 -1.8
v 1 3.4 -1.8
v 1 3.5 -1.8
v 1 3.9 -1.8
v 1 4 -1.8
v 1.1 2.5 -1.8
v 1.1 2.9 -1.8
v 1.1 3 -1.8
v 1.1 3.4 -1.8
v 1.1 3.5 -1.8
v 1.1 3.9 -1.8
v 1.1 4 -1.8
v 1.7 3 -1.8
v 1.7 3.1 -1.8
v 1.7 3.5 -1.8
v 1.7 3.6 -1.8
v 1.8 3.3 -1.8
v 1.8 3.4 -1.8
v 1.8 3.6 -1.8
v 1.8 3.7 -1.8
v 1.8 3.8 -1.8
v 1.8 3.9 -1.8
v 1.9 2.5 -1.8
v 1.9 2.6 -1.8
v 1.9 2.8 -1.8
v 1.9 2.9 -1.8
v 1.9 3.1 -1.8
v 1.9 3.3 -1.8
v 1.9 3.7 -1.8
v 1.9 3.8 -1.8
v 2 2.6 -1.8
v 2 2.8 -1.8
v 1 2.1 -1.9
v 1 2.5 -1.9
v 1 2.9 -1.9
v 1 3 -1.9
v 1 3.4 -1.9
v 1 3.5 -1.9
v 1.1 2.1 -1.9
v 1.1 2.5 -1.9
v 1.1 2.9 -1.9
v 1.1 3 -1.9
v 1.1 3.4 -1.9
v 1.1 3.5 -1.9
v 1 2.1 -1.8
v 1 2.5 -1.8
v 1 2.9 -1.8
v 1 3 -1.8
v 1 3.4 -1.8
v 1 3.5 -1.8
v 1.1 2.1 -1.8
v 1.1 2.5 -1.8
v 1.1 2.9 -1.8
v 1.1 3 -1.8
v 1.1 3.4 -1.8
v 1.1 3.5 -1.8
v 0.6 2.5 -1.9
v 0.6 2.9 -1.9
v 0.6 3 -1.9
v 0.6 3.4 -1.9
v 0.6 3.5 -1.9
v 0.6 3.9 -1.9
v 1 2.5 -1.9
v 1 2.9 -1.9
v 1 3 -1.9
v 1 3.4 -1.9
v 1 3.5 -1.9
v 1 3.9 -1.9
v 1 4 -1.9
v 1.1 2.5 -1.9
v 1.1 2.9 -1.9
v 1.1 3 -1.9
v 1.1 3.4 -1.9
v 1.1 3.5 -1.9
v 1.1 3.9 -1.9
v 1.1 4 -1.9
v 1.7 3 -1.9
v 1.7 3.1 -1.9
v 1.7 3.5 -1.9
v 1.7 3.6 -1.9
v 1.8 3.3 -1.9
v 1.8 3.4 -1.9
v 1.8 3.6 -1.9
v 1.8 3.7 -1.9
v 1.8 3.8 -1.9
v 1.8 3.9 -1.9
v 1.9 2.5 -1.9
v 1.9 2.6 -1.9
v 1.9 2.8 -1.9
v 1.9 2.9 -1.9
v 1.9 3.1 -1.9
v 1.9 3.3 -1.9
v 1.9 3.7 -1.9
v 1.9 3.8 -1.9
v 2 2.6 -1.9
v 2 2.8 -1.9
v 1 2.1 -2
v 1 3.9 -2
v 1.1 2.1 -2
v 1.1 3.9 -2
v 1 2 -2.2
v 1 2.1 -2.2
v 1.1 2 -2.2
v 1.1 2.1 -2.2
v 1 2 -1.5
v 1.1 2 -1.5
v 1 2 -2.2
v 1.1 2 -2.2
v 0.6 2.5 -1.8
v 1 2.5 -1.8
v 1.1 2.5 -1.8
v 1.9 2.5 -1.8
v 0.6 2.5 -1.9
v 1 2.5 -1.9
v 1.1 2.5 -1.9
v 1.9 2.5 -1.9
v 1.9 2.6 -1.8
v 2 2.6 -1.8
v 1.9 2.6 -1.9
v 2 2.6 -1.9
v 0.6 3 -1.8
v 1 3 -1.8
v 1.1 3 -1.8
v 1.7 3 -1.8
v 0.6 3 -1.9
v 1 3 -1.9
v 1.1 3 -1.9
v 1.7 3 -1.9
v 1.7 3.1 -1.8
v 1.9 3.1 -1.8
v 1.7 3.1 -1.9
v 1.9 3.1 -1.9
v 0.6 3.5 -1.8
v 1 3.5 -1.8
v 1.1 3.5 -1.8
v 1.7 3.5 -1.8
v 0.6 3.5 -1.9
v 1 3.5 -1.9
v 1.1 3.5 -1.9
v 1.7 3.5 -1.9
v 1.7 3.6 -1.8
v 1.8 3.6 -1.8
v 1.7 3.6 -1.9
v 1.8 3.6 -1.9
v 1.8 3.7 -1.8
v 1.9 3.7 -1.8
v 1.8 3.7 -1.9
v 1.9 3.7 -1.9
v 1 2.1 -1.5
v 1.1 2.1 -1.5
v 1 2.1 -1.7
v 1.1 2.1 -1.7
v 1 2.1 -1.8
v 1.1 2.1 -1.8
v 1 2.1 -1.9
v 1.1 2.1 -1.9
v 1 2.1 -2
v 1.1 2.1 -2
v 1 2.1 -2.2
v 1.1 2.1 -2.2
v 1.9 2.8 -1.8
v 2 2.8 -1.8
v 1.9 2.8 -1.9
v 2 2.8 -1.9
v 0.6 2.9 -1.8
v 1 2.9 -1.8
v 1.1 2.9 -1.8
v 1.9 2.9 -1.8
v 0.6 2.9 -1.9
v 1 2.9 -1.9
v 1.1 2.9 -1.9
v 1.9 2.9 -1.9
v 1.8 3.3 -1.8
v 1.9 3.3 -1.8
v 1.8 3.3 -1.9
v 1.9 3.3 -1.9
v 0.6 3.4 -1.8
v 1 3.4 -1.8
v 1.1 3.4 -1.8
v 1.8 3.4 -1.8
v 0.6 3.4 -1.9
v 1 3.4 -1.9
v 1.1 3.4 -1.9
v 1.8 3.4 -1.9
v 1.8 3.8 -1.8
v 1.9 3.8 -1.8
v 1.8 3.8 -1.9
v 1.9 3.8 -1.9
v 1 3.9 -1.7
v 1.1 3.9 -1.7
v 0.6 3.9 -1.8
v 1 3.9 -1.8
v 1.1 3.9 -1.8
v 1.8 3.9 -1.8
v 0.6 3.9 -1.9
v 1 3.9 -1.9
v 1.1 3.9 -1.9
v 1.8 3.9 -1.9
v 1 3.9 -2
v 1.1 3.9 -2
v 1 4 -1.8
v 1.1 4 -1.8
v 1 4 -1.9
v 1.1 4 -1.9

# faces
f 3/2/1 2/2/1 1/2/1
f 4/2/1 2/2/1 3/2/1
f 7/2/1 6/2/1 5/2/1
f 8/2/1 6/2/1 7/2/1
f 11/2/1 10/2/1 9/2/1
f 12/2/1 10/2/1 11/2/1
f 15/3/1 14/3/1 13/3/1
f 16/3/1 14/3/1 15/3/1
f 17/3/1 14/3/1 16/3/1
f 18/3/1 14/3/1 17/3/1
f 19/3/1 14/3/1 18/3/1
f 20/3/1 14/3/1 19/3/1
f 21/3/1 17/3/1 16/3/1
f 22/3/1 19/3/1 18/3/1
f 23/3/1 21/3/1 16/3/1
f 24/3/1 19/3/1 22/3/1
f 25/3/1 23/3/1 16/3/1
f 26/3/1 19/3/1 24/3/1
f 27/3/1 25/3/1 16/3/1
f 28/3/1 19/3/1 26/3/1
f 29/3/1 27/3/1 16/3/1
f 30/3/1 19/3/1 28/3/1
f 31/3/1 29/3/1 16/3/1
f 32/3/1 29/3/1 31/3/1
f 33/3/1 19/3/1 30/3/1
f 34/3/1 19/3/1 33/3/1
f 35/3/1 33/3/1 32/3/1
f 36/3/1 33/3/1 35/3/1
f 37/3/2 38/3/2 39/3/2
f 39/3/2 38/3/2 40/3/2
f 40/3/2 38/3/2 41/3/2
f 41/3/2 38/3/2 42/3/2
f 42/3/2 38/3/2 43/3/2
f 43/3/2 38/3/2 44/3/2
f 40/3/2 41/3/2 45/3/2
f 42/3/2 43/3/2 46/3/2
f 40/3/2 45/3/2 47/3/2
f 46/3/2 43/3/2 48/3/2
f 40/3/2 47/3/2 49/3/2
f 48/3/2 43/3/2 50/3/2
f 40/3/2 49/3/2 51/3/2
f 50/3/2 43/3/2 52/3/2
f 40/3/2 51/3/2 53/3/2
f 52/3/2 43/3/2 54/3/2
f 40/3/2 53/3/2 55/3/2
f 55/3/2 53/3/2 56/3/2
f 54/3/2 43/3/2 57/3/2
f 57/3/2 43/3/2 58/3/2
f 56/3/2 57/3/2 59/3/2
f 59/3/2 57/3/2 60/3/2
f 61/2/2 62/2/2 63/2/2
f 63/2/2 62/2/2 64/2/2
f 65/2/2 66/2/2 67/2/2
f 67/2/2 66/2/2 68/2/2
f 69/2/2 70/2/2 71/2/2
f 71/2/2 70/2/2 72/2/2
f 73/2/2 74/2/2 75/2/2
f 75/2/2 74/2/2 76/2/2
f 77/2/2 78/2/2 79/2/2
f 79/2/2 78/2/2 80/2/2
f 81/2/2 82/2/2 83/2/2
f 83/2/2 82/2/2 84/2/2
f 85/2/2 86/2/2 87/2/2
f 87/2/2 86/2/2 88/2/2
f 89/2/2 90/2/2 91/2/2
f 91/2/2 90/2/2 92/2/2
f 93/2/2 94/2/2 95/2/2
f 95/2/2 94/2/2 96/2/2
f 97/2/2 98/2/2 99/2/2
f 99/2/2 98/2/2 100/2/2
f 103/3/3 102/3/3 101/3/3
f 104/3/3 102/3/3 103/3/3
f 107/3/3 106/3/3 105/3/3
f 108/3/3 106/3/3 107/3/3
f 115/2/3 110/2/3 109/2/3
f 116/2/3 110/2/3 115/2/3
f 117/2/3 112/2/3 111/2/3
f 118/2/3 112/2/3 117/2/3
f 119/2/3 114/2/3 113/2/3
f 120/2/3 114/2/3 119/2/3
f 127/3/3 121/3/3 120/3/3
f 128/3/3 121/3/3 127/3/3
f 129/2/3 125/2/3 124/2/3
f 130/2/3 125/2/3 129/2/3
f 131/2/3 127/2/3 126/2/3
f 132/2/3 127/2/3 131/2/3
f 133/2/3 125/2/3 130/2/3
f 134/2/3 125/2/3 133/2/3
f 135/2/3 127/2/3 132/2/3
f 136/2/3 127/2/3 135/2/3
f 137/2/3 127/2/3 136/2/3
f 138/2/3 127/2/3 137/2/3
f 139/2/3 123/2/3 122/2/3
f 140/2/3 123/2/3 139/2/3
f 141/2/3 123/2/3 140/2/3
f 142/2/3 123/2/3 141/2/3
f 143/2/3 133/2/3 130/2/3
f 144/2/3 133/2/3 143/2/3
f 145/2/3 137/2/3 136/2/3
f 146/2/3 137/2/3 145/2/3
f 147/2/3 141/2/3 140/2/3
f 148/2/3 141/2/3 147/2/3
f 155/3/3 150/3/3 149/3/3
f 156/3/3 150/3/3 155/3/3
f 157/3/3 152/3/3 151/3/3
f 158/3/3 152/3/3 157/3/3
f 159/3/3 154/3/3 153/3/3
f 160/3/3 154/3/3 159/3/3
f 161/3/4 162/3/4 167/3/4
f 167/3/4 162/3/4 168/3/4
f 163/3/4 164/3/4 169/3/4
f 169/3/4 164/3/4 170/3/4
f 165/3/4 166/3/4 171/3/4
f 171/3/4 166/3/4 172/3/4
f 173/2/4 174/2/4 179/2/4
f 179/2/4 174/2/4 180/2/4
f 175/2/4 176/2/4 181/2/4
f 181/2/4 176/2/4 182/2/4
f 177/2/4 178/2/4 183/2/4
f 183/2/4 178/2/4 184/2/4
f 184/3/4 185/3/4 191/3/4
f 191/3/4 185/3/4 192/3/4
f 188/2/4 189/2/4 193/2/4
f 193/2/4 189/2/4 194/2/4
f 190/2/4 191/2/4 195/2/4
f 195/2/4 191/2/4 196/2/4
f 194/2/4 189/2/4 197/2/4
f 197/2/4 189/2/4 198/2/4
f 196/2/4 191/2/4 199/2/4
f 199/2/4 191/2/4 200/2/4
f 200/2/4 191/2/4 201/2/4
f 201/2/4 191/2/4 202/2/4
f 186/2/4 187/2/4 203/2/4
f 203/2/4 187/2/4 204/2/4
f 204/2/4 187/2/4 205/2/4
f 205/2/4 187/2/4 206/2/4
f 194/2/4 197/2/4 207/2/4
f 207/2/4 197/2/4 208/2/4
f 200/2/4 201/2/4 209/2/4
f 209/2/4 201/2/4 210/2/4
f 204/2/4 205/2/4 211/2/4
f 211/2/4 205/2/4 212/2/4
f 213/3/4 214/3/4 215/3/4
f 215/3/4 214/3/4 216/3/4
f 217/3/4 218/3/4 219/3/4
f 219/3/4 218/3/4 220/3/4
f 223/3/5 222/3/5 221/3/5
f 224/3/5 222/3/5 223/3/5
f 229/2/5 226/2/5 225/2/5
f 229/2/5 228/2/5 227/2/5
f 229/2/5 227/2/5 226/2/5
f 230/2/5 228/2/5 229/2/5
f 231/2/5 228/2/5 230/2/5
f 232/2/5 228/2/5 231/2/5
f 235/2/5 234/2/5 233/2/5
f 236/2/5 234/2/5 235/2/5
f 241/2/5 238/2/5 237/2/5
f 241/2/5 240/2/5 239/2/5
f 241/2/5 239/2/5 238/2/5
f 242/2/5 240/2/5 241/2/5
f 243/2/5 240/2/5 242/2/5
f 244/2/5 240/2/5 243/2/5
f 247/2/5 246/2/5 245/2/5
f 248/2/5 246/2/5 247/2/5
f 253/2/5 250/2/5 249/2/5
f 253/2/5 252/2/5 251/2/5
f 253/2/5 251/2/5 250/2/5
f 254/2/5 252/2/5 253/2/5
f 255/2/5 252/2/5 254/2/5
f 256/2/5 252/2/5 255/2/5
f 259/2/5 258/2/5 257/2/5
f 260/2/5 258/2/5 259/2/5
f 263/2/5 262/2/5 261/2/5
f 264/2/5 262/2/5 263/2/5
f 265/3/6 266/3/6 267/3/6
f 267/3/6 266/3/6 268/3/6
f 269/3/6 270/3/6 271/3/6
f 271/3/6 270/3/6 272/3/6
f 273/3/6 274/3/6 275/3/6
f 275/3/6 274/3/6 276/3/6
f 277/2/6 278/2/6 279/2/6
f 279/2/6 278/2/6 280/2/6
f 281/2/6 282/2/6 285/2/6
f 283/2/6 284/2/6 285/2/6
f 282/2/6 283/2/6 285/2/6
f 285/2/6 284/2/6 286/2/6
f 286/2/6 284/2/6 287/2/6
f 287/2/6 284/2/6 288/2/6
f 289/2/6 290/2/6 291/2/6
f 291/2/6 290/2/6 292/2/6
f 293/2/6 294/2/6 297/2/6
f 295/2/6 296/2/6 297/2/6
f 294/2/6 295/2/6 297/2/6
f 297/2/6 296/2/6 298/2/6
f 298/2/6 296/2/6 299/2/6
f 299/2/6 296/2/6 300/2/6
f 301/2/6 302/2/6 303/2/6
f 303/2/6 302/2/6 304/2/6
f 305/3/6 306/3/6 308/3/6
f 308/3/6 306/3/6 309/3/6
f 307/2/6 308/2/6 311/2/6
f 311/2/6 308/2/6 312/2/6
f 309/2/6 310/2/6 313/2/6
f 313/2/6 310/2/6 314/2/6
f 312/3/6 313/3/6 315/3/6
f 315/3/6 313/3/6 316/3/6
f 317/3/6 318/3/6 319/3/6
f 319/3/6 318/3/6 320/3/6
