# MagicaVoxel @ Ephtracy

# group
o 

# material
mtllib Fence_right.mtl
usemtl palette

# normals
vn -1 0 0
vn 1 0 0
vn 0 0 1
vn 0 0 -1
vn 0 -1 0
vn 0 1 0

# texcoords
vt 0.146484 0.5
vt 0.302734 0.5
vt 0.974609 0.5

# verts
v 2 3 -3.3
v 2 3 -3.4
v 2 3.1 -3.3
v 2 3.1 -3.4
v 2 3.5 -3.3
v 2 3.5 -3.4
v 2 3.6 -3.3
v 2 3.6 -3.4
v 2.1 3.3 -3.3
v 2.1 3.3 -3.4
v 2.1 3.4 -3.3
v 2.1 3.4 -3.4
v 2.1 3.6 -3.3
v 2.1 3.6 -3.4
v 2.1 3.7 -3.3
v 2.1 3.7 -3.4
v 2.1 3.8 -3.3
v 2.1 3.8 -3.4
v 2.1 3.9 -3.3
v 2.1 3.9 -3.4
v 2.2 2.5 -3.3
v 2.2 2.5 -3.4
v 2.2 2.6 -3.3
v 2.2 2.6 -3.4
v 2.2 2.8 -3.3
v 2.2 2.8 -3.4
v 2.2 2.9 -3.3
v 2.2 2.9 -3.4
v 2.2 3.1 -3.3
v 2.2 3.1 -3.4
v 2.2 3.3 -3.3
v 2.2 3.3 -3.4
v 2.2 3.7 -3.3
v 2.2 3.7 -3.4
v 2.2 3.8 -3.3
v 2.2 3.8 -3.4
v 2.3 2.6 -3.3
v 2.3 2.6 -3.4
v 2.3 2.8 -3.3
v 2.3 2.8 -3.4
v 3 2 -3
v 3 2 -3.7
v 3 2.1 -3
v 3 2.1 -3.2
v 3 2.1 -3.3
v 3 2.1 -3.4
v 3 2.1 -3.5
v 3 2.1 -3.7
v 3 2.5 -3.3
v 3 2.5 -3.4
v 3 2.9 -3.3
v 3 2.9 -3.4
v 3 3 -3.3
v 3 3 -3.4
v 3 3.4 -3.3
v 3 3.4 -3.4
v 3 3.5 -3.3
v 3 3.5 -3.4
v 3 3.9 -3.2
v 3 3.9 -3.3
v 3 3.9 -3.4
v 3 3.9 -3.5
v 3 4 -3.3
v 3 4 -3.4
v 3.1 2 -3
v 3.1 2 -3.7
v 3.1 2.1 -3
v 3.1 2.1 -3.2
v 3.1 2.1 -3.3
v 3.1 2.1 -3.4
v 3.1 2.1 -3.5
v 3.1 2.1 -3.7
v 3.1 2.5 -3.3
v 3.1 2.5 -3.4
v 3.1 2.9 -3.3
v 3.1 2.9 -3.4
v 3.1 3 -3.3
v 3.1 3 -3.4
v 3.1 3.4 -3.3
v 3.1 3.4 -3.4
v 3.1 3.5 -3.3
v 3.1 3.5 -3.4
v 3.1 3.9 -3.2
v 3.1 3.9 -3.3
v 3.1 3.9 -3.4
v 3.1 3.9 -3.5
v 3.1 4 -3.3
v 3.1 4 -3.4
v 3.5 2.5 -3.3
v 3.5 2.5 -3.4
v 3.5 2.9 -3.3
v 3.5 2.9 -3.4
v 3.5 3 -3.3
v 3.5 3 -3.4
v 3.5 3.4 -3.3
v 3.5 3.4 -3.4
v 3.5 3.5 -3.3
v 3.5 3.5 -3.4
v 3.5 3.9 -3.3
v 3.5 3.9 -3.4
v 3 2 -3
v 3 2.1 -3
v 3.1 2 -3
v 3.1 2.1 -3
v 3 2.1 -3.2
v 3 3.9 -3.2
v 3.1 2.1 -3.2
v 3.1 3.9 -3.2
v 2 3 -3.3
v 2 3.1 -3.3
v 2 3.5 -3.3
v 2 3.6 -3.3
v 2.1 3.3 -3.3
v 2.1 3.4 -3.3
v 2.1 3.6 -3.3
v 2.1 3.7 -3.3
v 2.1 3.8 -3.3
v 2.1 3.9 -3.3
v 2.2 2.5 -3.3
v 2.2 2.6 -3.3
v 2.2 2.8 -3.3
v 2.2 2.9 -3.3
v 2.2 3.1 -3.3
v 2.2 3.3 -3.3
v 2.2 3.7 -3.3
v 2.2 3.8 -3.3
v 2.3 2.6 -3.3
v 2.3 2.8 -3.3
v 3 2.5 -3.3
v 3 2.9 -3.3
v 3 3 -3.3
v 3 3.4 -3.3
v 3 3.5 -3.3
v 3 3.9 -3.3
v 3 4 -3.3
v 3.1 2.5 -3.3
v 3.1 2.9 -3.3
v 3.1 3 -3.3
v 3.1 3.4 -3.3
v 3.1 3.5 -3.3
v 3.1 3.9 -3.3
v 3.1 4 -3.3
v 3.5 2.5 -3.3
v 3.5 2.9 -3.3
v 3.5 3 -3.3
v 3.5 3.4 -3.3
v 3.5 3.5 -3.3
v 3.5 3.9 -3.3
v 3 2.1 -3.4
v 3 2.5 -3.4
v 3 2.9 -3.4
v 3 3 -3.4
v 3 3.4 -3.4
v 3 3.5 -3.4
v 3.1 2.1 -3.4
v 3.1 2.5 -3.4
v 3.1 2.9 -3.4
v 3.1 3 -3.4
v 3.1 3.4 -3.4
v 3.1 3.5 -3.4
v 3 2.1 -3.3
v 3 2.5 -3.3
v 3 2.9 -3.3
v 3 3 -3.3
v 3 3.4 -3.3
v 3 3.5 -3.3
v 3.1 2.1 -3.3
v 3.1 2.5 -3.3
v 3.1 2.9 -3.3
v 3.1 3 -3.3
v 3.1 3.4 -3.3
v 3.1 3.5 -3.3
v 2 3 -3.4
v 2 3.1 -3.4
v 2 3.5 -3.4
v 2 3.6 -3.4
v 2.1 3.3 -3.4
v 2.1 3.4 -3.4
v 2.1 3.6 -3.4
v 2.1 3.7 -3.4
v 2.1 3.8 -3.4
v 2.1 3.9 -3.4
v 2.2 2.5 -3.4
v 2.2 2.6 -3.4
v 2.2 2.8 -3.4
v 2.2 2.9 -3.4
v 2.2 3.1 -3.4
v 2.2 3.3 -3.4
v 2.2 3.7 -3.4
v 2.2 3.8 -3.4
v 2.3 2.6 -3.4
v 2.3 2.8 -3.4
v 3 2.5 -3.4
v 3 2.9 -3.4
v 3 3 -3.4
v 3 3.4 -3.4
v 3 3.5 -3.4
v 3 3.9 -3.4
v 3 4 -3.4
v 3.1 2.5 -3.4
v 3.1 2.9 -3.4
v 3.1 3 -3.4
v 3.1 3.4 -3.4
v 3.1 3.5 -3.4
v 3.1 3.9 -3.4
v 3.1 4 -3.4
v 3.5 2.5 -3.4
v 3.5 2.9 -3.4
v 3.5 3 -3.4
v 3.5 3.4 -3.4
v 3.5 3.5 -3.4
v 3.5 3.9 -3.4
v 3 2.1 -3.5
v 3 3.9 -3.5
v 3.1 2.1 -3.5
v 3.1 3.9 -3.5
v 3 2 -3.7
v 3 2.1 -3.7
v 3.1 2 -3.7
v 3.1 2.1 -3.7
v 3 2 -3
v 3.1 2 -3
v 3 2 -3.7
v 3.1 2 -3.7
v 2.2 2.5 -3.3
v 3 2.5 -3.3
v 3.1 2.5 -3.3
v 3.5 2.5 -3.3
v 2.2 2.5 -3.4
v 3 2.5 -3.4
v 3.1 2.5 -3.4
v 3.5 2.5 -3.4
v 2.2 2.8 -3.3
v 2.3 2.8 -3.3
v 2.2 2.8 -3.4
v 2.3 2.8 -3.4
v 2 3 -3.3
v 3 3 -3.3
v 3.1 3 -3.3
v 3.5 3 -3.3
v 2 3 -3.4
v 3 3 -3.4
v 3.1 3 -3.4
v 3.5 3 -3.4
v 2.1 3.3 -3.3
v 2.2 3.3 -3.3
v 2.1 3.3 -3.4
v 2.2 3.3 -3.4
v 2 3.5 -3.3
v 3 3.5 -3.3
v 3.1 3.5 -3.3
v 3.5 3.5 -3.3
v 2 3.5 -3.4
v 3 3.5 -3.4
v 3.1 3.5 -3.4
v 3.5 3.5 -3.4
v 2.1 3.8 -3.3
v 2.2 3.8 -3.3
v 2.1 3.8 -3.4
v 2.2 3.8 -3.4
v 3 2.1 -3
v 3.1 2.1 -3
v 3 2.1 -3.2
v 3.1 2.1 -3.2
v 3 2.1 -3.3
v 3.1 2.1 -3.3
v 3 2.1 -3.4
v 3.1 2.1 -3.4
v 3 2.1 -3.5
v 3.1 2.1 -3.5
v 3 2.1 -3.7
v 3.1 2.1 -3.7
v 2.2 2.6 -3.3
v 2.3 2.6 -3.3
v 2.2 2.6 -3.4
v 2.3 2.6 -3.4
v 2.2 2.9 -3.3
v 3 2.9 -3.3
v 3.1 2.9 -3.3
v 3.5 2.9 -3.3
v 2.2 2.9 -3.4
v 3 2.9 -3.4
v 3.1 2.9 -3.4
v 3.5 2.9 -3.4
v 2 3.1 -3.3
v 2.2 3.1 -3.3
v 2 3.1 -3.4
v 2.2 3.1 -3.4
v 2.1 3.4 -3.3
v 3 3.4 -3.3
v 3.1 3.4 -3.3
v 3.5 3.4 -3.3
v 2.1 3.4 -3.4
v 3 3.4 -3.4
v 3.1 3.4 -3.4
v 3.5 3.4 -3.4
v 2 3.6 -3.3
v 2.1 3.6 -3.3
v 2 3.6 -3.4
v 2.1 3.6 -3.4
v 2.1 3.7 -3.3
v 2.2 3.7 -3.3
v 2.1 3.7 -3.4
v 2.2 3.7 -3.4
v 3 3.9 -3.2
v 3.1 3.9 -3.2
v 2.1 3.9 -3.3
v 3 3.9 -3.3
v 3.1 3.9 -3.3
v 3.5 3.9 -3.3
v 2.1 3.9 -3.4
v 3 3.9 -3.4
v 3.1 3.9 -3.4
v 3.5 3.9 -3.4
v 3 3.9 -3.5
v 3.1 3.9 -3.5
v 3 4 -3.3
v 3.1 4 -3.3
v 3 4 -3.4
v 3.1 4 -3.4

# faces
f 3/2/1 2/2/1 1/2/1
f 4/2/1 2/2/1 3/2/1
f 7/2/1 6/2/1 5/2/1
f 8/2/1 6/2/1 7/2/1
f 11/2/1 10/2/1 9/2/1
f 12/2/1 10/2/1 11/2/1
f 15/2/1 14/2/1 13/2/1
f 16/2/1 14/2/1 15/2/1
f 19/2/1 18/2/1 17/2/1
f 20/2/1 18/2/1 19/2/1
f 23/2/1 22/2/1 21/2/1
f 24/2/1 22/2/1 23/2/1
f 27/2/1 26/2/1 25/2/1
f 28/2/1 26/2/1 27/2/1
f 31/2/1 30/2/1 29/2/1
f 32/2/1 30/2/1 31/2/1
f 35/2/1 34/2/1 33/2/1
f 36/2/1 34/2/1 35/2/1
f 39/2/1 38/2/1 37/2/1
f 40/2/1 38/2/1 39/2/1
f 43/3/1 42/3/1 41/3/1
f 44/3/1 42/3/1 43/3/1
f 45/3/1 42/3/1 44/3/1
f 46/3/1 42/3/1 45/3/1
f 47/3/1 42/3/1 46/3/1
f 48/3/1 42/3/1 47/3/1
f 49/3/1 45/3/1 44/3/1
f 50/3/1 47/3/1 46/3/1
f 51/3/1 49/3/1 44/3/1
f 52/3/1 47/3/1 50/3/1
f 53/3/1 51/3/1 44/3/1
f 54/3/1 47/3/1 52/3/1
f 55/3/1 53/3/1 44/3/1
f 56/3/1 47/3/1 54/3/1
f 57/3/1 55/3/1 44/3/1
f 58/3/1 47/3/1 56/3/1
f 59/3/1 57/3/1 44/3/1
f 60/3/1 57/3/1 59/3/1
f 61/3/1 47/3/1 58/3/1
f 62/3/1 47/3/1 61/3/1
f 63/3/1 61/3/1 60/3/1
f 64/3/1 61/3/1 63/3/1
f 65/3/2 66/3/2 67/3/2
f 67/3/2 66/3/2 68/3/2
f 68/3/2 66/3/2 69/3/2
f 69/3/2 66/3/2 70/3/2
f 70/3/2 66/3/2 71/3/2
f 71/3/2 66/3/2 72/3/2
f 68/3/2 69/3/2 73/3/2
f 70/3/2 71/3/2 74/3/2
f 68/3/2 73/3/2 75/3/2
f 74/3/2 71/3/2 76/3/2
f 68/3/2 75/3/2 77/3/2
f 76/3/2 71/3/2 78/3/2
f 68/3/2 77/3/2 79/3/2
f 78/3/2 71/3/2 80/3/2
f 68/3/2 79/3/2 81/3/2
f 80/3/2 71/3/2 82/3/2
f 68/3/2 81/3/2 83/3/2
f 83/3/2 81/3/2 84/3/2
f 82/3/2 71/3/2 85/3/2
f 85/3/2 71/3/2 86/3/2
f 84/3/2 85/3/2 87/3/2
f 87/3/2 85/3/2 88/3/2
f 89/2/2 90/2/2 91/2/2
f 91/2/2 90/2/2 92/2/2
f 93/2/2 94/2/2 95/2/2
f 95/2/2 94/2/2 96/2/2
f 97/2/2 98/2/2 99/2/2
f 99/2/2 98/2/2 100/2/2
f 103/3/3 102/3/3 101/3/3
f 104/3/3 102/3/3 103/3/3
f 107/3/3 106/3/3 105/3/3
f 108/3/3 106/3/3 107/3/3
f 115/2/3 112/2/3 111/2/3
f 123/2/3 110/2/3 109/2/3
f 124/2/3 114/2/3 113/2/3
f 125/2/3 116/2/3 115/2/3
f 126/2/3 118/2/3 117/2/3
f 127/2/3 120/2/3 119/2/3
f 128/2/3 122/2/3 121/2/3
f 129/2/3 127/2/3 119/2/3
f 129/2/3 128/2/3 127/2/3
f 130/2/3 122/2/3 128/2/3
f 130/2/3 128/2/3 129/2/3
f 131/2/3 123/2/3 109/2/3
f 131/2/3 124/2/3 123/2/3
f 132/2/3 114/2/3 124/2/3
f 132/2/3 124/2/3 131/2/3
f 133/2/3 115/2/3 111/2/3
f 133/2/3 125/2/3 115/2/3
f 133/2/3 126/2/3 125/2/3
f 134/2/3 118/2/3 126/2/3
f 134/2/3 126/2/3 133/2/3
f 141/3/3 135/3/3 134/3/3
f 142/3/3 135/3/3 141/3/3
f 143/2/3 137/2/3 136/2/3
f 144/2/3 137/2/3 143/2/3
f 145/2/3 139/2/3 138/2/3
f 146/2/3 139/2/3 145/2/3
f 147/2/3 141/2/3 140/2/3
f 148/2/3 141/2/3 147/2/3
f 155/3/3 150/3/3 149/3/3
f 156/3/3 150/3/3 155/3/3
f 157/3/3 152/3/3 151/3/3
f 158/3/3 152/3/3 157/3/3
f 159/3/3 154/3/3 153/3/3
f 160/3/3 154/3/3 159/3/3
f 161/3/4 162/3/4 167/3/4
f 167/3/4 162/3/4 168/3/4
f 163/3/4 164/3/4 169/3/4
f 169/3/4 164/3/4 170/3/4
f 165/3/4 166/3/4 171/3/4
f 171/3/4 166/3/4 172/3/4
f 175/2/4 176/2/4 179/2/4
f 173/2/4 174/2/4 187/2/4
f 177/2/4 178/2/4 188/2/4
f 179/2/4 180/2/4 189/2/4
f 181/2/4 182/2/4 190/2/4
f 183/2/4 184/2/4 191/2/4
f 185/2/4 186/2/4 192/2/4
f 183/2/4 191/2/4 193/2/4
f 191/2/4 192/2/4 193/2/4
f 192/2/4 186/2/4 194/2/4
f 193/2/4 192/2/4 194/2/4
f 173/2/4 187/2/4 195/2/4
f 187/2/4 188/2/4 195/2/4
f 188/2/4 178/2/4 196/2/4
f 195/2/4 188/2/4 196/2/4
f 175/2/4 179/2/4 197/2/4
f 179/2/4 189/2/4 197/2/4
f 189/2/4 190/2/4 197/2/4
f 190/2/4 182/2/4 198/2/4
f 197/2/4 190/2/4 198/2/4
f 198/3/4 199/3/4 205/3/4
f 205/3/4 199/3/4 206/3/4
f 200/2/4 201/2/4 207/2/4
f 207/2/4 201/2/4 208/2/4
f 202/2/4 203/2/4 209/2/4
f 209/2/4 203/2/4 210/2/4
f 204/2/4 205/2/4 211/2/4
f 211/2/4 205/2/4 212/2/4
f 213/3/4 214/3/4 215/3/4
f 215/3/4 214/3/4 216/3/4
f 217/3/4 218/3/4 219/3/4
f 219/3/4 218/3/4 220/3/4
f 223/3/5 222/3/5 221/3/5
f 224/3/5 222/3/5 223/3/5
f 229/2/5 226/2/5 225/2/5
f 229/2/5 228/2/5 227/2/5
f 229/2/5 227/2/5 226/2/5
f 230/2/5 228/2/5 229/2/5
f 231/2/5 228/2/5 230/2/5
f 232/2/5 228/2/5 231/2/5
f 235/2/5 234/2/5 233/2/5
f 236/2/5 234/2/5 235/2/5
f 241/2/5 238/2/5 237/2/5
f 241/2/5 240/2/5 239/2/5
f 241/2/5 239/2/5 238/2/5
f 242/2/5 240/2/5 241/2/5
f 243/2/5 240/2/5 242/2/5
f 244/2/5 240/2/5 243/2/5
f 247/2/5 246/2/5 245/2/5
f 248/2/5 246/2/5 247/2/5
f 253/2/5 250/2/5 249/2/5
f 253/2/5 252/2/5 251/2/5
f 253/2/5 251/2/5 250/2/5
f 254/2/5 252/2/5 253/2/5
f 255/2/5 252/2/5 254/2/5
f 256/2/5 252/2/5 255/2/5
f 259/2/5 258/2/5 257/2/5
f 260/2/5 258/2/5 259/2/5
f 261/3/6 262/3/6 263/3/6
f 263/3/6 262/3/6 264/3/6
f 265/3/6 266/3/6 267/3/6
f 267/3/6 266/3/6 268/3/6
f 269/3/6 270/3/6 271/3/6
f 271/3/6 270/3/6 272/3/6
f 273/2/6 274/2/6 275/2/6
f 275/2/6 274/2/6 276/2/6
f 277/2/6 278/2/6 281/2/6
f 279/2/6 280/2/6 281/2/6
f 278/2/6 279/2/6 281/2/6
f 281/2/6 280/2/6 282/2/6
f 282/2/6 280/2/6 283/2/6
f 283/2/6 280/2/6 284/2/6
f 285/2/6 286/2/6 287/2/6
f 287/2/6 286/2/6 288/2/6
f 289/2/6 290/2/6 293/2/6
f 291/2/6 292/2/6 293/2/6
f 290/2/6 291/2/6 293/2/6
f 293/2/6 292/2/6 294/2/6
f 294/2/6 292/2/6 295/2/6
f 295/2/6 292/2/6 296/2/6
f 297/2/6 298/2/6 299/2/6
f 299/2/6 298/2/6 300/2/6
f 301/2/6 302/2/6 303/2/6
f 303/2/6 302/2/6 304/2/6
f 305/3/6 306/3/6 308/3/6
f 308/3/6 306/3/6 309/3/6
f 307/2/6 308/2/6 311/2/6
f 311/2/6 308/2/6 312/2/6
f 309/2/6 310/2/6 313/2/6
f 313/2/6 310/2/6 314/2/6
f 312/3/6 313/3/6 315/3/6
f 315/3/6 313/3/6 316/3/6
f 317/3/6 318/3/6 319/3/6
f 319/3/6 318/3/6 320/3/6
