# MagicaVoxel @ Ephtracy

# group
o 

# material
mtllib Garbage can.mtl
usemtl palette

# normals
vn -1 0 0
vn 1 0 0
vn 0 0 1
vn 0 0 -1
vn 0 -1 0
vn 0 1 0

# texcoords
vt 0.974609 0.5
vt 0.978516 0.5
vt 0.982422 0.5

# verts
v 0.4 3.1 -0.8
v 0.4 3.1 -1.3
v 0.4 3.3 -0.8
v 0.4 3.3 -1.3
v 0.5 2 -0.8
v 0.5 2 -1.3
v 0.5 2.1 -0.9
v 0.5 2.1 -1.2
v 0.5 2.3 -0.8
v 0.5 2.3 -0.9
v 0.5 2.3 -1.2
v 0.5 2.3 -1.3
v 0.5 2.9 -0.8
v 0.5 2.9 -0.9
v 0.5 2.9 -1.2
v 0.5 2.9 -1.3
v 0.5 3.1 -0.7
v 0.5 3.1 -0.8
v 0.5 3.1 -0.9
v 0.5 3.1 -1.2
v 0.5 3.1 -1.3
v 0.5 3.1 -1.4
v 0.5 3.3 -0.7
v 0.5 3.3 -0.8
v 0.5 3.3 -1.3
v 0.5 3.3 -1.4
v 0.6 2 -0.7
v 0.6 2 -0.8
v 0.6 2 -1.3
v 0.6 2 -1.4
v 0.6 2.3 -0.8
v 0.6 2.3 -1.3
v 0.6 2.4 -0.7
v 0.6 2.4 -0.8
v 0.6 2.4 -1.3
v 0.6 2.4 -1.4
v 0.6 2.8 -0.7
v 0.6 2.8 -0.8
v 0.6 2.8 -1.3
v 0.6 2.8 -1.4
v 0.6 2.9 -0.8
v 0.6 2.9 -1.3
v 0.6 3.1 -0.6
v 0.6 3.1 -0.7
v 0.6 3.1 -0.8
v 0.6 3.1 -1.3
v 0.6 3.1 -1.4
v 0.6 3.1 -1.5
v 0.6 3.3 -0.6
v 0.6 3.3 -0.7
v 0.6 3.3 -1.4
v 0.6 3.3 -1.5
v 0.7 2 -0.6
v 0.7 2 -0.7
v 0.7 2 -1.4
v 0.7 2 -1.5
v 0.7 2.3 -0.6
v 0.7 2.3 -0.7
v 0.7 2.3 -1.4
v 0.7 2.3 -1.5
v 0.7 2.4 -0.7
v 0.7 2.4 -1.4
v 0.7 2.8 -0.7
v 0.7 2.8 -1.4
v 0.7 2.9 -0.6
v 0.7 2.9 -0.7
v 0.7 2.9 -1.4
v 0.7 2.9 -1.5
v 0.7 3.1 -0.5
v 0.7 3.1 -0.6
v 0.7 3.1 -0.7
v 0.7 3.1 -1.4
v 0.7 3.1 -1.5
v 0.7 3.1 -1.6
v 0.7 3.3 -0.5
v 0.7 3.3 -0.6
v 0.7 3.3 -1.5
v 0.7 3.3 -1.6
v 0.8 3.3 -1
v 0.8 3.3 -1.1
v 0.8 3.4 -1
v 0.8 3.4 -1.1
v 1.1 3.3 -1
v 1.1 3.3 -1.1
v 1.1 3.4 -1
v 1.1 3.4 -1.1
v 1.2 2 -0.6
v 1.2 2 -0.7
v 1.2 2 -1.4
v 1.2 2 -1.5
v 1.2 2.3 -0.6
v 1.2 2.3 -0.7
v 1.2 2.3 -1.4
v 1.2 2.3 -1.5
v 1.2 2.4 -0.7
v 1.2 2.4 -1.4
v 1.2 2.8 -0.7
v 1.2 2.8 -1.4
v 1.2 2.9 -0.6
v 1.2 2.9 -0.7
v 1.2 2.9 -1.4
v 1.2 2.9 -1.5
v 1.2 3.1 -0.5
v 1.2 3.1 -0.6
v 1.2 3.1 -0.7
v 1.2 3.1 -1.4
v 1.2 3.1 -1.5
v 1.2 3.1 -1.6
v 1.2 3.3 -0.5
v 1.2 3.3 -0.6
v 1.2 3.3 -1.5
v 1.2 3.3 -1.6
v 1.3 2 -0.7
v 1.3 2 -0.8
v 1.3 2 -1.3
v 1.3 2 -1.4
v 1.3 2.3 -0.8
v 1.3 2.3 -1.3
v 1.3 2.4 -0.7
v 1.3 2.4 -0.8
v 1.3 2.4 -1.3
v 1.3 2.4 -1.4
v 1.3 2.8 -0.7
v 1.3 2.8 -0.8
v 1.3 2.8 -1.3
v 1.3 2.8 -1.4
v 1.3 2.9 -0.8
v 1.3 2.9 -1.3
v 1.3 3.1 -0.6
v 1.3 3.1 -0.7
v 1.3 3.1 -0.8
v 1.3 3.1 -1.3
v 1.3 3.1 -1.4
v 1.3 3.1 -1.5
v 1.3 3.3 -0.6
v 1.3 3.3 -0.7
v 1.3 3.3 -1.4
v 1.3 3.3 -1.5
v 1.4 2 -0.8
v 1.4 2 -1.3
v 1.4 2.1 -0.9
v 1.4 2.1 -1.2
v 1.4 2.3 -0.8
v 1.4 2.3 -0.9
v 1.4 2.3 -1.2
v 1.4 2.3 -1.3
v 1.4 2.9 -0.8
v 1.4 2.9 -0.9
v 1.4 2.9 -1.2
v 1.4 2.9 -1.3
v 1.4 3.1 -0.7
v 1.4 3.1 -0.8
v 1.4 3.1 -0.9
v 1.4 3.1 -1.2
v 1.4 3.1 -1.3
v 1.4 3.1 -1.4
v 1.4 3.3 -0.7
v 1.4 3.3 -0.8
v 1.4 3.3 -1.3
v 1.4 3.3 -1.4
v 1.5 3.1 -0.8
v 1.5 3.1 -1.3
v 1.5 3.3 -0.8
v 1.5 3.3 -1.3
v 0.7 3.1 -0.5
v 0.7 3.3 -0.5
v 1.2 3.1 -0.5
v 1.2 3.3 -0.5
v 0.6 3.1 -0.6
v 0.6 3.3 -0.6
v 0.7 2 -0.6
v 0.7 2.3 -0.6
v 0.7 2.9 -0.6
v 0.7 3.1 -0.6
v 0.7 3.3 -0.6
v 0.8 2.1 -0.6
v 0.8 2.3 -0.6
v 0.8 2.9 -0.6
v 0.8 3.1 -0.6
v 1.1 2.1 -0.6
v 1.1 2.3 -0.6
v 1.1 2.9 -0.6
v 1.1 3.1 -0.6
v 1.2 2 -0.6
v 1.2 2.3 -0.6
v 1.2 2.9 -0.6
v 1.2 3.1 -0.6
v 1.2 3.3 -0.6
v 1.3 3.1 -0.6
v 1.3 3.3 -0.6
v 0.5 3.1 -0.7
v 0.5 3.3 -0.7
v 0.6 2 -0.7
v 0.6 2.4 -0.7
v 0.6 2.8 -0.7
v 0.6 3.1 -0.7
v 0.6 3.3 -0.7
v 0.7 2 -0.7
v 0.7 2.3 -0.7
v 0.7 2.4 -0.7
v 0.7 2.8 -0.7
v 0.7 2.9 -0.7
v 0.7 3.1 -0.7
v 1.2 2 -0.7
v 1.2 2.3 -0.7
v 1.2 2.4 -0.7
v 1.2 2.8 -0.7
v 1.2 2.9 -0.7
v 1.2 3.1 -0.7
v 1.3 2 -0.7
v 1.3 2.4 -0.7
v 1.3 2.8 -0.7
v 1.3 3.1 -0.7
v 1.3 3.3 -0.7
v 1.4 3.1 -0.7
v 1.4 3.3 -0.7
v 0.4 3.1 -0.8
v 0.4 3.3 -0.8
v 0.5 2 -0.8
v 0.5 2.3 -0.8
v 0.5 2.9 -0.8
v 0.5 3.1 -0.8
v 0.5 3.3 -0.8
v 0.6 2 -0.8
v 0.6 2.3 -0.8
v 0.6 2.4 -0.8
v 0.6 2.8 -0.8
v 0.6 2.9 -0.8
v 0.6 3.1 -0.8
v 1.3 2 -0.8
v 1.3 2.3 -0.8
v 1.3 2.4 -0.8
v 1.3 2.8 -0.8
v 1.3 2.9 -0.8
v 1.3 3.1 -0.8
v 1.4 2 -0.8
v 1.4 2.3 -0.8
v 1.4 2.9 -0.8
v 1.4 3.1 -0.8
v 1.4 3.3 -0.8
v 1.5 3.1 -0.8
v 1.5 3.3 -0.8
v 0.8 3.3 -1
v 0.8 3.4 -1
v 1.1 3.3 -1
v 1.1 3.4 -1
v 0.8 3.3 -1.1
v 0.8 3.4 -1.1
v 1.1 3.3 -1.1
v 1.1 3.4 -1.1
v 0.4 3.1 -1.3
v 0.4 3.3 -1.3
v 0.5 2 -1.3
v 0.5 2.3 -1.3
v 0.5 2.9 -1.3
v 0.5 3.1 -1.3
v 0.5 3.3 -1.3
v 0.6 2 -1.3
v 0.6 2.3 -1.3
v 0.6 2.4 -1.3
v 0.6 2.8 -1.3
v 0.6 2.9 -1.3
v 0.6 3.1 -1.3
v 1.3 2 -1.3
v 1.3 2.3 -1.3
v 1.3 2.4 -1.3
v 1.3 2.8 -1.3
v 1.3 2.9 -1.3
v 1.3 3.1 -1.3
v 1.4 2 -1.3
v 1.4 2.3 -1.3
v 1.4 2.9 -1.3
v 1.4 3.1 -1.3
v 1.4 3.3 -1.3
v 1.5 3.1 -1.3
v 1.5 3.3 -1.3
v 0.5 3.1 -1.4
v 0.5 3.3 -1.4
v 0.6 2 -1.4
v 0.6 2.4 -1.4
v 0.6 2.8 -1.4
v 0.6 3.1 -1.4
v 0.6 3.3 -1.4
v 0.7 2 -1.4
v 0.7 2.3 -1.4
v 0.7 2.4 -1.4
v 0.7 2.8 -1.4
v 0.7 2.9 -1.4
v 0.7 3.1 -1.4
v 1.2 2 -1.4
v 1.2 2.3 -1.4
v 1.2 2.4 -1.4
v 1.2 2.8 -1.4
v 1.2 2.9 -1.4
v 1.2 3.1 -1.4
v 1.3 2 -1.4
v 1.3 2.4 -1.4
v 1.3 2.8 -1.4
v 1.3 3.1 -1.4
v 1.3 3.3 -1.4
v 1.4 3.1 -1.4
v 1.4 3.3 -1.4
v 0.6 3.1 -1.5
v 0.6 3.3 -1.5
v 0.7 2 -1.5
v 0.7 2.3 -1.5
v 0.7 2.9 -1.5
v 0.7 3.1 -1.5
v 0.7 3.3 -1.5
v 0.8 2.1 -1.5
v 0.8 2.3 -1.5
v 0.8 2.9 -1.5
v 0.8 3.1 -1.5
v 1.1 2.1 -1.5
v 1.1 2.3 -1.5
v 1.1 2.9 -1.5
v 1.1 3.1 -1.5
v 1.2 2 -1.5
v 1.2 2.3 -1.5
v 1.2 2.9 -1.5
v 1.2 3.1 -1.5
v 1.2 3.3 -1.5
v 1.3 3.1 -1.5
v 1.3 3.3 -1.5
v 0.7 3.1 -1.6
v 0.7 3.3 -1.6
v 1.2 3.1 -1.6
v 1.2 3.3 -1.6
v 0.7 2 -0.6
v 1.2 2 -0.6
v 0.6 2 -0.7
v 0.7 2 -0.7
v 0.8 2 -0.7
v 1.1 2 -0.7
v 1.2 2 -0.7
v 1.3 2 -0.7
v 0.5 2 -0.8
v 0.6 2 -0.8
v 0.7 2 -0.8
v 1.1 2 -0.8
v 1.2 2 -0.8
v 1.3 2 -0.8
v 1.4 2 -0.8
v 0.6 2 -0.9
v 0.8 2 -0.9
v 0.6 2 -1.2
v 0.8 2 -1.2
v 1.1 2 -1.2
v 1.3 2 -1.2
v 0.5 2 -1.3
v 0.6 2 -1.3
v 0.7 2 -1.3
v 1.2 2 -1.3
v 1.3 2 -1.3
v 1.4 2 -1.3
v 0.6 2 -1.4
v 0.7 2 -1.4
v 0.8 2 -1.4
v 1.1 2 -1.4
v 1.2 2 -1.4
v 1.3 2 -1.4
v 0.7 2 -1.5
v 1.2 2 -1.5
v 0.7 3.1 -0.5
v 1.2 3.1 -0.5
v 0.6 3.1 -0.6
v 0.7 3.1 -0.6
v 0.8 3.1 -0.6
v 1.1 3.1 -0.6
v 1.2 3.1 -0.6
v 1.3 3.1 -0.6
v 0.5 3.1 -0.7
v 0.6 3.1 -0.7
v 0.7 3.1 -0.7
v 1.2 3.1 -0.7
v 1.3 3.1 -0.7
v 1.4 3.1 -0.7
v 0.4 3.1 -0.8
v 0.5 3.1 -0.8
v 0.6 3.1 -0.8
v 1.3 3.1 -0.8
v 1.4 3.1 -0.8
v 1.5 3.1 -0.8
v 0.5 3.1 -0.9
v 1.4 3.1 -0.9
v 0.5 3.1 -1.2
v 1.4 3.1 -1.2
v 0.4 3.1 -1.3
v 0.5 3.1 -1.3
v 0.6 3.1 -1.3
v 1.3 3.1 -1.3
v 1.4 3.1 -1.3
v 1.5 3.1 -1.3
v 0.5 3.1 -1.4
v 0.6 3.1 -1.4
v 0.7 3.1 -1.4
v 1.2 3.1 -1.4
v 1.3 3.1 -1.4
v 1.4 3.1 -1.4
v 0.6 3.1 -1.5
v 0.7 3.1 -1.5
v 0.8 3.1 -1.5
v 1.1 3.1 -1.5
v 1.2 3.1 -1.5
v 1.3 3.1 -1.5
v 0.7 3.1 -1.6
v 1.2 3.1 -1.6
v 0.7 3.3 -0.5
v 1.2 3.3 -0.5
v 0.6 3.3 -0.6
v 0.7 3.3 -0.6
v 1.2 3.3 -0.6
v 1.3 3.3 -0.6
v 0.5 3.3 -0.7
v 0.6 3.3 -0.7
v 0.7 3.3 -0.7
v 1.2 3.3 -0.7
v 1.3 3.3 -0.7
v 1.4 3.3 -0.7
v 0.4 3.3 -0.8
v 0.5 3.3 -0.8
v 0.6 3.3 -0.8
v 0.7 3.3 -0.8
v 1.2 3.3 -0.8
v 1.3 3.3 -0.8
v 1.4 3.3 -0.8
v 1.5 3.3 -0.8
v 0.8 3.3 -1
v 1.1 3.3 -1
v 0.8 3.3 -1.1
v 1.1 3.3 -1.1
v 0.4 3.3 -1.3
v 0.5 3.3 -1.3
v 0.6 3.3 -1.3
v 0.7 3.3 -1.3
v 1.2 3.3 -1.3
v 1.3 3.3 -1.3
v 1.4 3.3 -1.3
v 1.5 3.3 -1.3
v 0.5 3.3 -1.4
v 0.6 3.3 -1.4
v 0.7 3.3 -1.4
v 1.2 3.3 -1.4
v 1.3 3.3 -1.4
v 1.4 3.3 -1.4
v 0.6 3.3 -1.5
v 0.7 3.3 -1.5
v 1.2 3.3 -1.5
v 1.3 3.3 -1.5
v 0.7 3.3 -1.6
v 1.2 3.3 -1.6
v 0.8 3.4 -1
v 1.1 3.4 -1
v 0.8 3.4 -1.1
v 1.1 3.4 -1.1

# faces
f 3/3/1 2/3/1 1/3/1
f 4/3/1 2/3/1 3/3/1
f 7/2/1 6/2/1 5/2/1
f 8/2/1 6/2/1 7/2/1
f 9/2/1 7/2/1 5/2/1
f 10/1/1 8/1/1 7/1/1
f 10/2/1 7/2/1 9/2/1
f 11/2/1 6/2/1 8/2/1
f 11/1/1 8/1/1 10/1/1
f 12/2/1 6/2/1 11/2/1
f 13/3/1 10/3/1 9/3/1
f 14/1/1 11/1/1 10/1/1
f 14/3/1 10/3/1 13/3/1
f 15/3/1 12/3/1 11/3/1
f 15/1/1 11/1/1 14/1/1
f 16/3/1 12/3/1 15/3/1
f 18/2/1 14/2/1 13/2/1
f 19/1/1 15/1/1 14/1/1
f 19/2/1 14/2/1 18/2/1
f 20/2/1 16/2/1 15/2/1
f 20/1/1 15/1/1 19/1/1
f 21/2/1 16/2/1 20/2/1
f 23/3/1 18/3/1 17/3/1
f 24/3/1 18/3/1 23/3/1
f 25/3/1 22/3/1 21/3/1
f 26/3/1 22/3/1 25/3/1
f 31/2/1 28/2/1 27/2/1
f 32/2/1 30/2/1 29/2/1
f 33/2/1 31/2/1 27/2/1
f 34/2/1 31/2/1 33/2/1
f 35/2/1 30/2/1 32/2/1
f 36/2/1 30/2/1 35/2/1
f 37/3/1 34/3/1 33/3/1
f 38/3/1 34/3/1 37/3/1
f 39/3/1 36/3/1 35/3/1
f 40/3/1 36/3/1 39/3/1
f 41/2/1 38/2/1 37/2/1
f 42/2/1 40/2/1 39/2/1
f 44/2/1 41/2/1 37/2/1
f 45/2/1 41/2/1 44/2/1
f 46/2/1 40/2/1 42/2/1
f 47/2/1 40/2/1 46/2/1
f 49/3/1 44/3/1 43/3/1
f 50/3/1 44/3/1 49/3/1
f 51/3/1 48/3/1 47/3/1
f 52/3/1 48/3/1 51/3/1
f 57/2/1 54/2/1 53/2/1
f 58/2/1 54/2/1 57/2/1
f 59/2/1 56/2/1 55/2/1
f 60/2/1 56/2/1 59/2/1
f 61/3/1 58/3/1 57/3/1
f 62/3/1 60/3/1 59/3/1
f 63/3/1 61/3/1 57/3/1
f 64/3/1 60/3/1 62/3/1
f 65/3/1 63/3/1 57/3/1
f 66/3/1 63/3/1 65/3/1
f 67/3/1 60/3/1 64/3/1
f 68/3/1 60/3/1 67/3/1
f 70/2/1 66/2/1 65/2/1
f 71/2/1 66/2/1 70/2/1
f 72/2/1 68/2/1 67/2/1
f 73/2/1 68/2/1 72/2/1
f 75/3/1 70/3/1 69/3/1
f 76/3/1 70/3/1 75/3/1
f 77/3/1 74/3/1 73/3/1
f 78/3/1 74/3/1 77/3/1
f 81/3/1 80/3/1 79/3/1
f 82/3/1 80/3/1 81/3/1
f 83/3/2 84/3/2 85/3/2
f 85/3/2 84/3/2 86/3/2
f 87/2/2 88/2/2 91/2/2
f 91/2/2 88/2/2 92/2/2
f 89/2/2 90/2/2 93/2/2
f 93/2/2 90/2/2 94/2/2
f 91/3/2 92/3/2 95/3/2
f 93/3/2 94/3/2 96/3/2
f 91/3/2 95/3/2 97/3/2
f 96/3/2 94/3/2 98/3/2
f 91/3/2 97/3/2 99/3/2
f 99/3/2 97/3/2 100/3/2
f 98/3/2 94/3/2 101/3/2
f 101/3/2 94/3/2 102/3/2
f 99/2/2 100/2/2 104/2/2
f 104/2/2 100/2/2 105/2/2
f 101/2/2 102/2/2 106/2/2
f 106/2/2 102/2/2 107/2/2
f 103/3/2 104/3/2 109/3/2
f 109/3/2 104/3/2 110/3/2
f 107/3/2 108/3/2 111/3/2
f 111/3/2 108/3/2 112/3/2
f 113/2/2 114/2/2 117/2/2
f 115/2/2 116/2/2 118/2/2
f 113/2/2 117/2/2 119/2/2
f 119/2/2 117/2/2 120/2/2
f 118/2/2 116/2/2 121/2/2
f 121/2/2 116/2/2 122/2/2
f 119/3/2 120/3/2 123/3/2
f 123/3/2 120/3/2 124/3/2
f 121/3/2 122/3/2 125/3/2
f 125/3/2 122/3/2 126/3/2
f 123/2/2 124/2/2 127/2/2
f 125/2/2 126/2/2 128/2/2
f 123/2/2 127/2/2 130/2/2
f 130/2/2 127/2/2 131/2/2
f 128/2/2 126/2/2 132/2/2
f 132/2/2 126/2/2 133/2/2
f 129/3/2 130/3/2 135/3/2
f 135/3/2 130/3/2 136/3/2
f 133/3/2 134/3/2 137/3/2
f 137/3/2 134/3/2 138/3/2
f 139/2/2 140/2/2 141/2/2
f 141/2/2 140/2/2 142/2/2
f 139/2/2 141/2/2 143/2/2
f 141/1/2 142/1/2 144/1/2
f 143/2/2 141/2/2 144/2/2
f 142/2/2 140/2/2 145/2/2
f 144/1/2 142/1/2 145/1/2
f 145/2/2 140/2/2 146/2/2
f 143/3/2 144/3/2 147/3/2
f 144/1/2 145/1/2 148/1/2
f 147/3/2 144/3/2 148/3/2
f 145/3/2 146/3/2 149/3/2
f 148/1/2 145/1/2 149/1/2
f 149/3/2 146/3/2 150/3/2
f 147/2/2 148/2/2 152/2/2
f 148/1/2 149/1/2 153/1/2
f 152/2/2 148/2/2 153/2/2
f 149/2/2 150/2/2 154/2/2
f 153/1/2 149/1/2 154/1/2
f 154/2/2 150/2/2 155/2/2
f 151/3/2 152/3/2 157/3/2
f 157/3/2 152/3/2 158/3/2
f 155/3/2 156/3/2 159/3/2
f 159/3/2 156/3/2 160/3/2
f 161/3/2 162/3/2 163/3/2
f 163/3/2 162/3/2 164/3/2
f 167/3/3 166/3/3 165/3/3
f 168/3/3 166/3/3 167/3/3
f 174/3/3 170/3/3 169/3/3
f 175/3/3 170/3/3 174/3/3
f 176/2/3 172/2/3 171/2/3
f 177/3/3 173/3/3 172/3/3
f 177/2/3 172/2/3 176/2/3
f 178/2/3 174/2/3 173/2/3
f 178/3/3 173/3/3 177/3/3
f 179/2/3 174/2/3 178/2/3
f 180/2/3 176/2/3 171/2/3
f 180/1/3 177/1/3 176/1/3
f 180/1/3 179/1/3 178/1/3
f 180/1/3 178/1/3 177/1/3
f 181/1/3 179/1/3 180/1/3
f 182/1/3 179/1/3 181/1/3
f 183/1/3 179/1/3 182/1/3
f 184/2/3 180/2/3 171/2/3
f 184/2/3 181/2/3 180/2/3
f 185/3/3 182/3/3 181/3/3
f 185/2/3 181/2/3 184/2/3
f 186/2/3 183/2/3 182/2/3
f 186/3/3 182/3/3 185/3/3
f 187/2/3 183/2/3 186/2/3
f 189/3/3 188/3/3 187/3/3
f 190/3/3 188/3/3 189/3/3
f 196/3/3 192/3/3 191/3/3
f 197/3/3 192/3/3 196/3/3
f 198/2/3 194/2/3 193/2/3
f 199/2/3 194/2/3 198/2/3
f 200/3/3 195/3/3 194/3/3
f 200/2/3 194/2/3 199/2/3
f 201/2/3 196/2/3 195/2/3
f 201/3/3 195/3/3 200/3/3
f 202/2/3 196/2/3 201/2/3
f 203/2/3 196/2/3 202/2/3
f 210/2/3 205/2/3 204/2/3
f 210/2/3 206/2/3 205/2/3
f 211/3/3 207/3/3 206/3/3
f 211/2/3 206/2/3 210/2/3
f 212/2/3 209/2/3 208/2/3
f 212/3/3 207/3/3 211/3/3
f 212/2/3 208/2/3 207/2/3
f 213/2/3 209/2/3 212/2/3
f 215/3/3 214/3/3 213/3/3
f 216/3/3 214/3/3 215/3/3
f 222/3/3 218/3/3 217/3/3
f 223/3/3 218/3/3 222/3/3
f 224/2/3 220/2/3 219/2/3
f 225/3/3 221/3/3 220/3/3
f 225/2/3 220/2/3 224/2/3
f 226/3/3 221/3/3 225/3/3
f 227/3/3 221/3/3 226/3/3
f 228/2/3 222/2/3 221/2/3
f 228/3/3 221/3/3 227/3/3
f 229/2/3 222/2/3 228/2/3
f 236/2/3 231/2/3 230/2/3
f 237/3/3 232/3/3 231/3/3
f 237/2/3 231/2/3 236/2/3
f 237/3/3 233/3/3 232/3/3
f 237/3/3 234/3/3 233/3/3
f 238/2/3 235/2/3 234/2/3
f 238/3/3 234/3/3 237/3/3
f 239/2/3 235/2/3 238/2/3
f 241/3/3 240/3/3 239/3/3
f 242/3/3 240/3/3 241/3/3
f 245/3/3 244/3/3 243/3/3
f 246/3/3 244/3/3 245/3/3
f 247/3/4 248/3/4 249/3/4
f 249/3/4 248/3/4 250/3/4
f 251/3/4 252/3/4 256/3/4
f 256/3/4 252/3/4 257/3/4
f 253/2/4 254/2/4 258/2/4
f 254/3/4 255/3/4 259/3/4
f 258/2/4 254/2/4 259/2/4
f 259/3/4 255/3/4 260/3/4
f 260/3/4 255/3/4 261/3/4
f 255/2/4 256/2/4 262/2/4
f 261/3/4 255/3/4 262/3/4
f 262/2/4 256/2/4 263/2/4
f 264/2/4 265/2/4 270/2/4
f 265/3/4 266/3/4 271/3/4
f 270/2/4 265/2/4 271/2/4
f 266/3/4 267/3/4 271/3/4
f 267/3/4 268/3/4 271/3/4
f 268/2/4 269/2/4 272/2/4
f 271/3/4 268/3/4 272/3/4
f 272/2/4 269/2/4 273/2/4
f 273/3/4 274/3/4 275/3/4
f 275/3/4 274/3/4 276/3/4
f 277/3/4 278/3/4 282/3/4
f 282/3/4 278/3/4 283/3/4
f 279/2/4 280/2/4 284/2/4
f 284/2/4 280/2/4 285/2/4
f 280/3/4 281/3/4 286/3/4
f 285/2/4 280/2/4 286/2/4
f 281/2/4 282/2/4 287/2/4
f 286/3/4 281/3/4 287/3/4
f 287/2/4 282/2/4 288/2/4
f 288/2/4 282/2/4 289/2/4
f 290/2/4 291/2/4 296/2/4
f 291/2/4 292/2/4 296/2/4
f 292/3/4 293/3/4 297/3/4
f 296/2/4 292/2/4 297/2/4
f 294/2/4 295/2/4 298/2/4
f 297/3/4 293/3/4 298/3/4
f 293/2/4 294/2/4 298/2/4
f 298/2/4 295/2/4 299/2/4
f 299/3/4 300/3/4 301/3/4
f 301/3/4 300/3/4 302/3/4
f 303/3/4 304/3/4 308/3/4
f 308/3/4 304/3/4 309/3/4
f 305/2/4 306/2/4 310/2/4
f 306/3/4 307/3/4 311/3/4
f 310/2/4 306/2/4 311/2/4
f 307/2/4 308/2/4 312/2/4
f 311/3/4 307/3/4 312/3/4
f 312/2/4 308/2/4 313/2/4
f 305/2/4 310/2/4 314/2/4
f 310/1/4 311/1/4 314/1/4
f 312/1/4 313/1/4 314/1/4
f 311/1/4 312/1/4 314/1/4
f 314/1/4 313/1/4 315/1/4
f 315/1/4 313/1/4 316/1/4
f 316/1/4 313/1/4 317/1/4
f 305/2/4 314/2/4 318/2/4
f 314/2/4 315/2/4 318/2/4
f 315/3/4 316/3/4 319/3/4
f 318/2/4 315/2/4 319/2/4
f 316/2/4 317/2/4 320/2/4
f 319/3/4 316/3/4 320/3/4
f 320/2/4 317/2/4 321/2/4
f 321/3/4 322/3/4 323/3/4
f 323/3/4 322/3/4 324/3/4
f 325/3/4 326/3/4 327/3/4
f 327/3/4 326/3/4 328/3/4
f 332/2/5 330/2/5 329/2/5
f 333/2/5 330/2/5 332/2/5
f 334/2/5 330/2/5 333/2/5
f 335/2/5 330/2/5 334/2/5
f 338/2/5 332/2/5 331/2/5
f 339/3/5 333/3/5 332/3/5
f 339/2/5 332/2/5 338/2/5
f 340/1/5 334/1/5 333/1/5
f 340/3/5 335/3/5 334/3/5
f 341/2/5 336/2/5 335/2/5
f 341/3/5 335/3/5 340/3/5
f 342/2/5 336/2/5 341/2/5
f 344/2/5 338/2/5 337/2/5
f 344/3/5 339/3/5 338/3/5
f 345/1/5 340/1/5 333/1/5
f 345/3/5 339/3/5 344/3/5
f 345/3/5 333/3/5 339/3/5
f 345/1/5 341/1/5 340/1/5
f 345/1/5 342/1/5 341/1/5
f 346/2/5 344/2/5 337/2/5
f 346/1/5 345/1/5 344/1/5
f 347/1/5 342/1/5 345/1/5
f 347/1/5 345/1/5 346/1/5
f 348/1/5 342/1/5 347/1/5
f 349/2/5 343/2/5 342/2/5
f 349/1/5 342/1/5 348/1/5
f 350/2/5 346/2/5 337/2/5
f 351/3/5 347/3/5 346/3/5
f 351/2/5 346/2/5 350/2/5
f 352/3/5 347/3/5 351/3/5
f 353/3/5 349/3/5 348/3/5
f 354/2/5 343/2/5 349/2/5
f 354/3/5 349/3/5 353/3/5
f 355/2/5 343/2/5 354/2/5
f 356/2/5 352/2/5 351/2/5
f 357/3/5 347/3/5 352/3/5
f 357/2/5 352/2/5 356/2/5
f 358/1/5 348/1/5 347/1/5
f 358/3/5 347/3/5 357/3/5
f 359/3/5 353/3/5 348/3/5
f 359/1/5 348/1/5 358/1/5
f 360/2/5 354/2/5 353/2/5
f 360/3/5 353/3/5 359/3/5
f 361/2/5 354/2/5 360/2/5
f 362/2/5 358/2/5 357/2/5
f 362/2/5 360/2/5 359/2/5
f 362/2/5 359/2/5 358/2/5
f 363/2/5 360/2/5 362/2/5
f 367/3/5 365/3/5 364/3/5
f 368/3/5 365/3/5 367/3/5
f 369/3/5 365/3/5 368/3/5
f 370/3/5 365/3/5 369/3/5
f 373/3/5 367/3/5 366/3/5
f 374/3/5 367/3/5 373/3/5
f 375/3/5 371/3/5 370/3/5
f 376/3/5 371/3/5 375/3/5
f 379/3/5 373/3/5 372/3/5
f 380/3/5 373/3/5 379/3/5
f 381/3/5 377/3/5 376/3/5
f 382/3/5 377/3/5 381/3/5
f 384/3/5 379/3/5 378/3/5
f 385/3/5 383/3/5 382/3/5
f 386/3/5 384/3/5 378/3/5
f 387/3/5 383/3/5 385/3/5
f 388/3/5 386/3/5 378/3/5
f 389/3/5 386/3/5 388/3/5
f 392/3/5 383/3/5 387/3/5
f 393/3/5 383/3/5 392/3/5
f 394/3/5 390/3/5 389/3/5
f 395/3/5 390/3/5 394/3/5
f 398/3/5 392/3/5 391/3/5
f 399/3/5 392/3/5 398/3/5
f 400/3/5 396/3/5 395/3/5
f 401/3/5 396/3/5 400/3/5
f 404/3/5 398/3/5 397/3/5
f 405/3/5 398/3/5 404/3/5
f 406/3/5 403/3/5 402/3/5
f 406/3/5 404/3/5 403/3/5
f 406/3/5 402/3/5 401/3/5
f 407/3/5 404/3/5 406/3/5
f 408/3/6 409/3/6 411/3/6
f 411/3/6 409/3/6 412/3/6
f 410/3/6 411/3/6 415/3/6
f 411/2/6 412/2/6 416/2/6
f 415/3/6 411/3/6 416/3/6
f 412/3/6 413/3/6 417/3/6
f 416/2/6 412/2/6 417/2/6
f 417/3/6 413/3/6 418/3/6
f 414/3/6 415/3/6 421/3/6
f 415/2/6 416/2/6 422/2/6
f 421/3/6 415/3/6 422/3/6
f 416/1/6 417/1/6 423/1/6
f 422/2/6 416/2/6 423/2/6
f 417/2/6 418/2/6 424/2/6
f 423/1/6 417/1/6 424/1/6
f 418/3/6 419/3/6 425/3/6
f 424/2/6 418/2/6 425/2/6
f 425/3/6 419/3/6 426/3/6
f 423/1/6 424/1/6 428/1/6
f 422/1/6 423/1/6 428/1/6
f 424/1/6 425/1/6 428/1/6
f 428/1/6 425/1/6 429/1/6
f 422/1/6 428/1/6 430/1/6
f 429/1/6 425/1/6 431/1/6
f 420/3/6 421/3/6 432/3/6
f 421/2/6 422/2/6 433/2/6
f 432/3/6 421/3/6 433/3/6
f 430/1/6 431/1/6 434/1/6
f 433/2/6 422/2/6 434/2/6
f 422/1/6 430/1/6 434/1/6
f 434/1/6 431/1/6 435/1/6
f 431/1/6 425/1/6 436/1/6
f 435/1/6 431/1/6 436/1/6
f 425/2/6 426/2/6 437/2/6
f 436/1/6 425/1/6 437/1/6
f 426/3/6 427/3/6 438/3/6
f 437/2/6 426/2/6 438/2/6
f 438/3/6 427/3/6 439/3/6
f 433/3/6 434/3/6 440/3/6
f 434/2/6 435/2/6 441/2/6
f 440/3/6 434/3/6 441/3/6
f 435/1/6 436/1/6 442/1/6
f 441/2/6 435/2/6 442/2/6
f 436/2/6 437/2/6 443/2/6
f 442/1/6 436/1/6 443/1/6
f 437/3/6 438/3/6 444/3/6
f 443/2/6 437/2/6 444/2/6
f 444/3/6 438/3/6 445/3/6
f 441/3/6 442/3/6 446/3/6
f 442/2/6 443/2/6 447/2/6
f 446/3/6 442/3/6 447/3/6
f 443/3/6 444/3/6 448/3/6
f 447/2/6 443/2/6 448/2/6
f 448/3/6 444/3/6 449/3/6
f 447/3/6 448/3/6 450/3/6
f 450/3/6 448/3/6 451/3/6
f 452/3/6 453/3/6 454/3/6
f 454/3/6 453/3/6 455/3/6
