# MagicaVoxel @ Ephtracy

# group
o 

# material
mtllib Lamppost.mtl
usemtl palette

# normals
vn -1 0 0
vn 1 0 0
vn 0 0 1
vn 0 0 -1
vn 0 -1 0
vn 0 1 0

# texcoords
vt 0.373047 0.5
vt 0.412109 0.5
vt 0.970703 0.5
vt 0.974609 0.5
vt 0.978516 0.5
vt 0.982422 0.5
vt 0.986328 0.5

# verts
v 1.6 2 -1.8
v 1.6 2 -2.3
v 1.6 2.8 -1.8
v 1.6 2.8 -2.3
v 1.6 5 -1.9
v 1.6 5 -2.2
v 1.6 5.1 -1.8
v 1.6 5.1 -1.9
v 1.6 5.1 -2.2
v 1.6 5.1 -2.3
v 1.6 5.2 -1.9
v 1.6 5.2 -2.2
v 1.6 5.3 -1.8
v 1.6 5.3 -1.9
v 1.6 5.3 -2.2
v 1.6 5.3 -2.3
v 1.6 5.5 -2.2
v 1.6 5.5 -2.3
v 1.6 5.6 -1.8
v 1.6 5.6 -1.9
v 1.6 5.7 -1.9
v 1.6 5.7 -2.2
v 1.6 5.8 -1.8
v 1.6 5.8 -2.3
v 1.7 2.8 -1.9
v 1.7 2.8 -2.2
v 1.7 5 -1.8
v 1.7 5 -1.9
v 1.7 5 -2.2
v 1.7 5 -2.3
v 1.7 5.1 -1.8
v 1.7 5.1 -1.9
v 1.7 5.1 -2.2
v 1.7 5.1 -2.3
v 1.7 5.2 -1.9
v 1.7 5.2 -2.2
v 1.7 5.3 -1.9
v 1.7 5.3 -2.2
v 1.7 5.5 -2.2
v 1.7 5.6 -1.9
v 1.7 5.7 -1.9
v 1.7 5.7 -2.2
v 1.7 5.8 -1.9
v 1.7 5.8 -2.2
v 1.7 5.9 -1.9
v 1.7 5.9 -2.2
v 1.8 5.9 -2
v 1.8 5.9 -2.1
v 1.8 6 -2
v 1.8 6 -2.1
v 2 5.2 -1.8
v 2 5.2 -1.9
v 2 5.2 -2.2
v 2 5.2 -2.3
v 2 5.3 -1.8
v 2 5.3 -1.9
v 2 5.3 -2.2
v 2 5.3 -2.3
v 2 5.6 -1.8
v 2 5.6 -1.9
v 2 5.6 -2.2
v 2 5.6 -2.3
v 2 5.7 -1.8
v 2 5.7 -1.9
v 2 5.7 -2.2
v 2 5.7 -2.3
v 1.7 5.2 -1.8
v 1.7 5.2 -1.9
v 1.7 5.2 -2.2
v 1.7 5.2 -2.3
v 1.7 5.3 -1.8
v 1.7 5.3 -1.9
v 1.7 5.3 -2.2
v 1.7 5.3 -2.3
v 1.7 5.5 -2.2
v 1.7 5.5 -2.3
v 1.7 5.6 -1.8
v 1.7 5.6 -1.9
v 1.7 5.7 -1.8
v 1.7 5.7 -1.9
v 1.7 5.7 -2.2
v 1.7 5.7 -2.3
v 1.9 5.9 -2
v 1.9 5.9 -2.1
v 1.9 6 -2
v 1.9 6 -2.1
v 2 2.8 -1.9
v 2 2.8 -2.2
v 2 5 -1.8
v 2 5 -1.9
v 2 5 -2.2
v 2 5 -2.3
v 2 5.1 -1.8
v 2 5.1 -1.9
v 2 5.1 -2.2
v 2 5.1 -2.3
v 2 5.2 -1.9
v 2 5.2 -2.2
v 2 5.3 -1.9
v 2 5.3 -2.2
v 2 5.6 -1.9
v 2 5.6 -2.2
v 2 5.7 -1.9
v 2 5.7 -2.2
v 2 5.8 -1.9
v 2 5.8 -2.2
v 2 5.9 -1.9
v 2 5.9 -2.2
v 2.1 2 -1.8
v 2.1 2 -2.3
v 2.1 2.8 -1.8
v 2.1 2.8 -2.3
v 2.1 5 -1.9
v 2.1 5 -2.2
v 2.1 5.1 -1.8
v 2.1 5.1 -1.9
v 2.1 5.1 -2.2
v 2.1 5.1 -2.3
v 2.1 5.2 -1.9
v 2.1 5.2 -2.2
v 2.1 5.3 -1.8
v 2.1 5.3 -1.9
v 2.1 5.3 -2.2
v 2.1 5.3 -2.3
v 2.1 5.6 -1.8
v 2.1 5.6 -1.9
v 2.1 5.6 -2.2
v 2.1 5.6 -2.3
v 2.1 5.7 -1.9
v 2.1 5.7 -2.2
v 2.1 5.8 -1.8
v 2.1 5.8 -2.3
v 1.6 2 -1.8
v 1.6 2.8 -1.8
v 1.6 5.1 -1.8
v 1.6 5.3 -1.8
v 1.6 5.6 -1.8
v 1.6 5.8 -1.8
v 1.7 5 -1.8
v 1.7 5.1 -1.8
v 1.7 5.2 -1.8
v 1.7 5.3 -1.8
v 1.7 5.6 -1.8
v 1.7 5.7 -1.8
v 2 5 -1.8
v 2 5.1 -1.8
v 2 5.2 -1.8
v 2 5.3 -1.8
v 2 5.6 -1.8
v 2 5.7 -1.8
v 2.1 2 -1.8
v 2.1 2.8 -1.8
v 2.1 5.1 -1.8
v 2.1 5.3 -1.8
v 2.1 5.6 -1.8
v 2.1 5.8 -1.8
v 1.6 5 -1.9
v 1.6 5.1 -1.9
v 1.7 2.8 -1.9
v 1.7 5 -1.9
v 1.7 5.1 -1.9
v 1.7 5.2 -1.9
v 1.7 5.3 -1.9
v 1.7 5.6 -1.9
v 1.7 5.7 -1.9
v 1.7 5.8 -1.9
v 1.7 5.9 -1.9
v 2 2.8 -1.9
v 2 5 -1.9
v 2 5.1 -1.9
v 2 5.2 -1.9
v 2 5.3 -1.9
v 2 5.6 -1.9
v 2 5.7 -1.9
v 2 5.8 -1.9
v 2 5.9 -1.9
v 2.1 5 -1.9
v 2.1 5.1 -1.9
v 1.8 5.9 -2
v 1.8 6 -2
v 1.9 5.9 -2
v 1.9 6 -2
v 1.6 5.2 -2.2
v 1.6 5.3 -2.2
v 1.6 5.5 -2.2
v 1.6 5.7 -2.2
v 1.7 5.2 -2.2
v 1.7 5.3 -2.2
v 1.7 5.5 -2.2
v 1.7 5.7 -2.2
v 2 5.2 -2.2
v 2 5.3 -2.2
v 2 5.6 -2.2
v 2 5.7 -2.2
v 2.1 5.2 -2.2
v 2.1 5.3 -2.2
v 2.1 5.6 -2.2
v 2.1 5.7 -2.2
v 1.6 5.2 -1.9
v 1.6 5.3 -1.9
v 1.6 5.6 -1.9
v 1.6 5.7 -1.9
v 1.7 5.2 -1.9
v 1.7 5.3 -1.9
v 1.7 5.6 -1.9
v 1.7 5.7 -1.9
v 2 5.2 -1.9
v 2 5.3 -1.9
v 2 5.6 -1.9
v 2 5.7 -1.9
v 2.1 5.2 -1.9
v 2.1 5.3 -1.9
v 2.1 5.6 -1.9
v 2.1 5.7 -1.9
v 1.8 5.9 -2.1
v 1.8 6 -2.1
v 1.9 5.9 -2.1
v 1.9 6 -2.1
v 1.6 5 -2.2
v 1.6 5.1 -2.2
v 1.7 2.8 -2.2
v 1.7 5 -2.2
v 1.7 5.1 -2.2
v 1.7 5.2 -2.2
v 1.7 5.3 -2.2
v 1.7 5.5 -2.2
v 1.7 5.7 -2.2
v 1.7 5.8 -2.2
v 1.7 5.9 -2.2
v 2 2.8 -2.2
v 2 5 -2.2
v 2 5.1 -2.2
v 2 5.2 -2.2
v 2 5.3 -2.2
v 2 5.6 -2.2
v 2 5.7 -2.2
v 2 5.8 -2.2
v 2 5.9 -2.2
v 2.1 5 -2.2
v 2.1 5.1 -2.2
v 1.6 2 -2.3
v 1.6 2.8 -2.3
v 1.6 5.1 -2.3
v 1.6 5.3 -2.3
v 1.6 5.5 -2.3
v 1.6 5.8 -2.3
v 1.7 5 -2.3
v 1.7 5.1 -2.3
v 1.7 5.2 -2.3
v 1.7 5.3 -2.3
v 1.7 5.5 -2.3
v 1.7 5.7 -2.3
v 2 5 -2.3
v 2 5.1 -2.3
v 2 5.2 -2.3
v 2 5.3 -2.3
v 2 5.6 -2.3
v 2 5.7 -2.3
v 2.1 2 -2.3
v 2.1 2.8 -2.3
v 2.1 5.1 -2.3
v 2.1 5.3 -2.3
v 2.1 5.6 -2.3
v 2.1 5.8 -2.3
v 1.6 2 -1.8
v 2.1 2 -1.8
v 1.8 2 -2
v 1.9 2 -2
v 1.8 2 -2.1
v 1.9 2 -2.1
v 1.6 2 -2.3
v 2.1 2 -2.3
v 1.7 5 -1.8
v 2 5 -1.8
v 1.6 5 -1.9
v 1.7 5 -1.9
v 2 5 -1.9
v 2.1 5 -1.9
v 1.6 5 -2.2
v 1.7 5 -2.2
v 2 5 -2.2
v 2.1 5 -2.2
v 1.7 5 -2.3
v 2 5 -2.3
v 1.6 5.1 -1.8
v 1.7 5.1 -1.8
v 2 5.1 -1.8
v 2.1 5.1 -1.8
v 1.6 5.1 -1.9
v 1.7 5.1 -1.9
v 2 5.1 -1.9
v 2.1 5.1 -1.9
v 1.6 5.1 -2.2
v 1.7 5.1 -2.2
v 2 5.1 -2.2
v 2.1 5.1 -2.2
v 1.6 5.1 -2.3
v 1.7 5.1 -2.3
v 2 5.1 -2.3
v 2.1 5.1 -2.3
v 1.7 5.7 -1.8
v 2 5.7 -1.8
v 1.6 5.7 -1.9
v 1.7 5.7 -1.9
v 2 5.7 -1.9
v 2.1 5.7 -1.9
v 1.6 5.7 -2.2
v 1.7 5.7 -2.2
v 2 5.7 -2.2
v 2.1 5.7 -2.2
v 1.7 5.7 -2.3
v 2 5.7 -2.3
v 1.6 2.8 -1.8
v 2.1 2.8 -1.8
v 1.7 2.8 -1.9
v 2 2.8 -1.9
v 1.7 2.8 -2.2
v 2 2.8 -2.2
v 1.6 2.8 -2.3
v 2.1 2.8 -2.3
v 1.7 5.2 -1.8
v 2 5.2 -1.8
v 1.6 5.2 -1.9
v 1.7 5.2 -1.9
v 2 5.2 -1.9
v 2.1 5.2 -1.9
v 1.6 5.2 -2.2
v 1.7 5.2 -2.2
v 2 5.2 -2.2
v 2.1 5.2 -2.2
v 1.7 5.2 -2.3
v 2 5.2 -2.3
v 1.6 5.8 -1.8
v 2.1 5.8 -1.8
v 1.7 5.8 -1.9
v 2 5.8 -1.9
v 1.7 5.8 -2.2
v 2 5.8 -2.2
v 1.6 5.8 -2.3
v 2.1 5.8 -2.3
v 1.7 5.9 -1.9
v 2 5.9 -1.9
v 1.8 5.9 -2
v 1.9 5.9 -2
v 1.8 5.9 -2.1
v 1.9 5.9 -2.1
v 1.7 5.9 -2.2
v 2 5.9 -2.2
v 1.8 6 -2
v 1.9 6 -2
v 1.8 6 -2.1
v 1.9 6 -2.1

# faces
f 3/3/1 2/3/1 1/3/1
f 4/3/1 2/3/1 3/3/1
f 8/6/1 6/6/1 5/6/1
f 9/6/1 6/6/1 8/6/1
f 11/6/1 8/6/1 7/6/1
f 11/5/1 9/5/1 8/5/1
f 12/6/1 10/6/1 9/6/1
f 12/5/1 9/5/1 11/5/1
f 13/6/1 11/6/1 7/6/1
f 14/6/1 11/6/1 13/6/1
f 15/6/1 10/6/1 12/6/1
f 16/6/1 10/6/1 15/6/1
f 17/5/1 16/5/1 15/5/1
f 18/5/1 16/5/1 17/5/1
f 19/5/1 14/5/1 13/5/1
f 20/5/1 14/5/1 19/5/1
f 21/4/1 20/4/1 19/4/1
f 22/4/1 18/4/1 17/4/1
f 23/4/1 21/4/1 19/4/1
f 23/4/1 22/4/1 21/4/1
f 24/4/1 18/4/1 22/4/1
f 24/4/1 22/4/1 23/4/1
f 28/4/1 26/4/1 25/4/1
f 29/4/1 26/4/1 28/4/1
f 31/6/1 28/6/1 27/6/1
f 32/6/1 28/6/1 31/6/1
f 33/6/1 30/6/1 29/6/1
f 34/6/1 30/6/1 33/6/1
f 37/2/1 36/2/1 35/2/1
f 38/2/1 36/2/1 37/2/1
f 39/2/1 38/2/1 37/2/1
f 40/2/1 39/2/1 37/2/1
f 41/2/1 39/2/1 40/2/1
f 42/2/1 39/2/1 41/2/1
f 45/4/1 44/4/1 43/4/1
f 46/4/1 44/4/1 45/4/1
f 49/7/1 48/7/1 47/7/1
f 50/7/1 48/7/1 49/7/1
f 55/6/1 52/6/1 51/6/1
f 56/6/1 52/6/1 55/6/1
f 57/6/1 54/6/1 53/6/1
f 58/6/1 54/6/1 57/6/1
f 59/5/1 56/5/1 55/5/1
f 60/5/1 56/5/1 59/5/1
f 61/5/1 58/5/1 57/5/1
f 62/5/1 58/5/1 61/5/1
f 63/4/1 60/4/1 59/4/1
f 64/4/1 60/4/1 63/4/1
f 65/4/1 62/4/1 61/4/1
f 66/4/1 62/4/1 65/4/1
f 67/6/2 68/6/2 71/6/2
f 71/6/2 68/6/2 72/6/2
f 69/6/2 70/6/2 73/6/2
f 73/6/2 70/6/2 74/6/2
f 73/5/2 74/5/2 75/5/2
f 75/5/2 74/5/2 76/5/2
f 71/5/2 72/5/2 77/5/2
f 77/5/2 72/5/2 78/5/2
f 77/4/2 78/4/2 79/4/2
f 79/4/2 78/4/2 80/4/2
f 75/4/2 76/4/2 81/4/2
f 81/4/2 76/4/2 82/4/2
f 83/7/2 84/7/2 85/7/2
f 85/7/2 84/7/2 86/7/2
f 87/4/2 88/4/2 90/4/2
f 90/4/2 88/4/2 91/4/2
f 89/6/2 90/6/2 93/6/2
f 93/6/2 90/6/2 94/6/2
f 91/6/2 92/6/2 95/6/2
f 95/6/2 92/6/2 96/6/2
f 97/2/2 98/2/2 99/2/2
f 99/2/2 98/2/2 100/2/2
f 99/2/2 100/2/2 101/2/2
f 101/2/2 100/2/2 102/2/2
f 101/2/2 102/2/2 103/2/2
f 103/2/2 102/2/2 104/2/2
f 105/4/2 106/4/2 107/4/2
f 107/4/2 106/4/2 108/4/2
f 109/3/2 110/3/2 111/3/2
f 111/3/2 110/3/2 112/3/2
f 113/6/2 114/6/2 116/6/2
f 116/6/2 114/6/2 117/6/2
f 115/6/2 116/6/2 119/6/2
f 116/5/2 117/5/2 119/5/2
f 117/6/2 118/6/2 120/6/2
f 119/5/2 117/5/2 120/5/2
f 115/6/2 119/6/2 121/6/2
f 121/6/2 119/6/2 122/6/2
f 120/6/2 118/6/2 123/6/2
f 123/6/2 118/6/2 124/6/2
f 121/5/2 122/5/2 125/5/2
f 125/5/2 122/5/2 126/5/2
f 123/5/2 124/5/2 127/5/2
f 127/5/2 124/5/2 128/5/2
f 125/4/2 126/4/2 129/4/2
f 127/4/2 128/4/2 130/4/2
f 125/4/2 129/4/2 131/4/2
f 129/4/2 130/4/2 131/4/2
f 130/4/2 128/4/2 132/4/2
f 131/4/2 130/4/2 132/4/2
f 140/6/3 136/6/3 135/6/3
f 141/6/3 136/6/3 140/6/3
f 142/5/3 137/5/3 136/5/3
f 142/6/3 136/6/3 141/6/3
f 143/4/3 138/4/3 137/4/3
f 143/5/3 137/5/3 142/5/3
f 144/4/3 138/4/3 143/4/3
f 145/6/3 140/6/3 139/6/3
f 146/5/3 141/5/3 140/5/3
f 146/6/3 140/6/3 145/6/3
f 147/5/3 141/5/3 146/5/3
f 150/4/3 138/4/3 144/4/3
f 151/3/3 134/3/3 133/3/3
f 152/3/3 134/3/3 151/3/3
f 153/6/3 147/6/3 146/6/3
f 153/6/3 148/6/3 147/6/3
f 154/5/3 149/5/3 148/5/3
f 154/6/3 148/6/3 153/6/3
f 155/4/3 150/4/3 149/4/3
f 155/5/3 149/5/3 154/5/3
f 156/4/3 138/4/3 150/4/3
f 156/4/3 150/4/3 155/4/3
f 160/6/3 158/6/3 157/6/3
f 161/6/3 158/6/3 160/6/3
f 168/4/3 160/4/3 159/4/3
f 169/4/3 160/4/3 168/4/3
f 171/2/3 165/2/3 164/2/3
f 171/2/3 163/2/3 162/2/3
f 171/2/3 164/2/3 163/2/3
f 172/2/3 165/2/3 171/2/3
f 173/2/3 165/2/3 172/2/3
f 174/2/3 165/2/3 173/2/3
f 175/4/3 167/4/3 166/4/3
f 176/4/3 167/4/3 175/4/3
f 177/6/3 170/6/3 169/6/3
f 178/6/3 170/6/3 177/6/3
f 181/7/3 180/7/3 179/7/3
f 182/7/3 180/7/3 181/7/3
f 187/6/3 184/6/3 183/6/3
f 188/5/3 185/5/3 184/5/3
f 188/6/3 184/6/3 187/6/3
f 189/4/3 186/4/3 185/4/3
f 189/5/3 185/5/3 188/5/3
f 190/4/3 186/4/3 189/4/3
f 195/6/3 192/6/3 191/6/3
f 196/5/3 193/5/3 192/5/3
f 196/6/3 192/6/3 195/6/3
f 197/4/3 194/4/3 193/4/3
f 197/5/3 193/5/3 196/5/3
f 198/4/3 194/4/3 197/4/3
f 199/6/4 200/6/4 203/6/4
f 200/5/4 201/5/4 204/5/4
f 203/6/4 200/6/4 204/6/4
f 201/4/4 202/4/4 205/4/4
f 204/5/4 201/5/4 205/5/4
f 205/4/4 202/4/4 206/4/4
f 207/6/4 208/6/4 211/6/4
f 208/5/4 209/5/4 212/5/4
f 211/6/4 208/6/4 212/6/4
f 209/4/4 210/4/4 213/4/4
f 212/5/4 209/5/4 213/5/4
f 213/4/4 210/4/4 214/4/4
f 215/7/4 216/7/4 217/7/4
f 217/7/4 216/7/4 218/7/4
f 219/6/4 220/6/4 222/6/4
f 222/6/4 220/6/4 223/6/4
f 221/4/4 222/4/4 230/4/4
f 230/4/4 222/4/4 231/4/4
f 226/2/4 227/2/4 233/2/4
f 224/2/4 225/2/4 233/2/4
f 225/2/4 226/2/4 233/2/4
f 233/2/4 227/2/4 234/2/4
f 234/2/4 227/2/4 235/2/4
f 235/2/4 227/2/4 236/2/4
f 228/4/4 229/4/4 237/4/4
f 237/4/4 229/4/4 238/4/4
f 231/6/4 232/6/4 239/6/4
f 239/6/4 232/6/4 240/6/4
f 243/6/4 244/6/4 248/6/4
f 248/6/4 244/6/4 249/6/4
f 244/5/4 245/5/4 250/5/4
f 249/6/4 244/6/4 250/6/4
f 245/4/4 246/4/4 251/4/4
f 250/5/4 245/5/4 251/5/4
f 251/4/4 246/4/4 252/4/4
f 247/6/4 248/6/4 253/6/4
f 248/5/4 249/5/4 254/5/4
f 253/6/4 248/6/4 254/6/4
f 254/5/4 249/5/4 255/5/4
f 252/4/4 246/4/4 258/4/4
f 241/3/4 242/3/4 259/3/4
f 259/3/4 242/3/4 260/3/4
f 254/6/4 255/6/4 261/6/4
f 255/6/4 256/6/4 261/6/4
f 256/5/4 257/5/4 262/5/4
f 261/6/4 256/6/4 262/6/4
f 257/4/4 258/4/4 263/4/4
f 262/5/4 257/5/4 263/5/4
f 258/4/4 246/4/4 264/4/4
f 263/4/4 258/4/4 264/4/4
f 267/3/5 266/3/5 265/3/5
f 268/3/5 266/3/5 267/3/5
f 269/3/5 267/3/5 265/3/5
f 269/4/5 268/4/5 267/4/5
f 270/3/5 266/3/5 268/3/5
f 270/4/5 268/4/5 269/4/5
f 271/3/5 269/3/5 265/3/5
f 271/3/5 270/3/5 269/3/5
f 272/3/5 266/3/5 270/3/5
f 272/3/5 270/3/5 271/3/5
f 276/6/5 274/6/5 273/6/5
f 277/6/5 274/6/5 276/6/5
f 279/6/5 276/6/5 275/6/5
f 280/6/5 276/6/5 279/6/5
f 281/6/5 278/6/5 277/6/5
f 282/6/5 278/6/5 281/6/5
f 283/6/5 281/6/5 280/6/5
f 284/6/5 281/6/5 283/6/5
f 289/6/5 286/6/5 285/6/5
f 290/6/5 286/6/5 289/6/5
f 291/6/5 288/6/5 287/6/5
f 292/6/5 288/6/5 291/6/5
f 297/6/5 294/6/5 293/6/5
f 298/6/5 294/6/5 297/6/5
f 299/6/5 296/6/5 295/6/5
f 300/6/5 296/6/5 299/6/5
f 304/4/5 302/4/5 301/4/5
f 305/4/5 302/4/5 304/4/5
f 307/4/5 304/4/5 303/4/5
f 308/4/5 304/4/5 307/4/5
f 309/4/5 306/4/5 305/4/5
f 310/4/5 306/4/5 309/4/5
f 311/4/5 309/4/5 308/4/5
f 312/4/5 309/4/5 311/4/5
f 313/3/6 314/3/6 315/3/6
f 315/3/6 314/3/6 316/3/6
f 313/3/6 315/3/6 317/3/6
f 316/3/6 314/3/6 318/3/6
f 313/3/6 317/3/6 319/3/6
f 317/3/6 318/3/6 319/3/6
f 318/3/6 314/3/6 320/3/6
f 319/3/6 318/3/6 320/3/6
f 321/5/6 322/5/6 324/5/6
f 324/5/6 322/5/6 325/5/6
f 323/5/6 324/5/6 327/5/6
f 327/5/6 324/5/6 328/5/6
f 325/5/6 326/5/6 329/5/6
f 329/5/6 326/5/6 330/5/6
f 328/5/6 329/5/6 331/5/6
f 331/5/6 329/5/6 332/5/6
f 333/4/6 334/4/6 335/4/6
f 335/4/6 334/4/6 336/4/6
f 333/4/6 335/4/6 337/4/6
f 336/4/6 334/4/6 338/4/6
f 333/4/6 337/4/6 339/4/6
f 337/4/6 338/4/6 339/4/6
f 338/4/6 334/4/6 340/4/6
f 339/4/6 338/4/6 340/4/6
f 341/4/6 342/4/6 343/4/6
f 343/4/6 342/4/6 344/4/6
f 341/4/6 343/4/6 345/4/6
f 344/4/6 342/4/6 346/4/6
f 341/4/6 345/4/6 347/4/6
f 345/4/6 346/4/6 347/4/6
f 346/4/6 342/4/6 348/4/6
f 347/4/6 346/4/6 348/4/6
f 349/7/6 350/7/6 351/7/6
f 351/7/6 350/7/6 352/7/6
