# MagicaVoxel @ Ephtracy

# group
o 

# material
mtllib Road T.mtl
usemtl palette

# normals
vn -1 0 0
vn 1 0 0
vn 0 0 1
vn 0 0 -1
vn 0 -1 0
vn 0 1 0

# texcoords
vt 0.478516 0.5
vt 0.486328 0.5
vt 0.587891 0.5
vt 0.935547 0.5
vt 0.966797 0.5
vt 0.974609 0.5

# verts
v 0 2 0
v 0 2 -12.6
v 0 13.1 0
v 0 13.1 -12.6
v 0 13.2 -3.8
v 0 13.2 -4
v 0 13.2 -4.1
v 0 13.2 -6.2
v 0 13.2 -6.4
v 0 13.2 -8.5
v 0 13.2 -8.6
v 0 13.2 -8.8
v 0 13.3 0
v 0 13.3 -2
v 0 13.3 -3.8
v 0 13.3 -4
v 0 13.3 -4.1
v 0 13.3 -6.2
v 0 13.3 -6.4
v 0 13.3 -8.5
v 0 13.3 -8.6
v 0 13.3 -8.8
v 0 13.3 -10.6
v 0 13.3 -12.6
v 0 13.4 -2
v 0 13.4 -3.8
v 0 13.4 -8.8
v 0 13.4 -10.6
v 2 13.3 -10.6
v 2 13.3 -12.6
v 2 13.4 -10.6
v 2 13.4 -12.6
v 8.8 13.3 -8.8
v 8.8 13.3 -12.6
v 8.8 13.4 -8.8
v 8.8 13.4 -12.6
v 3.8 13.3 -8.8
v 3.8 13.3 -12.6
v 3.8 13.4 -8.8
v 3.8 13.4 -12.6
v 10.6 13.3 -10.6
v 10.6 13.3 -12.6
v 10.6 13.4 -10.6
v 10.6 13.4 -12.6
v 12.6 2 0
v 12.6 2 -12.6
v 12.6 13.1 0
v 12.6 13.1 -12.6
v 12.6 13.2 -3.8
v 12.6 13.2 -4
v 12.6 13.2 -4.1
v 12.6 13.2 -6.2
v 12.6 13.2 -6.4
v 12.6 13.2 -8.5
v 12.6 13.2 -8.6
v 12.6 13.2 -8.8
v 12.6 13.3 0
v 12.6 13.3 -2
v 12.6 13.3 -3.8
v 12.6 13.3 -4
v 12.6 13.3 -4.1
v 12.6 13.3 -6.2
v 12.6 13.3 -6.4
v 12.6 13.3 -8.5
v 12.6 13.3 -8.6
v 12.6 13.3 -8.8
v 12.6 13.3 -10.6
v 12.6 13.3 -12.6
v 12.6 13.4 -2
v 12.6 13.4 -3.8
v 12.6 13.4 -8.8
v 12.6 13.4 -10.6
v 0 2 0
v 0 13.1 0
v 0 13.3 0
v 12.6 2 0
v 12.6 13.1 0
v 12.6 13.3 0
v 0 13.3 -2
v 0 13.4 -2
v 12.6 13.3 -2
v 12.6 13.4 -2
v 0 13.3 -8.8
v 0 13.4 -8.8
v 3.8 13.3 -8.8
v 3.8 13.4 -8.8
v 8.8 13.3 -8.8
v 8.8 13.4 -8.8
v 12.6 13.3 -8.8
v 12.6 13.4 -8.8
v 0 13.3 -3.8
v 0 13.4 -3.8
v 12.6 13.3 -3.8
v 12.6 13.4 -3.8
v 0 13.3 -10.6
v 0 13.4 -10.6
v 2 13.3 -10.6
v 2 13.4 -10.6
v 10.6 13.3 -10.6
v 10.6 13.4 -10.6
v 12.6 13.3 -10.6
v 12.6 13.4 -10.6
v 0 2 -12.6
v 0 13.1 -12.6
v 0 13.3 -12.6
v 2 13.3 -12.6
v 2 13.4 -12.6
v 3.8 13.2 -12.6
v 3.8 13.3 -12.6
v 3.8 13.4 -12.6
v 4 13.2 -12.6
v 4 13.3 -12.6
v 4.1 13.2 -12.6
v 4.1 13.3 -12.6
v 6.2 13.2 -12.6
v 6.2 13.3 -12.6
v 6.4 13.2 -12.6
v 6.4 13.3 -12.6
v 8.5 13.2 -12.6
v 8.5 13.3 -12.6
v 8.6 13.2 -12.6
v 8.6 13.3 -12.6
v 8.8 13.2 -12.6
v 8.8 13.3 -12.6
v 8.8 13.4 -12.6
v 10.6 13.3 -12.6
v 10.6 13.4 -12.6
v 12.6 2 -12.6
v 12.6 13.1 -12.6
v 12.6 13.3 -12.6
v 0 2 0
v 12.6 2 0
v 0 2 -12.6
v 12.6 2 -12.6
v 0 13.3 0
v 12.6 13.3 0
v 0 13.3 -2
v 12.6 13.3 -2
v 0 13.3 -3.8
v 12.6 13.3 -3.8
v 0 13.3 -4
v 12.6 13.3 -4
v 0 13.3 -4.1
v 12.6 13.3 -4.1
v 0 13.3 -6.2
v 12.6 13.3 -6.2
v 0 13.3 -6.4
v 12.6 13.3 -6.4
v 0 13.3 -8.5
v 4.1 13.3 -8.5
v 6.2 13.3 -8.5
v 6.4 13.3 -8.5
v 8.5 13.3 -8.5
v 12.6 13.3 -8.5
v 0 13.3 -8.6
v 4 13.3 -8.6
v 8.6 13.3 -8.6
v 12.6 13.3 -8.6
v 0 13.3 -8.8
v 3.8 13.3 -8.8
v 8.8 13.3 -8.8
v 12.6 13.3 -8.8
v 0 13.3 -10.6
v 2 13.3 -10.6
v 10.6 13.3 -10.6
v 12.6 13.3 -10.6
v 0 13.3 -12.6
v 2 13.3 -12.6
v 3.8 13.3 -12.6
v 4 13.3 -12.6
v 4.1 13.3 -12.6
v 6.2 13.3 -12.6
v 6.4 13.3 -12.6
v 8.5 13.3 -12.6
v 8.6 13.3 -12.6
v 8.8 13.3 -12.6
v 10.6 13.3 -12.6
v 12.6 13.3 -12.6
v 0 13.4 -2
v 12.6 13.4 -2
v 0 13.4 -3.8
v 12.6 13.4 -3.8
v 0 13.4 -8.8
v 3.8 13.4 -8.8
v 8.8 13.4 -8.8
v 12.6 13.4 -8.8
v 0 13.4 -10.6
v 2 13.4 -10.6
v 10.6 13.4 -10.6
v 12.6 13.4 -10.6
v 2 13.4 -12.6
v 3.8 13.4 -12.6
v 8.8 13.4 -12.6
v 10.6 13.4 -12.6

# faces
f 3/2/1 2/2/1 1/2/1
f 4/2/1 2/2/1 3/2/1
f 5/3/1 4/3/1 3/3/1
f 6/3/1 4/3/1 5/3/1
f 7/3/1 4/3/1 6/3/1
f 8/3/1 4/3/1 7/3/1
f 9/3/1 4/3/1 8/3/1
f 10/3/1 4/3/1 9/3/1
f 11/3/1 4/3/1 10/3/1
f 12/3/1 4/3/1 11/3/1
f 13/3/1 5/3/1 3/3/1
f 14/3/1 5/3/1 13/3/1
f 15/4/1 6/4/1 5/4/1
f 15/3/1 5/3/1 14/3/1
f 16/1/1 7/1/1 6/1/1
f 16/4/1 6/4/1 15/4/1
f 17/4/1 8/4/1 7/4/1
f 17/1/1 7/1/1 16/1/1
f 18/5/1 9/5/1 8/5/1
f 18/4/1 8/4/1 17/4/1
f 19/4/1 10/4/1 9/4/1
f 19/5/1 9/5/1 18/5/1
f 20/1/1 11/1/1 10/1/1
f 20/4/1 10/4/1 19/4/1
f 21/4/1 12/4/1 11/4/1
f 21/1/1 11/1/1 20/1/1
f 22/3/1 4/3/1 12/3/1
f 22/4/1 12/4/1 21/4/1
f 23/3/1 4/3/1 22/3/1
f 24/3/1 4/3/1 23/3/1
f 25/6/1 15/6/1 14/6/1
f 26/6/1 15/6/1 25/6/1
f 27/6/1 23/6/1 22/6/1
f 28/6/1 23/6/1 27/6/1
f 31/6/1 30/6/1 29/6/1
f 32/6/1 30/6/1 31/6/1
f 35/6/1 34/6/1 33/6/1
f 36/6/1 34/6/1 35/6/1
f 37/6/2 38/6/2 39/6/2
f 39/6/2 38/6/2 40/6/2
f 41/6/2 42/6/2 43/6/2
f 43/6/2 42/6/2 44/6/2
f 45/2/2 46/2/2 47/2/2
f 47/2/2 46/2/2 48/2/2
f 47/3/2 48/3/2 49/3/2
f 49/3/2 48/3/2 50/3/2
f 50/3/2 48/3/2 51/3/2
f 51/3/2 48/3/2 52/3/2
f 52/3/2 48/3/2 53/3/2
f 53/3/2 48/3/2 54/3/2
f 54/3/2 48/3/2 55/3/2
f 55/3/2 48/3/2 56/3/2
f 47/3/2 49/3/2 57/3/2
f 57/3/2 49/3/2 58/3/2
f 49/4/2 50/4/2 59/4/2
f 58/3/2 49/3/2 59/3/2
f 50/1/2 51/1/2 60/1/2
f 59/4/2 50/4/2 60/4/2
f 51/4/2 52/4/2 61/4/2
f 60/1/2 51/1/2 61/1/2
f 52/5/2 53/5/2 62/5/2
f 61/4/2 52/4/2 62/4/2
f 53/4/2 54/4/2 63/4/2
f 62/5/2 53/5/2 63/5/2
f 54/1/2 55/1/2 64/1/2
f 63/4/2 54/4/2 64/4/2
f 55/4/2 56/4/2 65/4/2
f 64/1/2 55/1/2 65/1/2
f 56/3/2 48/3/2 66/3/2
f 65/4/2 56/4/2 66/4/2
f 66/3/2 48/3/2 67/3/2
f 67/3/2 48/3/2 68/3/2
f 58/6/2 59/6/2 69/6/2
f 69/6/2 59/6/2 70/6/2
f 66/6/2 67/6/2 71/6/2
f 71/6/2 67/6/2 72/6/2
f 76/2/3 74/2/3 73/2/3
f 77/3/3 75/3/3 74/3/3
f 77/2/3 74/2/3 76/2/3
f 78/3/3 75/3/3 77/3/3
f 81/6/3 80/6/3 79/6/3
f 82/6/3 80/6/3 81/6/3
f 85/6/3 84/6/3 83/6/3
f 86/6/3 84/6/3 85/6/3
f 89/6/3 88/6/3 87/6/3
f 90/6/3 88/6/3 89/6/3
f 91/6/4 92/6/4 93/6/4
f 93/6/4 92/6/4 94/6/4
f 95/6/4 96/6/4 97/6/4
f 97/6/4 96/6/4 98/6/4
f 99/6/4 100/6/4 101/6/4
f 101/6/4 100/6/4 102/6/4
f 104/3/4 105/3/4 106/3/4
f 104/3/4 106/3/4 108/3/4
f 106/6/4 107/6/4 109/6/4
f 108/3/4 106/3/4 109/3/4
f 109/6/4 107/6/4 110/6/4
f 104/3/4 108/3/4 111/3/4
f 108/4/4 109/4/4 111/4/4
f 111/4/4 109/4/4 112/4/4
f 104/3/4 111/3/4 113/3/4
f 111/1/4 112/1/4 113/1/4
f 113/1/4 112/1/4 114/1/4
f 104/3/4 113/3/4 115/3/4
f 113/4/4 114/4/4 115/4/4
f 115/4/4 114/4/4 116/4/4
f 104/3/4 115/3/4 117/3/4
f 115/5/4 116/5/4 117/5/4
f 117/5/4 116/5/4 118/5/4
f 104/3/4 117/3/4 119/3/4
f 117/4/4 118/4/4 119/4/4
f 119/4/4 118/4/4 120/4/4
f 104/3/4 119/3/4 121/3/4
f 119/1/4 120/1/4 121/1/4
f 121/1/4 120/1/4 122/1/4
f 104/3/4 121/3/4 123/3/4
f 121/4/4 122/4/4 123/4/4
f 123/4/4 122/4/4 124/4/4
f 123/3/4 124/3/4 126/3/4
f 124/6/4 125/6/4 126/6/4
f 126/6/4 125/6/4 127/6/4
f 103/2/4 104/2/4 128/2/4
f 104/3/4 123/3/4 129/3/4
f 128/2/4 104/2/4 129/2/4
f 123/3/4 126/3/4 129/3/4
f 129/3/4 126/3/4 130/3/4
f 133/2/5 132/2/5 131/2/5
f 134/2/5 132/2/5 133/2/5
f 135/3/6 136/3/6 137/3/6
f 137/3/6 136/3/6 138/3/6
f 139/4/6 140/4/6 141/4/6
f 141/4/6 140/4/6 142/4/6
f 141/1/6 142/1/6 143/1/6
f 143/1/6 142/1/6 144/1/6
f 143/4/6 144/4/6 145/4/6
f 145/4/6 144/4/6 146/4/6
f 145/5/6 146/5/6 147/5/6
f 147/5/6 146/5/6 148/5/6
f 147/4/6 148/4/6 149/4/6
f 149/4/6 148/4/6 150/4/6
f 150/4/6 148/4/6 151/4/6
f 151/4/6 148/4/6 152/4/6
f 152/4/6 148/4/6 153/4/6
f 153/4/6 148/4/6 154/4/6
f 149/1/6 150/1/6 155/1/6
f 155/1/6 150/1/6 156/1/6
f 153/1/6 154/1/6 157/1/6
f 157/1/6 154/1/6 158/1/6
f 155/4/6 156/4/6 159/4/6
f 159/4/6 156/4/6 160/4/6
f 157/4/6 158/4/6 161/4/6
f 161/4/6 158/4/6 162/4/6
f 163/3/6 164/3/6 167/3/6
f 167/3/6 164/3/6 168/3/6
f 160/4/6 156/4/6 169/4/6
f 156/1/6 150/1/6 170/1/6
f 169/4/6 156/4/6 170/4/6
f 150/4/6 151/4/6 171/4/6
f 170/1/6 150/1/6 171/1/6
f 151/5/6 152/5/6 172/5/6
f 171/4/6 151/4/6 172/4/6
f 152/4/6 153/4/6 173/4/6
f 172/5/6 152/5/6 173/5/6
f 153/1/6 157/1/6 174/1/6
f 173/4/6 153/4/6 174/4/6
f 157/4/6 161/4/6 175/4/6
f 174/1/6 157/1/6 175/1/6
f 175/4/6 161/4/6 176/4/6
f 165/3/6 166/3/6 177/3/6
f 177/3/6 166/3/6 178/3/6
f 179/6/6 180/6/6 181/6/6
f 181/6/6 180/6/6 182/6/6
f 183/6/6 184/6/6 187/6/6
f 187/6/6 184/6/6 188/6/6
f 185/6/6 186/6/6 189/6/6
f 189/6/6 186/6/6 190/6/6
f 188/6/6 184/6/6 191/6/6
f 191/6/6 184/6/6 192/6/6
f 185/6/6 189/6/6 193/6/6
f 193/6/6 189/6/6 194/6/6
