# MagicaVoxel @ Ephtracy

# group
o 

# material
mtllib Road cross.mtl
usemtl palette

# normals
vn -1 0 0
vn 1 0 0
vn 0 0 1
vn 0 0 -1
vn 0 -1 0
vn 0 1 0

# texcoords
vt 0.478516 0.5
vt 0.486328 0.5
vt 0.587891 0.5
vt 0.935547 0.5
vt 0.966797 0.5

# verts
v 0 2 0
v 0 2 -12.6
v 0 2.6 0
v 0 2.6 -12.6
v 0 2.7 -3.8
v 0 2.7 -4
v 0 2.7 -4.1
v 0 2.7 -6.2
v 0 2.7 -6.4
v 0 2.7 -8.5
v 0 2.7 -8.6
v 0 2.7 -8.8
v 0 2.8 0
v 0 2.8 -3.8
v 0 2.8 -4
v 0 2.8 -4.1
v 0 2.8 -6.2
v 0 2.8 -6.4
v 0 2.8 -8.5
v 0 2.8 -8.6
v 0 2.8 -8.8
v 0 2.8 -12.6
v 12.6 2 0
v 12.6 2 -12.6
v 12.6 2.6 0
v 12.6 2.6 -12.6
v 12.6 2.7 -3.8
v 12.6 2.7 -4
v 12.6 2.7 -4.1
v 12.6 2.7 -6.2
v 12.6 2.7 -6.4
v 12.6 2.7 -8.5
v 12.6 2.7 -8.6
v 12.6 2.7 -8.8
v 12.6 2.8 0
v 12.6 2.8 -3.8
v 12.6 2.8 -4
v 12.6 2.8 -4.1
v 12.6 2.8 -6.2
v 12.6 2.8 -6.4
v 12.6 2.8 -8.5
v 12.6 2.8 -8.6
v 12.6 2.8 -8.8
v 12.6 2.8 -12.6
v 0 2 0
v 0 2.6 0
v 0 2.8 0
v 3.8 2.7 0
v 3.8 2.8 0
v 4 2.7 0
v 4 2.8 0
v 4.1 2.7 0
v 4.1 2.8 0
v 6.2 2.7 0
v 6.2 2.8 0
v 6.4 2.7 0
v 6.4 2.8 0
v 8.5 2.7 0
v 8.5 2.8 0
v 8.6 2.7 0
v 8.6 2.8 0
v 8.8 2.7 0
v 8.8 2.8 0
v 12.6 2 0
v 12.6 2.6 0
v 12.6 2.8 0
v 0 2 -12.6
v 0 2.6 -12.6
v 0 2.8 -12.6
v 3.8 2.7 -12.6
v 3.8 2.8 -12.6
v 4 2.7 -12.6
v 4 2.8 -12.6
v 4.1 2.7 -12.6
v 4.1 2.8 -12.6
v 6.2 2.7 -12.6
v 6.2 2.8 -12.6
v 6.4 2.7 -12.6
v 6.4 2.8 -12.6
v 8.5 2.7 -12.6
v 8.5 2.8 -12.6
v 8.6 2.7 -12.6
v 8.6 2.8 -12.6
v 8.8 2.7 -12.6
v 8.8 2.8 -12.6
v 12.6 2 -12.6
v 12.6 2.6 -12.6
v 12.6 2.8 -12.6
v 0 2 0
v 12.6 2 0
v 0 2 -12.6
v 12.6 2 -12.6
v 0 2.8 0
v 3.8 2.8 0
v 4 2.8 0
v 4.1 2.8 0
v 6.2 2.8 0
v 6.4 2.8 0
v 8.5 2.8 0
v 8.6 2.8 0
v 8.8 2.8 0
v 12.6 2.8 0
v 0 2.8 -3.8
v 3.8 2.8 -3.8
v 8.8 2.8 -3.8
v 12.6 2.8 -3.8
v 0 2.8 -4
v 4 2.8 -4
v 8.6 2.8 -4
v 12.6 2.8 -4
v 0 2.8 -4.1
v 4.1 2.8 -4.1
v 6.2 2.8 -4.1
v 6.4 2.8 -4.1
v 8.5 2.8 -4.1
v 12.6 2.8 -4.1
v 0 2.8 -6.2
v 4.1 2.8 -6.2
v 8.5 2.8 -6.2
v 12.6 2.8 -6.2
v 0 2.8 -6.4
v 4.1 2.8 -6.4
v 8.5 2.8 -6.4
v 12.6 2.8 -6.4
v 0 2.8 -8.5
v 4.1 2.8 -8.5
v 6.2 2.8 -8.5
v 6.4 2.8 -8.5
v 8.5 2.8 -8.5
v 12.6 2.8 -8.5
v 0 2.8 -8.6
v 4 2.8 -8.6
v 8.6 2.8 -8.6
v 12.6 2.8 -8.6
v 0 2.8 -8.8
v 3.8 2.8 -8.8
v 8.8 2.8 -8.8
v 12.6 2.8 -8.8
v 0 2.8 -12.6
v 3.8 2.8 -12.6
v 4 2.8 -12.6
v 4.1 2.8 -12.6
v 6.2 2.8 -12.6
v 6.4 2.8 -12.6
v 8.5 2.8 -12.6
v 8.6 2.8 -12.6
v 8.8 2.8 -12.6
v 12.6 2.8 -12.6

# faces
f 3/2/1 2/2/1 1/2/1
f 4/2/1 2/2/1 3/2/1
f 5/3/1 4/3/1 3/3/1
f 6/3/1 4/3/1 5/3/1
f 7/3/1 4/3/1 6/3/1
f 8/3/1 4/3/1 7/3/1
f 9/3/1 4/3/1 8/3/1
f 10/3/1 4/3/1 9/3/1
f 11/3/1 4/3/1 10/3/1
f 12/3/1 4/3/1 11/3/1
f 13/3/1 5/3/1 3/3/1
f 14/4/1 6/4/1 5/4/1
f 14/3/1 5/3/1 13/3/1
f 15/1/1 7/1/1 6/1/1
f 15/4/1 6/4/1 14/4/1
f 16/4/1 8/4/1 7/4/1
f 16/1/1 7/1/1 15/1/1
f 17/5/1 9/5/1 8/5/1
f 17/4/1 8/4/1 16/4/1
f 18/4/1 10/4/1 9/4/1
f 18/5/1 9/5/1 17/5/1
f 19/1/1 11/1/1 10/1/1
f 19/4/1 10/4/1 18/4/1
f 20/4/1 12/4/1 11/4/1
f 20/1/1 11/1/1 19/1/1
f 21/3/1 4/3/1 12/3/1
f 21/4/1 12/4/1 20/4/1
f 22/3/1 4/3/1 21/3/1
f 23/2/2 24/2/2 25/2/2
f 25/2/2 24/2/2 26/2/2
f 25/3/2 26/3/2 27/3/2
f 27/3/2 26/3/2 28/3/2
f 28/3/2 26/3/2 29/3/2
f 29/3/2 26/3/2 30/3/2
f 30/3/2 26/3/2 31/3/2
f 31/3/2 26/3/2 32/3/2
f 32/3/2 26/3/2 33/3/2
f 33/3/2 26/3/2 34/3/2
f 25/3/2 27/3/2 35/3/2
f 27/4/2 28/4/2 36/4/2
f 35/3/2 27/3/2 36/3/2
f 28/1/2 29/1/2 37/1/2
f 36/4/2 28/4/2 37/4/2
f 29/4/2 30/4/2 38/4/2
f 37/1/2 29/1/2 38/1/2
f 30/5/2 31/5/2 39/5/2
f 38/4/2 30/4/2 39/4/2
f 31/4/2 32/4/2 40/4/2
f 39/5/2 31/5/2 40/5/2
f 32/1/2 33/1/2 41/1/2
f 40/4/2 32/4/2 41/4/2
f 33/4/2 34/4/2 42/4/2
f 41/1/2 33/1/2 42/1/2
f 34/3/2 26/3/2 43/3/2
f 42/4/2 34/4/2 43/4/2
f 43/3/2 26/3/2 44/3/2
f 48/3/3 47/3/3 46/3/3
f 49/3/3 47/3/3 48/3/3
f 50/3/3 48/3/3 46/3/3
f 50/4/3 49/4/3 48/4/3
f 51/4/3 49/4/3 50/4/3
f 52/3/3 50/3/3 46/3/3
f 52/1/3 51/1/3 50/1/3
f 53/1/3 51/1/3 52/1/3
f 54/3/3 52/3/3 46/3/3
f 54/4/3 53/4/3 52/4/3
f 55/4/3 53/4/3 54/4/3
f 56/3/3 54/3/3 46/3/3
f 56/5/3 55/5/3 54/5/3
f 57/5/3 55/5/3 56/5/3
f 58/3/3 56/3/3 46/3/3
f 58/4/3 57/4/3 56/4/3
f 59/4/3 57/4/3 58/4/3
f 60/3/3 58/3/3 46/3/3
f 60/1/3 59/1/3 58/1/3
f 61/1/3 59/1/3 60/1/3
f 62/3/3 60/3/3 46/3/3
f 62/4/3 61/4/3 60/4/3
f 63/4/3 61/4/3 62/4/3
f 64/2/3 46/2/3 45/2/3
f 65/3/3 62/3/3 46/3/3
f 65/2/3 46/2/3 64/2/3
f 65/3/3 63/3/3 62/3/3
f 66/3/3 63/3/3 65/3/3
f 68/3/4 69/3/4 70/3/4
f 70/3/4 69/3/4 71/3/4
f 68/3/4 70/3/4 72/3/4
f 70/4/4 71/4/4 72/4/4
f 72/4/4 71/4/4 73/4/4
f 68/3/4 72/3/4 74/3/4
f 72/1/4 73/1/4 74/1/4
f 74/1/4 73/1/4 75/1/4
f 68/3/4 74/3/4 76/3/4
f 74/4/4 75/4/4 76/4/4
f 76/4/4 75/4/4 77/4/4
f 68/3/4 76/3/4 78/3/4
f 76/5/4 77/5/4 78/5/4
f 78/5/4 77/5/4 79/5/4
f 68/3/4 78/3/4 80/3/4
f 78/4/4 79/4/4 80/4/4
f 80/4/4 79/4/4 81/4/4
f 68/3/4 80/3/4 82/3/4
f 80/1/4 81/1/4 82/1/4
f 82/1/4 81/1/4 83/1/4
f 68/3/4 82/3/4 84/3/4
f 82/4/4 83/4/4 84/4/4
f 84/4/4 83/4/4 85/4/4
f 67/2/4 68/2/4 86/2/4
f 68/3/4 84/3/4 87/3/4
f 86/2/4 68/2/4 87/2/4
f 84/3/4 85/3/4 87/3/4
f 87/3/4 85/3/4 88/3/4
f 91/2/5 90/2/5 89/2/5
f 92/2/5 90/2/5 91/2/5
f 93/3/6 94/3/6 103/3/6
f 94/4/6 95/4/6 104/4/6
f 103/3/6 94/3/6 104/3/6
f 101/3/6 102/3/6 105/3/6
f 100/4/6 101/4/6 105/4/6
f 105/3/6 102/3/6 106/3/6
f 103/4/6 104/4/6 107/4/6
f 104/4/6 95/4/6 108/4/6
f 107/4/6 104/4/6 108/4/6
f 95/1/6 96/1/6 108/1/6
f 105/4/6 106/4/6 109/4/6
f 99/1/6 100/1/6 109/1/6
f 100/4/6 105/4/6 109/4/6
f 109/4/6 106/4/6 110/4/6
f 107/1/6 108/1/6 111/1/6
f 108/1/6 96/1/6 112/1/6
f 111/1/6 108/1/6 112/1/6
f 96/4/6 97/4/6 112/4/6
f 97/5/6 98/5/6 113/5/6
f 112/4/6 97/4/6 113/4/6
f 98/4/6 99/4/6 114/4/6
f 113/5/6 98/5/6 114/5/6
f 109/1/6 110/1/6 115/1/6
f 114/4/6 99/4/6 115/4/6
f 99/1/6 109/1/6 115/1/6
f 115/1/6 110/1/6 116/1/6
f 113/4/6 114/4/6 117/4/6
f 111/4/6 112/4/6 117/4/6
f 115/4/6 116/4/6 117/4/6
f 114/4/6 115/4/6 117/4/6
f 112/4/6 113/4/6 117/4/6
f 117/4/6 116/4/6 118/4/6
f 118/4/6 116/4/6 119/4/6
f 119/4/6 116/4/6 120/4/6
f 117/5/6 118/5/6 121/5/6
f 118/4/6 119/4/6 122/4/6
f 121/5/6 118/5/6 122/5/6
f 119/5/6 120/5/6 123/5/6
f 122/4/6 119/4/6 123/4/6
f 123/5/6 120/5/6 124/5/6
f 121/4/6 122/4/6 125/4/6
f 122/4/6 123/4/6 125/4/6
f 123/4/6 124/4/6 125/4/6
f 125/4/6 124/4/6 126/4/6
f 126/4/6 124/4/6 127/4/6
f 127/4/6 124/4/6 128/4/6
f 128/4/6 124/4/6 129/4/6
f 129/4/6 124/4/6 130/4/6
f 125/1/6 126/1/6 131/1/6
f 131/1/6 126/1/6 132/1/6
f 129/1/6 130/1/6 133/1/6
f 133/1/6 130/1/6 134/1/6
f 131/4/6 132/4/6 135/4/6
f 135/4/6 132/4/6 136/4/6
f 133/4/6 134/4/6 137/4/6
f 137/4/6 134/4/6 138/4/6
f 135/3/6 136/3/6 139/3/6
f 136/4/6 132/4/6 140/4/6
f 139/3/6 136/3/6 140/3/6
f 132/1/6 126/1/6 141/1/6
f 140/4/6 132/4/6 141/4/6
f 126/4/6 127/4/6 142/4/6
f 141/1/6 126/1/6 142/1/6
f 127/5/6 128/5/6 143/5/6
f 142/4/6 127/4/6 143/4/6
f 128/4/6 129/4/6 144/4/6
f 143/5/6 128/5/6 144/5/6
f 129/1/6 133/1/6 145/1/6
f 144/4/6 129/4/6 145/4/6
f 133/4/6 137/4/6 146/4/6
f 145/1/6 133/1/6 146/1/6
f 137/3/6 138/3/6 147/3/6
f 146/4/6 137/4/6 147/4/6
f 147/3/6 138/3/6 148/3/6
