# MagicaVoxel @ Ephtracy

# group
o 

# material
mtllib Road T.mtl
usemtl palette

# normals
vn -1 0 0
vn 1 0 0
vn 0 0 1
vn 0 0 -1
vn 0 -1 0
vn 0 1 0

# texcoords
vt 0.478516 0.5
vt 0.486328 0.5
vt 0.587891 0.5
vt 0.935547 0.5
vt 0.966797 0.5

# verts
v 0 2 0
v 0 2 -12.6
v 0 2.6 0
v 0 2.6 -12.6
v 0 2.7 -3.8
v 0 2.7 -4
v 0 2.7 -4.1
v 0 2.7 -6.2
v 0 2.7 -6.4
v 0 2.7 -8.5
v 0 2.7 -8.6
v 0 2.7 -8.8
v 0 2.8 0
v 0 2.8 -3.8
v 0 2.8 -4
v 0 2.8 -4.1
v 0 2.8 -6.2
v 0 2.8 -6.4
v 0 2.8 -8.5
v 0 2.8 -8.6
v 0 2.8 -8.8
v 0 2.8 -12.6
v 12.6 2 0
v 12.6 2 -12.6
v 12.6 2.6 0
v 12.6 2.6 -12.6
v 12.6 2.7 -3.8
v 12.6 2.7 -4
v 12.6 2.7 -4.1
v 12.6 2.7 -6.2
v 12.6 2.7 -6.4
v 12.6 2.7 -8.5
v 12.6 2.7 -8.6
v 12.6 2.7 -8.8
v 12.6 2.8 0
v 12.6 2.8 -3.8
v 12.6 2.8 -4
v 12.6 2.8 -4.1
v 12.6 2.8 -6.2
v 12.6 2.8 -6.4
v 12.6 2.8 -8.5
v 12.6 2.8 -8.6
v 12.6 2.8 -8.8
v 12.6 2.8 -12.6
v 0 2 0
v 0 2.6 0
v 0 2.8 0
v 3.8 2.1 0
v 3.8 2.6 0
v 10.5 2.1 0
v 10.5 2.6 0
v 12.6 2 0
v 12.6 2.6 0
v 12.6 2.8 0
v 0 2 -12.6
v 0 2.6 -12.6
v 0 2.8 -12.6
v 3.8 2.7 -12.6
v 3.8 2.8 -12.6
v 4 2.7 -12.6
v 4 2.8 -12.6
v 4.1 2.7 -12.6
v 4.1 2.8 -12.6
v 6.2 2.7 -12.6
v 6.2 2.8 -12.6
v 6.4 2.7 -12.6
v 6.4 2.8 -12.6
v 8.5 2.7 -12.6
v 8.5 2.8 -12.6
v 8.6 2.7 -12.6
v 8.6 2.8 -12.6
v 8.8 2.7 -12.6
v 8.8 2.8 -12.6
v 12.6 2 -12.6
v 12.6 2.6 -12.6
v 12.6 2.8 -12.6
v 0 2 0
v 12.6 2 0
v 0 2 -12.6
v 12.6 2 -12.6
v 0 2.8 0
v 12.6 2.8 0
v 0 2.8 -3.8
v 12.6 2.8 -3.8
v 0 2.8 -4
v 12.6 2.8 -4
v 0 2.8 -4.1
v 12.6 2.8 -4.1
v 0 2.8 -6.2
v 12.6 2.8 -6.2
v 0 2.8 -6.4
v 12.6 2.8 -6.4
v 0 2.8 -8.5
v 4.1 2.8 -8.5
v 6.2 2.8 -8.5
v 6.4 2.8 -8.5
v 8.5 2.8 -8.5
v 12.6 2.8 -8.5
v 0 2.8 -8.6
v 4 2.8 -8.6
v 8.6 2.8 -8.6
v 12.6 2.8 -8.6
v 0 2.8 -8.8
v 3.8 2.8 -8.8
v 8.8 2.8 -8.8
v 12.6 2.8 -8.8
v 0 2.8 -12.6
v 3.8 2.8 -12.6
v 4 2.8 -12.6
v 4.1 2.8 -12.6
v 6.2 2.8 -12.6
v 6.4 2.8 -12.6
v 8.5 2.8 -12.6
v 8.6 2.8 -12.6
v 8.8 2.8 -12.6
v 12.6 2.8 -12.6

# faces
f 3/2/1 2/2/1 1/2/1
f 4/2/1 2/2/1 3/2/1
f 5/3/1 4/3/1 3/3/1
f 6/3/1 4/3/1 5/3/1
f 7/3/1 4/3/1 6/3/1
f 8/3/1 4/3/1 7/3/1
f 9/3/1 4/3/1 8/3/1
f 10/3/1 4/3/1 9/3/1
f 11/3/1 4/3/1 10/3/1
f 12/3/1 4/3/1 11/3/1
f 13/3/1 5/3/1 3/3/1
f 14/4/1 6/4/1 5/4/1
f 14/3/1 5/3/1 13/3/1
f 15/1/1 7/1/1 6/1/1
f 15/4/1 6/4/1 14/4/1
f 16/4/1 8/4/1 7/4/1
f 16/1/1 7/1/1 15/1/1
f 17/5/1 9/5/1 8/5/1
f 17/4/1 8/4/1 16/4/1
f 18/4/1 10/4/1 9/4/1
f 18/5/1 9/5/1 17/5/1
f 19/1/1 11/1/1 10/1/1
f 19/4/1 10/4/1 18/4/1
f 20/4/1 12/4/1 11/4/1
f 20/1/1 11/1/1 19/1/1
f 21/3/1 4/3/1 12/3/1
f 21/4/1 12/4/1 20/4/1
f 22/3/1 4/3/1 21/3/1
f 23/2/2 24/2/2 25/2/2
f 25/2/2 24/2/2 26/2/2
f 25/3/2 26/3/2 27/3/2
f 27/3/2 26/3/2 28/3/2
f 28/3/2 26/3/2 29/3/2
f 29/3/2 26/3/2 30/3/2
f 30/3/2 26/3/2 31/3/2
f 31/3/2 26/3/2 32/3/2
f 32/3/2 26/3/2 33/3/2
f 33/3/2 26/3/2 34/3/2
f 25/3/2 27/3/2 35/3/2
f 27/4/2 28/4/2 36/4/2
f 35/3/2 27/3/2 36/3/2
f 28/1/2 29/1/2 37/1/2
f 36/4/2 28/4/2 37/4/2
f 29/4/2 30/4/2 38/4/2
f 37/1/2 29/1/2 38/1/2
f 30/5/2 31/5/2 39/5/2
f 38/4/2 30/4/2 39/4/2
f 31/4/2 32/4/2 40/4/2
f 39/5/2 31/5/2 40/5/2
f 32/1/2 33/1/2 41/1/2
f 40/4/2 32/4/2 41/4/2
f 33/4/2 34/4/2 42/4/2
f 41/1/2 33/1/2 42/1/2
f 34/3/2 26/3/2 43/3/2
f 42/4/2 34/4/2 43/4/2
f 43/3/2 26/3/2 44/3/2
f 48/2/3 46/2/3 45/2/3
f 49/3/3 47/3/3 46/3/3
f 49/2/3 46/2/3 48/2/3
f 50/2/3 48/2/3 45/2/3
f 50/3/3 49/3/3 48/3/3
f 51/3/3 47/3/3 49/3/3
f 51/3/3 49/3/3 50/3/3
f 52/2/3 50/2/3 45/2/3
f 52/2/3 51/2/3 50/2/3
f 53/3/3 47/3/3 51/3/3
f 53/2/3 51/2/3 52/2/3
f 54/3/3 47/3/3 53/3/3
f 56/3/4 57/3/4 58/3/4
f 58/3/4 57/3/4 59/3/4
f 56/3/4 58/3/4 60/3/4
f 58/4/4 59/4/4 60/4/4
f 60/4/4 59/4/4 61/4/4
f 56/3/4 60/3/4 62/3/4
f 60/1/4 61/1/4 62/1/4
f 62/1/4 61/1/4 63/1/4
f 56/3/4 62/3/4 64/3/4
f 62/4/4 63/4/4 64/4/4
f 64/4/4 63/4/4 65/4/4
f 56/3/4 64/3/4 66/3/4
f 64/5/4 65/5/4 66/5/4
f 66/5/4 65/5/4 67/5/4
f 56/3/4 66/3/4 68/3/4
f 66/4/4 67/4/4 68/4/4
f 68/4/4 67/4/4 69/4/4
f 56/3/4 68/3/4 70/3/4
f 68/1/4 69/1/4 70/1/4
f 70/1/4 69/1/4 71/1/4
f 56/3/4 70/3/4 72/3/4
f 70/4/4 71/4/4 72/4/4
f 72/4/4 71/4/4 73/4/4
f 55/2/4 56/2/4 74/2/4
f 56/3/4 72/3/4 75/3/4
f 74/2/4 56/2/4 75/2/4
f 72/3/4 73/3/4 75/3/4
f 75/3/4 73/3/4 76/3/4
f 79/2/5 78/2/5 77/2/5
f 80/2/5 78/2/5 79/2/5
f 81/3/6 82/3/6 83/3/6
f 83/3/6 82/3/6 84/3/6
f 83/4/6 84/4/6 85/4/6
f 85/4/6 84/4/6 86/4/6
f 85/1/6 86/1/6 87/1/6
f 87/1/6 86/1/6 88/1/6
f 87/4/6 88/4/6 89/4/6
f 89/4/6 88/4/6 90/4/6
f 89/5/6 90/5/6 91/5/6
f 91/5/6 90/5/6 92/5/6
f 91/4/6 92/4/6 93/4/6
f 93/4/6 92/4/6 94/4/6
f 94/4/6 92/4/6 95/4/6
f 95/4/6 92/4/6 96/4/6
f 96/4/6 92/4/6 97/4/6
f 97/4/6 92/4/6 98/4/6
f 93/1/6 94/1/6 99/1/6
f 99/1/6 94/1/6 100/1/6
f 97/1/6 98/1/6 101/1/6
f 101/1/6 98/1/6 102/1/6
f 99/4/6 100/4/6 103/4/6
f 103/4/6 100/4/6 104/4/6
f 101/4/6 102/4/6 105/4/6
f 105/4/6 102/4/6 106/4/6
f 103/3/6 104/3/6 107/3/6
f 104/4/6 100/4/6 108/4/6
f 107/3/6 104/3/6 108/3/6
f 100/1/6 94/1/6 109/1/6
f 108/4/6 100/4/6 109/4/6
f 94/4/6 95/4/6 110/4/6
f 109/1/6 94/1/6 110/1/6
f 95/5/6 96/5/6 111/5/6
f 110/4/6 95/4/6 111/4/6
f 96/4/6 97/4/6 112/4/6
f 111/5/6 96/5/6 112/5/6
f 97/1/6 101/1/6 113/1/6
f 112/4/6 97/4/6 113/4/6
f 101/4/6 105/4/6 114/4/6
f 113/1/6 101/1/6 114/1/6
f 105/3/6 106/3/6 115/3/6
f 114/4/6 105/4/6 115/4/6
f 115/3/6 106/3/6 116/3/6
