# MagicaVoxel @ Ephtracy

# group
o 

# material
mtllib Road bridge.mtl
usemtl palette

# normals
vn -1 0 0
vn 1 0 0
vn 0 0 1
vn 0 0 -1
vn 0 -1 0
vn 0 1 0

# texcoords
vt 0.478516 0.5
vt 0.935547 0.5
vt 0.966797 0.5
vt 0.974609 0.5

# verts
v 0 2 -3.6
v 0 2 -3.8
v 0 2 -8.8
v 0 2 -9
v 0 2.7 -4
v 0 2.7 -4.1
v 0 2.7 -6.2
v 0 2.7 -6.4
v 0 2.7 -8.5
v 0 2.7 -8.6
v 0 2.8 -3.8
v 0 2.8 -4
v 0 2.8 -4.1
v 0 2.8 -6.2
v 0 2.8 -6.4
v 0 2.8 -8.5
v 0 2.8 -8.6
v 0 2.8 -8.8
v 0 3 -3.6
v 0 3 -3.8
v 0 3 -8.8
v 0 3 -9
v 12.6 2 -3.6
v 12.6 2 -3.8
v 12.6 2 -8.8
v 12.6 2 -9
v 12.6 2.7 -4
v 12.6 2.7 -4.1
v 12.6 2.7 -6.2
v 12.6 2.7 -6.4
v 12.6 2.7 -8.5
v 12.6 2.7 -8.6
v 12.6 2.8 -3.8
v 12.6 2.8 -4
v 12.6 2.8 -4.1
v 12.6 2.8 -6.2
v 12.6 2.8 -6.4
v 12.6 2.8 -8.5
v 12.6 2.8 -8.6
v 12.6 2.8 -8.8
v 12.6 3 -3.6
v 12.6 3 -3.8
v 12.6 3 -8.8
v 12.6 3 -9
v 0 2 -3.6
v 0 3 -3.6
v 12.6 2 -3.6
v 12.6 3 -3.6
v 0 2.8 -8.8
v 0 3 -8.8
v 12.6 2.8 -8.8
v 12.6 3 -8.8
v 0 2.8 -3.8
v 0 3 -3.8
v 12.6 2.8 -3.8
v 12.6 3 -3.8
v 0 2 -9
v 0 3 -9
v 12.6 2 -9
v 12.6 3 -9
v 0 2 -3.6
v 12.6 2 -3.6
v 0 2 -3.8
v 12.6 2 -3.8
v 0 2 -8.8
v 12.6 2 -8.8
v 0 2 -9
v 12.6 2 -9
v 0 2.8 -3.8
v 12.6 2.8 -3.8
v 0 2.8 -4
v 12.6 2.8 -4
v 0 2.8 -4.1
v 12.6 2.8 -4.1
v 0 2.8 -6.2
v 12.6 2.8 -6.2
v 0 2.8 -6.4
v 12.6 2.8 -6.4
v 0 2.8 -8.5
v 12.6 2.8 -8.5
v 0 2.8 -8.6
v 12.6 2.8 -8.6
v 0 2.8 -8.8
v 12.6 2.8 -8.8
v 0 3 -3.6
v 12.6 3 -3.6
v 0 3 -3.8
v 12.6 3 -3.8
v 0 3 -8.8
v 12.6 3 -8.8
v 0 3 -9
v 12.6 3 -9

# faces
f 5/2/1 3/2/1 2/2/1
f 6/2/1 3/2/1 5/2/1
f 7/2/1 3/2/1 6/2/1
f 8/2/1 3/2/1 7/2/1
f 9/2/1 3/2/1 8/2/1
f 10/2/1 3/2/1 9/2/1
f 11/4/1 2/4/1 1/4/1
f 11/2/1 5/2/1 2/2/1
f 12/1/1 6/1/1 5/1/1
f 12/2/1 5/2/1 11/2/1
f 13/2/1 7/2/1 6/2/1
f 13/1/1 6/1/1 12/1/1
f 14/3/1 8/3/1 7/3/1
f 14/2/1 7/2/1 13/2/1
f 15/2/1 9/2/1 8/2/1
f 15/3/1 8/3/1 14/3/1
f 16/1/1 10/1/1 9/1/1
f 16/2/1 9/2/1 15/2/1
f 17/2/1 3/2/1 10/2/1
f 17/1/1 10/1/1 16/1/1
f 18/4/1 4/4/1 3/4/1
f 18/2/1 3/2/1 17/2/1
f 19/4/1 11/4/1 1/4/1
f 20/4/1 11/4/1 19/4/1
f 21/4/1 4/4/1 18/4/1
f 22/4/1 4/4/1 21/4/1
f 24/2/2 25/2/2 27/2/2
f 27/2/2 25/2/2 28/2/2
f 28/2/2 25/2/2 29/2/2
f 29/2/2 25/2/2 30/2/2
f 30/2/2 25/2/2 31/2/2
f 31/2/2 25/2/2 32/2/2
f 23/4/2 24/4/2 33/4/2
f 24/2/2 27/2/2 33/2/2
f 27/1/2 28/1/2 34/1/2
f 33/2/2 27/2/2 34/2/2
f 28/2/2 29/2/2 35/2/2
f 34/1/2 28/1/2 35/1/2
f 29/3/2 30/3/2 36/3/2
f 35/2/2 29/2/2 36/2/2
f 30/2/2 31/2/2 37/2/2
f 36/3/2 30/3/2 37/3/2
f 31/1/2 32/1/2 38/1/2
f 37/2/2 31/2/2 38/2/2
f 32/2/2 25/2/2 39/2/2
f 38/1/2 32/1/2 39/1/2
f 25/4/2 26/4/2 40/4/2
f 39/2/2 25/2/2 40/2/2
f 23/4/2 33/4/2 41/4/2
f 41/4/2 33/4/2 42/4/2
f 40/4/2 26/4/2 43/4/2
f 43/4/2 26/4/2 44/4/2
f 47/4/3 46/4/3 45/4/3
f 48/4/3 46/4/3 47/4/3
f 51/4/3 50/4/3 49/4/3
f 52/4/3 50/4/3 51/4/3
f 53/4/4 54/4/4 55/4/4
f 55/4/4 54/4/4 56/4/4
f 57/4/4 58/4/4 59/4/4
f 59/4/4 58/4/4 60/4/4
f 63/4/5 62/4/5 61/4/5
f 64/4/5 62/4/5 63/4/5
f 65/2/5 64/2/5 63/2/5
f 66/2/5 64/2/5 65/2/5
f 67/4/5 66/4/5 65/4/5
f 68/4/5 66/4/5 67/4/5
f 69/2/6 70/2/6 71/2/6
f 71/2/6 70/2/6 72/2/6
f 71/1/6 72/1/6 73/1/6
f 73/1/6 72/1/6 74/1/6
f 73/2/6 74/2/6 75/2/6
f 75/2/6 74/2/6 76/2/6
f 75/3/6 76/3/6 77/3/6
f 77/3/6 76/3/6 78/3/6
f 77/2/6 78/2/6 79/2/6
f 79/2/6 78/2/6 80/2/6
f 79/1/6 80/1/6 81/1/6
f 81/1/6 80/1/6 82/1/6
f 81/2/6 82/2/6 83/2/6
f 83/2/6 82/2/6 84/2/6
f 85/4/6 86/4/6 87/4/6
f 87/4/6 86/4/6 88/4/6
f 89/4/6 90/4/6 91/4/6
f 91/4/6 90/4/6 92/4/6
