# MagicaVoxel @ Ephtracy

# group
o 

# material
mtllib Road bridge.mtl
usemtl palette

# normals
vn -1 0 0
vn 1 0 0
vn 0 0 1
vn 0 0 -1
vn 0 -1 0
vn 0 1 0

# texcoords
vt 0.478516 0.5
vt 0.935547 0.5
vt 0.966797 0.5
vt 0.974609 0.5

# verts
v 0 8.9 -3.4
v 0 8.9 -9.2
v 0 9 -3.8
v 0 9 -8.8
v 0 10 -4
v 0 10 -4.1
v 0 10 -6.2
v 0 10 -6.4
v 0 10 -8.5
v 0 10 -8.6
v 0 10.1 -3.8
v 0 10.1 -4
v 0 10.1 -4.1
v 0 10.1 -6.2
v 0 10.1 -6.4
v 0 10.1 -8.5
v 0 10.1 -8.6
v 0 10.1 -8.8
v 0 10.5 -3.4
v 0 10.5 -3.8
v 0 10.5 -8.8
v 0 10.5 -9.2
v 5.7 2 -3.4
v 5.7 2 -4.2
v 5.7 2 -8.4
v 5.7 2 -9.2
v 5.7 8.9 -3.4
v 5.7 8.9 -4.2
v 5.7 8.9 -8.4
v 5.7 8.9 -9.2
v 6.9 2 -3.4
v 6.9 2 -4.2
v 6.9 2 -8.4
v 6.9 2 -9.2
v 6.9 8.9 -3.4
v 6.9 8.9 -4.2
v 6.9 8.9 -8.4
v 6.9 8.9 -9.2
v 12.6 8.9 -3.4
v 12.6 8.9 -9.2
v 12.6 9 -3.8
v 12.6 9 -8.8
v 12.6 10 -4
v 12.6 10 -4.1
v 12.6 10 -6.2
v 12.6 10 -6.4
v 12.6 10 -8.5
v 12.6 10 -8.6
v 12.6 10.1 -3.8
v 12.6 10.1 -4
v 12.6 10.1 -4.1
v 12.6 10.1 -6.2
v 12.6 10.1 -6.4
v 12.6 10.1 -8.5
v 12.6 10.1 -8.6
v 12.6 10.1 -8.8
v 12.6 10.5 -3.4
v 12.6 10.5 -3.8
v 12.6 10.5 -8.8
v 12.6 10.5 -9.2
v 0 8.9 -3.4
v 0 10.5 -3.4
v 5.7 2 -3.4
v 5.7 8.9 -3.4
v 6.9 2 -3.4
v 6.9 8.9 -3.4
v 12.6 8.9 -3.4
v 12.6 10.5 -3.4
v 5.7 2 -8.4
v 5.7 8.9 -8.4
v 6.9 2 -8.4
v 6.9 8.9 -8.4
v 0 10.1 -8.8
v 0 10.5 -8.8
v 12.6 10.1 -8.8
v 12.6 10.5 -8.8
v 0 10.1 -3.8
v 0 10.5 -3.8
v 12.6 10.1 -3.8
v 12.6 10.5 -3.8
v 5.7 2 -4.2
v 5.7 8.9 -4.2
v 6.9 2 -4.2
v 6.9 8.9 -4.2
v 0 8.9 -9.2
v 0 10.5 -9.2
v 5.7 2 -9.2
v 5.7 8.9 -9.2
v 6.9 2 -9.2
v 6.9 8.9 -9.2
v 12.6 8.9 -9.2
v 12.6 10.5 -9.2
v 5.7 2 -3.4
v 6.9 2 -3.4
v 5.7 2 -4.2
v 6.9 2 -4.2
v 5.7 2 -8.4
v 6.9 2 -8.4
v 5.7 2 -9.2
v 6.9 2 -9.2
v 0 8.9 -3.4
v 5.7 8.9 -3.4
v 6.9 8.9 -3.4
v 12.6 8.9 -3.4
v 5.7 8.9 -4.2
v 6.9 8.9 -4.2
v 5.7 8.9 -8.4
v 6.9 8.9 -8.4
v 0 8.9 -9.2
v 5.7 8.9 -9.2
v 6.9 8.9 -9.2
v 12.6 8.9 -9.2
v 0 10.1 -3.8
v 12.6 10.1 -3.8
v 0 10.1 -4
v 12.6 10.1 -4
v 0 10.1 -4.1
v 12.6 10.1 -4.1
v 0 10.1 -6.2
v 12.6 10.1 -6.2
v 0 10.1 -6.4
v 12.6 10.1 -6.4
v 0 10.1 -8.5
v 12.6 10.1 -8.5
v 0 10.1 -8.6
v 12.6 10.1 -8.6
v 0 10.1 -8.8
v 12.6 10.1 -8.8
v 0 10.5 -3.4
v 12.6 10.5 -3.4
v 0 10.5 -3.8
v 12.6 10.5 -3.8
v 0 10.5 -8.8
v 12.6 10.5 -8.8
v 0 10.5 -9.2
v 12.6 10.5 -9.2

# faces
f 3/4/1 2/4/1 1/4/1
f 4/4/1 2/4/1 3/4/1
f 5/2/1 4/2/1 3/2/1
f 6/2/1 4/2/1 5/2/1
f 7/2/1 4/2/1 6/2/1
f 8/2/1 4/2/1 7/2/1
f 9/2/1 4/2/1 8/2/1
f 10/2/1 4/2/1 9/2/1
f 11/4/1 3/4/1 1/4/1
f 11/2/1 5/2/1 3/2/1
f 12/1/1 6/1/1 5/1/1
f 12/2/1 5/2/1 11/2/1
f 13/2/1 7/2/1 6/2/1
f 13/1/1 6/1/1 12/1/1
f 14/3/1 8/3/1 7/3/1
f 14/2/1 7/2/1 13/2/1
f 15/2/1 9/2/1 8/2/1
f 15/3/1 8/3/1 14/3/1
f 16/1/1 10/1/1 9/1/1
f 16/2/1 9/2/1 15/2/1
f 17/2/1 4/2/1 10/2/1
f 17/1/1 10/1/1 16/1/1
f 18/4/1 2/4/1 4/4/1
f 18/2/1 4/2/1 17/2/1
f 19/4/1 11/4/1 1/4/1
f 20/4/1 11/4/1 19/4/1
f 21/4/1 2/4/1 18/4/1
f 22/4/1 2/4/1 21/4/1
f 27/4/1 24/4/1 23/4/1
f 28/4/1 24/4/1 27/4/1
f 29/4/1 26/4/1 25/4/1
f 30/4/1 26/4/1 29/4/1
f 31/4/2 32/4/2 35/4/2
f 35/4/2 32/4/2 36/4/2
f 33/4/2 34/4/2 37/4/2
f 37/4/2 34/4/2 38/4/2
f 39/4/2 40/4/2 41/4/2
f 41/4/2 40/4/2 42/4/2
f 41/2/2 42/2/2 43/2/2
f 43/2/2 42/2/2 44/2/2
f 44/2/2 42/2/2 45/2/2
f 45/2/2 42/2/2 46/2/2
f 46/2/2 42/2/2 47/2/2
f 47/2/2 42/2/2 48/2/2
f 39/4/2 41/4/2 49/4/2
f 41/2/2 43/2/2 49/2/2
f 43/1/2 44/1/2 50/1/2
f 49/2/2 43/2/2 50/2/2
f 44/2/2 45/2/2 51/2/2
f 50/1/2 44/1/2 51/1/2
f 45/3/2 46/3/2 52/3/2
f 51/2/2 45/2/2 52/2/2
f 46/2/2 47/2/2 53/2/2
f 52/3/2 46/3/2 53/3/2
f 47/1/2 48/1/2 54/1/2
f 53/2/2 47/2/2 54/2/2
f 48/2/2 42/2/2 55/2/2
f 54/1/2 48/1/2 55/1/2
f 42/4/2 40/4/2 56/4/2
f 55/2/2 42/2/2 56/2/2
f 39/4/2 49/4/2 57/4/2
f 57/4/2 49/4/2 58/4/2
f 56/4/2 40/4/2 59/4/2
f 59/4/2 40/4/2 60/4/2
f 64/4/3 62/4/3 61/4/3
f 65/4/3 64/4/3 63/4/3
f 66/4/3 62/4/3 64/4/3
f 66/4/3 64/4/3 65/4/3
f 67/4/3 62/4/3 66/4/3
f 68/4/3 62/4/3 67/4/3
f 71/4/3 70/4/3 69/4/3
f 72/4/3 70/4/3 71/4/3
f 75/4/3 74/4/3 73/4/3
f 76/4/3 74/4/3 75/4/3
f 77/4/4 78/4/4 79/4/4
f 79/4/4 78/4/4 80/4/4
f 81/4/4 82/4/4 83/4/4
f 83/4/4 82/4/4 84/4/4
f 85/4/4 86/4/4 88/4/4
f 87/4/4 88/4/4 89/4/4
f 88/4/4 86/4/4 90/4/4
f 89/4/4 88/4/4 90/4/4
f 90/4/4 86/4/4 91/4/4
f 91/4/4 86/4/4 92/4/4
f 95/4/5 94/4/5 93/4/5
f 96/4/5 94/4/5 95/4/5
f 99/4/5 98/4/5 97/4/5
f 100/4/5 98/4/5 99/4/5
f 105/4/5 102/4/5 101/4/5
f 106/4/5 104/4/5 103/4/5
f 107/4/5 105/4/5 101/4/5
f 107/4/5 106/4/5 105/4/5
f 108/4/5 104/4/5 106/4/5
f 108/4/5 106/4/5 107/4/5
f 109/4/5 107/4/5 101/4/5
f 110/4/5 107/4/5 109/4/5
f 111/4/5 104/4/5 108/4/5
f 112/4/5 104/4/5 111/4/5
f 113/2/6 114/2/6 115/2/6
f 115/2/6 114/2/6 116/2/6
f 115/1/6 116/1/6 117/1/6
f 117/1/6 116/1/6 118/1/6
f 117/2/6 118/2/6 119/2/6
f 119/2/6 118/2/6 120/2/6
f 119/3/6 120/3/6 121/3/6
f 121/3/6 120/3/6 122/3/6
f 121/2/6 122/2/6 123/2/6
f 123/2/6 122/2/6 124/2/6
f 123/1/6 124/1/6 125/1/6
f 125/1/6 124/1/6 126/1/6
f 125/2/6 126/2/6 127/2/6
f 127/2/6 126/2/6 128/2/6
f 129/4/6 130/4/6 131/4/6
f 131/4/6 130/4/6 132/4/6
f 133/4/6 134/4/6 135/4/6
f 135/4/6 134/4/6 136/4/6
