# MagicaVoxel @ Ephtracy

# group
o 

# material
mtllib Road Straight.mtl
usemtl palette

# normals
vn -1 0 0
vn 1 0 0
vn 0 0 1
vn 0 0 -1
vn 0 -1 0
vn 0 1 0

# texcoords
vt 0.478516 0.5
vt 0.486328 0.5
vt 0.587891 0.5
vt 0.935547 0.5
vt 0.966797 0.5

# verts
v 0 2 0
v 0 2 -12.6
v 0 2.6 0
v 0 2.6 -12.6
v 0 2.7 -3.8
v 0 2.7 -4
v 0 2.7 -4.1
v 0 2.7 -6.2
v 0 2.7 -6.4
v 0 2.7 -8.5
v 0 2.7 -8.6
v 0 2.7 -8.8
v 0 2.8 0
v 0 2.8 -3.8
v 0 2.8 -4
v 0 2.8 -4.1
v 0 2.8 -6.2
v 0 2.8 -6.4
v 0 2.8 -8.5
v 0 2.8 -8.6
v 0 2.8 -8.8
v 0 2.8 -12.6
v 12.6 2 0
v 12.6 2 -12.6
v 12.6 2.6 0
v 12.6 2.6 -12.6
v 12.6 2.7 -3.8
v 12.6 2.7 -4
v 12.6 2.7 -4.1
v 12.6 2.7 -6.2
v 12.6 2.7 -6.4
v 12.6 2.7 -8.5
v 12.6 2.7 -8.6
v 12.6 2.7 -8.8
v 12.6 2.8 0
v 12.6 2.8 -3.8
v 12.6 2.8 -4
v 12.6 2.8 -4.1
v 12.6 2.8 -6.2
v 12.6 2.8 -6.4
v 12.6 2.8 -8.5
v 12.6 2.8 -8.6
v 12.6 2.8 -8.8
v 12.6 2.8 -12.6
v 0 2 0
v 0 2.6 0
v 0 2.8 0
v 12.6 2 0
v 12.6 2.6 0
v 12.6 2.8 0
v 0 2 -12.6
v 0 2.6 -12.6
v 0 2.8 -12.6
v 12.6 2 -12.6
v 12.6 2.6 -12.6
v 12.6 2.8 -12.6
v 0 2 0
v 12.6 2 0
v 0 2 -12.6
v 12.6 2 -12.6
v 0 2.8 0
v 12.6 2.8 0
v 0 2.8 -3.8
v 12.6 2.8 -3.8
v 0 2.8 -4
v 12.6 2.8 -4
v 0 2.8 -4.1
v 12.6 2.8 -4.1
v 0 2.8 -6.2
v 12.6 2.8 -6.2
v 0 2.8 -6.4
v 12.6 2.8 -6.4
v 0 2.8 -8.5
v 12.6 2.8 -8.5
v 0 2.8 -8.6
v 12.6 2.8 -8.6
v 0 2.8 -8.8
v 12.6 2.8 -8.8
v 0 2.8 -12.6
v 12.6 2.8 -12.6

# faces
f 3/2/1 2/2/1 1/2/1
f 4/2/1 2/2/1 3/2/1
f 5/3/1 4/3/1 3/3/1
f 6/3/1 4/3/1 5/3/1
f 7/3/1 4/3/1 6/3/1
f 8/3/1 4/3/1 7/3/1
f 9/3/1 4/3/1 8/3/1
f 10/3/1 4/3/1 9/3/1
f 11/3/1 4/3/1 10/3/1
f 12/3/1 4/3/1 11/3/1
f 13/3/1 5/3/1 3/3/1
f 14/4/1 6/4/1 5/4/1
f 14/3/1 5/3/1 13/3/1
f 15/1/1 7/1/1 6/1/1
f 15/4/1 6/4/1 14/4/1
f 16/4/1 8/4/1 7/4/1
f 16/1/1 7/1/1 15/1/1
f 17/5/1 9/5/1 8/5/1
f 17/4/1 8/4/1 16/4/1
f 18/4/1 10/4/1 9/4/1
f 18/5/1 9/5/1 17/5/1
f 19/1/1 11/1/1 10/1/1
f 19/4/1 10/4/1 18/4/1
f 20/4/1 12/4/1 11/4/1
f 20/1/1 11/1/1 19/1/1
f 21/3/1 4/3/1 12/3/1
f 21/4/1 12/4/1 20/4/1
f 22/3/1 4/3/1 21/3/1
f 23/2/2 24/2/2 25/2/2
f 25/2/2 24/2/2 26/2/2
f 25/3/2 26/3/2 27/3/2
f 27/3/2 26/3/2 28/3/2
f 28/3/2 26/3/2 29/3/2
f 29/3/2 26/3/2 30/3/2
f 30/3/2 26/3/2 31/3/2
f 31/3/2 26/3/2 32/3/2
f 32/3/2 26/3/2 33/3/2
f 33/3/2 26/3/2 34/3/2
f 25/3/2 27/3/2 35/3/2
f 27/4/2 28/4/2 36/4/2
f 35/3/2 27/3/2 36/3/2
f 28/1/2 29/1/2 37/1/2
f 36/4/2 28/4/2 37/4/2
f 29/4/2 30/4/2 38/4/2
f 37/1/2 29/1/2 38/1/2
f 30/5/2 31/5/2 39/5/2
f 38/4/2 30/4/2 39/4/2
f 31/4/2 32/4/2 40/4/2
f 39/5/2 31/5/2 40/5/2
f 32/1/2 33/1/2 41/1/2
f 40/4/2 32/4/2 41/4/2
f 33/4/2 34/4/2 42/4/2
f 41/1/2 33/1/2 42/1/2
f 34/3/2 26/3/2 43/3/2
f 42/4/2 34/4/2 43/4/2
f 43/3/2 26/3/2 44/3/2
f 48/2/3 46/2/3 45/2/3
f 49/3/3 47/3/3 46/3/3
f 49/2/3 46/2/3 48/2/3
f 50/3/3 47/3/3 49/3/3
f 51/2/4 52/2/4 54/2/4
f 52/3/4 53/3/4 55/3/4
f 54/2/4 52/2/4 55/2/4
f 55/3/4 53/3/4 56/3/4
f 59/2/5 58/2/5 57/2/5
f 60/2/5 58/2/5 59/2/5
f 61/3/6 62/3/6 63/3/6
f 63/3/6 62/3/6 64/3/6
f 63/4/6 64/4/6 65/4/6
f 65/4/6 64/4/6 66/4/6
f 65/1/6 66/1/6 67/1/6
f 67/1/6 66/1/6 68/1/6
f 67/4/6 68/4/6 69/4/6
f 69/4/6 68/4/6 70/4/6
f 69/5/6 70/5/6 71/5/6
f 71/5/6 70/5/6 72/5/6
f 71/4/6 72/4/6 73/4/6
f 73/4/6 72/4/6 74/4/6
f 73/1/6 74/1/6 75/1/6
f 75/1/6 74/1/6 76/1/6
f 75/4/6 76/4/6 77/4/6
f 77/4/6 76/4/6 78/4/6
f 77/3/6 78/3/6 79/3/6
f 79/3/6 78/3/6 80/3/6
