# MagicaVoxel @ Ephtracy

# group
o 

# material
mtllib Road bridge.mtl
usemtl palette

# normals
vn -1 0 0
vn 1 0 0
vn 0 0 1
vn 0 0 -1
vn 0 -1 0
vn 0 1 0

# texcoords
vt 0.478516 0.5
vt 0.919922 0.5
vt 0.935547 0.5
vt 0.966797 0.5
vt 0.974609 0.5

# verts
v 0 11.8 -3.4
v 0 11.8 -9.2
v 0 11.9 -3.8
v 0 11.9 -8.8
v 0 12.9 -4
v 0 12.9 -4.1
v 0 12.9 -6.2
v 0 12.9 -6.4
v 0 12.9 -8.5
v 0 12.9 -8.6
v 0 13 -3.8
v 0 13 -4
v 0 13 -4.1
v 0 13 -6.2
v 0 13 -6.4
v 0 13 -8.5
v 0 13 -8.6
v 0 13 -8.8
v 0 13.4 -3.4
v 0 13.4 -3.8
v 0 13.4 -8.8
v 0 13.4 -9.2
v 5.5 2 -3.2
v 5.5 2 -4.4
v 5.5 2 -8.2
v 5.5 2 -9.4
v 5.5 4.2 -3.2
v 5.5 4.2 -4.4
v 5.5 4.2 -8.2
v 5.5 4.2 -9.4
v 5.7 4.2 -3.4
v 5.7 4.2 -4.2
v 5.7 4.2 -8.4
v 5.7 4.2 -9.2
v 5.7 11.8 -3.4
v 5.7 11.8 -4.2
v 5.7 11.8 -8.4
v 5.7 11.8 -9.2
v 6.9 4.2 -3.4
v 6.9 4.2 -4.2
v 6.9 4.2 -8.4
v 6.9 4.2 -9.2
v 6.9 11.8 -3.4
v 6.9 11.8 -4.2
v 6.9 11.8 -8.4
v 6.9 11.8 -9.2
v 7.1 2 -3.2
v 7.1 2 -4.4
v 7.1 2 -8.2
v 7.1 2 -9.4
v 7.1 4.2 -3.2
v 7.1 4.2 -4.4
v 7.1 4.2 -8.2
v 7.1 4.2 -9.4
v 12.6 11.8 -3.4
v 12.6 11.8 -9.2
v 12.6 11.9 -3.8
v 12.6 11.9 -8.8
v 12.6 12.9 -4
v 12.6 12.9 -4.1
v 12.6 12.9 -6.2
v 12.6 12.9 -6.4
v 12.6 12.9 -8.5
v 12.6 12.9 -8.6
v 12.6 13 -3.8
v 12.6 13 -4
v 12.6 13 -4.1
v 12.6 13 -6.2
v 12.6 13 -6.4
v 12.6 13 -8.5
v 12.6 13 -8.6
v 12.6 13 -8.8
v 12.6 13.4 -3.4
v 12.6 13.4 -3.8
v 12.6 13.4 -8.8
v 12.6 13.4 -9.2
v 5.5 2 -3.2
v 5.5 4.2 -3.2
v 7.1 2 -3.2
v 7.1 4.2 -3.2
v 0 11.8 -3.4
v 0 13.4 -3.4
v 5.7 4.2 -3.4
v 5.7 11.8 -3.4
v 6.9 4.2 -3.4
v 6.9 11.8 -3.4
v 12.6 11.8 -3.4
v 12.6 13.4 -3.4
v 5.5 2 -8.2
v 5.5 4.2 -8.2
v 7.1 2 -8.2
v 7.1 4.2 -8.2
v 5.7 4.2 -8.4
v 5.7 11.8 -8.4
v 6.9 4.2 -8.4
v 6.9 11.8 -8.4
v 0 13 -8.8
v 0 13.4 -8.8
v 12.6 13 -8.8
v 12.6 13.4 -8.8
v 0 13 -3.8
v 0 13.4 -3.8
v 12.6 13 -3.8
v 12.6 13.4 -3.8
v 5.7 4.2 -4.2
v 5.7 11.8 -4.2
v 6.9 4.2 -4.2
v 6.9 11.8 -4.2
v 5.5 2 -4.4
v 5.5 4.2 -4.4
v 7.1 2 -4.4
v 7.1 4.2 -4.4
v 0 11.8 -9.2
v 0 13.4 -9.2
v 5.7 4.2 -9.2
v 5.7 11.8 -9.2
v 6.9 4.2 -9.2
v 6.9 11.8 -9.2
v 12.6 11.8 -9.2
v 12.6 13.4 -9.2
v 5.5 2 -9.4
v 5.5 4.2 -9.4
v 7.1 2 -9.4
v 7.1 4.2 -9.4
v 5.5 2 -3.2
v 7.1 2 -3.2
v 5.7 2 -3.4
v 6.9 2 -3.4
v 5.7 2 -4.2
v 6.9 2 -4.2
v 5.5 2 -4.4
v 7.1 2 -4.4
v 5.5 2 -8.2
v 7.1 2 -8.2
v 5.7 2 -8.4
v 6.9 2 -8.4
v 5.7 2 -9.2
v 6.9 2 -9.2
v 5.5 2 -9.4
v 7.1 2 -9.4
v 0 11.8 -3.4
v 5.7 11.8 -3.4
v 6.9 11.8 -3.4
v 12.6 11.8 -3.4
v 5.7 11.8 -4.2
v 6.9 11.8 -4.2
v 5.7 11.8 -8.4
v 6.9 11.8 -8.4
v 0 11.8 -9.2
v 5.7 11.8 -9.2
v 6.9 11.8 -9.2
v 12.6 11.8 -9.2
v 5.5 4.2 -3.2
v 7.1 4.2 -3.2
v 5.7 4.2 -3.4
v 6.9 4.2 -3.4
v 5.7 4.2 -4.2
v 6.9 4.2 -4.2
v 5.5 4.2 -4.4
v 7.1 4.2 -4.4
v 5.5 4.2 -8.2
v 7.1 4.2 -8.2
v 5.7 4.2 -8.4
v 6.9 4.2 -8.4
v 5.7 4.2 -9.2
v 6.9 4.2 -9.2
v 5.5 4.2 -9.4
v 7.1 4.2 -9.4
v 0 13 -3.8
v 12.6 13 -3.8
v 0 13 -4
v 12.6 13 -4
v 0 13 -4.1
v 12.6 13 -4.1
v 0 13 -6.2
v 12.6 13 -6.2
v 0 13 -6.4
v 12.6 13 -6.4
v 0 13 -8.5
v 12.6 13 -8.5
v 0 13 -8.6
v 12.6 13 -8.6
v 0 13 -8.8
v 12.6 13 -8.8
v 0 13.4 -3.4
v 12.6 13.4 -3.4
v 0 13.4 -3.8
v 12.6 13.4 -3.8
v 0 13.4 -8.8
v 12.6 13.4 -8.8
v 0 13.4 -9.2
v 12.6 13.4 -9.2

# faces
f 3/5/1 2/5/1 1/5/1
f 4/5/1 2/5/1 3/5/1
f 5/3/1 4/3/1 3/3/1
f 6/3/1 4/3/1 5/3/1
f 7/3/1 4/3/1 6/3/1
f 8/3/1 4/3/1 7/3/1
f 9/3/1 4/3/1 8/3/1
f 10/3/1 4/3/1 9/3/1
f 11/5/1 3/5/1 1/5/1
f 11/3/1 5/3/1 3/3/1
f 12/1/1 6/1/1 5/1/1
f 12/3/1 5/3/1 11/3/1
f 13/3/1 7/3/1 6/3/1
f 13/1/1 6/1/1 12/1/1
f 14/4/1 8/4/1 7/4/1
f 14/3/1 7/3/1 13/3/1
f 15/3/1 9/3/1 8/3/1
f 15/4/1 8/4/1 14/4/1
f 16/1/1 10/1/1 9/1/1
f 16/3/1 9/3/1 15/3/1
f 17/3/1 4/3/1 10/3/1
f 17/1/1 10/1/1 16/1/1
f 18/5/1 2/5/1 4/5/1
f 18/3/1 4/3/1 17/3/1
f 19/5/1 11/5/1 1/5/1
f 20/5/1 11/5/1 19/5/1
f 21/5/1 2/5/1 18/5/1
f 22/5/1 2/5/1 21/5/1
f 27/2/1 24/2/1 23/2/1
f 28/2/1 24/2/1 27/2/1
f 29/2/1 26/2/1 25/2/1
f 30/2/1 26/2/1 29/2/1
f 35/5/1 32/5/1 31/5/1
f 36/5/1 32/5/1 35/5/1
f 37/5/1 34/5/1 33/5/1
f 38/5/1 34/5/1 37/5/1
f 39/5/2 40/5/2 43/5/2
f 43/5/2 40/5/2 44/5/2
f 41/5/2 42/5/2 45/5/2
f 45/5/2 42/5/2 46/5/2
f 47/2/2 48/2/2 51/2/2
f 51/2/2 48/2/2 52/2/2
f 49/2/2 50/2/2 53/2/2
f 53/2/2 50/2/2 54/2/2
f 55/5/2 56/5/2 57/5/2
f 57/5/2 56/5/2 58/5/2
f 57/3/2 58/3/2 59/3/2
f 59/3/2 58/3/2 60/3/2
f 60/3/2 58/3/2 61/3/2
f 61/3/2 58/3/2 62/3/2
f 62/3/2 58/3/2 63/3/2
f 63/3/2 58/3/2 64/3/2
f 55/5/2 57/5/2 65/5/2
f 57/3/2 59/3/2 65/3/2
f 59/1/2 60/1/2 66/1/2
f 65/3/2 59/3/2 66/3/2
f 60/3/2 61/3/2 67/3/2
f 66/1/2 60/1/2 67/1/2
f 61/4/2 62/4/2 68/4/2
f 67/3/2 61/3/2 68/3/2
f 62/3/2 63/3/2 69/3/2
f 68/4/2 62/4/2 69/4/2
f 63/1/2 64/1/2 70/1/2
f 69/3/2 63/3/2 70/3/2
f 64/3/2 58/3/2 71/3/2
f 70/1/2 64/1/2 71/1/2
f 58/5/2 56/5/2 72/5/2
f 71/3/2 58/3/2 72/3/2
f 55/5/2 65/5/2 73/5/2
f 73/5/2 65/5/2 74/5/2
f 72/5/2 56/5/2 75/5/2
f 75/5/2 56/5/2 76/5/2
f 79/2/3 78/2/3 77/2/3
f 80/2/3 78/2/3 79/2/3
f 84/5/3 82/5/3 81/5/3
f 85/5/3 84/5/3 83/5/3
f 86/5/3 82/5/3 84/5/3
f 86/5/3 84/5/3 85/5/3
f 87/5/3 82/5/3 86/5/3
f 88/5/3 82/5/3 87/5/3
f 91/2/3 90/2/3 89/2/3
f 92/2/3 90/2/3 91/2/3
f 95/5/3 94/5/3 93/5/3
f 96/5/3 94/5/3 95/5/3
f 99/5/3 98/5/3 97/5/3
f 100/5/3 98/5/3 99/5/3
f 101/5/4 102/5/4 103/5/4
f 103/5/4 102/5/4 104/5/4
f 105/5/4 106/5/4 107/5/4
f 107/5/4 106/5/4 108/5/4
f 109/2/4 110/2/4 111/2/4
f 111/2/4 110/2/4 112/2/4
f 113/5/4 114/5/4 116/5/4
f 115/5/4 116/5/4 117/5/4
f 116/5/4 114/5/4 118/5/4
f 117/5/4 116/5/4 118/5/4
f 118/5/4 114/5/4 119/5/4
f 119/5/4 114/5/4 120/5/4
f 121/2/4 122/2/4 123/2/4
f 123/2/4 122/2/4 124/2/4
f 127/2/5 126/2/5 125/2/5
f 128/2/5 126/2/5 127/2/5
f 129/2/5 127/2/5 125/2/5
f 129/5/5 128/5/5 127/5/5
f 130/2/5 126/2/5 128/2/5
f 130/5/5 128/5/5 129/5/5
f 131/2/5 129/2/5 125/2/5
f 131/2/5 130/2/5 129/2/5
f 132/2/5 126/2/5 130/2/5
f 132/2/5 130/2/5 131/2/5
f 135/2/5 134/2/5 133/2/5
f 136/2/5 134/2/5 135/2/5
f 137/2/5 135/2/5 133/2/5
f 137/5/5 136/5/5 135/5/5
f 138/2/5 134/2/5 136/2/5
f 138/5/5 136/5/5 137/5/5
f 139/2/5 137/2/5 133/2/5
f 139/2/5 138/2/5 137/2/5
f 140/2/5 134/2/5 138/2/5
f 140/2/5 138/2/5 139/2/5
f 145/5/5 142/5/5 141/5/5
f 146/5/5 144/5/5 143/5/5
f 147/5/5 145/5/5 141/5/5
f 147/5/5 146/5/5 145/5/5
f 148/5/5 144/5/5 146/5/5
f 148/5/5 146/5/5 147/5/5
f 149/5/5 147/5/5 141/5/5
f 150/5/5 147/5/5 149/5/5
f 151/5/5 144/5/5 148/5/5
f 152/5/5 144/5/5 151/5/5
f 153/2/6 154/2/6 155/2/6
f 155/2/6 154/2/6 156/2/6
f 153/2/6 155/2/6 157/2/6
f 156/2/6 154/2/6 158/2/6
f 153/2/6 157/2/6 159/2/6
f 157/2/6 158/2/6 159/2/6
f 158/2/6 154/2/6 160/2/6
f 159/2/6 158/2/6 160/2/6
f 161/2/6 162/2/6 163/2/6
f 163/2/6 162/2/6 164/2/6
f 161/2/6 163/2/6 165/2/6
f 164/2/6 162/2/6 166/2/6
f 161/2/6 165/2/6 167/2/6
f 165/2/6 166/2/6 167/2/6
f 166/2/6 162/2/6 168/2/6
f 167/2/6 166/2/6 168/2/6
f 169/3/6 170/3/6 171/3/6
f 171/3/6 170/3/6 172/3/6
f 171/1/6 172/1/6 173/1/6
f 173/1/6 172/1/6 174/1/6
f 173/3/6 174/3/6 175/3/6
f 175/3/6 174/3/6 176/3/6
f 175/4/6 176/4/6 177/4/6
f 177/4/6 176/4/6 178/4/6
f 177/3/6 178/3/6 179/3/6
f 179/3/6 178/3/6 180/3/6
f 179/1/6 180/1/6 181/1/6
f 181/1/6 180/1/6 182/1/6
f 181/3/6 182/3/6 183/3/6
f 183/3/6 182/3/6 184/3/6
f 185/5/6 186/5/6 187/5/6
f 187/5/6 186/5/6 188/5/6
f 189/5/6 190/5/6 191/5/6
f 191/5/6 190/5/6 192/5/6
