# MagicaVoxel @ Ephtracy

# group
o 

# material
mtllib Road crosswalk.mtl
usemtl palette

# normals
vn -1 0 0
vn 1 0 0
vn 0 0 1
vn 0 0 -1
vn 0 -1 0
vn 0 1 0

# texcoords
vt 0.478516 0.5
vt 0.486328 0.5
vt 0.587891 0.5
vt 0.935547 0.5
vt 0.966797 0.5
vt 0.974609 0.5

# verts
v 0 2 0
v 0 2 -12.6
v 0 13.1 0
v 0 13.1 -12.6
v 0 13.2 -3.8
v 0 13.2 -4
v 0 13.2 -4.1
v 0 13.2 -6.2
v 0 13.2 -6.4
v 0 13.2 -8.5
v 0 13.2 -8.6
v 0 13.2 -8.8
v 0 13.3 0
v 0 13.3 -2
v 0 13.3 -3.8
v 0 13.3 -4
v 0 13.3 -4.1
v 0 13.3 -6.2
v 0 13.3 -6.4
v 0 13.3 -8.5
v 0 13.3 -8.6
v 0 13.3 -8.8
v 0 13.3 -10.6
v 0 13.3 -12.6
v 0 13.4 -2
v 0 13.4 -3.8
v 0 13.4 -8.8
v 0 13.4 -10.6
v 12.6 2 0
v 12.6 2 -12.6
v 12.6 13.1 0
v 12.6 13.1 -12.6
v 12.6 13.2 -3.8
v 12.6 13.2 -4
v 12.6 13.2 -4.1
v 12.6 13.2 -6.2
v 12.6 13.2 -6.4
v 12.6 13.2 -8.5
v 12.6 13.2 -8.6
v 12.6 13.2 -8.8
v 12.6 13.3 0
v 12.6 13.3 -2
v 12.6 13.3 -3.8
v 12.6 13.3 -4
v 12.6 13.3 -4.1
v 12.6 13.3 -6.2
v 12.6 13.3 -6.4
v 12.6 13.3 -8.5
v 12.6 13.3 -8.6
v 12.6 13.3 -8.8
v 12.6 13.3 -10.6
v 12.6 13.3 -12.6
v 12.6 13.4 -2
v 12.6 13.4 -3.8
v 12.6 13.4 -8.8
v 12.6 13.4 -10.6
v 0 2 0
v 0 13.1 0
v 0 13.3 0
v 12.6 2 0
v 12.6 13.1 0
v 12.6 13.3 0
v 0 13.3 -2
v 0 13.4 -2
v 12.6 13.3 -2
v 12.6 13.4 -2
v 0 13.3 -8.8
v 0 13.4 -8.8
v 12.6 13.3 -8.8
v 12.6 13.4 -8.8
v 0 13.3 -3.8
v 0 13.4 -3.8
v 12.6 13.3 -3.8
v 12.6 13.4 -3.8
v 0 13.3 -10.6
v 0 13.4 -10.6
v 12.6 13.3 -10.6
v 12.6 13.4 -10.6
v 0 2 -12.6
v 0 13.1 -12.6
v 0 13.3 -12.6
v 12.6 2 -12.6
v 12.6 13.1 -12.6
v 12.6 13.3 -12.6
v 0 2 0
v 12.6 2 0
v 0 2 -12.6
v 12.6 2 -12.6
v 0 13.3 0
v 12.6 13.3 0
v 0 13.3 -2
v 12.6 13.3 -2
v 0 13.3 -3.8
v 12.6 13.3 -3.8
v 0 13.3 -4
v 4.7 13.3 -4
v 4.8 13.3 -4
v 7.8 13.3 -4
v 7.9 13.3 -4
v 12.6 13.3 -4
v 0 13.3 -4.1
v 4.7 13.3 -4.1
v 7.9 13.3 -4.1
v 12.6 13.3 -4.1
v 4.8 13.3 -4.4
v 7.8 13.3 -4.4
v 4.8 13.3 -4.6
v 7.8 13.3 -4.6
v 4.8 13.3 -5
v 7.8 13.3 -5
v 4.8 13.3 -5.2
v 7.8 13.3 -5.2
v 4.8 13.3 -5.6
v 7.8 13.3 -5.6
v 4.8 13.3 -5.8
v 7.8 13.3 -5.8
v 0 13.3 -6.2
v 4.6 13.3 -6.2
v 4.8 13.3 -6.2
v 7.8 13.3 -6.2
v 8 13.3 -6.2
v 12.6 13.3 -6.2
v 0 13.3 -6.4
v 4.6 13.3 -6.4
v 4.8 13.3 -6.4
v 7.8 13.3 -6.4
v 8 13.3 -6.4
v 12.6 13.3 -6.4
v 4.8 13.3 -6.8
v 7.8 13.3 -6.8
v 4.8 13.3 -7
v 7.8 13.3 -7
v 4.8 13.3 -7.4
v 7.8 13.3 -7.4
v 4.8 13.3 -7.6
v 7.8 13.3 -7.6
v 4.8 13.3 -8
v 7.8 13.3 -8
v 4.8 13.3 -8.2
v 7.8 13.3 -8.2
v 0 13.3 -8.5
v 4.7 13.3 -8.5
v 7.9 13.3 -8.5
v 12.6 13.3 -8.5
v 0 13.3 -8.6
v 4.7 13.3 -8.6
v 4.8 13.3 -8.6
v 7.8 13.3 -8.6
v 7.9 13.3 -8.6
v 12.6 13.3 -8.6
v 0 13.3 -8.8
v 12.6 13.3 -8.8
v 0 13.3 -10.6
v 12.6 13.3 -10.6
v 0 13.3 -12.6
v 12.6 13.3 -12.6
v 0 13.4 -2
v 12.6 13.4 -2
v 0 13.4 -3.8
v 12.6 13.4 -3.8
v 0 13.4 -8.8
v 12.6 13.4 -8.8
v 0 13.4 -10.6
v 12.6 13.4 -10.6

# faces
f 3/2/1 2/2/1 1/2/1
f 4/2/1 2/2/1 3/2/1
f 5/3/1 4/3/1 3/3/1
f 6/3/1 4/3/1 5/3/1
f 7/3/1 4/3/1 6/3/1
f 8/3/1 4/3/1 7/3/1
f 9/3/1 4/3/1 8/3/1
f 10/3/1 4/3/1 9/3/1
f 11/3/1 4/3/1 10/3/1
f 12/3/1 4/3/1 11/3/1
f 13/3/1 5/3/1 3/3/1
f 14/3/1 5/3/1 13/3/1
f 15/4/1 6/4/1 5/4/1
f 15/3/1 5/3/1 14/3/1
f 16/1/1 7/1/1 6/1/1
f 16/4/1 6/4/1 15/4/1
f 17/4/1 8/4/1 7/4/1
f 17/1/1 7/1/1 16/1/1
f 18/5/1 9/5/1 8/5/1
f 18/4/1 8/4/1 17/4/1
f 19/4/1 10/4/1 9/4/1
f 19/5/1 9/5/1 18/5/1
f 20/1/1 11/1/1 10/1/1
f 20/4/1 10/4/1 19/4/1
f 21/4/1 12/4/1 11/4/1
f 21/1/1 11/1/1 20/1/1
f 22/3/1 4/3/1 12/3/1
f 22/4/1 12/4/1 21/4/1
f 23/3/1 4/3/1 22/3/1
f 24/3/1 4/3/1 23/3/1
f 25/6/1 15/6/1 14/6/1
f 26/6/1 15/6/1 25/6/1
f 27/6/1 23/6/1 22/6/1
f 28/6/1 23/6/1 27/6/1
f 29/2/2 30/2/2 31/2/2
f 31/2/2 30/2/2 32/2/2
f 31/3/2 32/3/2 33/3/2
f 33/3/2 32/3/2 34/3/2
f 34/3/2 32/3/2 35/3/2
f 35/3/2 32/3/2 36/3/2
f 36/3/2 32/3/2 37/3/2
f 37/3/2 32/3/2 38/3/2
f 38/3/2 32/3/2 39/3/2
f 39/3/2 32/3/2 40/3/2
f 31/3/2 33/3/2 41/3/2
f 41/3/2 33/3/2 42/3/2
f 33/4/2 34/4/2 43/4/2
f 42/3/2 33/3/2 43/3/2
f 34/1/2 35/1/2 44/1/2
f 43/4/2 34/4/2 44/4/2
f 35/4/2 36/4/2 45/4/2
f 44/1/2 35/1/2 45/1/2
f 36/5/2 37/5/2 46/5/2
f 45/4/2 36/4/2 46/4/2
f 37/4/2 38/4/2 47/4/2
f 46/5/2 37/5/2 47/5/2
f 38/1/2 39/1/2 48/1/2
f 47/4/2 38/4/2 48/4/2
f 39/4/2 40/4/2 49/4/2
f 48/1/2 39/1/2 49/1/2
f 40/3/2 32/3/2 50/3/2
f 49/4/2 40/4/2 50/4/2
f 50/3/2 32/3/2 51/3/2
f 51/3/2 32/3/2 52/3/2
f 42/6/2 43/6/2 53/6/2
f 53/6/2 43/6/2 54/6/2
f 50/6/2 51/6/2 55/6/2
f 55/6/2 51/6/2 56/6/2
f 60/2/3 58/2/3 57/2/3
f 61/3/3 59/3/3 58/3/3
f 61/2/3 58/2/3 60/2/3
f 62/3/3 59/3/3 61/3/3
f 65/6/3 64/6/3 63/6/3
f 66/6/3 64/6/3 65/6/3
f 69/6/3 68/6/3 67/6/3
f 70/6/3 68/6/3 69/6/3
f 71/6/4 72/6/4 73/6/4
f 73/6/4 72/6/4 74/6/4
f 75/6/4 76/6/4 77/6/4
f 77/6/4 76/6/4 78/6/4
f 79/2/4 80/2/4 82/2/4
f 80/3/4 81/3/4 83/3/4
f 82/2/4 80/2/4 83/2/4
f 83/3/4 81/3/4 84/3/4
f 87/2/5 86/2/5 85/2/5
f 88/2/5 86/2/5 87/2/5
f 89/3/6 90/3/6 91/3/6
f 91/3/6 90/3/6 92/3/6
f 93/4/6 94/4/6 95/4/6
f 95/4/6 94/4/6 96/4/6
f 96/4/6 94/4/6 97/4/6
f 97/4/6 94/4/6 98/4/6
f 98/4/6 94/4/6 99/4/6
f 99/4/6 94/4/6 100/4/6
f 95/1/6 96/1/6 101/1/6
f 96/4/6 97/4/6 102/4/6
f 101/1/6 96/1/6 102/1/6
f 98/4/6 99/4/6 103/4/6
f 99/1/6 100/1/6 103/1/6
f 103/1/6 100/1/6 104/1/6
f 97/5/6 98/5/6 105/5/6
f 102/4/6 97/4/6 105/4/6
f 101/4/6 102/4/6 105/4/6
f 103/4/6 104/4/6 106/4/6
f 105/5/6 98/5/6 106/5/6
f 98/4/6 103/4/6 106/4/6
f 101/4/6 105/4/6 107/4/6
f 105/4/6 106/4/6 107/4/6
f 106/4/6 104/4/6 108/4/6
f 107/4/6 106/4/6 108/4/6
f 101/4/6 107/4/6 109/4/6
f 107/5/6 108/5/6 109/5/6
f 108/4/6 104/4/6 110/4/6
f 109/5/6 108/5/6 110/5/6
f 101/4/6 109/4/6 111/4/6
f 109/4/6 110/4/6 111/4/6
f 110/4/6 104/4/6 112/4/6
f 111/4/6 110/4/6 112/4/6
f 101/4/6 111/4/6 113/4/6
f 111/5/6 112/5/6 113/5/6
f 112/4/6 104/4/6 114/4/6
f 113/5/6 112/5/6 114/5/6
f 101/4/6 113/4/6 115/4/6
f 113/4/6 114/4/6 115/4/6
f 114/4/6 104/4/6 116/4/6
f 115/4/6 114/4/6 116/4/6
f 101/4/6 115/4/6 117/4/6
f 117/4/6 115/4/6 118/4/6
f 115/5/6 116/5/6 119/5/6
f 118/4/6 115/4/6 119/4/6
f 116/4/6 104/4/6 120/4/6
f 119/5/6 116/5/6 120/5/6
f 120/4/6 104/4/6 121/4/6
f 121/4/6 104/4/6 122/4/6
f 117/5/6 118/5/6 123/5/6
f 118/4/6 119/4/6 124/4/6
f 123/5/6 118/5/6 124/5/6
f 119/4/6 120/4/6 124/4/6
f 120/4/6 121/4/6 124/4/6
f 124/4/6 121/4/6 125/4/6
f 125/4/6 121/4/6 126/4/6
f 121/5/6 122/5/6 127/5/6
f 126/4/6 121/4/6 127/4/6
f 127/5/6 122/5/6 128/5/6
f 125/5/6 126/5/6 129/5/6
f 123/4/6 124/4/6 129/4/6
f 124/4/6 125/4/6 129/4/6
f 127/4/6 128/4/6 130/4/6
f 129/5/6 126/5/6 130/5/6
f 126/4/6 127/4/6 130/4/6
f 123/4/6 129/4/6 131/4/6
f 129/4/6 130/4/6 131/4/6
f 130/4/6 128/4/6 132/4/6
f 131/4/6 130/4/6 132/4/6
f 123/4/6 131/4/6 133/4/6
f 131/5/6 132/5/6 133/5/6
f 132/4/6 128/4/6 134/4/6
f 133/5/6 132/5/6 134/5/6
f 123/4/6 133/4/6 135/4/6
f 133/4/6 134/4/6 135/4/6
f 134/4/6 128/4/6 136/4/6
f 135/4/6 134/4/6 136/4/6
f 123/4/6 135/4/6 137/4/6
f 135/5/6 136/5/6 137/5/6
f 136/4/6 128/4/6 138/4/6
f 137/5/6 136/5/6 138/5/6
f 123/4/6 137/4/6 139/4/6
f 137/4/6 138/4/6 139/4/6
f 138/4/6 128/4/6 140/4/6
f 139/4/6 138/4/6 140/4/6
f 123/4/6 139/4/6 141/4/6
f 141/4/6 139/4/6 142/4/6
f 140/4/6 128/4/6 143/4/6
f 143/4/6 128/4/6 144/4/6
f 141/1/6 142/1/6 145/1/6
f 142/4/6 139/4/6 146/4/6
f 145/1/6 142/1/6 146/1/6
f 139/5/6 140/5/6 147/5/6
f 146/4/6 139/4/6 147/4/6
f 140/4/6 143/4/6 148/4/6
f 147/5/6 140/5/6 148/5/6
f 143/1/6 144/1/6 149/1/6
f 148/4/6 143/4/6 149/4/6
f 149/1/6 144/1/6 150/1/6
f 145/4/6 146/4/6 151/4/6
f 146/4/6 147/4/6 151/4/6
f 149/4/6 150/4/6 151/4/6
f 148/4/6 149/4/6 151/4/6
f 147/4/6 148/4/6 151/4/6
f 151/4/6 150/4/6 152/4/6
f 153/3/6 154/3/6 155/3/6
f 155/3/6 154/3/6 156/3/6
f 157/6/6 158/6/6 159/6/6
f 159/6/6 158/6/6 160/6/6
f 161/6/6 162/6/6 163/6/6
f 163/6/6 162/6/6 164/6/6
