# MagicaVoxel @ Ephtracy

# group
o 

# material
mtllib Road cross.mtl
usemtl palette

# normals
vn -1 0 0
vn 1 0 0
vn 0 0 1
vn 0 0 -1
vn 0 -1 0
vn 0 1 0

# texcoords
vt 0.478516 0.5
vt 0.486328 0.5
vt 0.587891 0.5
vt 0.935547 0.5
vt 0.966797 0.5
vt 0.974609 0.5

# verts
v 0 2 0
v 0 2 -12.6
v 0 2.6 0
v 0 2.6 -12.6
v 0 2.7 -3.8
v 0 2.7 -4
v 0 2.7 -4.1
v 0 2.7 -6.2
v 0 2.7 -6.4
v 0 2.7 -8.5
v 0 2.7 -8.6
v 0 2.7 -8.8
v 0 2.8 0
v 0 2.8 -2
v 0 2.8 -3.8
v 0 2.8 -4
v 0 2.8 -4.1
v 0 2.8 -6.2
v 0 2.8 -6.4
v 0 2.8 -8.5
v 0 2.8 -8.6
v 0 2.8 -8.8
v 0 2.8 -10.6
v 0 2.8 -12.6
v 0 2.9 -2
v 0 2.9 -3.8
v 0 2.9 -8.8
v 0 2.9 -10.6
v 2 2.8 0
v 2 2.8 -2
v 2 2.8 -10.6
v 2 2.8 -12.6
v 2 2.9 0
v 2 2.9 -2
v 2 2.9 -10.6
v 2 2.9 -12.6
v 8.8 2.8 0
v 8.8 2.8 -3.8
v 8.8 2.8 -8.8
v 8.8 2.8 -12.6
v 8.8 2.9 0
v 8.8 2.9 -3.8
v 8.8 2.9 -8.8
v 8.8 2.9 -12.6
v 3.8 2.8 0
v 3.8 2.8 -3.8
v 3.8 2.8 -8.8
v 3.8 2.8 -12.6
v 3.8 2.9 0
v 3.8 2.9 -3.8
v 3.8 2.9 -8.8
v 3.8 2.9 -12.6
v 10.6 2.8 0
v 10.6 2.8 -2
v 10.6 2.8 -10.6
v 10.6 2.8 -12.6
v 10.6 2.9 0
v 10.6 2.9 -2
v 10.6 2.9 -10.6
v 10.6 2.9 -12.6
v 12.6 2 0
v 12.6 2 -12.6
v 12.6 2.6 0
v 12.6 2.6 -12.6
v 12.6 2.7 -3.8
v 12.6 2.7 -4
v 12.6 2.7 -4.1
v 12.6 2.7 -6.2
v 12.6 2.7 -6.4
v 12.6 2.7 -8.5
v 12.6 2.7 -8.6
v 12.6 2.7 -8.8
v 12.6 2.8 0
v 12.6 2.8 -2
v 12.6 2.8 -3.8
v 12.6 2.8 -4
v 12.6 2.8 -4.1
v 12.6 2.8 -6.2
v 12.6 2.8 -6.4
v 12.6 2.8 -8.5
v 12.6 2.8 -8.6
v 12.6 2.8 -8.8
v 12.6 2.8 -10.6
v 12.6 2.8 -12.6
v 12.6 2.9 -2
v 12.6 2.9 -3.8
v 12.6 2.9 -8.8
v 12.6 2.9 -10.6
v 0 2 0
v 0 2.6 0
v 0 2.8 0
v 2 2.8 0
v 2 2.9 0
v 3.8 2.7 0
v 3.8 2.8 0
v 3.8 2.9 0
v 4 2.7 0
v 4 2.8 0
v 4.1 2.7 0
v 4.1 2.8 0
v 6.2 2.7 0
v 6.2 2.8 0
v 6.4 2.7 0
v 6.4 2.8 0
v 8.5 2.7 0
v 8.5 2.8 0
v 8.6 2.7 0
v 8.6 2.8 0
v 8.8 2.7 0
v 8.8 2.8 0
v 8.8 2.9 0
v 10.6 2.8 0
v 10.6 2.9 0
v 12.6 2 0
v 12.6 2.6 0
v 12.6 2.8 0
v 0 2.8 -2
v 0 2.9 -2
v 2 2.8 -2
v 2 2.9 -2
v 10.6 2.8 -2
v 10.6 2.9 -2
v 12.6 2.8 -2
v 12.6 2.9 -2
v 0 2.8 -8.8
v 0 2.9 -8.8
v 3.8 2.8 -8.8
v 3.8 2.9 -8.8
v 8.8 2.8 -8.8
v 8.8 2.9 -8.8
v 12.6 2.8 -8.8
v 12.6 2.9 -8.8
v 0 2.8 -3.8
v 0 2.9 -3.8
v 3.8 2.8 -3.8
v 3.8 2.9 -3.8
v 8.8 2.8 -3.8
v 8.8 2.9 -3.8
v 12.6 2.8 -3.8
v 12.6 2.9 -3.8
v 0 2.8 -10.6
v 0 2.9 -10.6
v 2 2.8 -10.6
v 2 2.9 -10.6
v 10.6 2.8 -10.6
v 10.6 2.9 -10.6
v 12.6 2.8 -10.6
v 12.6 2.9 -10.6
v 0 2 -12.6
v 0 2.6 -12.6
v 0 2.8 -12.6
v 2 2.8 -12.6
v 2 2.9 -12.6
v 3.8 2.7 -12.6
v 3.8 2.8 -12.6
v 3.8 2.9 -12.6
v 4 2.7 -12.6
v 4 2.8 -12.6
v 4.1 2.7 -12.6
v 4.1 2.8 -12.6
v 6.2 2.7 -12.6
v 6.2 2.8 -12.6
v 6.4 2.7 -12.6
v 6.4 2.8 -12.6
v 8.5 2.7 -12.6
v 8.5 2.8 -12.6
v 8.6 2.7 -12.6
v 8.6 2.8 -12.6
v 8.8 2.7 -12.6
v 8.8 2.8 -12.6
v 8.8 2.9 -12.6
v 10.6 2.8 -12.6
v 10.6 2.9 -12.6
v 12.6 2 -12.6
v 12.6 2.6 -12.6
v 12.6 2.8 -12.6
v 0 2 0
v 12.6 2 0
v 0 2 -12.6
v 12.6 2 -12.6
v 0 2.8 0
v 2 2.8 0
v 3.8 2.8 0
v 4 2.8 0
v 4.1 2.8 0
v 6.2 2.8 0
v 6.4 2.8 0
v 8.5 2.8 0
v 8.6 2.8 0
v 8.8 2.8 0
v 10.6 2.8 0
v 12.6 2.8 0
v 0 2.8 -2
v 2 2.8 -2
v 10.6 2.8 -2
v 12.6 2.8 -2
v 0 2.8 -3.8
v 3.8 2.8 -3.8
v 8.8 2.8 -3.8
v 12.6 2.8 -3.8
v 0 2.8 -4
v 4 2.8 -4
v 8.6 2.8 -4
v 12.6 2.8 -4
v 0 2.8 -4.1
v 4.1 2.8 -4.1
v 6.2 2.8 -4.1
v 6.4 2.8 -4.1
v 8.5 2.8 -4.1
v 12.6 2.8 -4.1
v 0 2.8 -6.2
v 4.1 2.8 -6.2
v 8.5 2.8 -6.2
v 12.6 2.8 -6.2
v 0 2.8 -6.4
v 4.1 2.8 -6.4
v 8.5 2.8 -6.4
v 12.6 2.8 -6.4
v 0 2.8 -8.5
v 4.1 2.8 -8.5
v 6.2 2.8 -8.5
v 6.4 2.8 -8.5
v 8.5 2.8 -8.5
v 12.6 2.8 -8.5
v 0 2.8 -8.6
v 4 2.8 -8.6
v 8.6 2.8 -8.6
v 12.6 2.8 -8.6
v 0 2.8 -8.8
v 3.8 2.8 -8.8
v 8.8 2.8 -8.8
v 12.6 2.8 -8.8
v 0 2.8 -10.6
v 2 2.8 -10.6
v 10.6 2.8 -10.6
v 12.6 2.8 -10.6
v 0 2.8 -12.6
v 2 2.8 -12.6
v 3.8 2.8 -12.6
v 4 2.8 -12.6
v 4.1 2.8 -12.6
v 6.2 2.8 -12.6
v 6.4 2.8 -12.6
v 8.5 2.8 -12.6
v 8.6 2.8 -12.6
v 8.8 2.8 -12.6
v 10.6 2.8 -12.6
v 12.6 2.8 -12.6
v 2 2.9 0
v 3.8 2.9 0
v 8.8 2.9 0
v 10.6 2.9 0
v 0 2.9 -2
v 2 2.9 -2
v 10.6 2.9 -2
v 12.6 2.9 -2
v 0 2.9 -3.8
v 3.8 2.9 -3.8
v 8.8 2.9 -3.8
v 12.6 2.9 -3.8
v 0 2.9 -8.8
v 3.8 2.9 -8.8
v 8.8 2.9 -8.8
v 12.6 2.9 -8.8
v 0 2.9 -10.6
v 2 2.9 -10.6
v 10.6 2.9 -10.6
v 12.6 2.9 -10.6
v 2 2.9 -12.6
v 3.8 2.9 -12.6
v 8.8 2.9 -12.6
v 10.6 2.9 -12.6

# faces
f 3/2/1 2/2/1 1/2/1
f 4/2/1 2/2/1 3/2/1
f 5/3/1 4/3/1 3/3/1
f 6/3/1 4/3/1 5/3/1
f 7/3/1 4/3/1 6/3/1
f 8/3/1 4/3/1 7/3/1
f 9/3/1 4/3/1 8/3/1
f 10/3/1 4/3/1 9/3/1
f 11/3/1 4/3/1 10/3/1
f 12/3/1 4/3/1 11/3/1
f 13/3/1 5/3/1 3/3/1
f 14/3/1 5/3/1 13/3/1
f 15/4/1 6/4/1 5/4/1
f 15/3/1 5/3/1 14/3/1
f 16/1/1 7/1/1 6/1/1
f 16/4/1 6/4/1 15/4/1
f 17/4/1 8/4/1 7/4/1
f 17/1/1 7/1/1 16/1/1
f 18/5/1 9/5/1 8/5/1
f 18/4/1 8/4/1 17/4/1
f 19/4/1 10/4/1 9/4/1
f 19/5/1 9/5/1 18/5/1
f 20/1/1 11/1/1 10/1/1
f 20/4/1 10/4/1 19/4/1
f 21/4/1 12/4/1 11/4/1
f 21/1/1 11/1/1 20/1/1
f 22/3/1 4/3/1 12/3/1
f 22/4/1 12/4/1 21/4/1
f 23/3/1 4/3/1 22/3/1
f 24/3/1 4/3/1 23/3/1
f 25/6/1 15/6/1 14/6/1
f 26/6/1 15/6/1 25/6/1
f 27/6/1 23/6/1 22/6/1
f 28/6/1 23/6/1 27/6/1
f 33/6/1 30/6/1 29/6/1
f 34/6/1 30/6/1 33/6/1
f 35/6/1 32/6/1 31/6/1
f 36/6/1 32/6/1 35/6/1
f 41/6/1 38/6/1 37/6/1
f 42/6/1 38/6/1 41/6/1
f 43/6/1 40/6/1 39/6/1
f 44/6/1 40/6/1 43/6/1
f 45/6/2 46/6/2 49/6/2
f 49/6/2 46/6/2 50/6/2
f 47/6/2 48/6/2 51/6/2
f 51/6/2 48/6/2 52/6/2
f 53/6/2 54/6/2 57/6/2
f 57/6/2 54/6/2 58/6/2
f 55/6/2 56/6/2 59/6/2
f 59/6/2 56/6/2 60/6/2
f 61/2/2 62/2/2 63/2/2
f 63/2/2 62/2/2 64/2/2
f 63/3/2 64/3/2 65/3/2
f 65/3/2 64/3/2 66/3/2
f 66/3/2 64/3/2 67/3/2
f 67/3/2 64/3/2 68/3/2
f 68/3/2 64/3/2 69/3/2
f 69/3/2 64/3/2 70/3/2
f 70/3/2 64/3/2 71/3/2
f 71/3/2 64/3/2 72/3/2
f 63/3/2 65/3/2 73/3/2
f 73/3/2 65/3/2 74/3/2
f 65/4/2 66/4/2 75/4/2
f 74/3/2 65/3/2 75/3/2
f 66/1/2 67/1/2 76/1/2
f 75/4/2 66/4/2 76/4/2
f 67/4/2 68/4/2 77/4/2
f 76/1/2 67/1/2 77/1/2
f 68/5/2 69/5/2 78/5/2
f 77/4/2 68/4/2 78/4/2
f 69/4/2 70/4/2 79/4/2
f 78/5/2 69/5/2 79/5/2
f 70/1/2 71/1/2 80/1/2
f 79/4/2 70/4/2 80/4/2
f 71/4/2 72/4/2 81/4/2
f 80/1/2 71/1/2 81/1/2
f 72/3/2 64/3/2 82/3/2
f 81/4/2 72/4/2 82/4/2
f 82/3/2 64/3/2 83/3/2
f 83/3/2 64/3/2 84/3/2
f 74/6/2 75/6/2 85/6/2
f 85/6/2 75/6/2 86/6/2
f 82/6/2 83/6/2 87/6/2
f 87/6/2 83/6/2 88/6/2
f 92/3/3 91/3/3 90/3/3
f 94/3/3 92/3/3 90/3/3
f 95/6/3 93/6/3 92/6/3
f 95/3/3 92/3/3 94/3/3
f 96/6/3 93/6/3 95/6/3
f 97/3/3 94/3/3 90/3/3
f 97/4/3 95/4/3 94/4/3
f 98/4/3 95/4/3 97/4/3
f 99/3/3 97/3/3 90/3/3
f 99/1/3 98/1/3 97/1/3
f 100/1/3 98/1/3 99/1/3
f 101/3/3 99/3/3 90/3/3
f 101/4/3 100/4/3 99/4/3
f 102/4/3 100/4/3 101/4/3
f 103/3/3 101/3/3 90/3/3
f 103/5/3 102/5/3 101/5/3
f 104/5/3 102/5/3 103/5/3
f 105/3/3 103/3/3 90/3/3
f 105/4/3 104/4/3 103/4/3
f 106/4/3 104/4/3 105/4/3
f 107/3/3 105/3/3 90/3/3
f 107/1/3 106/1/3 105/1/3
f 108/1/3 106/1/3 107/1/3
f 109/3/3 107/3/3 90/3/3
f 109/4/3 108/4/3 107/4/3
f 110/4/3 108/4/3 109/4/3
f 112/3/3 110/3/3 109/3/3
f 112/6/3 111/6/3 110/6/3
f 113/6/3 111/6/3 112/6/3
f 114/2/3 90/2/3 89/2/3
f 115/3/3 109/3/3 90/3/3
f 115/2/3 90/2/3 114/2/3
f 115/3/3 112/3/3 109/3/3
f 116/3/3 112/3/3 115/3/3
f 119/6/3 118/6/3 117/6/3
f 120/6/3 118/6/3 119/6/3
f 123/6/3 122/6/3 121/6/3
f 124/6/3 122/6/3 123/6/3
f 127/6/3 126/6/3 125/6/3
f 128/6/3 126/6/3 127/6/3
f 131/6/3 130/6/3 129/6/3
f 132/6/3 130/6/3 131/6/3
f 133/6/4 134/6/4 135/6/4
f 135/6/4 134/6/4 136/6/4
f 137/6/4 138/6/4 139/6/4
f 139/6/4 138/6/4 140/6/4
f 141/6/4 142/6/4 143/6/4
f 143/6/4 142/6/4 144/6/4
f 145/6/4 146/6/4 147/6/4
f 147/6/4 146/6/4 148/6/4
f 150/3/4 151/3/4 152/3/4
f 150/3/4 152/3/4 154/3/4
f 152/6/4 153/6/4 155/6/4
f 154/3/4 152/3/4 155/3/4
f 155/6/4 153/6/4 156/6/4
f 150/3/4 154/3/4 157/3/4
f 154/4/4 155/4/4 157/4/4
f 157/4/4 155/4/4 158/4/4
f 150/3/4 157/3/4 159/3/4
f 157/1/4 158/1/4 159/1/4
f 159/1/4 158/1/4 160/1/4
f 150/3/4 159/3/4 161/3/4
f 159/4/4 160/4/4 161/4/4
f 161/4/4 160/4/4 162/4/4
f 150/3/4 161/3/4 163/3/4
f 161/5/4 162/5/4 163/5/4
f 163/5/4 162/5/4 164/5/4
f 150/3/4 163/3/4 165/3/4
f 163/4/4 164/4/4 165/4/4
f 165/4/4 164/4/4 166/4/4
f 150/3/4 165/3/4 167/3/4
f 165/1/4 166/1/4 167/1/4
f 167/1/4 166/1/4 168/1/4
f 150/3/4 167/3/4 169/3/4
f 167/4/4 168/4/4 169/4/4
f 169/4/4 168/4/4 170/4/4
f 169/3/4 170/3/4 172/3/4
f 170/6/4 171/6/4 172/6/4
f 172/6/4 171/6/4 173/6/4
f 149/2/4 150/2/4 174/2/4
f 150/3/4 169/3/4 175/3/4
f 174/2/4 150/2/4 175/2/4
f 169/3/4 172/3/4 175/3/4
f 175/3/4 172/3/4 176/3/4
f 179/2/5 178/2/5 177/2/5
f 180/2/5 178/2/5 179/2/5
f 181/3/6 182/3/6 193/3/6
f 193/3/6 182/3/6 194/3/6
f 191/3/6 192/3/6 195/3/6
f 195/3/6 192/3/6 196/3/6
f 183/4/6 184/4/6 198/4/6
f 189/4/6 190/4/6 199/4/6
f 197/4/6 198/4/6 201/4/6
f 184/1/6 185/1/6 202/1/6
f 201/4/6 198/4/6 202/4/6
f 198/4/6 184/4/6 202/4/6
f 188/1/6 189/1/6 203/1/6
f 199/4/6 200/4/6 203/4/6
f 189/4/6 199/4/6 203/4/6
f 203/4/6 200/4/6 204/4/6
f 201/1/6 202/1/6 205/1/6
f 185/4/6 186/4/6 206/4/6
f 205/1/6 202/1/6 206/1/6
f 202/1/6 185/1/6 206/1/6
f 186/5/6 187/5/6 207/5/6
f 206/4/6 186/4/6 207/4/6
f 187/4/6 188/4/6 208/4/6
f 207/5/6 187/5/6 208/5/6
f 203/1/6 204/1/6 209/1/6
f 208/4/6 188/4/6 209/4/6
f 188/1/6 203/1/6 209/1/6
f 209/1/6 204/1/6 210/1/6
f 205/4/6 206/4/6 211/4/6
f 206/4/6 207/4/6 211/4/6
f 209/4/6 210/4/6 211/4/6
f 208/4/6 209/4/6 211/4/6
f 207/4/6 208/4/6 211/4/6
f 211/4/6 210/4/6 212/4/6
f 212/4/6 210/4/6 213/4/6
f 213/4/6 210/4/6 214/4/6
f 211/5/6 212/5/6 215/5/6
f 212/4/6 213/4/6 216/4/6
f 215/5/6 212/5/6 216/5/6
f 213/5/6 214/5/6 217/5/6
f 216/4/6 213/4/6 217/4/6
f 217/5/6 214/5/6 218/5/6
f 215/4/6 216/4/6 219/4/6
f 216/4/6 217/4/6 219/4/6
f 217/4/6 218/4/6 219/4/6
f 219/4/6 218/4/6 220/4/6
f 220/4/6 218/4/6 221/4/6
f 221/4/6 218/4/6 222/4/6
f 222/4/6 218/4/6 223/4/6
f 223/4/6 218/4/6 224/4/6
f 219/1/6 220/1/6 225/1/6
f 225/1/6 220/1/6 226/1/6
f 223/1/6 224/1/6 227/1/6
f 227/1/6 224/1/6 228/1/6
f 225/4/6 226/4/6 229/4/6
f 229/4/6 226/4/6 230/4/6
f 227/4/6 228/4/6 231/4/6
f 231/4/6 228/4/6 232/4/6
f 233/3/6 234/3/6 237/3/6
f 237/3/6 234/3/6 238/3/6
f 230/4/6 226/4/6 239/4/6
f 226/1/6 220/1/6 240/1/6
f 239/4/6 226/4/6 240/4/6
f 220/4/6 221/4/6 241/4/6
f 240/1/6 220/1/6 241/1/6
f 221/5/6 222/5/6 242/5/6
f 241/4/6 221/4/6 242/4/6
f 222/4/6 223/4/6 243/4/6
f 242/5/6 222/5/6 243/5/6
f 223/1/6 227/1/6 244/1/6
f 243/4/6 223/4/6 244/4/6
f 227/4/6 231/4/6 245/4/6
f 244/1/6 227/1/6 245/1/6
f 245/4/6 231/4/6 246/4/6
f 235/3/6 236/3/6 247/3/6
f 247/3/6 236/3/6 248/3/6
f 249/6/6 250/6/6 254/6/6
f 251/6/6 252/6/6 255/6/6
f 253/6/6 254/6/6 257/6/6
f 254/6/6 250/6/6 258/6/6
f 257/6/6 254/6/6 258/6/6
f 255/6/6 256/6/6 259/6/6
f 251/6/6 255/6/6 259/6/6
f 259/6/6 256/6/6 260/6/6
f 261/6/6 262/6/6 265/6/6
f 265/6/6 262/6/6 266/6/6
f 263/6/6 264/6/6 267/6/6
f 267/6/6 264/6/6 268/6/6
f 266/6/6 262/6/6 269/6/6
f 269/6/6 262/6/6 270/6/6
f 263/6/6 267/6/6 271/6/6
f 271/6/6 267/6/6 272/6/6
