# MagicaVoxel @ Ephtracy

# group
o 

# material
mtllib SnowCliff.mtl
usemtl palette

# normals
vn -1 0 0
vn 1 0 0
vn 0 0 1
vn 0 0 -1
vn 0 -1 0
vn 0 1 0

# texcoords
vt 0.412109 0.5
vt 0.912109 0.5

# verts
v 0 2 -5.4
v 0 2 -12.6
v 0 9.2 -5.4
v 0 9.2 -6.2
v 0 9.3 -5.4
v 0 9.3 -6.2
v 0 10 -6.2
v 0 10 -7.6
v 0 10.1 -6.2
v 0 10.1 -7.6
v 0 10.8 -7.6
v 0 10.8 -9
v 0 10.9 -7.6
v 0 10.9 -9
v 0 11.6 -9
v 0 11.6 -9.9
v 0 11.7 -9
v 0 11.7 -9.9
v 0 12.4 -9.9
v 0 12.4 -11.3
v 0 12.5 -9.9
v 0 12.5 -11.3
v 0 13.2 -11.3
v 0 13.2 -12.6
v 0 13.3 -11.3
v 0 13.3 -12.6
v 1.1 10.1 -7.3
v 1.1 10.1 -7.6
v 1.1 10.8 -7.3
v 1.1 10.8 -7.6
v 1.1 10.9 -7.3
v 1.1 10.9 -7.6
v 1.2 12.5 -11
v 1.2 12.5 -11.3
v 1.2 13.2 -11
v 1.2 13.2 -11.3
v 1.2 13.3 -11
v 1.2 13.3 -11.3
v 1.4 10.9 -8.3
v 1.4 10.9 -9
v 1.4 11.6 -8.3
v 1.4 11.6 -9
v 1.4 11.7 -8.3
v 1.4 11.7 -9
v 2.6 10.1 -7
v 2.6 10.1 -7.3
v 2.6 10.8 -7
v 2.6 10.8 -7.3
v 2.6 10.9 -7
v 2.6 10.9 -7.3
v 3.1 11.7 -9.7
v 3.1 11.7 -9.9
v 3.1 12.4 -9.7
v 3.1 12.4 -9.9
v 3.1 12.5 -9.7
v 3.1 12.5 -9.9
v 3.2 12.5 -10.5
v 3.2 12.5 -11
v 3.2 13.2 -10.5
v 3.2 13.2 -11
v 3.2 13.3 -10.5
v 3.2 13.3 -11
v 4 9.3 -5.8
v 4 9.3 -6.2
v 4 10 -5.8
v 4 10 -6.2
v 4 10.1 -5.8
v 4 10.1 -6.2
v 5.9 11.7 -9.3
v 5.9 11.7 -9.7
v 5.9 12.4 -9.3
v 5.9 12.4 -9.7
v 5.9 12.5 -9.3
v 5.9 12.5 -9.7
v 7.1 10.9 -8.2
v 7.1 10.9 -8.6
v 7.1 11.6 -8.2
v 7.1 11.6 -8.6
v 7.1 11.7 -8.2
v 7.1 11.7 -8.6
v 10.4 10.1 -7.5
v 10.4 10.1 -7.7
v 10.4 10.8 -7.5
v 10.4 10.8 -7.7
v 10.4 10.9 -7.5
v 10.4 10.9 -7.7
v 10.8 9.3 -6.3
v 10.8 9.3 -6.6
v 10.8 10 -6.3
v 10.8 10 -6.6
v 10.8 10.1 -6.3
v 10.8 10.1 -6.6
v 3.6 10.9 -8.3
v 3.6 10.9 -8.6
v 3.6 11.6 -8.3
v 3.6 11.6 -8.6
v 3.6 11.7 -8.3
v 3.6 11.7 -8.6
v 5.4 10.1 -7
v 5.4 10.1 -7.5
v 5.4 10.8 -7
v 5.4 10.8 -7.5
v 5.4 10.9 -7
v 5.4 10.9 -7.5
v 6.8 9.3 -5.8
v 6.8 9.3 -6.1
v 6.8 10 -5.8
v 6.8 10 -6.1
v 6.8 10.1 -5.8
v 6.8 10.1 -6.1
v 7.1 12.5 -10.5
v 7.1 12.5 -11
v 7.1 13.2 -10.5
v 7.1 13.2 -11
v 7.1 13.3 -10.5
v 7.1 13.3 -11
v 7.9 10.1 -7.5
v 7.9 10.1 -7.7
v 7.9 10.8 -7.5
v 7.9 10.8 -7.7
v 7.9 10.9 -7.5
v 7.9 10.9 -7.7
v 9.4 11.7 -9.3
v 9.4 11.7 -9.9
v 9.4 12.4 -9.3
v 9.4 12.4 -9.9
v 9.4 12.5 -9.3
v 9.4 12.5 -9.9
v 9.5 9.3 -6.1
v 9.5 9.3 -6.6
v 9.5 10 -6.1
v 9.5 10 -6.6
v 9.5 10.1 -6.1
v 9.5 10.1 -6.6
v 10.5 10.9 -8.2
v 10.5 10.9 -8.5
v 10.5 11.6 -8.2
v 10.5 11.6 -8.5
v 10.5 11.7 -8.2
v 10.5 11.7 -8.5
v 10.7 12.5 -11
v 10.7 12.5 -11.3
v 10.7 13.2 -11
v 10.7 13.2 -11.3
v 10.7 13.3 -11
v 10.7 13.3 -11.3
v 12.6 2 -5.4
v 12.6 2 -12.6
v 12.6 9.2 -5.4
v 12.6 9.2 -6.3
v 12.6 9.3 -5.4
v 12.6 9.3 -6.3
v 12.6 10 -6.3
v 12.6 10 -7.5
v 12.6 10.1 -6.3
v 12.6 10.1 -7.5
v 12.6 10.8 -7.5
v 12.6 10.8 -8.5
v 12.6 10.9 -7.5
v 12.6 10.9 -8.5
v 12.6 11.6 -8.5
v 12.6 11.6 -9.9
v 12.6 11.7 -8.5
v 12.6 11.7 -9.9
v 12.6 12.4 -9.9
v 12.6 12.4 -11.3
v 12.6 12.5 -9.9
v 12.6 12.5 -11.3
v 12.6 13.2 -11.3
v 12.6 13.2 -12.6
v 12.6 13.3 -11.3
v 12.6 13.3 -12.6
v 0 2 -5.4
v 0 9.2 -5.4
v 0 9.3 -5.4
v 12.6 2 -5.4
v 12.6 9.2 -5.4
v 12.6 9.3 -5.4
v 4 9.3 -5.8
v 4 10 -5.8
v 4 10.1 -5.8
v 6.8 9.3 -5.8
v 6.8 10 -5.8
v 6.8 10.1 -5.8
v 6.8 9.3 -6.1
v 6.8 10 -6.1
v 6.8 10.1 -6.1
v 9.5 9.3 -6.1
v 9.5 10 -6.1
v 9.5 10.1 -6.1
v 0 9.3 -6.2
v 0 10 -6.2
v 0 10.1 -6.2
v 4 9.3 -6.2
v 4 10 -6.2
v 4 10.1 -6.2
v 10.8 9.3 -6.3
v 10.8 10 -6.3
v 10.8 10.1 -6.3
v 12.6 9.3 -6.3
v 12.6 10 -6.3
v 12.6 10.1 -6.3
v 9.5 9.3 -6.6
v 9.5 10 -6.6
v 9.5 10.1 -6.6
v 10.8 9.3 -6.6
v 10.8 10 -6.6
v 10.8 10.1 -6.6
v 2.6 10.1 -7
v 2.6 10.8 -7
v 2.6 10.9 -7
v 5.4 10.1 -7
v 5.4 10.8 -7
v 5.4 10.9 -7
v 1.1 10.1 -7.3
v 1.1 10.8 -7.3
v 1.1 10.9 -7.3
v 2.6 10.1 -7.3
v 2.6 10.8 -7.3
v 2.6 10.9 -7.3
v 5.4 10.1 -7.5
v 5.4 10.8 -7.5
v 5.4 10.9 -7.5
v 7.9 10.1 -7.5
v 7.9 10.8 -7.5
v 7.9 10.9 -7.5
v 10.4 10.1 -7.5
v 10.4 10.8 -7.5
v 10.4 10.9 -7.5
v 12.6 10.1 -7.5
v 12.6 10.8 -7.5
v 12.6 10.9 -7.5
v 0 10.1 -7.6
v 0 10.8 -7.6
v 0 10.9 -7.6
v 1.1 10.1 -7.6
v 1.1 10.8 -7.6
v 1.1 10.9 -7.6
v 7.9 10.1 -7.7
v 7.9 10.8 -7.7
v 7.9 10.9 -7.7
v 10.4 10.1 -7.7
v 10.4 10.8 -7.7
v 10.4 10.9 -7.7
v 7.1 10.9 -8.2
v 7.1 11.6 -8.2
v 7.1 11.7 -8.2
v 10.5 10.9 -8.2
v 10.5 11.6 -8.2
v 10.5 11.7 -8.2
v 1.4 10.9 -8.3
v 1.4 11.6 -8.3
v 1.4 11.7 -8.3
v 3.6 10.9 -8.3
v 3.6 11.6 -8.3
v 3.6 11.7 -8.3
v 10.5 10.9 -8.5
v 10.5 11.6 -8.5
v 10.5 11.7 -8.5
v 12.6 10.9 -8.5
v 12.6 11.6 -8.5
v 12.6 11.7 -8.5
v 3.6 10.9 -8.6
v 3.6 11.6 -8.6
v 3.6 11.7 -8.6
v 7.1 10.9 -8.6
v 7.1 11.6 -8.6
v 7.1 11.7 -8.6
v 0 10.9 -9
v 0 11.6 -9
v 0 11.7 -9
v 1.4 10.9 -9
v 1.4 11.6 -9
v 1.4 11.7 -9
v 5.9 11.7 -9.3
v 5.9 12.4 -9.3
v 5.9 12.5 -9.3
v 9.4 11.7 -9.3
v 9.4 12.4 -9.3
v 9.4 12.5 -9.3
v 3.1 11.7 -9.7
v 3.1 12.4 -9.7
v 3.1 12.5 -9.7
v 5.9 11.7 -9.7
v 5.9 12.4 -9.7
v 5.9 12.5 -9.7
v 0 11.7 -9.9
v 0 12.4 -9.9
v 0 12.5 -9.9
v 3.1 11.7 -9.9
v 3.1 12.4 -9.9
v 3.1 12.5 -9.9
v 9.4 11.7 -9.9
v 9.4 12.4 -9.9
v 9.4 12.5 -9.9
v 12.6 11.7 -9.9
v 12.6 12.4 -9.9
v 12.6 12.5 -9.9
v 3.2 12.5 -10.5
v 3.2 13.2 -10.5
v 3.2 13.3 -10.5
v 7.1 12.5 -10.5
v 7.1 13.2 -10.5
v 7.1 13.3 -10.5
v 1.2 12.5 -11
v 1.2 13.2 -11
v 1.2 13.3 -11
v 3.2 12.5 -11
v 3.2 13.2 -11
v 3.2 13.3 -11
v 7.1 12.5 -11
v 7.1 13.2 -11
v 7.1 13.3 -11
v 10.7 12.5 -11
v 10.7 13.2 -11
v 10.7 13.3 -11
v 0 12.5 -11.3
v 0 13.2 -11.3
v 0 13.3 -11.3
v 1.2 12.5 -11.3
v 1.2 13.2 -11.3
v 1.2 13.3 -11.3
v 10.7 12.5 -11.3
v 10.7 13.2 -11.3
v 10.7 13.3 -11.3
v 12.6 12.5 -11.3
v 12.6 13.2 -11.3
v 12.6 13.3 -11.3
v 0 2 -12.6
v 0 13.2 -12.6
v 0 13.3 -12.6
v 12.6 2 -12.6
v 12.6 13.2 -12.6
v 12.6 13.3 -12.6
v 0 2 -5.4
v 12.6 2 -5.4
v 0 2 -12.6
v 12.6 2 -12.6
v 0 9.3 -5.4
v 12.6 9.3 -5.4
v 4 9.3 -5.8
v 6.8 9.3 -5.8
v 6.8 9.3 -6.1
v 9.5 9.3 -6.1
v 0 9.3 -6.2
v 4 9.3 -6.2
v 10.8 9.3 -6.3
v 12.6 9.3 -6.3
v 9.5 9.3 -6.6
v 10.8 9.3 -6.6
v 4 10.1 -5.8
v 6.8 10.1 -5.8
v 6.8 10.1 -6.1
v 9.5 10.1 -6.1
v 0 10.1 -6.2
v 4 10.1 -6.2
v 10.8 10.1 -6.3
v 12.6 10.1 -6.3
v 9.5 10.1 -6.6
v 10.8 10.1 -6.6
v 2.6 10.1 -7
v 5.4 10.1 -7
v 1.1 10.1 -7.3
v 2.6 10.1 -7.3
v 5.4 10.1 -7.5
v 7.9 10.1 -7.5
v 10.4 10.1 -7.5
v 12.6 10.1 -7.5
v 0 10.1 -7.6
v 1.1 10.1 -7.6
v 7.9 10.1 -7.7
v 10.4 10.1 -7.7
v 2.6 10.9 -7
v 5.4 10.9 -7
v 1.1 10.9 -7.3
v 2.6 10.9 -7.3
v 5.4 10.9 -7.5
v 7.9 10.9 -7.5
v 10.4 10.9 -7.5
v 12.6 10.9 -7.5
v 0 10.9 -7.6
v 1.1 10.9 -7.6
v 7.9 10.9 -7.7
v 10.4 10.9 -7.7
v 7.1 10.9 -8.2
v 10.5 10.9 -8.2
v 1.4 10.9 -8.3
v 3.6 10.9 -8.3
v 10.5 10.9 -8.5
v 12.6 10.9 -8.5
v 3.6 10.9 -8.6
v 7.1 10.9 -8.6
v 0 10.9 -9
v 1.4 10.9 -9
v 7.1 11.7 -8.2
v 10.5 11.7 -8.2
v 1.4 11.7 -8.3
v 3.6 11.7 -8.3
v 10.5 11.7 -8.5
v 12.6 11.7 -8.5
v 3.6 11.7 -8.6
v 7.1 11.7 -8.6
v 0 11.7 -9
v 1.4 11.7 -9
v 5.9 11.7 -9.3
v 9.4 11.7 -9.3
v 3.1 11.7 -9.7
v 5.9 11.7 -9.7
v 0 11.7 -9.9
v 3.1 11.7 -9.9
v 9.4 11.7 -9.9
v 12.6 11.7 -9.9
v 5.9 12.5 -9.3
v 9.4 12.5 -9.3
v 3.1 12.5 -9.7
v 5.9 12.5 -9.7
v 0 12.5 -9.9
v 3.1 12.5 -9.9
v 9.4 12.5 -9.9
v 12.6 12.5 -9.9
v 3.2 12.5 -10.5
v 7.1 12.5 -10.5
v 1.2 12.5 -11
v 3.2 12.5 -11
v 7.1 12.5 -11
v 10.7 12.5 -11
v 0 12.5 -11.3
v 1.2 12.5 -11.3
v 10.7 12.5 -11.3
v 12.6 12.5 -11.3
v 3.2 13.3 -10.5
v 7.1 13.3 -10.5
v 1.2 13.3 -11
v 3.2 13.3 -11
v 7.1 13.3 -11
v 10.7 13.3 -11
v 0 13.3 -11.3
v 1.2 13.3 -11.3
v 10.7 13.3 -11.3
v 12.6 13.3 -11.3
v 0 13.3 -12.6
v 12.6 13.3 -12.6

# faces
f 3/1/1 2/1/1 1/1/1
f 4/1/1 2/1/1 3/1/1
f 5/2/1 4/2/1 3/2/1
f 6/1/1 2/1/1 4/1/1
f 6/2/1 4/2/1 5/2/1
f 7/1/1 2/1/1 6/1/1
f 8/1/1 2/1/1 7/1/1
f 9/2/1 8/2/1 7/2/1
f 10/1/1 2/1/1 8/1/1
f 10/2/1 8/2/1 9/2/1
f 11/1/1 2/1/1 10/1/1
f 12/1/1 2/1/1 11/1/1
f 13/2/1 12/2/1 11/2/1
f 14/1/1 2/1/1 12/1/1
f 14/2/1 12/2/1 13/2/1
f 15/1/1 2/1/1 14/1/1
f 16/1/1 2/1/1 15/1/1
f 17/2/1 16/2/1 15/2/1
f 18/1/1 2/1/1 16/1/1
f 18/2/1 16/2/1 17/2/1
f 19/1/1 2/1/1 18/1/1
f 20/1/1 2/1/1 19/1/1
f 21/2/1 20/2/1 19/2/1
f 22/1/1 2/1/1 20/1/1
f 22/2/1 20/2/1 21/2/1
f 23/1/1 2/1/1 22/1/1
f 24/1/1 2/1/1 23/1/1
f 25/2/1 24/2/1 23/2/1
f 26/2/1 24/2/1 25/2/1
f 29/1/1 28/1/1 27/1/1
f 30/1/1 28/1/1 29/1/1
f 31/2/1 30/2/1 29/2/1
f 32/2/1 30/2/1 31/2/1
f 35/1/1 34/1/1 33/1/1
f 36/1/1 34/1/1 35/1/1
f 37/2/1 36/2/1 35/2/1
f 38/2/1 36/2/1 37/2/1
f 41/1/1 40/1/1 39/1/1
f 42/1/1 40/1/1 41/1/1
f 43/2/1 42/2/1 41/2/1
f 44/2/1 42/2/1 43/2/1
f 47/1/1 46/1/1 45/1/1
f 48/1/1 46/1/1 47/1/1
f 49/2/1 48/2/1 47/2/1
f 50/2/1 48/2/1 49/2/1
f 53/1/1 52/1/1 51/1/1
f 54/1/1 52/1/1 53/1/1
f 55/2/1 54/2/1 53/2/1
f 56/2/1 54/2/1 55/2/1
f 59/1/1 58/1/1 57/1/1
f 60/1/1 58/1/1 59/1/1
f 61/2/1 60/2/1 59/2/1
f 62/2/1 60/2/1 61/2/1
f 65/1/1 64/1/1 63/1/1
f 66/1/1 64/1/1 65/1/1
f 67/2/1 66/2/1 65/2/1
f 68/2/1 66/2/1 67/2/1
f 71/1/1 70/1/1 69/1/1
f 72/1/1 70/1/1 71/1/1
f 73/2/1 72/2/1 71/2/1
f 74/2/1 72/2/1 73/2/1
f 77/1/1 76/1/1 75/1/1
f 78/1/1 76/1/1 77/1/1
f 79/2/1 78/2/1 77/2/1
f 80/2/1 78/2/1 79/2/1
f 83/1/1 82/1/1 81/1/1
f 84/1/1 82/1/1 83/1/1
f 85/2/1 84/2/1 83/2/1
f 86/2/1 84/2/1 85/2/1
f 89/1/1 88/1/1 87/1/1
f 90/1/1 88/1/1 89/1/1
f 91/2/1 90/2/1 89/2/1
f 92/2/1 90/2/1 91/2/1
f 93/1/2 94/1/2 95/1/2
f 95/1/2 94/1/2 96/1/2
f 95/2/2 96/2/2 97/2/2
f 97/2/2 96/2/2 98/2/2
f 99/1/2 100/1/2 101/1/2
f 101/1/2 100/1/2 102/1/2
f 101/2/2 102/2/2 103/2/2
f 103/2/2 102/2/2 104/2/2
f 105/1/2 106/1/2 107/1/2
f 107/1/2 106/1/2 108/1/2
f 107/2/2 108/2/2 109/2/2
f 109/2/2 108/2/2 110/2/2
f 111/1/2 112/1/2 113/1/2
f 113/1/2 112/1/2 114/1/2
f 113/2/2 114/2/2 115/2/2
f 115/2/2 114/2/2 116/2/2
f 117/1/2 118/1/2 119/1/2
f 119/1/2 118/1/2 120/1/2
f 119/2/2 120/2/2 121/2/2
f 121/2/2 120/2/2 122/2/2
f 123/1/2 124/1/2 125/1/2
f 125/1/2 124/1/2 126/1/2
f 125/2/2 126/2/2 127/2/2
f 127/2/2 126/2/2 128/2/2
f 129/1/2 130/1/2 131/1/2
f 131/1/2 130/1/2 132/1/2
f 131/2/2 132/2/2 133/2/2
f 133/2/2 132/2/2 134/2/2
f 135/1/2 136/1/2 137/1/2
f 137/1/2 136/1/2 138/1/2
f 137/2/2 138/2/2 139/2/2
f 139/2/2 138/2/2 140/2/2
f 141/1/2 142/1/2 143/1/2
f 143/1/2 142/1/2 144/1/2
f 143/2/2 144/2/2 145/2/2
f 145/2/2 144/2/2 146/2/2
f 147/1/2 148/1/2 149/1/2
f 149/1/2 148/1/2 150/1/2
f 149/2/2 150/2/2 151/2/2
f 150/1/2 148/1/2 152/1/2
f 151/2/2 150/2/2 152/2/2
f 152/1/2 148/1/2 153/1/2
f 153/1/2 148/1/2 154/1/2
f 153/2/2 154/2/2 155/2/2
f 154/1/2 148/1/2 156/1/2
f 155/2/2 154/2/2 156/2/2
f 156/1/2 148/1/2 157/1/2
f 157/1/2 148/1/2 158/1/2
f 157/2/2 158/2/2 159/2/2
f 158/1/2 148/1/2 160/1/2
f 159/2/2 158/2/2 160/2/2
f 160/1/2 148/1/2 161/1/2
f 161/1/2 148/1/2 162/1/2
f 161/2/2 162/2/2 163/2/2
f 162/1/2 148/1/2 164/1/2
f 163/2/2 162/2/2 164/2/2
f 164/1/2 148/1/2 165/1/2
f 165/1/2 148/1/2 166/1/2
f 165/2/2 166/2/2 167/2/2
f 166/1/2 148/1/2 168/1/2
f 167/2/2 166/2/2 168/2/2
f 168/1/2 148/1/2 169/1/2
f 169/1/2 148/1/2 170/1/2
f 169/2/2 170/2/2 171/2/2
f 171/2/2 170/2/2 172/2/2
f 176/1/3 174/1/3 173/1/3
f 177/2/3 175/2/3 174/2/3
f 177/1/3 174/1/3 176/1/3
f 178/2/3 175/2/3 177/2/3
f 182/1/3 180/1/3 179/1/3
f 183/2/3 181/2/3 180/2/3
f 183/1/3 180/1/3 182/1/3
f 184/2/3 181/2/3 183/2/3
f 188/1/3 186/1/3 185/1/3
f 189/2/3 187/2/3 186/2/3
f 189/1/3 186/1/3 188/1/3
f 190/2/3 187/2/3 189/2/3
f 194/1/3 192/1/3 191/1/3
f 195/2/3 193/2/3 192/2/3
f 195/1/3 192/1/3 194/1/3
f 196/2/3 193/2/3 195/2/3
f 200/1/3 198/1/3 197/1/3
f 201/2/3 199/2/3 198/2/3
f 201/1/3 198/1/3 200/1/3
f 202/2/3 199/2/3 201/2/3
f 206/1/3 204/1/3 203/1/3
f 207/2/3 205/2/3 204/2/3
f 207/1/3 204/1/3 206/1/3
f 208/2/3 205/2/3 207/2/3
f 212/1/3 210/1/3 209/1/3
f 213/2/3 211/2/3 210/2/3
f 213/1/3 210/1/3 212/1/3
f 214/2/3 211/2/3 213/2/3
f 218/1/3 216/1/3 215/1/3
f 219/2/3 217/2/3 216/2/3
f 219/1/3 216/1/3 218/1/3
f 220/2/3 217/2/3 219/2/3
f 224/1/3 222/1/3 221/1/3
f 225/2/3 223/2/3 222/2/3
f 225/1/3 222/1/3 224/1/3
f 226/2/3 223/2/3 225/2/3
f 230/1/3 228/1/3 227/1/3
f 231/2/3 229/2/3 228/2/3
f 231/1/3 228/1/3 230/1/3
f 232/2/3 229/2/3 231/2/3
f 236/1/3 234/1/3 233/1/3
f 237/2/3 235/2/3 234/2/3
f 237/1/3 234/1/3 236/1/3
f 238/2/3 235/2/3 237/2/3
f 242/1/3 240/1/3 239/1/3
f 243/2/3 241/2/3 240/2/3
f 243/1/3 240/1/3 242/1/3
f 244/2/3 241/2/3 243/2/3
f 248/1/3 246/1/3 245/1/3
f 249/2/3 247/2/3 246/2/3
f 249/1/3 246/1/3 248/1/3
f 250/2/3 247/2/3 249/2/3
f 254/1/3 252/1/3 251/1/3
f 255/2/3 253/2/3 252/2/3
f 255/1/3 252/1/3 254/1/3
f 256/2/3 253/2/3 255/2/3
f 260/1/3 258/1/3 257/1/3
f 261/2/3 259/2/3 258/2/3
f 261/1/3 258/1/3 260/1/3
f 262/2/3 259/2/3 261/2/3
f 266/1/3 264/1/3 263/1/3
f 267/2/3 265/2/3 264/2/3
f 267/1/3 264/1/3 266/1/3
f 268/2/3 265/2/3 267/2/3
f 272/1/3 270/1/3 269/1/3
f 273/2/3 271/2/3 270/2/3
f 273/1/3 270/1/3 272/1/3
f 274/2/3 271/2/3 273/2/3
f 278/1/3 276/1/3 275/1/3
f 279/2/3 277/2/3 276/2/3
f 279/1/3 276/1/3 278/1/3
f 280/2/3 277/2/3 279/2/3
f 284/1/3 282/1/3 281/1/3
f 285/2/3 283/2/3 282/2/3
f 285/1/3 282/1/3 284/1/3
f 286/2/3 283/2/3 285/2/3
f 290/1/3 288/1/3 287/1/3
f 291/2/3 289/2/3 288/2/3
f 291/1/3 288/1/3 290/1/3
f 292/2/3 289/2/3 291/2/3
f 296/1/3 294/1/3 293/1/3
f 297/2/3 295/2/3 294/2/3
f 297/1/3 294/1/3 296/1/3
f 298/2/3 295/2/3 297/2/3
f 302/1/3 300/1/3 299/1/3
f 303/2/3 301/2/3 300/2/3
f 303/1/3 300/1/3 302/1/3
f 304/2/3 301/2/3 303/2/3
f 308/1/3 306/1/3 305/1/3
f 309/2/3 307/2/3 306/2/3
f 309/1/3 306/1/3 308/1/3
f 310/2/3 307/2/3 309/2/3
f 314/1/3 312/1/3 311/1/3
f 315/2/3 313/2/3 312/2/3
f 315/1/3 312/1/3 314/1/3
f 316/2/3 313/2/3 315/2/3
f 320/1/3 318/1/3 317/1/3
f 321/2/3 319/2/3 318/2/3
f 321/1/3 318/1/3 320/1/3
f 322/2/3 319/2/3 321/2/3
f 326/1/3 324/1/3 323/1/3
f 327/2/3 325/2/3 324/2/3
f 327/1/3 324/1/3 326/1/3
f 328/2/3 325/2/3 327/2/3
f 329/1/4 330/1/4 332/1/4
f 330/2/4 331/2/4 333/2/4
f 332/1/4 330/1/4 333/1/4
f 333/2/4 331/2/4 334/2/4
f 337/1/5 336/1/5 335/1/5
f 338/1/5 336/1/5 337/1/5
f 339/2/6 340/2/6 341/2/6
f 341/2/6 340/2/6 342/2/6
f 342/2/6 340/2/6 343/2/6
f 343/2/6 340/2/6 344/2/6
f 339/2/6 341/2/6 345/2/6
f 345/2/6 341/2/6 346/2/6
f 344/2/6 340/2/6 347/2/6
f 347/2/6 340/2/6 348/2/6
f 344/2/6 347/2/6 349/2/6
f 349/2/6 347/2/6 350/2/6
f 351/2/6 352/2/6 353/2/6
f 351/2/6 353/2/6 356/2/6
f 353/2/6 354/2/6 356/2/6
f 356/2/6 354/2/6 359/2/6
f 355/2/6 356/2/6 359/2/6
f 357/2/6 358/2/6 360/2/6
f 355/2/6 359/2/6 361/2/6
f 359/2/6 360/2/6 361/2/6
f 361/2/6 360/2/6 362/2/6
f 355/2/6 361/2/6 363/2/6
f 363/2/6 361/2/6 364/2/6
f 362/2/6 360/2/6 365/2/6
f 365/2/6 360/2/6 366/2/6
f 366/2/6 360/2/6 367/2/6
f 360/2/6 358/2/6 368/2/6
f 367/2/6 360/2/6 368/2/6
f 355/2/6 363/2/6 369/2/6
f 369/2/6 363/2/6 370/2/6
f 366/2/6 367/2/6 371/2/6
f 371/2/6 367/2/6 372/2/6
f 373/2/6 374/2/6 376/2/6
f 376/2/6 374/2/6 377/2/6
f 375/2/6 376/2/6 377/2/6
f 375/2/6 377/2/6 382/2/6
f 377/2/6 378/2/6 382/2/6
f 382/2/6 378/2/6 383/2/6
f 381/2/6 382/2/6 383/2/6
f 379/2/6 380/2/6 384/2/6
f 381/2/6 383/2/6 385/2/6
f 383/2/6 384/2/6 385/2/6
f 384/2/6 380/2/6 386/2/6
f 385/2/6 384/2/6 386/2/6
f 381/2/6 385/2/6 387/2/6
f 387/2/6 385/2/6 388/2/6
f 386/2/6 380/2/6 389/2/6
f 389/2/6 380/2/6 390/2/6
f 388/2/6 385/2/6 391/2/6
f 391/2/6 385/2/6 392/2/6
f 381/2/6 387/2/6 393/2/6
f 393/2/6 387/2/6 394/2/6
f 395/2/6 396/2/6 399/2/6
f 397/2/6 398/2/6 401/2/6
f 399/2/6 400/2/6 402/2/6
f 395/2/6 399/2/6 402/2/6
f 397/2/6 401/2/6 404/2/6
f 401/2/6 402/2/6 404/2/6
f 404/2/6 402/2/6 405/2/6
f 403/2/6 404/2/6 405/2/6
f 402/2/6 400/2/6 406/2/6
f 405/2/6 402/2/6 406/2/6
f 403/2/6 405/2/6 407/2/6
f 407/2/6 405/2/6 408/2/6
f 403/2/6 407/2/6 409/2/6
f 409/2/6 407/2/6 410/2/6
f 406/2/6 400/2/6 411/2/6
f 411/2/6 400/2/6 412/2/6
f 413/2/6 414/2/6 416/2/6
f 415/2/6 416/2/6 418/2/6
f 416/2/6 414/2/6 419/2/6
f 418/2/6 416/2/6 419/2/6
f 417/2/6 418/2/6 421/2/6
f 419/2/6 420/2/6 421/2/6
f 418/2/6 419/2/6 421/2/6
f 421/2/6 420/2/6 422/2/6
f 417/2/6 421/2/6 423/2/6
f 423/2/6 421/2/6 424/2/6
f 422/2/6 420/2/6 425/2/6
f 425/2/6 420/2/6 426/2/6
f 417/2/6 423/2/6 427/2/6
f 427/2/6 423/2/6 428/2/6
f 426/2/6 420/2/6 429/2/6
f 429/2/6 420/2/6 430/2/6
f 431/2/6 432/2/6 434/2/6
f 434/2/6 432/2/6 435/2/6
f 433/2/6 434/2/6 438/2/6
f 435/2/6 436/2/6 438/2/6
f 434/2/6 435/2/6 438/2/6
f 438/2/6 436/2/6 439/2/6
f 437/2/6 438/2/6 441/2/6
f 439/2/6 440/2/6 441/2/6
f 438/2/6 439/2/6 441/2/6
f 441/2/6 440/2/6 442/2/6
