# MagicaVoxel @ Ephtracy

# group
o 

# material
mtllib SnowRoad cross.mtl
usemtl palette

# normals
vn -1 0 0
vn 1 0 0
vn 0 0 1
vn 0 0 -1
vn 0 -1 0
vn 0 1 0

# texcoords
vt 0.478516 0.5
vt 0.486328 0.5
vt 0.912109 0.5
vt 0.935547 0.5
vt 0.966797 0.5
vt 0.974609 0.5

# verts
v 0 2 0
v 0 2 -12.6
v 0 13.1 0
v 0 13.1 -12.6
v 0 13.2 -3.8
v 0 13.2 -4
v 0 13.2 -4.1
v 0 13.2 -6.2
v 0 13.2 -6.4
v 0 13.2 -8.5
v 0 13.2 -8.6
v 0 13.2 -8.8
v 0 13.3 0
v 0 13.3 -2
v 0 13.3 -3.8
v 0 13.3 -4
v 0 13.3 -4.1
v 0 13.3 -6.2
v 0 13.3 -6.4
v 0 13.3 -8.5
v 0 13.3 -8.6
v 0 13.3 -8.8
v 0 13.3 -10.6
v 0 13.3 -12.6
v 0 13.4 -2
v 0 13.4 -3.8
v 0 13.4 -8.8
v 0 13.4 -10.6
v 2 13.3 0
v 2 13.3 -2
v 2 13.3 -10.6
v 2 13.3 -12.6
v 2 13.4 0
v 2 13.4 -2
v 2 13.4 -10.6
v 2 13.4 -12.6
v 8.8 13.3 0
v 8.8 13.3 -3.8
v 8.8 13.3 -8.8
v 8.8 13.3 -12.6
v 8.8 13.4 0
v 8.8 13.4 -3.8
v 8.8 13.4 -8.8
v 8.8 13.4 -12.6
v 3.8 13.3 0
v 3.8 13.3 -3.8
v 3.8 13.3 -8.8
v 3.8 13.3 -12.6
v 3.8 13.4 0
v 3.8 13.4 -3.8
v 3.8 13.4 -8.8
v 3.8 13.4 -12.6
v 10.6 13.3 0
v 10.6 13.3 -2
v 10.6 13.3 -10.6
v 10.6 13.3 -12.6
v 10.6 13.4 0
v 10.6 13.4 -2
v 10.6 13.4 -10.6
v 10.6 13.4 -12.6
v 12.6 2 0
v 12.6 2 -12.6
v 12.6 13.1 0
v 12.6 13.1 -12.6
v 12.6 13.2 -3.8
v 12.6 13.2 -4
v 12.6 13.2 -4.1
v 12.6 13.2 -6.2
v 12.6 13.2 -6.4
v 12.6 13.2 -8.5
v 12.6 13.2 -8.6
v 12.6 13.2 -8.8
v 12.6 13.3 0
v 12.6 13.3 -2
v 12.6 13.3 -3.8
v 12.6 13.3 -4
v 12.6 13.3 -4.1
v 12.6 13.3 -6.2
v 12.6 13.3 -6.4
v 12.6 13.3 -8.5
v 12.6 13.3 -8.6
v 12.6 13.3 -8.8
v 12.6 13.3 -10.6
v 12.6 13.3 -12.6
v 12.6 13.4 -2
v 12.6 13.4 -3.8
v 12.6 13.4 -8.8
v 12.6 13.4 -10.6
v 0 2 0
v 0 13.1 0
v 0 13.3 0
v 2 13.3 0
v 2 13.4 0
v 3.8 13.2 0
v 3.8 13.3 0
v 3.8 13.4 0
v 4 13.2 0
v 4 13.3 0
v 4.1 13.2 0
v 4.1 13.3 0
v 6.2 13.2 0
v 6.2 13.3 0
v 6.4 13.2 0
v 6.4 13.3 0
v 8.5 13.2 0
v 8.5 13.3 0
v 8.6 13.2 0
v 8.6 13.3 0
v 8.8 13.2 0
v 8.8 13.3 0
v 8.8 13.4 0
v 10.6 13.3 0
v 10.6 13.4 0
v 12.6 2 0
v 12.6 13.1 0
v 12.6 13.3 0
v 0 13.3 -2
v 0 13.4 -2
v 2 13.3 -2
v 2 13.4 -2
v 10.6 13.3 -2
v 10.6 13.4 -2
v 12.6 13.3 -2
v 12.6 13.4 -2
v 0 13.3 -8.8
v 0 13.4 -8.8
v 3.8 13.3 -8.8
v 3.8 13.4 -8.8
v 8.8 13.3 -8.8
v 8.8 13.4 -8.8
v 12.6 13.3 -8.8
v 12.6 13.4 -8.8
v 0 13.3 -3.8
v 0 13.4 -3.8
v 3.8 13.3 -3.8
v 3.8 13.4 -3.8
v 8.8 13.3 -3.8
v 8.8 13.4 -3.8
v 12.6 13.3 -3.8
v 12.6 13.4 -3.8
v 0 13.3 -10.6
v 0 13.4 -10.6
v 2 13.3 -10.6
v 2 13.4 -10.6
v 10.6 13.3 -10.6
v 10.6 13.4 -10.6
v 12.6 13.3 -10.6
v 12.6 13.4 -10.6
v 0 2 -12.6
v 0 13.1 -12.6
v 0 13.3 -12.6
v 2 13.3 -12.6
v 2 13.4 -12.6
v 3.8 13.2 -12.6
v 3.8 13.3 -12.6
v 3.8 13.4 -12.6
v 4 13.2 -12.6
v 4 13.3 -12.6
v 4.1 13.2 -12.6
v 4.1 13.3 -12.6
v 6.2 13.2 -12.6
v 6.2 13.3 -12.6
v 6.4 13.2 -12.6
v 6.4 13.3 -12.6
v 8.5 13.2 -12.6
v 8.5 13.3 -12.6
v 8.6 13.2 -12.6
v 8.6 13.3 -12.6
v 8.8 13.2 -12.6
v 8.8 13.3 -12.6
v 8.8 13.4 -12.6
v 10.6 13.3 -12.6
v 10.6 13.4 -12.6
v 12.6 2 -12.6
v 12.6 13.1 -12.6
v 12.6 13.3 -12.6
v 0 2 0
v 12.6 2 0
v 0 2 -12.6
v 12.6 2 -12.6
v 0 13.3 0
v 2 13.3 0
v 3.8 13.3 0
v 4 13.3 0
v 4.1 13.3 0
v 6.2 13.3 0
v 6.4 13.3 0
v 8.5 13.3 0
v 8.6 13.3 0
v 8.8 13.3 0
v 10.6 13.3 0
v 12.6 13.3 0
v 6.2 13.3 -0.2
v 6.4 13.3 -0.2
v 4 13.3 -0.3
v 4.1 13.3 -0.3
v 8.5 13.3 -0.3
v 8.6 13.3 -0.3
v 4 13.3 -0.4
v 4.4 13.3 -0.4
v 4.6 13.3 -0.4
v 5 13.3 -0.4
v 5.2 13.3 -0.4
v 5.6 13.3 -0.4
v 5.8 13.3 -0.4
v 6.2 13.3 -0.4
v 6.4 13.3 -0.4
v 6.8 13.3 -0.4
v 7 13.3 -0.4
v 7.4 13.3 -0.4
v 7.6 13.3 -0.4
v 8 13.3 -0.4
v 8.2 13.3 -0.4
v 8.6 13.3 -0.4
v 0 13.3 -2
v 2 13.3 -2
v 10.6 13.3 -2
v 12.6 13.3 -2
v 4 13.3 -3.4
v 4.4 13.3 -3.4
v 4.6 13.3 -3.4
v 5 13.3 -3.4
v 5.2 13.3 -3.4
v 5.6 13.3 -3.4
v 5.8 13.3 -3.4
v 6.2 13.3 -3.4
v 6.4 13.3 -3.4
v 6.8 13.3 -3.4
v 7 13.3 -3.4
v 7.4 13.3 -3.4
v 7.6 13.3 -3.4
v 8 13.3 -3.4
v 8.2 13.3 -3.4
v 8.6 13.3 -3.4
v 4 13.3 -3.5
v 4.1 13.3 -3.5
v 8.5 13.3 -3.5
v 8.6 13.3 -3.5
v 0 13.3 -3.8
v 3.8 13.3 -3.8
v 8.8 13.3 -3.8
v 12.6 13.3 -3.8
v 0 13.3 -4
v 0.4 13.3 -4
v 0.5 13.3 -4
v 3.5 13.3 -4
v 3.6 13.3 -4
v 4 13.3 -4
v 8.6 13.3 -4
v 9 13.3 -4
v 9.1 13.3 -4
v 12.1 13.3 -4
v 12.2 13.3 -4
v 12.6 13.3 -4
v 0 13.3 -4.1
v 0.4 13.3 -4.1
v 3.6 13.3 -4.1
v 4.1 13.3 -4.1
v 8.5 13.3 -4.1
v 9 13.3 -4.1
v 12.2 13.3 -4.1
v 12.6 13.3 -4.1
v 0.5 13.3 -4.4
v 3.5 13.3 -4.4
v 9.1 13.3 -4.4
v 12.1 13.3 -4.4
v 0.5 13.3 -4.6
v 3.5 13.3 -4.6
v 9.1 13.3 -4.6
v 12.1 13.3 -4.6
v 0.5 13.3 -5
v 3.5 13.3 -5
v 9.1 13.3 -5
v 12.1 13.3 -5
v 0.5 13.3 -5.2
v 3.5 13.3 -5.2
v 9.1 13.3 -5.2
v 12.1 13.3 -5.2
v 0.5 13.3 -5.6
v 3.5 13.3 -5.6
v 9.1 13.3 -5.6
v 12.1 13.3 -5.6
v 0.5 13.3 -5.8
v 3.5 13.3 -5.8
v 9.1 13.3 -5.8
v 12.1 13.3 -5.8
v 0 13.3 -6.2
v 0.3 13.3 -6.2
v 0.5 13.3 -6.2
v 3.5 13.3 -6.2
v 9.1 13.3 -6.2
v 12.1 13.3 -6.2
v 12.3 13.3 -6.2
v 12.6 13.3 -6.2
v 0 13.3 -6.4
v 0.3 13.3 -6.4
v 0.5 13.3 -6.4
v 3.5 13.3 -6.4
v 9.1 13.3 -6.4
v 12.1 13.3 -6.4
v 12.3 13.3 -6.4
v 12.6 13.3 -6.4
v 0.5 13.3 -6.8
v 3.5 13.3 -6.8
v 9.1 13.3 -6.8
v 12.1 13.3 -6.8
v 0.5 13.3 -7
v 3.5 13.3 -7
v 9.1 13.3 -7
v 12.1 13.3 -7
v 0.5 13.3 -7.4
v 3.5 13.3 -7.4
v 9.1 13.3 -7.4
v 12.1 13.3 -7.4
v 0.5 13.3 -7.6
v 3.5 13.3 -7.6
v 9.1 13.3 -7.6
v 12.1 13.3 -7.6
v 0.5 13.3 -8
v 3.5 13.3 -8
v 9.1 13.3 -8
v 12.1 13.3 -8
v 0.5 13.3 -8.2
v 3.5 13.3 -8.2
v 9.1 13.3 -8.2
v 12.1 13.3 -8.2
v 0 13.3 -8.5
v 0.4 13.3 -8.5
v 3.6 13.3 -8.5
v 4.1 13.3 -8.5
v 8.5 13.3 -8.5
v 9 13.3 -8.5
v 12.2 13.3 -8.5
v 12.6 13.3 -8.5
v 0 13.3 -8.6
v 0.4 13.3 -8.6
v 0.5 13.3 -8.6
v 3.5 13.3 -8.6
v 3.6 13.3 -8.6
v 4 13.3 -8.6
v 8.6 13.3 -8.6
v 9 13.3 -8.6
v 9.1 13.3 -8.6
v 12.1 13.3 -8.6
v 12.2 13.3 -8.6
v 12.6 13.3 -8.6
v 0 13.3 -8.8
v 3.8 13.3 -8.8
v 8.8 13.3 -8.8
v 12.6 13.3 -8.8
v 4 13.3 -9
v 4.1 13.3 -9
v 8.5 13.3 -9
v 8.6 13.3 -9
v 4 13.3 -9.1
v 4.4 13.3 -9.1
v 4.6 13.3 -9.1
v 5 13.3 -9.1
v 5.2 13.3 -9.1
v 5.6 13.3 -9.1
v 5.8 13.3 -9.1
v 6.2 13.3 -9.1
v 6.4 13.3 -9.1
v 6.8 13.3 -9.1
v 7 13.3 -9.1
v 7.4 13.3 -9.1
v 7.6 13.3 -9.1
v 8 13.3 -9.1
v 8.2 13.3 -9.1
v 8.6 13.3 -9.1
v 0 13.3 -10.6
v 2 13.3 -10.6
v 10.6 13.3 -10.6
v 12.6 13.3 -10.6
v 4 13.3 -12.1
v 4.4 13.3 -12.1
v 4.6 13.3 -12.1
v 5 13.3 -12.1
v 5.2 13.3 -12.1
v 5.6 13.3 -12.1
v 5.8 13.3 -12.1
v 6.2 13.3 -12.1
v 6.4 13.3 -12.1
v 6.8 13.3 -12.1
v 7 13.3 -12.1
v 7.4 13.3 -12.1
v 7.6 13.3 -12.1
v 8 13.3 -12.1
v 8.2 13.3 -12.1
v 8.6 13.3 -12.1
v 4 13.3 -12.2
v 4.1 13.3 -12.2
v 8.5 13.3 -12.2
v 8.6 13.3 -12.2
v 6.2 13.3 -12.3
v 6.4 13.3 -12.3
v 0 13.3 -12.6
v 2 13.3 -12.6
v 3.8 13.3 -12.6
v 4 13.3 -12.6
v 4.1 13.3 -12.6
v 6.2 13.3 -12.6
v 6.4 13.3 -12.6
v 8.5 13.3 -12.6
v 8.6 13.3 -12.6
v 8.8 13.3 -12.6
v 10.6 13.3 -12.6
v 12.6 13.3 -12.6
v 2 13.4 0
v 3.8 13.4 0
v 8.8 13.4 0
v 10.6 13.4 0
v 0 13.4 -2
v 2 13.4 -2
v 10.6 13.4 -2
v 12.6 13.4 -2
v 0 13.4 -3.8
v 3.8 13.4 -3.8
v 8.8 13.4 -3.8
v 12.6 13.4 -3.8
v 0 13.4 -8.8
v 3.8 13.4 -8.8
v 8.8 13.4 -8.8
v 12.6 13.4 -8.8
v 0 13.4 -10.6
v 2 13.4 -10.6
v 10.6 13.4 -10.6
v 12.6 13.4 -10.6
v 2 13.4 -12.6
v 3.8 13.4 -12.6
v 8.8 13.4 -12.6
v 10.6 13.4 -12.6

# faces
f 3/2/1 2/2/1 1/2/1
f 4/2/1 2/2/1 3/2/1
f 5/3/1 4/3/1 3/3/1
f 6/3/1 4/3/1 5/3/1
f 7/3/1 4/3/1 6/3/1
f 8/3/1 4/3/1 7/3/1
f 9/3/1 4/3/1 8/3/1
f 10/3/1 4/3/1 9/3/1
f 11/3/1 4/3/1 10/3/1
f 12/3/1 4/3/1 11/3/1
f 13/3/1 5/3/1 3/3/1
f 14/3/1 5/3/1 13/3/1
f 15/4/1 6/4/1 5/4/1
f 15/3/1 5/3/1 14/3/1
f 16/1/1 7/1/1 6/1/1
f 16/4/1 6/4/1 15/4/1
f 17/4/1 8/4/1 7/4/1
f 17/1/1 7/1/1 16/1/1
f 18/5/1 9/5/1 8/5/1
f 18/4/1 8/4/1 17/4/1
f 19/4/1 10/4/1 9/4/1
f 19/5/1 9/5/1 18/5/1
f 20/1/1 11/1/1 10/1/1
f 20/4/1 10/4/1 19/4/1
f 21/4/1 12/4/1 11/4/1
f 21/1/1 11/1/1 20/1/1
f 22/3/1 4/3/1 12/3/1
f 22/4/1 12/4/1 21/4/1
f 23/3/1 4/3/1 22/3/1
f 24/3/1 4/3/1 23/3/1
f 25/6/1 15/6/1 14/6/1
f 26/6/1 15/6/1 25/6/1
f 27/6/1 23/6/1 22/6/1
f 28/6/1 23/6/1 27/6/1
f 33/6/1 30/6/1 29/6/1
f 34/6/1 30/6/1 33/6/1
f 35/6/1 32/6/1 31/6/1
f 36/6/1 32/6/1 35/6/1
f 41/6/1 38/6/1 37/6/1
f 42/6/1 38/6/1 41/6/1
f 43/6/1 40/6/1 39/6/1
f 44/6/1 40/6/1 43/6/1
f 45/6/2 46/6/2 49/6/2
f 49/6/2 46/6/2 50/6/2
f 47/6/2 48/6/2 51/6/2
f 51/6/2 48/6/2 52/6/2
f 53/6/2 54/6/2 57/6/2
f 57/6/2 54/6/2 58/6/2
f 55/6/2 56/6/2 59/6/2
f 59/6/2 56/6/2 60/6/2
f 61/2/2 62/2/2 63/2/2
f 63/2/2 62/2/2 64/2/2
f 63/3/2 64/3/2 65/3/2
f 65/3/2 64/3/2 66/3/2
f 66/3/2 64/3/2 67/3/2
f 67/3/2 64/3/2 68/3/2
f 68/3/2 64/3/2 69/3/2
f 69/3/2 64/3/2 70/3/2
f 70/3/2 64/3/2 71/3/2
f 71/3/2 64/3/2 72/3/2
f 63/3/2 65/3/2 73/3/2
f 73/3/2 65/3/2 74/3/2
f 65/4/2 66/4/2 75/4/2
f 74/3/2 65/3/2 75/3/2
f 66/1/2 67/1/2 76/1/2
f 75/4/2 66/4/2 76/4/2
f 67/4/2 68/4/2 77/4/2
f 76/1/2 67/1/2 77/1/2
f 68/5/2 69/5/2 78/5/2
f 77/4/2 68/4/2 78/4/2
f 69/4/2 70/4/2 79/4/2
f 78/5/2 69/5/2 79/5/2
f 70/1/2 71/1/2 80/1/2
f 79/4/2 70/4/2 80/4/2
f 71/4/2 72/4/2 81/4/2
f 80/1/2 71/1/2 81/1/2
f 72/3/2 64/3/2 82/3/2
f 81/4/2 72/4/2 82/4/2
f 82/3/2 64/3/2 83/3/2
f 83/3/2 64/3/2 84/3/2
f 74/6/2 75/6/2 85/6/2
f 85/6/2 75/6/2 86/6/2
f 82/6/2 83/6/2 87/6/2
f 87/6/2 83/6/2 88/6/2
f 92/3/3 91/3/3 90/3/3
f 94/3/3 92/3/3 90/3/3
f 95/6/3 93/6/3 92/6/3
f 95/3/3 92/3/3 94/3/3
f 96/6/3 93/6/3 95/6/3
f 97/3/3 94/3/3 90/3/3
f 97/4/3 95/4/3 94/4/3
f 98/4/3 95/4/3 97/4/3
f 99/3/3 97/3/3 90/3/3
f 99/1/3 98/1/3 97/1/3
f 100/1/3 98/1/3 99/1/3
f 101/3/3 99/3/3 90/3/3
f 101/4/3 100/4/3 99/4/3
f 102/4/3 100/4/3 101/4/3
f 103/3/3 101/3/3 90/3/3
f 103/5/3 102/5/3 101/5/3
f 104/5/3 102/5/3 103/5/3
f 105/3/3 103/3/3 90/3/3
f 105/4/3 104/4/3 103/4/3
f 106/4/3 104/4/3 105/4/3
f 107/3/3 105/3/3 90/3/3
f 107/1/3 106/1/3 105/1/3
f 108/1/3 106/1/3 107/1/3
f 109/3/3 107/3/3 90/3/3
f 109/4/3 108/4/3 107/4/3
f 110/4/3 108/4/3 109/4/3
f 112/3/3 110/3/3 109/3/3
f 112/6/3 111/6/3 110/6/3
f 113/6/3 111/6/3 112/6/3
f 114/2/3 90/2/3 89/2/3
f 115/3/3 109/3/3 90/3/3
f 115/2/3 90/2/3 114/2/3
f 115/3/3 112/3/3 109/3/3
f 116/3/3 112/3/3 115/3/3
f 119/6/3 118/6/3 117/6/3
f 120/6/3 118/6/3 119/6/3
f 123/6/3 122/6/3 121/6/3
f 124/6/3 122/6/3 123/6/3
f 127/6/3 126/6/3 125/6/3
f 128/6/3 126/6/3 127/6/3
f 131/6/3 130/6/3 129/6/3
f 132/6/3 130/6/3 131/6/3
f 133/6/4 134/6/4 135/6/4
f 135/6/4 134/6/4 136/6/4
f 137/6/4 138/6/4 139/6/4
f 139/6/4 138/6/4 140/6/4
f 141/6/4 142/6/4 143/6/4
f 143/6/4 142/6/4 144/6/4
f 145/6/4 146/6/4 147/6/4
f 147/6/4 146/6/4 148/6/4
f 150/3/4 151/3/4 152/3/4
f 150/3/4 152/3/4 154/3/4
f 152/6/4 153/6/4 155/6/4
f 154/3/4 152/3/4 155/3/4
f 155/6/4 153/6/4 156/6/4
f 150/3/4 154/3/4 157/3/4
f 154/4/4 155/4/4 157/4/4
f 157/4/4 155/4/4 158/4/4
f 150/3/4 157/3/4 159/3/4
f 157/1/4 158/1/4 159/1/4
f 159/1/4 158/1/4 160/1/4
f 150/3/4 159/3/4 161/3/4
f 159/4/4 160/4/4 161/4/4
f 161/4/4 160/4/4 162/4/4
f 150/3/4 161/3/4 163/3/4
f 161/5/4 162/5/4 163/5/4
f 163/5/4 162/5/4 164/5/4
f 150/3/4 163/3/4 165/3/4
f 163/4/4 164/4/4 165/4/4
f 165/4/4 164/4/4 166/4/4
f 150/3/4 165/3/4 167/3/4
f 165/1/4 166/1/4 167/1/4
f 167/1/4 166/1/4 168/1/4
f 150/3/4 167/3/4 169/3/4
f 167/4/4 168/4/4 169/4/4
f 169/4/4 168/4/4 170/4/4
f 169/3/4 170/3/4 172/3/4
f 170/6/4 171/6/4 172/6/4
f 172/6/4 171/6/4 173/6/4
f 149/2/4 150/2/4 174/2/4
f 150/3/4 169/3/4 175/3/4
f 174/2/4 150/2/4 175/2/4
f 169/3/4 172/3/4 175/3/4
f 175/3/4 172/3/4 176/3/4
f 179/2/5 178/2/5 177/2/5
f 180/2/5 178/2/5 179/2/5
f 185/4/6 186/4/6 193/4/6
f 186/5/6 187/5/6 193/5/6
f 187/4/6 188/4/6 194/4/6
f 193/5/6 187/5/6 194/5/6
f 183/4/6 184/4/6 195/4/6
f 184/1/6 185/1/6 195/1/6
f 193/4/6 194/4/6 196/4/6
f 195/1/6 185/1/6 196/1/6
f 185/4/6 193/4/6 196/4/6
f 194/4/6 188/4/6 197/4/6
f 196/4/6 194/4/6 197/4/6
f 188/1/6 189/1/6 197/1/6
f 189/4/6 190/4/6 198/4/6
f 197/1/6 189/1/6 198/1/6
f 195/4/6 196/4/6 199/4/6
f 183/4/6 195/4/6 199/4/6
f 197/4/6 198/4/6 199/4/6
f 196/4/6 197/4/6 199/4/6
f 199/4/6 198/4/6 200/4/6
f 200/4/6 198/4/6 201/4/6
f 201/4/6 198/4/6 202/4/6
f 202/4/6 198/4/6 203/4/6
f 203/4/6 198/4/6 204/4/6
f 204/4/6 198/4/6 205/4/6
f 205/4/6 198/4/6 206/4/6
f 206/4/6 198/4/6 207/4/6
f 207/4/6 198/4/6 208/4/6
f 208/4/6 198/4/6 209/4/6
f 209/4/6 198/4/6 210/4/6
f 210/4/6 198/4/6 211/4/6
f 211/4/6 198/4/6 212/4/6
f 212/4/6 198/4/6 213/4/6
f 198/4/6 190/4/6 214/4/6
f 213/4/6 198/4/6 214/4/6
f 181/3/6 182/3/6 215/3/6
f 215/3/6 182/3/6 216/3/6
f 191/3/6 192/3/6 217/3/6
f 217/3/6 192/3/6 218/3/6
f 183/4/6 199/4/6 219/4/6
f 199/5/6 200/5/6 219/5/6
f 200/4/6 201/4/6 220/4/6
f 219/5/6 200/5/6 220/5/6
f 201/5/6 202/5/6 221/5/6
f 220/4/6 201/4/6 221/4/6
f 202/4/6 203/4/6 222/4/6
f 221/5/6 202/5/6 222/5/6
f 203/5/6 204/5/6 223/5/6
f 222/4/6 203/4/6 223/4/6
f 204/4/6 205/4/6 224/4/6
f 223/5/6 204/5/6 224/5/6
f 205/5/6 206/5/6 225/5/6
f 224/4/6 205/4/6 225/4/6
f 206/4/6 207/4/6 226/4/6
f 225/5/6 206/5/6 226/5/6
f 207/5/6 208/5/6 227/5/6
f 226/4/6 207/4/6 227/4/6
f 208/4/6 209/4/6 228/4/6
f 227/5/6 208/5/6 228/5/6
f 209/5/6 210/5/6 229/5/6
f 228/4/6 209/4/6 229/4/6
f 210/4/6 211/4/6 230/4/6
f 229/5/6 210/5/6 230/5/6
f 211/5/6 212/5/6 231/5/6
f 230/4/6 211/4/6 231/4/6
f 212/4/6 213/4/6 232/4/6
f 231/5/6 212/5/6 232/5/6
f 213/5/6 214/5/6 233/5/6
f 232/4/6 213/4/6 233/4/6
f 214/4/6 190/4/6 234/4/6
f 233/5/6 214/5/6 234/5/6
f 232/4/6 233/4/6 235/4/6
f 230/4/6 231/4/6 235/4/6
f 233/4/6 234/4/6 235/4/6
f 231/4/6 232/4/6 235/4/6
f 229/4/6 230/4/6 235/4/6
f 228/4/6 229/4/6 235/4/6
f 227/4/6 228/4/6 235/4/6
f 226/4/6 227/4/6 235/4/6
f 225/4/6 226/4/6 235/4/6
f 224/4/6 225/4/6 235/4/6
f 223/4/6 224/4/6 235/4/6
f 222/4/6 223/4/6 235/4/6
f 221/4/6 222/4/6 235/4/6
f 220/4/6 221/4/6 235/4/6
f 219/4/6 220/4/6 235/4/6
f 183/4/6 219/4/6 235/4/6
f 235/4/6 234/4/6 236/4/6
f 236/4/6 234/4/6 237/4/6
f 234/4/6 190/4/6 238/4/6
f 237/4/6 234/4/6 238/4/6
f 183/4/6 235/4/6 240/4/6
f 238/4/6 190/4/6 241/4/6
f 239/4/6 240/4/6 243/4/6
f 243/4/6 240/4/6 244/4/6
f 244/4/6 240/4/6 245/4/6
f 245/4/6 240/4/6 246/4/6
f 246/4/6 240/4/6 247/4/6
f 235/1/6 236/1/6 248/1/6
f 247/4/6 240/4/6 248/4/6
f 240/4/6 235/4/6 248/4/6
f 241/4/6 242/4/6 249/4/6
f 237/1/6 238/1/6 249/1/6
f 238/4/6 241/4/6 249/4/6
f 249/4/6 242/4/6 250/4/6
f 250/4/6 242/4/6 251/4/6
f 251/4/6 242/4/6 252/4/6
f 252/4/6 242/4/6 253/4/6
f 253/4/6 242/4/6 254/4/6
f 243/1/6 244/1/6 255/1/6
f 244/4/6 245/4/6 256/4/6
f 255/1/6 244/1/6 256/1/6
f 246/4/6 247/4/6 257/4/6
f 247/1/6 248/1/6 257/1/6
f 236/4/6 237/4/6 258/4/6
f 257/1/6 248/1/6 258/1/6
f 248/1/6 236/1/6 258/1/6
f 237/1/6 249/1/6 259/1/6
f 258/4/6 237/4/6 259/4/6
f 249/1/6 250/1/6 259/1/6
f 250/4/6 251/4/6 260/4/6
f 259/1/6 250/1/6 260/1/6
f 253/1/6 254/1/6 261/1/6
f 252/4/6 253/4/6 261/4/6
f 261/1/6 254/1/6 262/1/6
f 256/4/6 245/4/6 263/4/6
f 255/4/6 256/4/6 263/4/6
f 245/5/6 246/5/6 263/5/6
f 246/4/6 257/4/6 264/4/6
f 263/5/6 246/5/6 264/5/6
f 257/4/6 258/4/6 264/4/6
f 259/4/6 260/4/6 264/4/6
f 258/4/6 259/4/6 264/4/6
f 260/4/6 251/4/6 265/4/6
f 264/4/6 260/4/6 265/4/6
f 251/5/6 252/5/6 265/5/6
f 261/4/6 262/4/6 266/4/6
f 265/5/6 252/5/6 266/5/6
f 252/4/6 261/4/6 266/4/6
f 255/4/6 263/4/6 267/4/6
f 263/4/6 264/4/6 267/4/6
f 265/4/6 266/4/6 267/4/6
f 264/4/6 265/4/6 267/4/6
f 267/4/6 266/4/6 268/4/6
f 268/4/6 266/4/6 269/4/6
f 266/4/6 262/4/6 270/4/6
f 269/4/6 266/4/6 270/4/6
f 255/4/6 267/4/6 271/4/6
f 267/5/6 268/5/6 271/5/6
f 268/4/6 269/4/6 272/4/6
f 271/5/6 268/5/6 272/5/6
f 269/5/6 270/5/6 273/5/6
f 272/4/6 269/4/6 273/4/6
f 270/4/6 262/4/6 274/4/6
f 273/5/6 270/5/6 274/5/6
f 255/4/6 271/4/6 275/4/6
f 272/4/6 273/4/6 275/4/6
f 273/4/6 274/4/6 275/4/6
f 271/4/6 272/4/6 275/4/6
f 275/4/6 274/4/6 276/4/6
f 276/4/6 274/4/6 277/4/6
f 274/4/6 262/4/6 278/4/6
f 277/4/6 274/4/6 278/4/6
f 255/4/6 275/4/6 279/4/6
f 275/5/6 276/5/6 279/5/6
f 276/4/6 277/4/6 280/4/6
f 279/5/6 276/5/6 280/5/6
f 277/5/6 278/5/6 281/5/6
f 280/4/6 277/4/6 281/4/6
f 278/4/6 262/4/6 282/4/6
f 281/5/6 278/5/6 282/5/6
f 255/4/6 279/4/6 283/4/6
f 280/4/6 281/4/6 283/4/6
f 281/4/6 282/4/6 283/4/6
f 279/4/6 280/4/6 283/4/6
f 283/4/6 282/4/6 284/4/6
f 284/4/6 282/4/6 285/4/6
f 282/4/6 262/4/6 286/4/6
f 285/4/6 282/4/6 286/4/6
f 255/4/6 283/4/6 287/4/6
f 287/4/6 283/4/6 288/4/6
f 283/5/6 284/5/6 289/5/6
f 288/4/6 283/4/6 289/4/6
f 284/4/6 285/4/6 290/4/6
f 289/5/6 284/5/6 290/5/6
f 285/5/6 286/5/6 291/5/6
f 290/4/6 285/4/6 291/4/6
f 286/4/6 262/4/6 292/4/6
f 291/5/6 286/5/6 292/5/6
f 292/4/6 262/4/6 293/4/6
f 293/4/6 262/4/6 294/4/6
f 287/5/6 288/5/6 295/5/6
f 288/4/6 289/4/6 296/4/6
f 295/5/6 288/5/6 296/5/6
f 290/4/6 291/4/6 296/4/6
f 289/4/6 290/4/6 296/4/6
f 292/4/6 293/4/6 296/4/6
f 291/4/6 292/4/6 296/4/6
f 296/4/6 293/4/6 297/4/6
f 297/4/6 293/4/6 298/4/6
f 298/4/6 293/4/6 299/4/6
f 299/4/6 293/4/6 300/4/6
f 293/5/6 294/5/6 301/5/6
f 300/4/6 293/4/6 301/4/6
f 301/5/6 294/5/6 302/5/6
f 295/4/6 296/4/6 303/4/6
f 296/4/6 297/4/6 303/4/6
f 297/5/6 298/5/6 303/5/6
f 298/4/6 299/4/6 304/4/6
f 303/5/6 298/5/6 304/5/6
f 299/5/6 300/5/6 305/5/6
f 304/4/6 299/4/6 305/4/6
f 301/4/6 302/4/6 306/4/6
f 305/5/6 300/5/6 306/5/6
f 300/4/6 301/4/6 306/4/6
f 303/4/6 304/4/6 307/4/6
f 304/4/6 305/4/6 307/4/6
f 305/4/6 306/4/6 307/4/6
f 295/4/6 303/4/6 307/4/6
f 307/4/6 306/4/6 308/4/6
f 308/4/6 306/4/6 309/4/6
f 306/4/6 302/4/6 310/4/6
f 309/4/6 306/4/6 310/4/6
f 295/4/6 307/4/6 311/4/6
f 307/5/6 308/5/6 311/5/6
f 308/4/6 309/4/6 312/4/6
f 311/5/6 308/5/6 312/5/6
f 309/5/6 310/5/6 313/5/6
f 312/4/6 309/4/6 313/4/6
f 310/4/6 302/4/6 314/4/6
f 313/5/6 310/5/6 314/5/6
f 295/4/6 311/4/6 315/4/6
f 312/4/6 313/4/6 315/4/6
f 313/4/6 314/4/6 315/4/6
f 311/4/6 312/4/6 315/4/6
f 315/4/6 314/4/6 316/4/6
f 316/4/6 314/4/6 317/4/6
f 314/4/6 302/4/6 318/4/6
f 317/4/6 314/4/6 318/4/6
f 295/4/6 315/4/6 319/4/6
f 315/5/6 316/5/6 319/5/6
f 316/4/6 317/4/6 320/4/6
f 319/5/6 316/5/6 320/5/6
f 317/5/6 318/5/6 321/5/6
f 320/4/6 317/4/6 321/4/6
f 318/4/6 302/4/6 322/4/6
f 321/5/6 318/5/6 322/5/6
f 295/4/6 319/4/6 323/4/6
f 320/4/6 321/4/6 323/4/6
f 321/4/6 322/4/6 323/4/6
f 319/4/6 320/4/6 323/4/6
f 323/4/6 322/4/6 324/4/6
f 324/4/6 322/4/6 325/4/6
f 322/4/6 302/4/6 326/4/6
f 325/4/6 322/4/6 326/4/6
f 295/4/6 323/4/6 327/4/6
f 327/4/6 323/4/6 328/4/6
f 324/4/6 325/4/6 329/4/6
f 329/4/6 325/4/6 330/4/6
f 330/4/6 325/4/6 331/4/6
f 331/4/6 325/4/6 332/4/6
f 326/4/6 302/4/6 333/4/6
f 333/4/6 302/4/6 334/4/6
f 327/1/6 328/1/6 335/1/6
f 328/4/6 323/4/6 336/4/6
f 335/1/6 328/1/6 336/1/6
f 323/5/6 324/5/6 337/5/6
f 336/4/6 323/4/6 337/4/6
f 324/4/6 329/4/6 338/4/6
f 337/5/6 324/5/6 338/5/6
f 329/1/6 330/1/6 339/1/6
f 338/4/6 329/4/6 339/4/6
f 339/1/6 330/1/6 340/1/6
f 331/1/6 332/1/6 341/1/6
f 332/4/6 325/4/6 342/4/6
f 341/1/6 332/1/6 342/1/6
f 325/5/6 326/5/6 343/5/6
f 342/4/6 325/4/6 343/4/6
f 326/4/6 333/4/6 344/4/6
f 343/5/6 326/5/6 344/5/6
f 333/1/6 334/1/6 345/1/6
f 344/4/6 333/4/6 345/4/6
f 345/1/6 334/1/6 346/1/6
f 335/4/6 336/4/6 347/4/6
f 336/4/6 337/4/6 347/4/6
f 337/4/6 338/4/6 347/4/6
f 338/4/6 339/4/6 347/4/6
f 339/4/6 340/4/6 347/4/6
f 347/4/6 340/4/6 348/4/6
f 341/4/6 342/4/6 349/4/6
f 345/4/6 346/4/6 349/4/6
f 344/4/6 345/4/6 349/4/6
f 342/4/6 343/4/6 349/4/6
f 343/4/6 344/4/6 349/4/6
f 349/4/6 346/4/6 350/4/6
f 348/4/6 340/4/6 351/4/6
f 340/1/6 330/1/6 351/1/6
f 330/4/6 331/4/6 352/4/6
f 351/1/6 330/1/6 352/1/6
f 331/1/6 341/1/6 353/1/6
f 352/4/6 331/4/6 353/4/6
f 341/4/6 349/4/6 354/4/6
f 353/1/6 341/1/6 354/1/6
f 351/4/6 352/4/6 355/4/6
f 352/4/6 353/4/6 355/4/6
f 353/4/6 354/4/6 355/4/6
f 348/4/6 351/4/6 355/4/6
f 355/4/6 354/4/6 356/4/6
f 356/4/6 354/4/6 357/4/6
f 357/4/6 354/4/6 358/4/6
f 358/4/6 354/4/6 359/4/6
f 359/4/6 354/4/6 360/4/6
f 360/4/6 354/4/6 361/4/6
f 361/4/6 354/4/6 362/4/6
f 362/4/6 354/4/6 363/4/6
f 363/4/6 354/4/6 364/4/6
f 364/4/6 354/4/6 365/4/6
f 365/4/6 354/4/6 366/4/6
f 366/4/6 354/4/6 367/4/6
f 367/4/6 354/4/6 368/4/6
f 368/4/6 354/4/6 369/4/6
f 354/4/6 349/4/6 370/4/6
f 369/4/6 354/4/6 370/4/6
f 348/4/6 355/4/6 375/4/6
f 355/5/6 356/5/6 375/5/6
f 356/4/6 357/4/6 376/4/6
f 375/5/6 356/5/6 376/5/6
f 357/5/6 358/5/6 377/5/6
f 376/4/6 357/4/6 377/4/6
f 358/4/6 359/4/6 378/4/6
f 377/5/6 358/5/6 378/5/6
f 359/5/6 360/5/6 379/5/6
f 378/4/6 359/4/6 379/4/6
f 360/4/6 361/4/6 380/4/6
f 379/5/6 360/5/6 380/5/6
f 361/5/6 362/5/6 381/5/6
f 380/4/6 361/4/6 381/4/6
f 362/4/6 363/4/6 382/4/6
f 381/5/6 362/5/6 382/5/6
f 363/5/6 364/5/6 383/5/6
f 382/4/6 363/4/6 383/4/6
f 364/4/6 365/4/6 384/4/6
f 383/5/6 364/5/6 384/5/6
f 365/5/6 366/5/6 385/5/6
f 384/4/6 365/4/6 385/4/6
f 366/4/6 367/4/6 386/4/6
f 385/5/6 366/5/6 386/5/6
f 367/5/6 368/5/6 387/5/6
f 386/4/6 367/4/6 387/4/6
f 368/4/6 369/4/6 388/4/6
f 387/5/6 368/5/6 388/5/6
f 369/5/6 370/5/6 389/5/6
f 388/4/6 369/4/6 389/4/6
f 370/4/6 349/4/6 390/4/6
f 389/5/6 370/5/6 390/5/6
f 386/4/6 387/4/6 391/4/6
f 348/4/6 375/4/6 391/4/6
f 389/4/6 390/4/6 391/4/6
f 388/4/6 389/4/6 391/4/6
f 387/4/6 388/4/6 391/4/6
f 385/4/6 386/4/6 391/4/6
f 384/4/6 385/4/6 391/4/6
f 383/4/6 384/4/6 391/4/6
f 382/4/6 383/4/6 391/4/6
f 381/4/6 382/4/6 391/4/6
f 380/4/6 381/4/6 391/4/6
f 379/4/6 380/4/6 391/4/6
f 378/4/6 379/4/6 391/4/6
f 377/4/6 378/4/6 391/4/6
f 376/4/6 377/4/6 391/4/6
f 375/4/6 376/4/6 391/4/6
f 391/4/6 390/4/6 392/4/6
f 392/4/6 390/4/6 393/4/6
f 390/4/6 349/4/6 394/4/6
f 393/4/6 390/4/6 394/4/6
f 392/4/6 393/4/6 395/4/6
f 395/4/6 393/4/6 396/4/6
f 371/3/6 372/3/6 397/3/6
f 397/3/6 372/3/6 398/3/6
f 348/4/6 391/4/6 399/4/6
f 391/1/6 392/1/6 400/1/6
f 399/4/6 391/4/6 400/4/6
f 392/4/6 395/4/6 401/4/6
f 400/1/6 392/1/6 401/1/6
f 395/5/6 396/5/6 402/5/6
f 401/4/6 395/4/6 402/4/6
f 396/4/6 393/4/6 403/4/6
f 402/5/6 396/5/6 403/5/6
f 393/1/6 394/1/6 404/1/6
f 403/4/6 393/4/6 404/4/6
f 394/4/6 349/4/6 405/4/6
f 404/1/6 394/1/6 405/1/6
f 405/4/6 349/4/6 406/4/6
f 373/3/6 374/3/6 407/3/6
f 407/3/6 374/3/6 408/3/6
f 409/6/6 410/6/6 414/6/6
f 411/6/6 412/6/6 415/6/6
f 413/6/6 414/6/6 417/6/6
f 414/6/6 410/6/6 418/6/6
f 417/6/6 414/6/6 418/6/6
f 415/6/6 416/6/6 419/6/6
f 411/6/6 415/6/6 419/6/6
f 419/6/6 416/6/6 420/6/6
f 421/6/6 422/6/6 425/6/6
f 425/6/6 422/6/6 426/6/6
f 423/6/6 424/6/6 427/6/6
f 427/6/6 424/6/6 428/6/6
f 426/6/6 422/6/6 429/6/6
f 429/6/6 422/6/6 430/6/6
f 423/6/6 427/6/6 431/6/6
f 431/6/6 427/6/6 432/6/6
