# MagicaVoxel @ Ephtracy

# group
o 

# material
mtllib Car.mtl
usemtl palette

# normals
vn -1 0 0
vn 1 0 0
vn 0 0 1
vn 0 0 -1
vn 0 -1 0
vn 0 1 0

# texcoords
vt 0.146484 0.5
vt 0.373047 0.5
vt 0.779297 0.5
vt 0.982422 0.5
vt 0.986328 0.5

# verts
v 4.7 2 -6.4
v 4.7 2 -7.8
v 4.7 2.2 -6.7
v 4.7 2.2 -7.5
v 4.7 2.3 -6.4
v 4.7 2.3 -6.5
v 4.7 2.3 -6.7
v 4.7 2.3 -7.5
v 4.7 2.3 -7.7
v 4.7 2.3 -7.8
v 4.7 2.5 -6.4
v 4.7 2.5 -6.5
v 4.7 2.5 -7.7
v 4.7 2.5 -7.8
v 4.8 2 -6.3
v 4.8 2 -6.4
v 4.8 2 -7.8
v 4.8 2 -7.9
v 4.8 2.3 -6.3
v 4.8 2.3 -6.4
v 4.8 2.3 -7.8
v 4.8 2.3 -7.9
v 4.8 2.5 -6.3
v 4.8 2.5 -6.4
v 4.8 2.5 -7.8
v 4.8 2.5 -7.9
v 5.6 2.1 -6.3
v 5.6 2.1 -6.4
v 5.6 2.1 -7.8
v 5.6 2.1 -7.9
v 5.6 2.2 -6.3
v 5.6 2.2 -6.4
v 5.6 2.2 -7.8
v 5.6 2.2 -7.9
v 5.6 2.5 -6.3
v 5.6 2.5 -6.4
v 5.6 2.5 -7.8
v 5.6 2.5 -7.9
v 5.6 3 -6.4
v 5.6 3 -7.8
v 5.6 3.1 -6.3
v 5.6 3.1 -7.9
v 5.7 2 -6.3
v 5.7 2 -6.4
v 5.7 2 -7.8
v 5.7 2 -7.9
v 5.7 2.1 -6.3
v 5.7 2.1 -6.4
v 5.7 2.1 -7.8
v 5.7 2.1 -7.9
v 5.7 3.1 -6.3
v 5.7 3.1 -7.9
v 5.7 3.2 -6.3
v 5.7 3.2 -7.9
v 8.2 2.1 -6.3
v 8.2 2.1 -6.4
v 8.2 2.1 -7.8
v 8.2 2.1 -7.9
v 8.2 2.2 -6.3
v 8.2 2.2 -6.4
v 8.2 2.2 -7.8
v 8.2 2.2 -7.9
v 8.3 2 -6.3
v 8.3 2 -6.4
v 8.3 2 -7.8
v 8.3 2 -7.9
v 8.3 2.1 -6.3
v 8.3 2.1 -6.4
v 8.3 2.1 -7.8
v 8.3 2.1 -7.9
v 5.2 2 -6.3
v 5.2 2 -6.4
v 5.2 2 -7.8
v 5.2 2 -7.9
v 5.2 2.1 -6.3
v 5.2 2.1 -6.4
v 5.2 2.1 -7.8
v 5.2 2.1 -7.9
v 5.3 2.1 -6.3
v 5.3 2.1 -6.4
v 5.3 2.1 -7.8
v 5.3 2.1 -7.9
v 5.3 2.2 -6.3
v 5.3 2.2 -6.4
v 5.3 2.2 -7.8
v 5.3 2.2 -7.9
v 7.8 2 -6.3
v 7.8 2 -6.4
v 7.8 2 -7.8
v 7.8 2 -7.9
v 7.8 2.1 -6.3
v 7.8 2.1 -6.4
v 7.8 2.1 -7.8
v 7.8 2.1 -7.9
v 7.9 2.1 -6.3
v 7.9 2.1 -6.4
v 7.9 2.1 -7.8
v 7.9 2.1 -7.9
v 7.9 2.2 -6.3
v 7.9 2.2 -6.4
v 7.9 2.2 -7.8
v 7.9 2.2 -7.9
v 8.3 2.5 -6.3
v 8.3 2.5 -6.4
v 8.3 2.5 -7.8
v 8.3 2.5 -7.9
v 8.3 3 -6.4
v 8.3 3 -7.8
v 8.3 3.2 -6.3
v 8.3 3.2 -7.9
v 8.6 2 -6.3
v 8.6 2 -7.9
v 8.6 2.3 -6.3
v 8.6 2.3 -6.5
v 8.6 2.3 -7.7
v 8.6 2.3 -7.9
v 8.6 2.5 -6.3
v 8.6 2.5 -6.5
v 8.6 2.5 -7.7
v 8.6 2.5 -7.9
v 4.8 2 -6.3
v 4.8 2.3 -6.3
v 4.8 2.5 -6.3
v 4.9 2.3 -6.3
v 4.9 2.5 -6.3
v 5.2 2 -6.3
v 5.2 2.1 -6.3
v 5.3 2.1 -6.3
v 5.3 2.2 -6.3
v 5.6 2.1 -6.3
v 5.6 2.2 -6.3
v 5.6 2.5 -6.3
v 5.6 3.1 -6.3
v 5.7 2 -6.3
v 5.7 2.1 -6.3
v 5.7 2.5 -6.3
v 5.7 3 -6.3
v 5.7 3.1 -6.3
v 5.7 3.2 -6.3
v 6.9 2.5 -6.3
v 6.9 3 -6.3
v 7 2.5 -6.3
v 7 3 -6.3
v 7.8 2 -6.3
v 7.8 2.1 -6.3
v 7.9 2.1 -6.3
v 7.9 2.2 -6.3
v 8.2 2.1 -6.3
v 8.2 2.2 -6.3
v 8.2 2.5 -6.3
v 8.2 3 -6.3
v 8.3 2 -6.3
v 8.3 2.1 -6.3
v 8.3 2.5 -6.3
v 8.3 3.2 -6.3
v 8.5 2.3 -6.3
v 8.5 2.5 -6.3
v 8.6 2 -6.3
v 8.6 2.3 -6.3
v 8.6 2.5 -6.3
v 4.7 2 -6.4
v 4.7 2.3 -6.4
v 4.7 2.5 -6.4
v 4.8 2 -6.4
v 4.8 2.3 -6.4
v 4.8 2.5 -6.4
v 5.2 2 -6.4
v 5.2 2.1 -6.4
v 5.3 2.1 -6.4
v 5.3 2.2 -6.4
v 5.6 2.1 -6.4
v 5.6 2.2 -6.4
v 5.7 2 -6.4
v 5.7 2.1 -6.4
v 7.8 2 -6.4
v 7.8 2.1 -6.4
v 7.9 2.1 -6.4
v 7.9 2.2 -6.4
v 8.2 2.1 -6.4
v 8.2 2.2 -6.4
v 8.3 2 -6.4
v 8.3 2.1 -6.4
v 4.7 2 -7.8
v 4.7 2.3 -7.8
v 4.7 2.5 -7.8
v 4.8 2 -7.8
v 4.8 2.3 -7.8
v 4.8 2.5 -7.8
v 5.2 2 -7.8
v 5.2 2.1 -7.8
v 5.3 2.1 -7.8
v 5.3 2.2 -7.8
v 5.6 2.1 -7.8
v 5.6 2.2 -7.8
v 5.7 2 -7.8
v 5.7 2.1 -7.8
v 7.8 2 -7.8
v 7.8 2.1 -7.8
v 7.9 2.1 -7.8
v 7.9 2.2 -7.8
v 8.2 2.1 -7.8
v 8.2 2.2 -7.8
v 8.3 2 -7.8
v 8.3 2.1 -7.8
v 4.8 2 -7.9
v 4.8 2.3 -7.9
v 4.8 2.5 -7.9
v 4.9 2.3 -7.9
v 4.9 2.5 -7.9
v 5.2 2 -7.9
v 5.2 2.1 -7.9
v 5.3 2.1 -7.9
v 5.3 2.2 -7.9
v 5.6 2.1 -7.9
v 5.6 2.2 -7.9
v 5.6 2.5 -7.9
v 5.6 3.1 -7.9
v 5.7 2 -7.9
v 5.7 2.1 -7.9
v 5.7 2.5 -7.9
v 5.7 3 -7.9
v 5.7 3.1 -7.9
v 5.7 3.2 -7.9
v 6.9 2.5 -7.9
v 6.9 3 -7.9
v 7 2.5 -7.9
v 7 3 -7.9
v 7.8 2 -7.9
v 7.8 2.1 -7.9
v 7.9 2.1 -7.9
v 7.9 2.2 -7.9
v 8.2 2.1 -7.9
v 8.2 2.2 -7.9
v 8.2 2.5 -7.9
v 8.2 3 -7.9
v 8.3 2 -7.9
v 8.3 2.1 -7.9
v 8.3 2.5 -7.9
v 8.3 3.2 -7.9
v 8.5 2.3 -7.9
v 8.5 2.5 -7.9
v 8.6 2 -7.9
v 8.6 2.3 -7.9
v 8.6 2.5 -7.9
v 4.8 2 -6.3
v 5.2 2 -6.3
v 5.7 2 -6.3
v 7.8 2 -6.3
v 8.3 2 -6.3
v 8.6 2 -6.3
v 4.7 2 -6.4
v 4.8 2 -6.4
v 5.2 2 -6.4
v 5.7 2 -6.4
v 7.8 2 -6.4
v 8.3 2 -6.4
v 4.7 2 -7.8
v 4.8 2 -7.8
v 5.2 2 -7.8
v 5.7 2 -7.8
v 7.8 2 -7.8
v 8.3 2 -7.8
v 4.8 2 -7.9
v 5.2 2 -7.9
v 5.7 2 -7.9
v 7.8 2 -7.9
v 8.3 2 -7.9
v 8.6 2 -7.9
v 5.2 2.1 -6.3
v 5.3 2.1 -6.3
v 5.6 2.1 -6.3
v 5.7 2.1 -6.3
v 7.8 2.1 -6.3
v 7.9 2.1 -6.3
v 8.2 2.1 -6.3
v 8.3 2.1 -6.3
v 5.2 2.1 -6.4
v 5.3 2.1 -6.4
v 5.6 2.1 -6.4
v 5.7 2.1 -6.4
v 7.8 2.1 -6.4
v 7.9 2.1 -6.4
v 8.2 2.1 -6.4
v 8.3 2.1 -6.4
v 5.2 2.1 -7.8
v 5.3 2.1 -7.8
v 5.6 2.1 -7.8
v 5.7 2.1 -7.8
v 7.8 2.1 -7.8
v 7.9 2.1 -7.8
v 8.2 2.1 -7.8
v 8.3 2.1 -7.8
v 5.2 2.1 -7.9
v 5.3 2.1 -7.9
v 5.6 2.1 -7.9
v 5.7 2.1 -7.9
v 7.8 2.1 -7.9
v 7.9 2.1 -7.9
v 8.2 2.1 -7.9
v 8.3 2.1 -7.9
v 5.3 2.2 -6.3
v 5.6 2.2 -6.3
v 7.9 2.2 -6.3
v 8.2 2.2 -6.3
v 5.3 2.2 -6.4
v 5.6 2.2 -6.4
v 7.9 2.2 -6.4
v 8.2 2.2 -6.4
v 5.3 2.2 -7.8
v 5.6 2.2 -7.8
v 7.9 2.2 -7.8
v 8.2 2.2 -7.8
v 5.3 2.2 -7.9
v 5.6 2.2 -7.9
v 7.9 2.2 -7.9
v 8.2 2.2 -7.9
v 4.8 2.5 -6.3
v 4.9 2.5 -6.3
v 5.6 2.5 -6.3
v 8.3 2.5 -6.3
v 8.5 2.5 -6.3
v 8.6 2.5 -6.3
v 4.7 2.5 -6.4
v 4.8 2.5 -6.4
v 4.9 2.5 -6.4
v 5.6 2.5 -6.4
v 8.3 2.5 -6.4
v 4.7 2.5 -6.5
v 4.8 2.5 -6.5
v 8.5 2.5 -6.5
v 8.6 2.5 -6.5
v 4.7 2.5 -7.7
v 4.8 2.5 -7.7
v 8.5 2.5 -7.7
v 8.6 2.5 -7.7
v 4.7 2.5 -7.8
v 4.8 2.5 -7.8
v 4.9 2.5 -7.8
v 5.6 2.5 -7.8
v 8.3 2.5 -7.8
v 4.8 2.5 -7.9
v 4.9 2.5 -7.9
v 5.6 2.5 -7.9
v 8.3 2.5 -7.9
v 8.5 2.5 -7.9
v 8.6 2.5 -7.9
v 5.6 3.1 -6.3
v 5.7 3.1 -6.3
v 5.6 3.1 -7.9
v 5.7 3.1 -7.9
v 5.7 3.2 -6.3
v 8.3 3.2 -6.3
v 5.7 3.2 -7.9
v 8.3 3.2 -7.9

# faces
f 3/3/1 2/3/1 1/3/1
f 4/3/1 2/3/1 3/3/1
f 5/3/1 3/3/1 1/3/1
f 6/3/1 3/3/1 5/3/1
f 7/5/1 4/5/1 3/5/1
f 7/3/1 3/3/1 6/3/1
f 8/3/1 2/3/1 4/3/1
f 8/5/1 4/5/1 7/5/1
f 9/3/1 2/3/1 8/3/1
f 10/3/1 2/3/1 9/3/1
f 11/2/1 6/2/1 5/2/1
f 12/5/1 7/5/1 6/5/1
f 12/2/1 6/2/1 11/2/1
f 12/5/1 8/5/1 7/5/1
f 12/5/1 9/5/1 8/5/1
f 13/2/1 10/2/1 9/2/1
f 13/5/1 9/5/1 12/5/1
f 14/2/1 10/2/1 13/2/1
f 19/3/1 16/3/1 15/3/1
f 20/3/1 16/3/1 19/3/1
f 21/3/1 18/3/1 17/3/1
f 22/3/1 18/3/1 21/3/1
f 23/2/1 20/2/1 19/2/1
f 24/2/1 20/2/1 23/2/1
f 25/2/1 22/2/1 21/2/1
f 26/2/1 22/2/1 25/2/1
f 31/3/1 28/3/1 27/3/1
f 32/3/1 28/3/1 31/3/1
f 33/3/1 30/3/1 29/3/1
f 34/3/1 30/3/1 33/3/1
f 39/3/1 36/3/1 35/3/1
f 39/4/1 37/4/1 36/4/1
f 40/3/1 38/3/1 37/3/1
f 40/4/1 37/4/1 39/4/1
f 41/3/1 39/3/1 35/3/1
f 41/3/1 40/3/1 39/3/1
f 42/3/1 38/3/1 40/3/1
f 42/3/1 40/3/1 41/3/1
f 47/3/1 44/3/1 43/3/1
f 48/3/1 44/3/1 47/3/1
f 49/3/1 46/3/1 45/3/1
f 50/3/1 46/3/1 49/3/1
f 53/3/1 52/3/1 51/3/1
f 54/3/1 52/3/1 53/3/1
f 59/3/1 56/3/1 55/3/1
f 60/3/1 56/3/1 59/3/1
f 61/3/1 58/3/1 57/3/1
f 62/3/1 58/3/1 61/3/1
f 67/3/1 64/3/1 63/3/1
f 68/3/1 64/3/1 67/3/1
f 69/3/1 66/3/1 65/3/1
f 70/3/1 66/3/1 69/3/1
f 71/3/2 72/3/2 75/3/2
f 75/3/2 72/3/2 76/3/2
f 73/3/2 74/3/2 77/3/2
f 77/3/2 74/3/2 78/3/2
f 79/3/2 80/3/2 83/3/2
f 83/3/2 80/3/2 84/3/2
f 81/3/2 82/3/2 85/3/2
f 85/3/2 82/3/2 86/3/2
f 87/3/2 88/3/2 91/3/2
f 91/3/2 88/3/2 92/3/2
f 89/3/2 90/3/2 93/3/2
f 93/3/2 90/3/2 94/3/2
f 95/3/2 96/3/2 99/3/2
f 99/3/2 96/3/2 100/3/2
f 97/3/2 98/3/2 101/3/2
f 101/3/2 98/3/2 102/3/2
f 103/3/2 104/3/2 107/3/2
f 104/4/2 105/4/2 107/4/2
f 105/3/2 106/3/2 108/3/2
f 107/4/2 105/4/2 108/4/2
f 103/3/2 107/3/2 109/3/2
f 107/3/2 108/3/2 109/3/2
f 108/3/2 106/3/2 110/3/2
f 109/3/2 108/3/2 110/3/2
f 111/3/2 112/3/2 113/3/2
f 113/3/2 112/3/2 114/3/2
f 114/3/2 112/3/2 115/3/2
f 115/3/2 112/3/2 116/3/2
f 113/1/2 114/1/2 117/1/2
f 114/5/2 115/5/2 118/5/2
f 117/1/2 114/1/2 118/1/2
f 115/1/2 116/1/2 119/1/2
f 118/5/2 115/5/2 119/5/2
f 119/1/2 116/1/2 120/1/2
f 124/3/3 122/3/3 121/3/3
f 124/2/3 123/2/3 122/2/3
f 125/2/3 123/2/3 124/2/3
f 126/3/3 124/3/3 121/3/3
f 126/3/3 125/3/3 124/3/3
f 127/3/3 125/3/3 126/3/3
f 128/3/3 125/3/3 127/3/3
f 129/3/3 125/3/3 128/3/3
f 131/3/3 125/3/3 129/3/3
f 132/3/3 125/3/3 131/3/3
f 135/3/3 132/3/3 131/3/3
f 135/3/3 133/3/3 132/3/3
f 135/3/3 131/3/3 130/3/3
f 136/3/3 133/3/3 135/3/3
f 137/3/3 133/3/3 136/3/3
f 138/3/3 133/3/3 137/3/3
f 140/3/3 135/3/3 134/3/3
f 140/3/3 136/3/3 135/3/3
f 140/4/3 137/4/3 136/4/3
f 141/3/3 139/3/3 138/3/3
f 141/4/3 137/4/3 140/4/3
f 141/3/3 138/3/3 137/3/3
f 142/3/3 140/3/3 134/3/3
f 142/3/3 141/3/3 140/3/3
f 143/3/3 139/3/3 141/3/3
f 143/3/3 141/3/3 142/3/3
f 144/3/3 142/3/3 134/3/3
f 145/3/3 142/3/3 144/3/3
f 146/3/3 142/3/3 145/3/3
f 147/3/3 142/3/3 146/3/3
f 149/3/3 142/3/3 147/3/3
f 150/4/3 143/4/3 142/4/3
f 150/3/3 142/3/3 149/3/3
f 151/3/3 139/3/3 143/3/3
f 151/4/3 143/4/3 150/4/3
f 153/3/3 150/3/3 149/3/3
f 153/3/3 149/3/3 148/3/3
f 153/3/3 151/3/3 150/3/3
f 154/3/3 151/3/3 153/3/3
f 155/3/3 139/3/3 151/3/3
f 155/3/3 151/3/3 154/3/3
f 156/3/3 154/3/3 153/3/3
f 156/3/3 153/3/3 152/3/3
f 157/3/3 154/3/3 156/3/3
f 158/3/3 156/3/3 152/3/3
f 159/1/3 157/1/3 156/1/3
f 159/3/3 156/3/3 158/3/3
f 160/1/3 157/1/3 159/1/3
f 164/3/3 162/3/3 161/3/3
f 165/2/3 163/2/3 162/2/3
f 165/3/3 162/3/3 164/3/3
f 166/2/3 163/2/3 165/2/3
f 169/3/3 168/3/3 167/3/3
f 171/3/3 169/3/3 167/3/3
f 171/3/3 170/3/3 169/3/3
f 172/3/3 170/3/3 171/3/3
f 173/3/3 171/3/3 167/3/3
f 174/3/3 171/3/3 173/3/3
f 177/3/3 176/3/3 175/3/3
f 179/3/3 177/3/3 175/3/3
f 179/3/3 178/3/3 177/3/3
f 180/3/3 178/3/3 179/3/3
f 181/3/3 179/3/3 175/3/3
f 182/3/3 179/3/3 181/3/3
f 183/3/4 184/3/4 186/3/4
f 184/2/4 185/2/4 187/2/4
f 186/3/4 184/3/4 187/3/4
f 187/2/4 185/2/4 188/2/4
f 189/3/4 190/3/4 191/3/4
f 189/3/4 191/3/4 193/3/4
f 191/3/4 192/3/4 193/3/4
f 193/3/4 192/3/4 194/3/4
f 189/3/4 193/3/4 195/3/4
f 195/3/4 193/3/4 196/3/4
f 197/3/4 198/3/4 199/3/4
f 197/3/4 199/3/4 201/3/4
f 199/3/4 200/3/4 201/3/4
f 201/3/4 200/3/4 202/3/4
f 197/3/4 201/3/4 203/3/4
f 203/3/4 201/3/4 204/3/4
f 205/3/4 206/3/4 208/3/4
f 206/2/4 207/2/4 208/2/4
f 208/2/4 207/2/4 209/2/4
f 205/3/4 208/3/4 210/3/4
f 208/3/4 209/3/4 210/3/4
f 210/3/4 209/3/4 211/3/4
f 211/3/4 209/3/4 212/3/4
f 212/3/4 209/3/4 213/3/4
f 213/3/4 209/3/4 215/3/4
f 215/3/4 209/3/4 216/3/4
f 215/3/4 216/3/4 219/3/4
f 216/3/4 217/3/4 219/3/4
f 214/3/4 215/3/4 219/3/4
f 219/3/4 217/3/4 220/3/4
f 220/3/4 217/3/4 221/3/4
f 221/3/4 217/3/4 222/3/4
f 218/3/4 219/3/4 224/3/4
f 219/3/4 220/3/4 224/3/4
f 220/4/4 221/4/4 224/4/4
f 222/3/4 223/3/4 225/3/4
f 224/4/4 221/4/4 225/4/4
f 221/3/4 222/3/4 225/3/4
f 218/3/4 224/3/4 226/3/4
f 224/3/4 225/3/4 226/3/4
f 225/3/4 223/3/4 227/3/4
f 226/3/4 225/3/4 227/3/4
f 218/3/4 226/3/4 228/3/4
f 228/3/4 226/3/4 229/3/4
f 229/3/4 226/3/4 230/3/4
f 230/3/4 226/3/4 231/3/4
f 231/3/4 226/3/4 233/3/4
f 226/4/4 227/4/4 234/4/4
f 233/3/4 226/3/4 234/3/4
f 227/3/4 223/3/4 235/3/4
f 234/4/4 227/4/4 235/4/4
f 233/3/4 234/3/4 237/3/4
f 232/3/4 233/3/4 237/3/4
f 234/3/4 235/3/4 237/3/4
f 237/3/4 235/3/4 238/3/4
f 235/3/4 223/3/4 239/3/4
f 238/3/4 235/3/4 239/3/4
f 237/3/4 238/3/4 240/3/4
f 236/3/4 237/3/4 240/3/4
f 240/3/4 238/3/4 241/3/4
f 236/3/4 240/3/4 242/3/4
f 240/1/4 241/1/4 243/1/4
f 242/3/4 240/3/4 243/3/4
f 243/1/4 241/1/4 244/1/4
f 252/3/5 246/3/5 245/3/5
f 253/3/5 246/3/5 252/3/5
f 254/3/5 248/3/5 247/3/5
f 255/3/5 248/3/5 254/3/5
f 256/3/5 250/3/5 249/3/5
f 257/3/5 255/3/5 254/3/5
f 257/3/5 256/3/5 255/3/5
f 257/3/5 253/3/5 252/3/5
f 257/3/5 252/3/5 251/3/5
f 257/3/5 254/3/5 253/3/5
f 258/3/5 256/3/5 257/3/5
f 259/3/5 256/3/5 258/3/5
f 260/3/5 256/3/5 259/3/5
f 261/3/5 256/3/5 260/3/5
f 262/3/5 250/3/5 256/3/5
f 262/3/5 256/3/5 261/3/5
f 263/3/5 259/3/5 258/3/5
f 264/3/5 259/3/5 263/3/5
f 265/3/5 261/3/5 260/3/5
f 266/3/5 261/3/5 265/3/5
f 267/3/5 250/3/5 262/3/5
f 268/3/5 250/3/5 267/3/5
f 277/3/5 270/3/5 269/3/5
f 278/3/5 270/3/5 277/3/5
f 279/3/5 272/3/5 271/3/5
f 280/3/5 272/3/5 279/3/5
f 281/3/5 274/3/5 273/3/5
f 282/3/5 274/3/5 281/3/5
f 283/3/5 276/3/5 275/3/5
f 284/3/5 276/3/5 283/3/5
f 293/3/5 286/3/5 285/3/5
f 294/3/5 286/3/5 293/3/5
f 295/3/5 288/3/5 287/3/5
f 296/3/5 288/3/5 295/3/5
f 297/3/5 290/3/5 289/3/5
f 298/3/5 290/3/5 297/3/5
f 299/3/5 292/3/5 291/3/5
f 300/3/5 292/3/5 299/3/5
f 305/3/5 302/3/5 301/3/5
f 306/3/5 302/3/5 305/3/5
f 307/3/5 304/3/5 303/3/5
f 308/3/5 304/3/5 307/3/5
f 313/3/5 310/3/5 309/3/5
f 314/3/5 310/3/5 313/3/5
f 315/3/5 312/3/5 311/3/5
f 316/3/5 312/3/5 315/3/5
f 317/2/6 318/2/6 324/2/6
f 318/3/6 319/3/6 325/3/6
f 324/2/6 318/2/6 325/2/6
f 325/3/6 319/3/6 326/3/6
f 320/3/6 321/3/6 327/3/6
f 323/2/6 324/2/6 328/2/6
f 325/3/6 326/3/6 329/3/6
f 328/2/6 324/2/6 329/2/6
f 324/3/6 325/3/6 329/3/6
f 321/1/6 322/1/6 330/1/6
f 327/3/6 321/3/6 330/3/6
f 330/1/6 322/1/6 331/1/6
f 328/5/6 329/5/6 332/5/6
f 329/3/6 326/3/6 333/3/6
f 332/5/6 329/5/6 333/5/6
f 327/3/6 330/3/6 334/3/6
f 330/5/6 331/5/6 334/5/6
f 334/5/6 331/5/6 335/5/6
f 332/2/6 333/2/6 336/2/6
f 333/3/6 326/3/6 337/3/6
f 336/2/6 333/2/6 337/2/6
f 337/3/6 326/3/6 338/3/6
f 338/3/6 326/3/6 339/3/6
f 327/3/6 334/3/6 340/3/6
f 337/2/6 338/2/6 341/2/6
f 338/3/6 339/3/6 342/3/6
f 341/2/6 338/2/6 342/2/6
f 342/3/6 339/3/6 343/3/6
f 340/3/6 334/3/6 344/3/6
f 334/1/6 335/1/6 345/1/6
f 344/3/6 334/3/6 345/3/6
f 345/1/6 335/1/6 346/1/6
f 347/3/6 348/3/6 349/3/6
f 349/3/6 348/3/6 350/3/6
f 351/3/6 352/3/6 353/3/6
f 353/3/6 352/3/6 354/3/6
